<?xml version="1.0" encoding="UTF-8"?>
<svg id="Layer_2" data-name="Layer 2" xmlns="http://www.w3.org/2000/svg" viewBox="0 0 1000 1000">

  <defs></defs>
  <g>
    <g>
      <g>
        <path fill="#e8b896" d="m640.62,719.81c-6.3-7.17-14.3-15.15-23.98-16.76-15.22-2.54-68.74-5.75-68.74-5.75,5.35,37.92-8.12,56.01-8.12,56.01l28.61,5.48c-81.94,1.82-220.29-26.13-253.97-42.74-8.77-4.32-16.6-8.19-23.45-12.05-20.27-11.43-32.01-22.88-34.26-46.21-.91-9.3-.29-20.5,1.89-34.34,9.51-60.25,25.21-125.27,53.28-158.09,19.75-23.1,75.61-40.14,106.99-48.22,0,0-33.26,78.2-18.99,88.18,12.21,8.55,33.13-15.98,38.91-23.25.43-.54,1.31-.19,1.24.51-1.12,11.1-3.58,55.41,29.78,44.15,38.05-12.84,98.93-87.54,98.93-87.54,25.34,12.13,88.18,46.24,90.72,87.22,2.64,42.69,1.33,141-18.84,193.4Z"></path>
        <path fill="#3a4a3a" d="m281.44,663.4c-1.1,0-2.16-.61-2.69-1.66-.74-1.48-.14-3.28,1.34-4.02,17.98-8.98,45.72-21.89,54.99-26.18-5.58-8.9-21.32-35.73-20.49-53.57.71-15.22,10.09-27.27,18.37-37.91,3.6-4.62,7-8.99,9.64-13.43,8.31-13.99,1.64-40.75,1.58-41.02-.41-1.61.56-3.24,2.17-3.65,1.61-.41,3.24.56,3.65,2.17.3,1.2,7.33,29.46-2.23,45.56-2.83,4.77-6.34,9.28-10.06,14.06-8.11,10.41-16.49,21.18-17.11,34.5-.9,19.23,21.16,52.57,21.38,52.9l1.95,2.92-3.19,1.47c-.36.17-36.29,16.73-57.95,27.55-.43.21-.89.32-1.34.32Z"></path>
        <path fill="#3a4a3a" d="m535.4,761.16c-.88,0-1.75-.38-2.34-1.12-1.04-1.29-.84-3.18.45-4.22,14-11.28,13.79-51.37,10.99-59.75-1.81-5.44-4.41-6.05-27.51-9.96-3.92-.66-8.37-1.42-13.46-2.31-35-6.15-159.7-46.43-165-48.15-1.58-.51-2.44-2.2-1.93-3.78.51-1.58,2.2-2.44,3.78-1.93,1.29.42,129.59,41.87,164.19,47.95,5.07.89,9.51,1.64,13.42,2.3,23.58,3.99,29.18,4.94,32.2,13.97,3.04,9.12,4.32,52.43-12.92,66.32-.55.45-1.22.66-1.88.66Z"></path>
        <path fill="#3a4a3a" d="m628.96,803.95c-.54,0-1.1-.06-1.67-.2-3.01-.69-5.51-2.55-7.39-4.45-.64,1.13-1.51,2.16-2.69,2.83-1.33.76-3.52,1.36-6.44-.1-6.03-3.02-18.01-27.05-22.49-36.38l-53.76-10.29,2.86-3.84c.12-.16,12.65-17.77,7.56-53.8l-.51-3.63,3.66.22c2.19.13,53.86,3.25,69.06,5.79,10.49,1.74,18.9,9.94,25.74,17.74,1.08,1.24,2.11,2.44,3.09,3.6,2.25,2.64,4.19,4.92,5.78,6.36,4.94,4.48,9.49,11.09,8.51,15.75-.38,1.79-1.55,3.13-3.23,3.69h0c-1.98.66-5.64.24-10.91-1.25,4.94,13.03,5.08,14.86,5.13,15.51.12,1.53.43,9.69.3,17.49-.27,15.87-2,18.01-4.07,19.04-3.08,1.55-6.67.05-9.23-1.59-1.75,3.29-4.85,7.52-9.29,7.52Zm-12.57-21.31l4.89,8.69c.89,1.56,3.94,5.79,7.36,6.58,1.76.42,4.44-3.89,5.58-7.15l1.51-4.32,3.36,3.1c1.85,1.7,4.19,2.97,5.28,3.13,1.55-4.5,1.35-24.92.9-30.73-.13-1.09-2-6.81-6.85-19.27l-.17-.43-2.16-5.92,5.96,2.05c5.63,1.97,10.24,3.05,12.27,3.18-.39-1.7-2.26-5.4-6.6-9.33-1.88-1.7-3.93-4.12-6.32-6.91-.96-1.13-1.97-2.32-3.04-3.53-6.14-6.99-13.58-14.34-22.21-15.77-12.61-2.1-52.55-4.72-64.82-5.49,3.08,26.94-3.17,43.58-6.81,50.65l47.85,9.16.65,1.37c7.39,15.57,17.29,33.36,20.41,34.97.56.28.79.25.79.25.5-.26,1.29-2.35,1.43-4.33l.72-9.95Zm27.74,10.56h0Zm11.04-51.68h0s0,0,0,0h0Z"></path>
        <path fill="#3a4a3a" d="m619.63,797.31c-1.25,0-2.42-.79-2.84-2.05l-12.82-38.3c-.53-1.57.32-3.27,1.89-3.8,1.57-.53,3.27.32,3.8,1.89l12.82,38.3c.53,1.57-.32,3.27-1.89,3.8-.32.11-.64.16-.95.16Z"></path>
        <path fill="#3a4a3a" d="m637.05,794.74c-1.29,0-2.49-.84-2.88-2.15l-11.63-39.11c-.47-1.59.43-3.26,2.02-3.73,1.59-.47,3.26.43,3.73,2.02l11.63,39.11c.47,1.59-.43,3.26-2.02,3.73-.29.08-.57.12-.86.12Z"></path>
        <path fill="#3a4a3a" d="m232.64,742.45c-3.88,0-6.64-3.33-8.25-6.07-2.29,1.31-5.39,2.45-8.1,1.18-2.32-1.08-3.62-3.97-3.84-16.11-.12-6.7.17-13.31.26-14.39.05-.66.17-2.06,4.16-11.93-6.41,1.61-8.23,1.05-8.92.83-1.65-.51-2.8-1.79-3.15-3.51-.83-4.09,3.25-9.68,7.67-13.42,1.38-1.16,3.08-3.03,5.04-5.18.86-.94,1.76-1.93,2.71-2.94,6.05-6.43,13.49-13.2,22.78-14.64,2.84-.45,7.36-.94,13.44-1.48l2.96-.26.29,2.96c2.17,22.48,13.65,33.11,32.75,43.88l7.27,4.1-31.14,5.56c-4.68,9.1-14.58,27.37-19.84,29.82-2.76,1.29-4.82.69-6.06-.04-.89-.52-1.58-1.24-2.11-2.04-1.66,1.51-3.83,2.95-6.4,3.51-.52.11-1.03.17-1.52.17Zm-5.79-15.63l1.5,4.05c.93,2.46,3.16,5.87,4.54,5.55,2.89-.62,5.49-3.97,6.24-5.2l4.89-7.99.67,9.33c.09,1.18.57,2.65.97,3.04.08-.01.26-.05.53-.18,2.72-1.41,11.32-15.86,17.71-28.43l.68-1.33,17.95-3.21c-15.56-9.9-25.72-21.29-28.46-41.41-4.48.42-7.88.81-10.13,1.17-7.51,1.16-13.99,7.13-19.33,12.82-.93.99-1.81,1.96-2.65,2.88-2.11,2.31-3.93,4.3-5.6,5.72-3.16,2.67-4.73,5.15-5.34,6.58,1.9-.23,5.49-1.05,10-2.51l6.06-1.89-2.25,5.8s-.07.16-.17.4c-5.48,13.15-5.92,15.4-5.96,15.61-.37,4.61-.55,20.33.66,24.48,1.02-.24,2.9-1.29,4.24-2.45l3.27-2.82Z"></path>
        <path fill="#3a4a3a" d="m240.84,737.01c-.34,0-.68-.06-1.01-.18-1.56-.56-2.37-2.28-1.81-3.84l11.26-31.38c.56-1.56,2.28-2.37,3.84-1.81,1.56.56,2.37,2.28,1.81,3.84l-11.26,31.38c-.44,1.23-1.59,1.99-2.82,1.99Z"></path>
        <path fill="#3a4a3a" d="m225.55,734.91c-.3,0-.61-.05-.91-.14-1.58-.5-2.45-2.19-1.95-3.77l10.21-32.05c.5-1.58,2.19-2.45,3.77-1.95,1.58.5,2.45,2.19,1.95,3.77l-10.21,32.05c-.41,1.28-1.59,2.09-2.86,2.09Z"></path>
        <path fill="#3a4a3a" d="m539.78,690.71c-.2,0-.39-.02-.59-.06-1.62-.33-2.68-1.91-2.35-3.53.19-.94,18.95-94.51,27.13-124.09,8.55-30.92,40.43-43.35,41.79-43.87,1.55-.59,3.28.19,3.87,1.74.59,1.55-.19,3.28-1.74,3.87-.39.15-30.42,11.95-38.13,39.86-8.12,29.36-26.84,122.73-27.03,123.67-.29,1.43-1.54,2.41-2.94,2.41Z"></path>
        <path fill="#3a4a3a" d="m502.16,625.82c-.37,0-.75-.07-1.11-.21l-103.38-41.23c-1.54-.61-2.29-2.36-1.67-3.9.61-1.54,2.36-2.29,3.9-1.67l103.38,41.23c1.54.61,2.29,2.36,1.67,3.9-.47,1.17-1.6,1.89-2.79,1.89Z"></path>
        <path fill="#3a4a3a" d="m403.85,641.04c-.29,0-.58-.04-.87-.13l-50.11-15.22c-1.58-.48-2.48-2.16-2-3.74.48-1.59,2.16-2.48,3.74-2l50.11,15.22c1.58.48,2.48,2.16,2,3.74-.39,1.29-1.58,2.13-2.87,2.13Z"></path>
        <path fill="#3a4a3a" d="m459.93,531.55c-4.95,0-9.2-1.47-12.73-4.41-14.73-12.26-10.06-46.03-9.85-47.46l.66-4.58,3.53,2.23s.06,0,.09,0c7.92,0,64.95-23.31,115.46-45.63l1.18-.52,1.19.49c.17.07,4.16,1.73,10.59,4.81l3.44,1.65-2.41,2.96c-2.51,3.08-61.86,75.51-100.29,88.48-3.91,1.32-7.53,1.98-10.84,1.98Zm-16.96-48.34c-1.05,10.38-1.13,31.67,8.07,39.33,4.24,3.52,10.06,3.97,17.81,1.35,32.55-10.99,83.38-69.71,95.1-83.63-2.55-1.18-4.5-2.04-5.64-2.54-5.65,2.49-30.48,13.37-55.6,23.76-39.73,16.44-54.01,20.95-59.75,21.73Z"></path>
        <path fill="#3a4a3a" d="m405.64,510.11c-2.62,0-5.15-.71-7.48-2.34-4.6-3.22-9.3-12.03,3-51.19,6.5-20.7,14.86-40.42,14.95-40.62l.58-1.36,1.43-.37c13.14-3.38,22.14-5.23,22.23-5.25l4-.82-.42,4.07c-2.92,28.2-4.4,61.01-1.77,65.49l2.49,1.58-1.93,2.6c-2.44,3.29-21.49,28.21-37.08,28.21Zm15.42-90.44c-1.98,4.78-8.75,21.43-14.19,38.75-11.49,36.62-6.94,43.28-5.27,44.44,9.1,6.37,27.52-13.33,34.99-22.82-1.43-3.51-2.5-12.13-1.21-35.62.63-11.48,1.63-22.83,2.19-28.7-3.58.79-9.36,2.13-16.51,3.95Z"></path>
      </g>
      <path fill="#3a4a3a" d="m583.67,935.02H222.93l-.35-2.59c-.17-1.23-16.5-123.75,5.21-194.43.49-1.58,2.16-2.47,3.75-1.99,1.58.49,2.47,2.17,1.99,3.75-19.58,63.76-7.55,171.23-5.33,189.26h354.16c3.98-1.96,28.54-14.91,43.23-42.19,16.07-29.85,14.41-91.81,14.39-92.44-.05-1.66,1.25-3.04,2.91-3.09.03,0,.06,0,.09,0,1.61,0,2.95,1.28,3,2.91.08,2.61,1.73,64.19-15.1,95.46-16.94,31.46-45.4,44.54-46.6,45.08l-.59.26Z"></path>
      <path fill="#3a4a3a" d="m367.53,935.02c-1.49,0-2.78-1.11-2.97-2.63-.11-.84-10.5-84.42-12.39-133.93-1.92-50.35,9.23-67.52,9.71-68.23.92-1.38,2.79-1.74,4.16-.81,1.37.92,1.74,2.77.83,4.15-.14.22-10.52,16.79-8.7,64.67,1.88,49.25,12.24,132.58,12.35,133.41.21,1.64-.96,3.14-2.6,3.35-.13.02-.25.02-.38.02Z"></path>
      <path fill="#3a4a3a" d="m490.75,935.02c-.25,0-.51-.03-.76-.1-1.6-.42-2.56-2.06-2.14-3.66l28.07-107.51c.42-1.6,2.06-2.57,3.66-2.14,1.6.42,2.56,2.06,2.14,3.66l-28.07,107.51c-.35,1.35-1.57,2.24-2.9,2.24Z"></path>
      <path fill="#3a4a3a" d="m572.09,844.64c-38.27,0-68.04-25.81-69.29-26.91-1.24-1.09-1.36-2.99-.27-4.23,1.09-1.25,2.99-1.37,4.23-.27.29.25,29.37,25.42,65.33,25.42s68.44-25.26,68.76-25.52c1.3-1.03,3.19-.81,4.21.49,1.03,1.3.81,3.19-.49,4.21-1.38,1.09-34.3,26.81-72.48,26.81Z"></path>
      <g>
        <path fill="#3a4a3a" d="m557.2,437.44c-.94,0-1.86-.44-2.44-1.26-8.43-11.81-4.71-27.49-3.36-32.01.1-.35.21-.72.33-1.09l.15-.48c7.2-23.15,16.37-40.17,16.75-40.88l1.27-2.34,2.48.99c.51.2,12.73,4.87,18.49-4.41,3.57-5.75,2.67-11.86.64-15.66-2.04-3.81-5.46-6.17-9.15-6.29-3.07-.09-4.67,1.31-6.88,3.26-3.99,3.54-8.96,7.94-22.54,3.2-19.47-6.8-36.8-24.44-42.16-42.88-3.28-11.29-4.77-22.49-5.38-28.48-6.28,2.71-19.81,6.49-41.54,2.52-1.51,4.17-4.96,13.91-8.66,25.82-6.9,22.29-11.17,40.9-12.33,53.83-2.74,30.3,10.99,38.47,24.07,43.75l3.45,1.39-11.57,16.98-17.6,1.5c-1.64.13-3.1-1.08-3.24-2.74s1.08-3.1,2.74-3.24l14.75-1.25,5.81-8.53c-14.75-6.68-27.14-17.96-24.39-48.4,1.22-13.53,5.45-32.06,12.58-55.07,4.5-14.5,8.65-25.83,9.43-27.96.63-1.71,2.47-2.71,4.26-2.33,25.66,5.11,38.91-1.03,42.36-3.03,1.13-.64,2.46-.67,3.59-.07,1.13.59,1.86,1.71,1.97,2.98.29,3.79,1.55,17.16,5.47,30.64,4.77,16.43,20.91,32.78,38.38,38.89,10.26,3.58,13.19.99,16.59-2.02,2.49-2.2,5.57-4.93,11.06-4.76,5.86.2,11.19,3.74,14.24,9.46,3.59,6.73,3.27,15.03-.84,21.65-5.88,9.46-16.59,9.42-23.21,7.67-2.69,5.32-9.6,19.73-15.15,37.57l-.15.49c-.1.32-.2.65-.3.98-2.37,8-2.96,19.23,2.49,26.85.96,1.35.65,3.22-.7,4.18-.53.38-1.14.56-1.74.56Zm-95.27-166.16s.04,0,.07.01c-.02,0-.05,0-.07-.01Z"></path>
        <path fill="#3a4a3a" d="m637.18,484.87s-22.81-20.15-46.78-34.34c-23.97-14.18-34.45-7.16-37.77-28.85-1.02-6.65.22-13.28,2.44-19.27,0,0,0-.01,0-.02,7.14-22.56,16.17-39.22,16.17-39.22,0,0,14.96,5.97,22.15-5.61,7.19-11.58-.02-26.16-10.96-26.53-10.93-.36-8.93,13.46-28.54,6.62-19.61-6.86-35.53-24.59-40.26-40.88-3.98-13.68-5.27-27.24-5.58-31.23-.04-.52-.6-.82-1.06-.56-3.65,2.12-17.72,8.7-44.5,3.37-.35-.07-.7.11-.81.43-.95,2.57-4.99,13.68-9.38,27.8-.13-1.04-5.52-44.68,9.64-67.33,15.35-22.92,45.57-18.59,66-5.65,0,0,19.87-7.02,43.03-1.31,0,0,61.51,4.75,71.02,63.74,1.45,9,1.73,17.15,1.32,24.62-2.3,41.52-25.97,61.91,11.53,88.12,44.24,30.92-17.68,86.1-17.68,86.1Z"></path>
        <path fill="#3a4a3a" d="m495.75,406.53c-9.3,0-19.77-1.59-31.03-5.91-1.55-.59-2.32-2.33-1.73-3.88.59-1.55,2.32-2.32,3.88-1.73,43.84,16.8,74.36-9.52,75.63-10.65,1.24-1.1,3.14-.98,4.23.26,1.1,1.24.99,3.13-.25,4.23-.35.31-8.73,7.67-23.01,12.82-7.16,2.58-16.62,4.85-27.73,4.85Z"></path>
        <g>
          <path fill="#3a4a3a" d="m494.77,374.19c-.77,0-1.54-.3-2.13-.89-11.75-11.85-23.07-5.23-23.54-4.94-1.41.85-3.26.41-4.12-1-.86-1.41-.43-3.24.97-4.11,5.39-3.35,18.79-6.43,30.95,5.83,1.17,1.18,1.16,3.08-.02,4.24-.58.58-1.35.87-2.11.87Z"></path>
          <path fill="#3a4a3a" d="m511.62,339.13c-4.36,0-9.71-1.76-13.99-7.77-.96-1.35-.65-3.22.71-4.18s3.22-.64,4.18.71c5.52,7.76,12.35,4.71,12.64,4.57,1.5-.7,3.29-.04,3.98,1.46.7,1.5.04,3.29-1.46,3.98-1.45.67-3.59,1.23-6.06,1.23Z"></path>
          <path fill="#3a4a3a" d="m471.47,327.15c-4.36,0-9.71-1.76-13.99-7.77-.96-1.35-.65-3.22.71-4.18,1.35-.96,3.22-.64,4.18.71,5.52,7.76,12.35,4.71,12.64,4.57,1.5-.7,3.29-.04,3.98,1.46.7,1.5.04,3.29-1.46,3.98-1.45.67-3.59,1.23-6.06,1.23Z"></path>
          <g>
            <path fill="#3a4a3a" d="m480.82,357.09c-.33,0-.66-.05-.99-.17-7.48-2.61-12.01-7.58-14.04-10.32-.91-1.23-1.24-2.79-.9-4.28.35-1.5,1.33-2.76,2.7-3.46,6.72-3.46,16.26-12.73,13.26-22.89-2.82-9.57-13.89-7.73-14.37-7.65-1.63.29-3.19-.8-3.47-2.43-.29-1.63.8-3.19,2.43-3.47,5.81-1.03,17.7.14,21.16,11.86,3.49,11.82-5.23,23.83-15.44,29.47,1.83,2.25,5.29,5.64,10.63,7.5,1.56.55,2.39,2.26,1.85,3.82-.43,1.24-1.59,2.01-2.83,2.01Z"></path>
            <path fill="#3a4a3a" d="m521.64,331.78c-1.05,0-2.07-.56-2.62-1.54-.23-.4-5.23-9.05-13.77-7.56-1.64.28-3.19-.8-3.47-2.44-.29-1.63.81-3.19,2.44-3.47,12.8-2.24,19.76,10.03,20.05,10.55.8,1.45.28,3.27-1.17,4.08-.46.25-.96.38-1.45.38Z"></path>
          </g>
        </g>
      </g>
      <path fill="#3a4a3a" d="m339.42,448.42c-.97,0-1.93-.47-2.51-1.35-.91-1.38-.53-3.24.85-4.16,22.77-15.05,78.08-28.15,80.42-28.7,1.61-.38,3.23.62,3.61,2.23.38,1.61-.62,3.23-2.23,3.61-.56.13-56.6,13.41-78.48,27.86-.51.34-1.08.5-1.65.5Z"></path>
      <path fill="#3a4a3a" d="m648.7,501.5c-.97,0-1.93-.47-2.5-1.34-23.89-36.03-78.03-57.97-78.57-58.19-1.54-.62-2.29-2.36-1.67-3.9.61-1.54,2.36-2.29,3.9-1.67,2.29.92,56.41,22.83,81.35,60.44.92,1.38.54,3.24-.84,4.16-.51.34-1.09.5-1.66.5Z"></path>
    </g>
    <g>
      <path fill="#3a4a3a" d="m567.33,126.33h-110.36c-6.38,0-11.56-5.19-11.56-11.56s5.19-11.56,11.56-11.56h110.36c6.38,0,11.56,5.19,11.56,11.56s-5.19,11.56-11.56,11.56Zm-110.36-17.12c-3.07,0-5.56,2.5-5.56,5.56s2.5,5.56,5.56,5.56h110.36c3.07,0,5.56-2.5,5.56-5.56s-2.5-5.56-5.56-5.56h-110.36Z"></path>
      <path fill="#3a4a3a" d="m167.27,935.02c-1.64,0-2.98-1.32-3-2.97-.04-3.41-3.28-343.36,42.88-552.49,10.73-48.59,30.5-92.46,58.77-130.39,22.61-30.34,50.67-56.95,83.41-79.09,55.72-37.7,106.47-49.56,106.98-49.67,1.62-.37,3.22.64,3.59,2.26s-.64,3.22-2.26,3.59c-.5.11-50.33,11.79-105.14,48.93-50.47,34.19-115.64,97.63-139.48,205.67-46.01,208.45-42.78,547.73-42.74,551.13.02,1.66-1.31,3.01-2.97,3.03h-.03Z"></path>
      <path fill="#3a4a3a" d="m219.52,935.02c-1.64,0-2.98-1.33-3-2.97-.03-3.41-2.68-343.3,35.14-552.37,8.79-48.58,25.96-92.44,51.04-130.36,20.07-30.35,45.21-56.98,74.74-79.15,50.27-37.75,96.57-49.63,97.03-49.75,1.6-.4,3.23.57,3.64,2.18.4,1.61-.57,3.24-2.18,3.64-.45.11-45.77,11.78-95.1,48.88-45.44,34.18-103.72,97.59-123.26,205.62-37.72,208.52-35.08,547.85-35.04,551.25.01,1.66-1.32,3.01-2.97,3.03h-.03Z"></path>
      <path fill="#3a4a3a" d="m339.45,935.02c-1.65,0-2.99-1.33-3-2.99-.02-3.41-1.42-343.17,18.64-552.11,10.54-109.76,42.09-174.29,66.7-209.09,26.89-38.03,51.1-49.74,52.12-50.22,1.5-.71,3.29-.07,3.99,1.43.71,1.5.07,3.28-1.43,3.99h0c-.24.11-24.09,11.75-50.1,48.71-24.06,34.19-54.92,97.65-65.31,205.75-20.04,208.64-18.63,548.1-18.62,551.51,0,1.66-1.33,3.01-2.99,3.01h-.01Z"></path>
      <path fill="#3a4a3a" d="m843.44,935.02h-.03c-1.66-.02-2.99-1.38-2.97-3.03.04-3.4,3.27-342.68-42.74-551.13-23.85-108.04-89.01-171.48-139.48-205.67-54.81-37.13-104.65-48.81-105.14-48.93-1.61-.37-2.62-1.98-2.26-3.59.37-1.62,1.98-2.63,3.59-2.26.51.12,51.26,11.98,106.98,49.67,32.73,22.15,60.79,48.76,83.41,79.09,28.27,37.92,48.04,81.79,58.77,130.39,46.16,209.13,42.92,549.08,42.88,552.49-.02,1.65-1.36,2.97-3,2.97Z"></path>
      <path fill="#3a4a3a" d="m726.01,935.02h-.02c-1.66-.01-2.99-1.36-2.98-3.02.02-3.4,2-342.81-26.12-551.39-14.57-108.08-57.93-171.5-91.75-205.67-36.62-37.01-70.25-48.65-70.59-48.77-1.57-.53-2.41-2.23-1.88-3.8.53-1.57,2.22-2.41,3.8-1.89,1.41.48,35.08,12.08,72.67,49.97,22.02,22.19,40.77,48.83,55.72,79.19,18.66,37.87,31.43,81.67,37.97,130.17,28.17,209,26.2,548.82,26.17,552.23-.01,1.65-1.35,2.98-3,2.98Z"></path>
      <path fill="#3a4a3a" d="m550.96,935.02h0c-1.66,0-3-1.35-3-3,0-3.41.4-342.97-5.18-551.73-5.54-207.1-31.91-254.98-32.18-255.44-.83-1.43-.35-3.26,1.08-4.1,1.42-.83,3.25-.36,4.09,1.06,1.12,1.89,27.4,48.75,33,258.32,5.58,208.84,5.19,548.49,5.18,551.89,0,1.66-1.34,3-3,3Z"></path>
    </g>
    <path fill="#3a4a3a" d="m513.19,109.21c-1.66,0-3-1.34-3-3v-11.11c0-3.95,2.32-7.58,5.91-9.25,9.63-4.48,31.23-16.96,23.85-35.96-4.08-10.5-12.46-16.22-22.36-15.29-8.97.84-19.15,7.78-21.68,21.41-.3,1.63-1.86,2.71-3.5,2.4-1.63-.3-2.7-1.87-2.4-3.5,3.11-16.71,15.81-25.24,27.02-26.29,12.54-1.17,23.48,6.14,28.51,19.09,9.21,23.73-15.75,38.37-26.91,43.57-1.49.69-2.45,2.19-2.45,3.81v11.11c0,1.66-1.34,3-3,3Z"></path>
  </g>
  <g>
    <g>
      <g>
        <path fill="#f8c8a8" d="m209.58,318.29s12.1-31.45,27.51-23.87c15.41,7.58,0,33.86,0,33.86,0,0,18.7-1.26,19.2,13.64.51,14.91-30.07,14.4-27.54,18.7,2.53,4.3,10.11,21.23,4.55,22.74-5.56,1.52-8.84-7.08-8.59-13.14.25-6.06-7.58-10.87-7.58-10.87l-7.55-41.06Z"></path>
        <path fill="#f8c8a8" d="m209.88,317.36s-22.31-25.26-34.11-12.78c-11.8,12.48,11.81,31.73,11.81,31.73,0,0-17.96,5.34-13.24,19.49,4.73,14.15,33.2,3.01,32.34,7.91-.87,4.91-2.07,23.42,3.67,22.9s5.82-9.72,3.47-15.31c-2.35-5.6,3.31-12.83,3.31-12.83l-7.25-41.12Z"></path>
      </g>
      <path fill="#3a4a3a" d="m217.13,366.15c-1.44,0-2.71-1.04-2.95-2.5l-8.84-52.56c-.28-1.63.83-3.18,2.46-3.46,1.63-.27,3.18.83,3.46,2.46l8.84,52.56c.28,1.63-.83,3.18-2.46,3.46-.17.03-.34.04-.5.04Z"></path>
    </g>
    <g>
      <g>
        <path fill="#f8c8a8" d="m716.96,659.17s12.1-31.45,27.51-23.87c15.41,7.58,0,33.86,0,33.86,0,0,18.7-1.26,19.2,13.64s-30.07,14.4-27.54,18.7,10.11,21.23,4.55,22.74c-5.56,1.52-8.84-7.08-8.59-13.14.25-6.06-7.58-10.87-7.58-10.87l-7.55-41.06Z"></path>
        <path fill="#f8c8a8" d="m717.25,658.23s-22.31-25.26-34.11-12.78c-11.8,12.48,11.81,31.73,11.81,31.73,0,0-17.96,5.34-13.24,19.49,4.73,14.15,33.2,3.01,32.34,7.91-.87,4.91-2.07,23.42,3.67,22.9s5.82-9.72,3.47-15.31c-2.35-5.6,3.31-12.83,3.31-12.83l-7.25-41.12Z"></path>
      </g>
      <path fill="#3a4a3a" d="m724.5,707.02c-1.44,0-2.71-1.04-2.95-2.5l-8.84-52.56c-.28-1.63.83-3.18,2.46-3.46,1.63-.28,3.18.83,3.46,2.46l8.84,52.56c.28,1.63-.83,3.18-2.46,3.46-.17.03-.34.04-.5.04Z"></path>
    </g>
    <g>
      <g>
        <path fill="#e8b896" d="m826.5,490.31s26.84-20.39,35.95-5.83c9.12,14.56-17.81,28.79-17.81,28.79,0,0,16.57,8.76,9.15,21.71-7.41,12.94-33.15-3.57-33.26,1.41-.11,4.98-2.57,23.37-8.1,21.73-5.53-1.64-3.8-10.67-.39-15.69s-.73-13.23-.73-13.23l15.19-38.89Z"></path>
        <path fill="#e8b896" d="m827.24,489.67s-5.68-33.22-22.29-28.81c-16.6,4.41-6.65,33.2-6.65,33.2,0,0-18.09-4.91-21.51,9.61-3.42,14.52,26.66,20.03,23.33,23.74-3.32,3.72-14.08,18.83-8.93,21.41,5.15,2.58,10.06-5.2,11-11.2s9.57-9.17,9.57-9.17l15.46-38.78Z"></path>
      </g>
      <path fill="#3a4a3a" d="m809.32,535.43c-.38,0-.76-.07-1.13-.22-1.53-.62-2.27-2.38-1.64-3.91l20.13-49.35c.62-1.53,2.38-2.27,3.91-1.64,1.53.62,2.27,2.38,1.64,3.91l-20.13,49.35c-.47,1.16-1.6,1.87-2.78,1.87Z"></path>
    </g>
  </g>
  <g>
    <path fill="#3a4a3a" d="m726.25,934.57c-1.56,0-2.88-1.21-2.99-2.79-.1-1.38-2.24-34.2,9.24-77.59,10.6-40.07,35.36-96.78,93.16-139.42,1.33-.98,3.21-.7,4.2.63s.7,3.21-.63,4.2c-56.39,41.61-80.57,96.99-90.92,136.13-11.22,42.43-9.08,75.31-9.05,75.64.12,1.65-1.13,3.09-2.78,3.2-.07,0-.14,0-.21,0Z"></path>
    <g>
      <path fill="#3a4a3a" d="m886.59,741.04c-14.87,0-24.18-11.97-28.23-18.69-7.99,7.46-18.92,12.25-27.92,5.19-10.95-8.59-4.15-23.95-.21-30.89-4.72-1.53-12.42-4.77-17-10.7-3.3-4.24-4.48-9.12-3.48-14.51,1.27-6.86,5.92-12.32,13.44-15.79,6.82-3.15,15.6-4.33,23.18-3.5-4.93-6.67-9.79-16.78-5.82-27.85,2.77-7.73,9.33-12.52,18.46-13.49,10.38-1.11,21.71,3.13,25.76,9.66,3.22,5.19,3.71,11.25,3.35,16.15,4.84-3.75,11.68-7.81,18.61-7.81.15,0,.3,0,.46,0,5.07.13,9.42,2.38,12.93,6.69,3.69,4.52,5.07,9.37,4.1,14.41-1.34,6.92-6.98,12.59-11.48,16.14,4.96,1.57,11.41,4.57,15.46,10.12,3.46,4.74,4.57,10.44,3.31,16.96-1,5.21-3.36,9.32-6.99,12.23-7.23,5.78-17.73,5.2-24.16,4.09,2.13,6.58,4.57,17.57.33,24.8-1.58,2.69-4.82,6.02-11.32,6.66-.95.09-1.88.14-2.78.14Zm-26.78-29.23l1.97,4.29s.33.72.97,1.88c3.1,5.55,11.9,18.34,26.03,16.96,3.24-.32,5.45-1.54,6.73-3.72,3.82-6.5-.62-20.07-2.65-24.74l-2.63-6.06,6.29,2c.16.05,15.92,4.92,24.26-1.75,2.53-2.02,4.12-4.86,4.85-8.68h0c.94-4.87.21-8.88-2.25-12.26-5.6-7.69-18.21-9.3-18.34-9.32l-9.22-1.12,8.13-4.48c.12-.07,12.68-7.12,14.39-16.04.62-3.25-.31-6.34-2.86-9.47-2.39-2.93-5.15-4.4-8.44-4.49-.1,0-.2,0-.3,0-8.26,0-17.92,8.65-20.98,12.03l-9.81,10.83,4.75-13.82c.04-.12,4.02-12.09-1.02-20.21-2.48-3.99-11.32-7.79-20.03-6.85-4.75.51-10.95,2.57-13.45,9.55-5.41,15.07,11.32,29.17,11.49,29.31l-3.41,4.91c-5.76-3.32-18.92-3.91-28.58.55-3.96,1.83-8.92,5.29-10.05,11.43-.68,3.68.08,6.86,2.32,9.73,5.43,7.03,17.41,9.59,17.53,9.61l4.47.93-2.62,3.74c-.13.18-12.9,18.67-3.21,26.27,8.36,6.57,18.93-3.46,21.96-6.69.4-.43.63-.7.65-.72l3.05-3.6Z"></path>
      <circle fill="#e8b896" cx="872.26" cy="677.7" r="20.56"></circle>
    </g>
    <g>
      <path fill="#3a4a3a" d="m836.35,837.71c-8.08,0-13.4-5.76-16.16-9.83-4.78,3.95-10.97,6.1-16.24,1.96-5.77-4.53-4.04-12.17-1.22-17.69-2.76-1.05-6.34-2.91-8.69-5.95-2.07-2.65-2.83-5.84-2.21-9.21.79-4.29,3.67-7.7,8.3-9.84,3.25-1.5,7.25-2.21,11.07-2.22-2.32-3.89-4-9.06-1.99-14.68,1.71-4.78,5.9-7.86,11.49-8.46,6.31-.68,13.23,1.98,15.75,6.05,1.42,2.29,1.98,4.85,2.1,7.21,2.69-1.74,6.01-3.23,9.43-3.13,3.21.08,6.06,1.55,8.26,4.25,2.3,2.82,3.19,6,2.58,9.19-.66,3.42-2.93,6.29-5.19,8.39,2.53,1.07,5.29,2.75,7.2,5.36,2.17,2.97,2.88,6.53,2.09,10.56h0c-.62,3.25-2.11,5.82-4.41,7.66-3.73,2.98-8.79,3.22-12.6,2.84,1.03,3.92,1.73,9.26-.5,13.06-1.04,1.77-3.17,3.98-7.37,4.39-.58.06-1.15.08-1.71.08Zm-14.72-20.17l1.96,4.27s.19.4.5.97c1.62,2.89,6.2,9.58,13.38,8.87,1.82-.18,2.44-.87,2.78-1.45,1.72-2.93-.31-9.85-1.57-12.74l-2.62-6.05,6.28,2c2.29.72,9.01,1.99,12.44-.76,1.17-.94,1.91-2.28,2.26-4.11h0c.46-2.37.12-4.3-1.05-5.89-2.79-3.82-9.34-4.7-9.41-4.71l-9.27-1.1,8.17-4.51c1.83-1.02,6.75-4.47,7.45-8.13.17-.91.22-2.33-1.34-4.25-1.1-1.35-2.3-2-3.76-2.04-.05,0-.1,0-.15,0-4.14,0-9.21,4.56-10.83,6.34l-9.77,10.72,4.71-13.71c.02-.05,2.05-6.23-.45-10.26-1.19-1.91-5.72-3.7-10.02-3.25-2.3.25-5.29,1.23-6.47,4.52-2.73,7.6,5.98,14.97,6.07,15.04l-3.41,4.91c-2.96-1.7-9.95-1.91-14.88.37-2.83,1.31-4.49,3.15-4.92,5.48-.32,1.7.02,3.11,1.05,4.43,2.29,2.96,7.34,4.57,9.1,4.93l4.46.93-2.61,3.73c-.06.09-6.4,9.6-2.07,13,3.93,3.09,9.52-2.48,10.6-3.63.19-.2.3-.33.33-.36l3.05-3.58Z"></path>
      <circle fill="#e8b896" cx="828.31" cy="800.75" r="11.57"></circle>
    </g>
    <path fill="#3a4a3a" d="m737.68,849.83c-.87,0-1.72-.37-2.32-1.09-1.05-1.28-.87-3.17.41-4.22,1.56-1.29,38.62-31.58,71-37.08,1.63-.27,3.18.82,3.46,2.46.28,1.63-.82,3.18-2.46,3.46-30.82,5.24-67.82,35.5-68.19,35.8-.56.46-1.24.68-1.91.68Z"></path>
  </g>
  <g>
    <path fill="#3a4a3a" d="m223.11,934.57c-.07,0-.14,0-.21,0-1.65-.12-2.9-1.55-2.78-3.2.02-.25,1.61-24.97-6.83-56.71-7.75-29.18-25.82-70.48-67.88-101.51-1.33-.98-1.62-2.86-.63-4.2.98-1.33,2.86-1.62,4.2-.63,43.53,32.12,62.19,74.84,70.17,105.01,8.64,32.67,7.03,57.42,6.95,58.46-.11,1.58-1.43,2.79-2.99,2.79Z"></path>
    <g>
      <path fill="#3a4a3a" d="m102.83,789.38c-.71,0-1.43-.03-2.17-.11-5.19-.51-7.8-3.2-9.07-5.36-3.08-5.25-1.69-12.94-.17-18.06-5,.7-12.32.76-17.53-3.41-2.87-2.3-4.73-5.54-5.52-9.62-.99-5.1-.11-9.57,2.62-13.3,2.81-3.85,7.09-6.11,10.7-7.42-3.25-2.76-6.9-6.82-7.84-11.69-.78-4.01.31-7.85,3.23-11.43,2.78-3.41,6.23-5.19,10.26-5.29,4.91-.14,9.8,2.42,13.51,5.07-.06-3.47.52-7.47,2.69-10.97,3.18-5.12,11.99-8.46,20.05-7.6,7.05.75,12.33,4.62,14.48,10.62,2.84,7.91-.1,15.16-3.55,20.28,5.43-.32,11.42.62,16.18,2.82,5.87,2.71,9.5,7,10.5,12.39.78,4.2-.18,8.17-2.76,11.49-3.27,4.24-8.59,6.7-12.25,7.98,3.07,5.69,7.48,16.87-.78,23.34-6.87,5.39-15.08,2.13-21.25-3.32-3.35,5.27-10.38,13.61-21.33,13.61Zm-1.4-32.43l-2.63,6.04c-1.38,3.18-4.72,13.31-2.03,17.88.53.9,1.57,2.14,4.48,2.43,10.19.99,16.55-8.31,18.81-12.35.44-.79.68-1.31.7-1.35l1.98-4.28,3.04,3.6s.18.21.46.51c2.17,2.3,9.69,9.47,15.47,4.94,6.64-5.2-2.46-18.56-2.56-18.69l-2.63-3.74,4.48-.92c.08-.02,8.81-1.89,12.7-6.93,1.55-1.99,2.07-4.18,1.6-6.72-.64-3.45-3.03-6.15-7.12-8.04-7.04-3.25-16.59-2.84-20.75-.45l-3.41-4.91c.12-.1,12.27-10.35,8.39-21.16-1.75-4.87-6.11-6.32-9.46-6.67-6.27-.67-12.57,1.99-14.31,4.8-3.58,5.78-.72,14.44-.69,14.53l4.63,13.68-9.69-10.7c-2.27-2.49-9.45-8.98-15.4-8.78-2.23.06-4.12,1.07-5.76,3.09-1.76,2.16-2.41,4.28-1.99,6.49,1.01,5.26,7.87,10.1,10.43,11.52l8.12,4.51-9.22,1.1c-.09,0-9.24,1.19-13.24,6.69-1.71,2.36-2.22,5.17-1.56,8.61h0c.52,2.69,1.62,4.67,3.37,6.08,4.92,3.94,14.31,2.19,17.51,1.18l6.28-1.98Z"></path>
      <circle fill="#e8b896" cx="113.56" cy="741.1" r="15.43"></circle>
    </g>
    <g>
      <path fill="#3a4a3a" d="m140.48,861.9c-.43,0-.87-.02-1.33-.07-3.47-.34-5.24-2.18-6.11-3.66-1.62-2.76-1.37-6.38-.72-9.33-2.83.15-6.26-.26-8.93-2.39-1.87-1.49-3.07-3.58-3.57-6.19h0c-.62-3.2-.03-6.14,1.7-8.51,1.28-1.76,3.01-2.98,4.7-3.82-1.5-1.57-2.87-3.57-3.32-5.91-.35-1.83-.28-4.61,2.09-7.51,1.79-2.2,4.13-3.39,6.76-3.46,2.26-.04,4.53.76,6.45,1.84.21-1.51.68-3.08,1.59-4.54,2.07-3.33,7.46-5.43,12.54-4.89,4.49.48,7.86,2.97,9.24,6.84,1.42,3.95.55,7.61-.94,10.53,2.56.13,5.15.7,7.36,1.72,3.66,1.69,6.02,4.5,6.65,7.93.51,2.74-.12,5.34-1.81,7.51-1.64,2.13-4.05,3.52-6.08,4.39,2.01,4.31,2.97,9.98-1.48,13.47-4.08,3.21-8.78,1.85-12.5-.99-2.2,2.98-6.3,7.05-12.29,7.05Zm1.57-21.65l-2.62,6.02c-1.1,2.54-2.25,7.12-1.21,8.88.12.2.36.61,1.52.72,4.97.47,8.17-4.24,9.31-6.29.21-.38.33-.63.35-.67l1.97-4.24,3.03,3.55s.09.11.22.25c.73.78,4.5,4.56,6.94,2.65,2.35-1.84-.75-7.36-1.71-8.74l-2.6-3.74,4.46-.92c1.24-.26,4.81-1.39,6.37-3.42.65-.83.85-1.68.65-2.74-.28-1.5-1.38-2.7-3.27-3.57-3.44-1.59-8.45-1.47-10.47-.3l-3.41-4.91c.05-.05,6.19-5.25,4.32-10.45-.6-1.69-2.03-2.66-4.23-2.9-3.1-.33-6.15,1.04-6.8,2.09-1.39,2.25-.66,5.86-.26,7.07l4.53,13.56-9.59-10.59c-1.09-1.19-4.83-4.59-7.66-4.51-.59.02-1.38.17-2.26,1.26-.97,1.19-.95,2.04-.85,2.57.47,2.44,4.01,4.92,5.22,5.59l8.08,4.51-9.18,1.09c-1.28.16-4.97,1.06-6.55,3.24-.74,1.02-.95,2.26-.65,3.82h0c.23,1.19.7,2.06,1.43,2.65,2.3,1.84,7.13.91,8.64.43l6.27-1.96Z"></path>
      <circle fill="#e8b896" cx="146.54" cy="833.42" r="8.68"></circle>
    </g>
    <path fill="#3a4a3a" d="m214.53,870.99c-.67,0-1.35-.22-1.91-.68-.28-.23-27.91-22.8-50.81-26.7-1.63-.28-2.73-1.83-2.46-3.46.28-1.63,1.83-2.73,3.46-2.46,24.49,4.16,52.44,27.01,53.62,27.98,1.28,1.05,1.46,2.94.41,4.22-.59.72-1.45,1.09-2.32,1.09Z"></path>
  </g>
</svg>