<?xml version="1.0" encoding="UTF-8"?>
<svg id="Layer_2" data-name="Layer 2" xmlns="http://www.w3.org/2000/svg" viewBox="0 0 1000 1000">

  <defs></defs>
  <g>
    <path fill="#e8b896" d="m643.37,631.35c-17.24-5.34-21.16-10.13-21.86-2.68-.39,4.2,6.25,11,12.72,16.56-4.97,6.85-10.36,13.23-16.08,18.99-16.44,5.72-35.43,12.19-42.82,14.17-14.13,3.79-50.47,17.92-48.21,24.48,2.27,6.56,21.71,8.33,21.71,8.33,0,0,.08,1.51.47,3.43-32.46,18.28-56.82,25.62-57.42,25.8h0s-1.2-.38-1.2-.38c-.52-.15-18.41-5.53-43.96-18.71,2.11-3.4,2.4-8.79,2.4-8.79,0,0,19.43-1.76,21.7-8.33,2.28-6.57-34.07-20.7-48.21-24.49-10.71-2.87-45.8-15.16-62.14-20.95-1.66-1.85-3.29-3.74-4.89-5.69,6.95-5.23,21.43-16.93,20.85-23.07-.76-8.07-5.3-1.76-26.5,4.04-2.25.62-4.5,1.25-6.71,1.9-36.94-58.04-45.03-141.67,16.41-169.69,74.72-34.06,131.54,37.51,132.25,38.42h0c.72-.91,57.55-72.48,132.27-38.42,59.82,27.28,53.71,107.33,19.23,165.09Zm190.13-18c-8.33-13.63-95.4-153.71-115.84-170.36-20.45-16.66-158.82-66.44-158.82-66.44,0,0-2.08,56.6-59.63,56.6s-59.63-56.6-59.63-56.6c0,0-138.37,49.79-158.82,66.44-20.44,16.65-107.52,156.73-115.84,170.36-8.33,13.63-43.16,71.17,3.78,106.76,46.95,35.59,140.84,22.72,140.84,22.72l-26.12,199.9h431.59l-26.12-199.9s93.89,12.87,140.84-22.72c46.95-35.59,12.11-93.13,3.78-106.76Zm-362.69,90.87c-2.27,6.56-21.7,8.33-21.7,8.33,0,0-.3,5.39-2.4,8.79-.62,1.02-1.41,1.85-2.39,2.31-4.29,2.02-11.61,3.02-11.61,3.02,0,0-2.28,11.11-7.57,13.38-5.3,2.27-15.65,2.77-15.65,2.77,0,0,.76,4.8-7.57,6.81-8.33,2.02-61.84,1.01-73.45-1.51-11.61-2.52-15.89,4.27-23.72-14.38-7.84-18.66-15.36-28.36-11.47-48.01,3.9-19.64,15.13-38.32,15.13-38.32,0,0,16.22-6.04,34.81-11.48,2.21-.65,4.46-1.28,6.71-1.9,21.2-5.81,25.74-12.11,26.5-4.04.58,6.14-13.89,17.84-20.85,23.07-2.19,1.66-3.63,2.67-3.63,2.67,0,0,3.31,1.18,8.53,3.02,16.35,5.79,51.43,18.08,62.14,20.95,14.14,3.79,50.48,17.92,48.21,24.49Zm222.38,28.19c-7.84,18.65-12.11,11.86-23.72,14.38-11.61,2.53-65.12,3.54-73.44,1.52-8.33-2.02-7.58-6.82-7.58-6.82,0,0-10.34-.5-15.64-2.77-5.3-2.27-7.58-13.37-7.58-13.37,0,0-7.32-1.01-11.6-3.03-2.54-1.19-3.76-4.88-4.33-7.68-.39-1.92-.47-3.43-.47-3.43,0,0-19.44-1.76-21.71-8.33-2.27-6.56,34.07-20.69,48.21-24.48,7.39-1.98,26.39-8.45,42.82-14.17,14.99-5.21,27.85-9.81,27.85-9.81,0,0-5.81-4.06-11.77-9.19-6.47-5.55-13.11-12.35-12.72-16.56.7-7.45,4.62-2.66,21.86,2.68,1.45.45,3,.9,4.64,1.36,21.2,5.81,41.52,13.38,41.52,13.38,0,0,11.23,18.68,15.13,38.32,3.9,19.64-3.63,29.34-11.47,48Z"></path>
    <path fill="#3a4a3a" d="m309.53,745.83c-.97,0-1.92-.47-2.5-1.34-.54-.81-13.29-20.17-16.75-45.17-2.84-20.54,7.99-39.68,13.2-48.87.87-1.53,1.85-3.27,2.01-3.76,0-.05.02-.09.02-.12-1.43-2.32-17.78-8.77-26.61-12.25-26.73-10.54-50.62-23.3-50.86-23.43-1.46-.78-2.01-2.6-1.23-4.06.78-1.46,2.6-2.01,4.06-1.23.24.13,23.83,12.73,50.23,23.14,26.94,10.63,31.63,13.02,30.22,19.34-.24,1.1-.94,2.35-2.63,5.33-4.88,8.62-15.04,26.57-12.47,45.09,3.27,23.59,15.68,42.48,15.8,42.66.92,1.38.54,3.24-.83,4.16-.51.34-1.09.5-1.66.5Zm-3.99-99.2h.01-.01Z"></path>
    <path fill="#3a4a3a" d="m688.86,745.83c-.57,0-1.15-.16-1.66-.5-1.38-.92-1.75-2.78-.83-4.16.12-.19,12.54-19.07,15.8-42.66,2.57-18.53-7.59-36.47-12.47-45.09-1.69-2.98-2.38-4.23-2.63-5.33-1.4-6.32,3.28-8.72,30.22-19.34,26.4-10.41,49.99-23.01,50.22-23.14,1.46-.78,3.28-.23,4.06,1.23.78,1.46.23,3.28-1.23,4.06-.24.13-24.12,12.89-50.86,23.43-8.82,3.48-25.16,9.92-26.6,12.25,0,.04.02.11.04.21.14.41,1.12,2.14,1.99,3.68,5.21,9.2,16.04,28.34,13.2,48.87-3.46,25-16.21,44.36-16.75,45.17-.58.87-1.53,1.34-2.5,1.34Z"></path>
    <path fill="#3a4a3a" d="m701.37,637.85c-1.25,0-2.42-.79-2.84-2.04-1-2.96-24.56-72.64-25.71-91.56-1.15-18.92,6.54-57.09,6.87-58.7.33-1.62,1.91-2.68,3.54-2.34,1.62.33,2.67,1.91,2.34,3.54-.08.39-7.86,39.02-6.76,57.15,1.1,18.13,25.16,89.28,25.4,90,.53,1.57-.31,3.27-1.88,3.8-.32.11-.64.16-.96.16Z"></path>
    <path fill="#3a4a3a" d="m288.32,637.85c-.28,0-.57-.04-.85-.12-1.59-.47-2.5-2.14-2.03-3.73.18-.62,18.43-62.59,23.48-79.44,4.82-16.06-6.74-63.25-6.85-63.73-.4-1.61.58-3.23,2.19-3.63,1.61-.4,3.23.58,3.63,2.19.49,2,12.06,49.27,6.78,66.89-5.05,16.83-23.29,78.78-23.48,79.41-.38,1.31-1.58,2.15-2.88,2.15Z"></path>
    <g>
      <path fill="#3a4a3a" d="m378.48,753.73c-19.07,0-43.13-1.03-50.66-2.67-2.8-.61-5.1-.61-7.33-.62-7.45-.02-12.33-.79-18.53-15.53-1.49-3.54-2.95-6.73-4.37-9.81-5.93-12.92-10.61-23.12-7.28-39.94,3.96-19.93,15.03-38.5,15.5-39.28l.54-.9.98-.37c.16-.06,16.54-6.14,35.01-11.54,2.23-.65,4.49-1.29,6.76-1.91,7.3-2,12.58-4.06,16.44-5.56,5.43-2.12,8.43-3.28,11.05-1.67,2.11,1.3,2.59,3.78,2.78,5.8.52,5.57-6.59,14-21.15,25.08.96.34,2.04.72,3.21,1.14,11.68,4.14,50.65,17.86,61.92,20.88,8.79,2.36,44.92,14.83,49.81,24.06.97,1.83.78,3.36.45,4.31h0c-2.35,6.79-15.24,9.25-21.83,10.07-.34,2.15-1.06,5.22-2.56,7.65-.99,1.61-2.23,2.78-3.68,3.45-3.22,1.51-7.81,2.48-10.44,2.95-1.03,3.75-3.68,11.28-8.83,13.49-4.13,1.77-10.75,2.54-14.29,2.84-.85,2.37-3.18,5.39-9.41,6.9-3.34.81-12.87,1.17-24.14,1.17Zm-68.03-103.86c-2.22,3.91-10.97,19.96-14.24,36.46-2.96,14.92.94,23.41,6.85,36.27,1.44,3.13,2.92,6.36,4.45,9.99,4.97,11.83,7.49,11.84,13.02,11.86,2.3,0,5.16.02,8.58.76,11.83,2.57,64.85,3.29,72.11,1.53,4.09-.99,5.24-2.68,5.29-3.5l-1-3.55,3.84.16c2.73-.13,10.68-.85,14.62-2.53,2.64-1.13,4.99-7.25,5.81-11.23l.43-2.07,2.1-.29c.07,0,6.92-.97,10.75-2.77.37-.17.75-.57,1.11-1.17,1.39-2.25,1.89-6.1,1.96-7.39l.15-2.58,2.57-.24c7.94-.73,17.38-3.32,18.98-5.98-.56-.87-3.58-4.36-18.24-10.83-10.59-4.68-21.81-8.52-27.75-10.12-11.49-3.08-50.64-16.87-62.37-21.02-5.22-1.85-8.53-3.03-8.53-3.03l-5.48-1.95,4.77-3.33s1.43-1,3.53-2.6c13.86-10.43,19.91-17.89,19.68-20.4-.04-.47-.1-.81-.15-1.05-1.14.23-3.37,1.1-5.53,1.95-3.98,1.55-9.44,3.68-17.04,5.76-2.24.61-4.47,1.24-6.66,1.88-15.67,4.58-29.79,9.65-33.6,11.04Zm96.07,93.43h0Zm61.46-40.06s0,0,0,0h0Z"></path>
      <path fill="#3a4a3a" d="m449.1,715.54c-.26,0-.53-.04-.8-.11l-81.52-22.46c-1.6-.44-2.54-2.09-2.1-3.69.44-1.6,2.09-2.54,3.69-2.1l81.52,22.46c1.6.44,2.54,2.09,2.1,3.69-.37,1.33-1.57,2.2-2.89,2.2Z"></path>
      <path fill="#3a4a3a" d="m432.7,729.67c-.18,0-.37-.02-.55-.05l-65.12-12.12c-1.63-.3-2.7-1.87-2.4-3.5.3-1.63,1.87-2.7,3.5-2.4l65.12,12.12c1.63.3,2.7,1.87,2.4,3.5-.27,1.44-1.53,2.45-2.95,2.45Z"></path>
      <path fill="#3a4a3a" d="m409.48,745.83c-.18,0-.37-.02-.55-.05l-41.9-7.82c-1.63-.3-2.7-1.87-2.4-3.5.3-1.63,1.87-2.7,3.5-2.4l41.9,7.82c1.63.3,2.7,1.87,2.4,3.5-.27,1.44-1.53,2.45-2.95,2.45Z"></path>
    </g>
    <g>
      <path fill="#3a4a3a" d="m619.42,752.39c-11.25,0-20.76-.36-24.1-1.17-6.24-1.52-8.57-4.54-9.42-6.91-3.54-.3-10.15-1.07-14.28-2.85-5.15-2.2-7.81-9.74-8.83-13.49-2.62-.47-7.22-1.44-10.44-2.96-2.93-1.37-4.94-4.67-5.99-9.8-.09-.46-.17-.89-.23-1.3-6.58-.82-19.49-3.28-21.84-10.07-.33-.95-.52-2.47.45-4.31,4.89-9.22,41.02-21.7,49.81-24.05,5.94-1.59,20.28-6.34,42.62-14.1,9.04-3.14,17.37-6.08,22.51-7.91-2.11-1.61-4.73-3.68-7.4-5.98-12.89-11.07-14.02-16.21-13.75-19.11.19-2.02.68-4.51,2.78-5.81,2.62-1.62,5.62-.46,11.05,1.66,3.06,1.19,6.88,2.68,11.9,4.23,1.45.45,2.98.9,4.55,1.33,21.09,5.77,41.57,13.39,41.77,13.46l.98.37.54.9c.47.78,11.55,19.35,15.5,39.28,3.34,16.82-1.35,27.02-7.28,39.94-1.42,3.08-2.88,6.27-4.37,9.81h0c-6.19,14.75-11.08,15.51-18.53,15.53-2.23,0-4.53.01-7.33.62-7.52,1.64-31.61,2.67-50.68,2.67Zm-27.99-10.51c.06.83,1.21,2.52,5.3,3.51,7.28,1.76,60.29,1.03,72.1-1.54,3.42-.74,6.28-.75,8.58-.76,5.52-.02,8.05-.02,13.02-11.86h0c1.53-3.63,3.01-6.86,4.45-9.99,5.91-12.86,9.81-21.35,6.85-36.26-3.28-16.5-12.02-32.55-14.24-36.46-4.34-1.58-22.08-7.95-40.26-12.93-1.64-.45-3.23-.92-4.74-1.39-5.22-1.62-9.31-3.21-12.29-4.37-2.17-.84-4.39-1.71-5.54-1.94-.05.24-.1.58-.15,1.06-.04.38,0,3.96,11.68,14,5.77,4.96,11.47,8.96,11.53,9l4.75,3.33-5.46,1.95c-.13.05-13.04,4.66-27.87,9.82-22.47,7.82-36.95,12.6-43.03,14.23-5.94,1.59-17.15,5.44-27.74,10.12-14.64,6.47-17.67,9.96-18.24,10.83,1.61,2.66,11.04,5.25,18.98,5.98l2.58.24.14,2.59s.08,1.34.41,3c.71,3.51,1.84,5.17,2.66,5.56,3.82,1.8,10.67,2.77,10.74,2.78l2.1.29.43,2.08c.82,3.98,3.17,10.09,5.82,11.22,3.93,1.69,11.88,2.4,14.61,2.53l3.77.18-.93,3.21Z"></path>
      <path fill="#3a4a3a" d="m548.82,714.2c-1.32,0-2.52-.87-2.89-2.2-.44-1.6.5-3.25,2.1-3.69l81.52-22.46c1.6-.44,3.25.5,3.69,2.1.44,1.6-.5,3.25-2.1,3.69l-81.52,22.46c-.27.07-.54.11-.8.11Z"></path>
      <path fill="#3a4a3a" d="m565.22,728.34c-1.42,0-2.68-1.01-2.95-2.45-.3-1.63.77-3.2,2.4-3.5l65.12-12.11c1.63-.31,3.2.77,3.5,2.4.3,1.63-.77,3.2-2.4,3.5l-65.12,12.11c-.19.03-.37.05-.55.05Z"></path>
      <path fill="#3a4a3a" d="m588.44,744.49c-1.42,0-2.68-1.01-2.95-2.45-.3-1.63.77-3.2,2.4-3.5l41.9-7.82c1.64-.3,3.2.77,3.5,2.4.3,1.63-.77,3.2-2.4,3.5l-41.9,7.82c-.19.03-.37.05-.55.05Z"></path>
    </g>
    <g>
      <path fill="#3a4a3a" d="m409.48,895.75c-.97,0-1.93-.47-2.51-1.35l-90.86-137.43c-.91-1.38-.53-3.24.85-4.16,1.38-.92,3.24-.54,4.16.85l90.86,137.43c.91,1.38.53,3.24-.85,4.16-.51.34-1.08.5-1.65.5Z"></path>
      <path fill="#3a4a3a" d="m324.29,837.82c-1.53,0-2.84-1.16-2.98-2.72l-5.68-60.2c-.16-1.65,1.06-3.11,2.71-3.27,1.66-.15,3.11,1.06,3.27,2.71l5.68,60.2c.16,1.65-1.06,3.11-2.71,3.27-.1,0-.19.01-.29.01Z"></path>
      <path fill="#3a4a3a" d="m597.78,907.11c-.53,0-1.07-.14-1.56-.44-1.41-.86-1.86-2.71-1-4.12l90.75-148.79c.86-1.41,2.71-1.86,4.12-1,1.41.86,1.86,2.71,1,4.12l-90.75,148.79c-.57.93-1.55,1.44-2.56,1.44Z"></path>
      <path fill="#3a4a3a" d="m675.71,848.05c-.18,0-.36-.02-.54-.05-1.63-.3-2.71-1.86-2.41-3.49l12.83-70.42c.3-1.63,1.86-2.71,3.49-2.41,1.63.3,2.71,1.86,2.41,3.49l-12.83,70.42c-.26,1.45-1.53,2.46-2.95,2.46Z"></path>
    </g>
    <path fill="#3a4a3a" d="m492.7,743.84l-2.95-.94c-.08-.02-18.18-5.37-44.42-18.9l-2.88-1.49,1.71-2.76c1.39-2.25,1.89-6.18,1.96-7.38l.14-2.59,2.58-.24c7.94-.73,17.38-3.32,18.98-5.98-.56-.87-3.58-4.36-18.24-10.83-10.59-4.68-21.81-8.52-27.75-10.12-11.49-3.08-50.64-16.87-62.37-21.02l-.72-.25-.51-.57c-1.68-1.87-3.36-3.82-4.98-5.8l-1.99-2.42,2.5-1.88c13.85-10.42,19.9-17.88,19.67-20.39-.04-.47-.1-.81-.15-1.05-1.14.23-3.37,1.1-5.53,1.95-3.98,1.55-9.44,3.68-17.04,5.76-2.24.61-4.47,1.24-6.66,1.88l-2.16.63-1.21-1.9c-12.23-19.21-21.13-40.73-25.74-62.22-4.88-22.73-4.62-44.3.74-62.39,6.71-22.66,21.48-39.75,42.69-49.42,31.51-14.37,64.93-12.21,96.63,6.23,18.7,10.88,31.77,24.5,36.87,30.28,5.08-5.77,18.09-19.35,36.88-30.28,31.71-18.44,65.12-20.6,96.64-6.23,20.8,9.49,35.43,26.14,42.3,48.17,10.71,34.35,2.38,80.78-21.74,121.19l-1.21,2.03-2.25-.7c-5.22-1.62-9.31-3.21-12.3-4.37-2.17-.84-4.39-1.71-5.54-1.94-.05.24-.1.58-.15,1.06h0c-.04.38,0,3.96,11.68,14l2.1,1.8-1.62,2.24c-5.1,7.02-10.61,13.53-16.38,19.35l-.49.49-.66.23c-22.47,7.82-36.95,12.6-43.03,14.23-5.94,1.59-17.15,5.44-27.74,10.12-14.64,6.47-17.67,9.96-18.24,10.83,1.61,2.66,11.04,5.25,18.98,5.98l2.58.24.14,2.59s.08,1.34.41,3l.43,2.14-1.9,1.07c-29.69,16.72-52.91,24.44-57.3,25.83l-.77.77Zm-42.06-23.86c24.12,12.2,40.68,17.14,40.85,17.19l.38.12c4.4-1.4,25.46-8.46,52.85-23.55-6.86-.98-18.25-3.54-20.44-9.88-.33-.95-.52-2.47.45-4.31,4.89-9.22,41.02-21.7,49.81-24.05,5.88-1.58,20-6.24,41.96-13.88,4.77-4.85,9.36-10.21,13.67-15.95-10.92-9.81-11.91-14.53-11.65-17.27h0c.19-2.02.68-4.51,2.78-5.81,2.62-1.62,5.62-.46,11.05,1.66,2.59,1.01,5.71,2.22,9.64,3.51,22.35-38.49,30-82.08,19.96-114.28-6.44-20.64-19.58-35.61-39.06-44.5-30.09-13.72-60.75-11.71-91.13,5.96-23.06,13.41-36.96,30.85-37.54,31.59l-.9,1.14h-2.92l-.91-1.15c-.55-.71-56.24-70.54-128.64-37.54-19.87,9.06-33.13,24.42-39.42,45.67-9.85,33.23-.77,79.24,23.11,117.78,1.52-.43,3.05-.86,4.58-1.28,7.3-2,12.58-4.06,16.44-5.56,5.43-2.12,8.43-3.28,11.05-1.67,2.11,1.3,2.59,3.78,2.78,5.8.5,5.36-6.06,13.37-19.52,23.83.76.89,1.53,1.78,2.3,2.64,12.48,4.42,50.15,17.67,61.2,20.63,8.79,2.36,44.92,14.83,49.81,24.06.97,1.83.78,3.36.45,4.31-2.35,6.79-15.24,9.25-21.83,10.07-.21,1.34-.57,3.04-1.17,4.71Zm17.29-16.19h0Zm62.06-1.34h0Z"></path>
    <path fill="#3a4a3a" d="m539.9,649.43c-2.62,0-4.93-1.52-5.96-3.97l-8.79-20.86c-.08-.18-.26-.3-.46-.3h-16.2c-3.22,0-5.99-2.41-6.44-5.6l-7.21-51.76c-.02-.14-.05-.39-.44-.43-.38-.03-.47.2-.52.33l-22.83,66.61c-.9,2.63-3.37,4.39-6.15,4.39h-18.39c-2.66,0-5.1-1.67-6.06-4.15l-7.93-20.45c-.03-.07-.11-.29-.42-.32-.31-.03-.43.18-.47.25l-13.94,23.87c-1.46,2.5-4.23,3.7-7.06,3.06-2.83-.65-4.8-2.93-5.03-5.82l-6.94-86.97c-.01-.16-.03-.41-.44-.45-.41-.04-.48.2-.53.35l-18.67,63.73c-.81,2.75-3.37,4.67-6.23,4.67h-42.24c-1.66,0-3-1.34-3-3s1.34-3,3-3h42.24c.22,0,.42-.15.48-.36l18.67-63.73c.9-3.06,3.73-4.96,6.9-4.64,3.17.33,5.56,2.77,5.81,5.95l6.94,86.97c0,.12.03.36.38.44.36.08.48-.13.54-.23l13.94-23.87c1.27-2.17,3.62-3.4,6.13-3.2,2.51.2,4.63,1.78,5.54,4.13l7.93,20.45c.07.19.26.32.46.32h18.39c.21,0,.4-.14.47-.34l22.83-66.61c1-2.9,3.72-4.65,6.77-4.36,3.05.29,5.39,2.53,5.81,5.57l7.21,51.76c.03.24.25.43.49.43h16.2c2.62,0,4.97,1.56,5.99,3.97l8.79,20.85c.04.1.12.33.49.3.35-.02.42-.26.45-.37l18.75-69.57c.76-2.83,3.24-4.76,6.17-4.81,2.95,0,5.47,1.81,6.32,4.61l13.72,45.22c.06.21.25.35.47.35h9.27c.22,0,.42-.15.48-.37l17.05-63.05c.81-3,3.41-4.92,6.55-4.79,3.11.13,5.56,2.28,6.12,5.34l7.47,41.45c.04.24.25.41.49.41h24.63c1.66,0,3,1.34,3,3s-1.34,3-3,3h-24.63c-3.15,0-5.84-2.25-6.39-5.34l-7.47-41.45c-.03-.15-.07-.39-.47-.41-.39-.03-.46.22-.5.37l-17.05,63.05c-.76,2.83-3.34,4.8-6.27,4.8h-9.27c-2.88,0-5.38-1.85-6.22-4.61l-13.72-45.22c-.03-.11-.11-.35-.47-.35h-.01c-.38,0-.44.25-.47.37l-18.75,69.57c-.73,2.72-3.02,4.6-5.83,4.79-.16.01-.31.02-.46.02Z"></path>
    <g>
      <path fill="#3a4a3a" d="m469.88,161.55s-3-79.42,97.4-51.95c100.4,27.47,35.96,90.41,82.91,116.38,46.95,25.97,1.5,53.44,3,76.42,1.5,22.98,34.46,46.95.5,64.93-33.96,17.98-70.93,11.99-72.92-9.49-2-21.48,4.5-37.68,4.5-37.68,0,0,20.58-1.09,25.86-15.09,5.28-14-3.1-24.45-7.99-25.53-4.89-1.07-14.67.76-15.12-1.17s-40.3-82.37-40.3-82.37l-77.83-34.46Z"></path>
      <path fill="#3a4a3a" d="m402.72,265.45c.92,5.2,5.25,8.69,9.8,7.88,8.43-1.5,23.5-4.7,45-11.21,35.02-10.59,50.26-34.69,50.26-34.69,0,0,39.82,41.51,65.17,46.69,25.35,5.18,32.77,2.94,37.57-10.41,4.8-13.35,3.72-73.46-37.43-106.69-41.16-33.23-66.4-6.18-66.4-6.18,0,0-45.51-23.71-79.45,7.21-26.9,24.51-28.35,85.67-24.51,107.41Z"></path>
      <path fill="#3a4a3a" d="m592.47,279.74c-5.44,0-12.04-1.02-20.12-2.67-22.52-4.6-54.92-35.68-64.21-44.98-5.42,7.01-21.12,24.26-49.74,32.92-21.34,6.46-36.43,9.7-45.34,11.29-2.79.5-5.64-.15-8.03-1.82-2.72-1.9-4.63-4.99-5.25-8.49h0c-3.4-19.2-3.73-83.58,25.44-110.15,14.55-13.25,33.52-18.77,54.86-15.95,12.37,1.63,22.09,5.57,26.06,7.38,2.72-2.33,8.75-6.69,17.65-8.71,11.1-2.53,28.99-1.78,51.19,16.14,42.22,34.09,43.68,95.27,38.37,110.04-3.96,11.03-10.14,15.01-20.87,15.01Zm-85.17-57.13l2.65,2.75c.39.41,39.46,40.9,63.6,45.82,26.35,5.38,30.47,1.75,34.14-8.49,4.79-13.34,2.78-71.63-36.49-103.35-38.35-30.97-61.37-7.47-62.33-6.46l-1.56,1.64-2.02-1.04c-.44-.23-44.09-22.34-76.04,6.76-25.82,23.52-27.3,83.58-23.57,104.67h0c.34,1.94,1.36,3.62,2.78,4.61.76.53,2,1.11,3.55.84,8.75-1.56,23.59-4.75,44.65-11.12,33.43-10.11,48.44-33.19,48.59-33.43l2.05-3.22Z"></path>
      <path fill="#3a4a3a" d="m494.44,386.77c-21.87,0-39.82-7.52-53.37-22.35-35.88-39.27-28.9-115.63-28.59-118.87.16-1.65,1.62-2.85,3.28-2.7,1.65.16,2.86,1.63,2.7,3.28-.07.77-7.02,76.97,27.05,114.25,12.49,13.67,29.15,20.54,49.56,20.38,28.45-.2,50.58-9.29,65.75-27.02,32.27-37.72,23.01-102.67,22.91-103.33-.25-1.64.88-3.17,2.52-3.41,1.64-.24,3.17.88,3.41,2.52.42,2.77,9.79,68.27-24.27,108.1-16.36,19.13-40,28.93-70.29,29.14-.22,0-.44,0-.66,0Z"></path>
      <path fill="#3a4a3a" d="m417.63,323.17c-5.27,0-14.18-.93-20.74-6.46-4.99-4.21-7.68-10.21-7.97-17.85-.32-8.35,1.93-14.49,6.71-18.26,8.04-6.36,20.02-3.11,20.53-2.97,1.6.44,2.53,2.1,2.08,3.7-.44,1.59-2.1,2.53-3.69,2.09-.18-.05-9.61-2.54-15.22,1.91-3.17,2.52-4.66,7-4.41,13.31.23,5.87,2.19,10.4,5.82,13.48,7.64,6.46,20.38,4.9,20.51,4.88,1.64-.22,3.15.94,3.36,2.58.21,1.64-.94,3.15-2.58,3.36-.2.03-1.89.24-4.4.24Z"></path>
      <path fill="#3a4a3a" d="m586.48,322.01c-2.17,0-3.6-.16-3.79-.18-1.65-.2-2.82-1.69-2.63-3.33.2-1.65,1.69-2.82,3.33-2.62.12.01,12.88,1.4,20.43-5.16,3.59-3.12,5.49-7.68,5.63-13.56.16-6.31-1.39-10.77-4.6-13.24-5.69-4.39-15.15-1.73-15.24-1.7-1.59.46-3.25-.45-3.72-2.04s.44-3.25,2.03-3.72c.5-.15,12.44-3.55,20.56,2.69,4.82,3.7,7.16,9.82,6.96,18.17-.19,7.64-2.79,13.68-7.72,17.96-6.74,5.84-16.1,6.75-21.26,6.75Z"></path>
      <path fill="#3a4a3a" d="m414.88,273.73c-1.5,0-2.79-1.12-2.97-2.64-.2-1.65.97-3.14,2.62-3.34.51-.06,50.82-6.27,67.47-20.16,1.27-1.06,3.16-.89,4.23.38s.89,3.16-.38,4.23c-18.01,15.03-68.46,21.26-70.6,21.52-.12.01-.24.02-.36.02Z"></path>
      <g>
        <path fill="#3a4a3a" d="m497.15,332.32s-.07,0-.1,0c-11.61-.39-20.19-4.61-24.28-7.1-1.68-1.02-2.72-2.66-2.85-4.5-.13-1.79.63-3.5,2.08-4.7,8.34-6.87,18.09-22.09,8.73-33.67-9.47-11.71-26.35-4.76-27.06-4.46-1.52.64-3.28-.07-3.93-1.59-.65-1.52.06-3.28,1.58-3.93.88-.38,21.74-9.05,34.08,6.21,10.65,13.18,3.27,31.21-9.16,41.72,3.79,2.24,11.14,5.69,21,6.02,1.66.06,2.95,1.44,2.9,3.1-.05,1.62-1.39,2.9-3,2.9Z"></path>
        <path fill="#3a4a3a" d="m547.7,283.7c-.74,0-1.48-.27-2.06-.82h0c-.57-.54-14.21-13.16-28.78-5.62-1.48.76-3.28.19-4.04-1.29-.76-1.47-.19-3.28,1.29-4.04,18.4-9.52,34.98,5.94,35.67,6.6,1.2,1.14,1.25,3.04.11,4.24-.59.62-1.38.93-2.17.93Z"></path>
      </g>
      <ellipse fill="#f8c8a8" cx="543.44" cy="323.47" rx="12.47" ry="10.49"></ellipse>
      <ellipse fill="#f8c8a8" cx="442.46" cy="323.47" rx="12.47" ry="10.49"></ellipse>
      <path fill="#3a4a3a" d="m492.91,357.38c-6.6,0-13.19-1.86-18.95-5.54l-1.26-.81c-1.4-.89-1.8-2.75-.91-4.14.89-1.4,2.75-1.8,4.14-.91l1.26.81c8.91,5.71,20.24,6.13,29.55,1.1l3.74-2.02c1.46-.79,3.28-.24,4.07,1.21.79,1.46.24,3.28-1.21,4.07l-3.74,2.02c-5.22,2.82-10.96,4.22-16.69,4.22Z"></path>
      <path fill="#3a4a3a" d="m458.21,298.83c-15.22,0-17.22-7.5-17.39-8.36l5.88-1.22s0-.06-.04-.17c.01.04,1.42,3.75,11.56,3.75s11.4-3.65,11.41-3.69c-.04.11-.04.17-.04.17l5.9,1.09c-.16.86-2,8.43-17.27,8.43Z"></path>
      <path fill="#3a4a3a" d="m526.37,298.83c-15.22,0-17.22-7.5-17.39-8.36l5.88-1.22s0-.06-.04-.17c.01.04,1.42,3.75,11.56,3.75s11.4-3.65,11.41-3.69c-.04.11-.04.17-.04.17l5.9,1.09c-.16.86-2,8.43-17.27,8.43Z"></path>
      <path fill="#3a4a3a" d="m440.91,382.04c-.29,0-.59-.04-.88-.13-1.58-.49-2.47-2.16-1.99-3.75l4.44-14.48c.49-1.58,2.16-2.48,3.75-1.99,1.58.49,2.47,2.16,1.99,3.75l-4.44,14.48c-.4,1.29-1.58,2.12-2.87,2.12Z"></path>
      <path fill="#3a4a3a" d="m558.83,379.54c-1.2,0-2.33-.72-2.79-1.91l-4.68-11.99c-.6-1.54.16-3.28,1.7-3.89,1.54-.6,3.28.16,3.89,1.7l4.68,11.99c.6,1.54-.16,3.28-1.7,3.89-.36.14-.73.21-1.09.21Z"></path>
      <path fill="#3a4a3a" d="m493.12,432.17c-.06,0-.12,0-.18,0-21.89-1.33-49.22-11.05-55.56-49.74-6.33,1.76-23.94,8.1-39.85,14.19-1.55.59-3.28-.18-3.87-1.73-.59-1.55.18-3.28,1.73-3.87.11-.04,10.7-4.09,21.3-7.92,6.24-2.26,11.27-4,14.94-5.18,7.03-2.26,8.97-2.62,10.48-.77.64.79.76,1.55,1.07,3.58,4.4,28.41,21.26,43.71,50.12,45.45,1.65.1,2.91,1.52,2.81,3.18-.1,1.59-1.42,2.82-2.99,2.82Z"></path>
    </g>
  </g>
  <g>
    <path fill="#f8c8a8" d="m717.79,374.64s-29.41-94.54,10.37-122.25c39.78-27.72,53.1,41.04,53.1,41.04,0,0,68.04-14.19,65.74,28.91-2.29,43.09-129.21,52.31-129.21,52.31Z"></path>
    <path fill="#e8b896" d="m304.82,361.56s-47.38,23.53-65.37,4.89c-17.99-18.64,17.15-31.49,17.15-31.49,0,0-13.25-34.69,9.68-37.13,22.93-2.44,38.55,63.73,38.55,63.73Z"></path>
    <path fill="#f8c8a8" d="m313.64,286.37s-40.72-12.04-41.13-32.83c-.4-20.79,27.29-9.16,27.29-9.16,0,0,11.15-27.64,25.97-16.56,14.82,11.09-12.14,58.54-12.14,58.54Z"></path>
  </g>
  <path fill="#3a4a3a" d="m129.23,794.4c-.8,0-1.59-.31-2.18-.94-49.06-51.88-48.49-117.26-39.38-162.97,12.15-60.92,44.34-113.86,70.42-143.1.1-.11.2-.23.31-.34-14.98-7.77-28.59-20.6-36.92-40.12-22.15-51.91-4.79-122.4,25.34-152.6-4.44-9.23-6.95-21.79-5.14-38.86,2.25-21.29,14.71-39.02,37.01-52.7,17.48-10.72,41.08-18.98,70.12-24.55,49.17-9.43,97.82-7.89,98.31-7.87,1.66.06,2.95,1.45,2.9,3.1-.06,1.66-1.43,2.96-3.1,2.9-.48-.02-48.54-1.54-97.06,7.78-28.31,5.44-51.21,13.44-68.06,23.78-20.61,12.65-32.1,28.86-34.15,48.2-1.41,13.33-.12,24.72,3.85,33.96,14.91-12.35,31.3-14.02,46.26-4.69,16.65,10.39,15.93,19.38,14.02,23.81-4.04,9.38-19.94,13.7-35.45,9.64-5.45-1.43-17.9-6-26.44-19.04-12.95,13.63-23.51,35.68-28.78,60.51-6.44,30.35-4.35,60.29,5.9,84.29,7.97,18.69,21.19,30.75,35.63,37.88,25.66-27.02,49.08-36.79,63.3-26.12,12.88,9.66,13.67,17.97,12.07,23.24-2.89,9.52-16.28,16.3-34.13,17.27-12.13.66-26.31-1.33-39.82-7.12-.5.55-.99,1.1-1.49,1.66-61.26,68.67-113.52,210.86-31.16,297.95,1.14,1.2,1.09,3.1-.12,4.24-.58.55-1.32.82-2.06.82Zm39.23-309.35c11.97,4.76,24.39,6.39,35.09,5.81,15.06-.82,26.6-6.05,28.71-13.02,1.47-4.86-2.05-10.79-9.93-16.7-11.15-8.36-31.43.78-53.87,23.91Zm-14.16-189.51c.24.4.49.79.74,1.17,6.75,10.31,16.12,14.56,22.8,16.31,13.63,3.57,25.92-.41,28.42-6.21,1.96-4.54-2.3-10.49-11.68-16.34-16.42-10.25-30.8-3.04-39.96,4.81-.1.09-.21.18-.31.27Z"></path>
  <path fill="#3a4a3a" d="m719.62,837.82c-1.64,0-2.98-1.33-3-2.97-.01-1.66,1.32-3.01,2.97-3.03.45,0,45.45-.68,91.22-25.34,61.2-32.96,94.71-90.87,99.61-172.1,4.91-81.42-17-135.14-45.42-165.04-6.59,5.13-13.64,8.64-20.73,10.64-22.27,6.3-43.52-2.61-50.54-21.18-2.85-7.53-1.8-14.08,2.93-18.45,7.86-7.24,24-6.66,41.11,1.47,9.34,4.44,18.71,10.87,27.57,19.39,21.97-20.28,36.68-62.4,23.15-132.77-12.18-63.33-51.45-103.87-116.73-120.49-49.05-12.49-95.17-6.04-95.63-5.98-1.64.24-3.16-.9-3.4-2.54-.24-1.64.9-3.16,2.54-3.4.47-.07,47.61-6.68,97.8,6.05,29.62,7.52,54.52,20.19,74.02,37.67,24.42,21.89,40.33,51.34,47.3,87.55,13.95,72.55-1.57,116.5-24.83,138.15,29.34,31.08,51.87,86.25,46.86,169.28-2.77,45.88-14.82,85.12-35.84,116.64-16.85,25.27-39.44,45.62-67.13,60.5-47.06,25.28-91.91,25.92-93.8,25.94h-.03Zm92.86-396.49c-5.43,0-9.48,1.35-11.75,3.43-3.61,3.32-2.75,8.31-1.38,11.91,5.89,15.58,24.09,22.95,43.29,17.52,6.18-1.75,12.33-4.76,18.1-9.13-8.22-7.81-16.89-13.73-25.54-17.83-8.89-4.22-16.66-5.91-22.73-5.91Z"></path>
  <path fill="#3a4a3a" d="m157.68,418.29c-8.84,0-16.02-7.19-16.02-16.02s7.19-16.02,16.02-16.02,16.02,7.19,16.02,16.02-7.19,16.02-16.02,16.02Zm0-26.05c-5.53,0-10.02,4.5-10.02,10.02s4.5,10.02,10.02,10.02,10.02-4.5,10.02-10.02-4.5-10.02-10.02-10.02Z"></path>
  <path fill="#3a4a3a" d="m144.19,576.33c-6.6,0-11.97-5.37-11.97-11.97s5.37-11.97,11.97-11.97,11.97,5.37,11.97,11.97-5.37,11.97-11.97,11.97Zm0-17.94c-3.29,0-5.97,2.68-5.97,5.97s2.68,5.97,5.97,5.97,5.97-2.68,5.97-5.97-2.68-5.97-5.97-5.97Z"></path>
  <path fill="#3a4a3a" d="m808.33,901.89c-14.21,0-25.78-11.56-25.78-25.77s11.56-25.77,25.78-25.77,25.77,11.56,25.77,25.77-11.56,25.77-25.77,25.77Zm0-45.55c-10.9,0-19.78,8.87-19.78,19.77s8.87,19.77,19.78,19.77,19.77-8.87,19.77-19.77-8.87-19.77-19.77-19.77Z"></path>
  <path fill="#3a4a3a" d="m691.51,161.12c-10.37,0-18.81-8.44-18.81-18.81s8.44-18.81,18.81-18.81,18.81,8.44,18.81,18.81-8.44,18.81-18.81,18.81Zm0-31.62c-7.06,0-12.81,5.75-12.81,12.81s5.75,12.81,12.81,12.81,12.81-5.75,12.81-12.81-5.75-12.81-12.81-12.81Z"></path>
</svg>