<?xml version="1.0" encoding="UTF-8"?>
<svg id="Layer_2" data-name="Layer 2" xmlns="http://www.w3.org/2000/svg" viewBox="0 0 1000 1000">

  <defs></defs>
  <g>
    <path fill="#e8b896" d="m701.68,500.85c-21.76-27.21-162.22-93.37-169.96-96.99-.19-.09-.43-.05-.56.12-3.88,4.62-55.94,65.36-104.43,67.32-46.37,1.87-28.09-44.27-24.86-51.68.17-.38-.21-.77-.6-.64-10.11,3.51-90.8,31.56-111.76,42.37-22.38,11.53-155.31,139.71-189.22,192.61-33.91,52.9-16.95,102.41,31.88,118.69,48.83,16.28,129.54-65.11,129.54-65.11l-40.69,224.49h413.71l-10.85-134.97s94.27-4.75,122.08-9.84c27.8-5.09,44.42-5.43,48.49-53.92,4.07-48.49-70.37-204.48-92.74-232.45Zm-380.08,110.15c-4.75,4.75-13.57,10.17-13.57,10.17,0,0,6.56,6.1,3.17,11.08-3.39,4.97-39.11,29.39-39.11,29.39,0,0,28.93-6.56,29.61-.68.68,5.88-7.23,8.59-9.27,9.72-2.03,1.14-31.65,10.63-31.65,10.63,0,0-7.46,16.05-24.41,21.48-16.95,5.43-35.49,2.72-42.84-11.98-7.35-14.7-11.64-34.25,0-52.61,0,0,42.61-40.07,52.56-49.79,9.95-9.72,17.18-28.71,22.38-23.97,5.2,4.75-1.13,25.1-1.13,25.1,0,0,23.06-5.65,29.84-6.55,6.79-.9,24.19-1.35,26.22,3.62,2.04,4.97-5.65,11.53-5.65,11.53,0,0,8.59,8.13,3.85,12.88Zm273.66,169.84c-17.78-.66-56.79-17.18-56.79-17.18,0,0-31.08-1.18-33.34-1.71-2.26-.54-10.61-1.02-11.54-6.87-.93-5.84,28.7-7.32,28.7-7.32,0,0-5.57-1.89-12.83-4.48-3.42,4.4-8.76,7.22-14.76,7.22h-137.8c-10.34,0-18.71-8.38-18.71-18.72v-26.96c0-1.29,1-2.36,2.28-2.43,20.8-1.19,37.29-18.42,37.29-39.5s-16.49-38.32-37.29-39.5c-1.28-.07-2.28-1.15-2.28-2.44v-26.96c0-10.34,8.37-18.72,18.71-18.72h24.8c2.44,0,4.5-1.84,4.77-4.28,2.12-19.84,18.92-35.29,39.33-35.29s37.2,15.44,39.33,35.29c.27,2.44,2.33,4.28,4.77,4.28h24.8c10.34,0,18.72,8.38,18.72,18.72v65.49c4.35,3.75,9.27,8.04,14.2,10.74,10.88,5.96,53.32,28.2,62.33,32.92.62.33.68,1.17.13,1.61-.96.79-2.03,2.43-2.11,5.83-.15,6.27.45,29.15,4.34,51.88,1.39,8.16,2.6,14.11,3.57,18.38-.21,0-.43,0-.63-.01Z"></path>
    <path fill="#3a4a3a" d="m610.83,801.46c-9.56,0-11.08-.97-11.98-1.54-1.48-.94-3.29-3.06-6.09-16.36-1.64-7.82-3.33-18.19-4.75-29.22-.9-6.95-5.21-41.98-1.99-49.23,1.04-2.35,3.22-7.25,48.2-13.41,15.24-2.09,30.37-3.62,37.95-4.34-10.6-16.22-47.6-74.59-55.31-110.79-9.02-42.34,21.08-77.74,22.37-79.23,1.09-1.25,2.98-1.39,4.23-.31,1.25,1.08,1.39,2.98.31,4.23-.37.43-29.42,34.73-21.04,74.05,8.59,40.33,56.72,112.17,57.2,112.89l2.84,4.23-5.08.44c-.2.02-20.64,1.79-41.61,4.63-38.71,5.24-43.93,9.27-44.61,10.12-1.23,3.04-.85,19.54,2.29,44.42,3.25,25.76,6.83,40.29,8.46,42.85,4.89,1.64,36.38-.39,64.63-3.36,1.64-.17,3.12,1.02,3.3,2.67.17,1.65-1.02,3.12-2.67,3.3-.15.02-15.51,1.62-31.35,2.78-11.91.87-19.89,1.17-25.3,1.17Zm-8.46-6.36h0s0,0,0,0Zm-10.92-87.44h0,0Z"></path>
    <g>
      <path fill="#3a4a3a" d="m220.56,708.33c-12.25,0-23.92-4.61-29.7-16.18-7.06-14.1-12.76-35.19.15-55.56l.2-.32.28-.26c.43-.4,42.71-40.16,52.52-49.75,3.68-3.59,7.09-8.72,10.1-13.25,4.55-6.84,7.83-11.77,11.96-12.28,1.13-.13,2.82,0,4.45,1.49,4.77,4.36,2.92,15.86,1.11,23.2,7.22-1.72,20.23-4.75,25.18-5.41.26-.03,25.81-3.33,29.4,5.46,1.98,4.83-1.66,9.94-4.26,12.78,1.79,2.2,4.06,5.67,4.11,9.2.03,2.18-.77,4.14-2.31,5.68h0c-3.22,3.22-8.07,6.64-11.17,8.71,2.33,3.3,3.98,7.94,1.13,12.11-2.42,3.54-17.36,14.42-28.49,22.26,7.08-.93,14.35-1.17,17.41,1,1.19.84,1.93,2.05,2.09,3.41.83,7.19-6.62,10.7-9.8,12.2-.41.19-.76.35-1,.49-1.97,1.1-21.47,7.42-31,10.48-2.19,4.05-10.19,16.93-25.6,21.86-5.36,1.71-11.11,2.69-16.73,2.69Zm-24.68-68.22c-11.15,17.91-5.98,36.7.35,49.35,6.85,13.71,24.65,15.14,39.24,10.46,15.52-4.97,22.54-19.73,22.61-19.88l.55-1.19,1.25-.4c11.08-3.55,29.33-9.52,31.15-10.41.3-.17.76-.39,1.31-.65,3.22-1.52,6.18-3.23,6.4-5.48-2.93-1.09-14.6.08-25.97,2.66l-15.34,3.48,12.99-8.88c14.64-10.01,36.2-25.5,38.32-28.61,1.83-2.69-2.69-7.15-2.74-7.2l-2.85-2.69,3.33-2.06c.08-.05,8.58-5.3,13.02-9.74.4-.4.56-.79.55-1.36-.03-2.39-2.94-5.9-4.34-7.22l-2.42-2.3,2.54-2.17c2.52-2.17,5.61-6.19,4.82-8.11-1.32-2.08-13.61-3.04-23.05-1.78-6.54.87-29.29,6.44-29.52,6.5l-5.15,1.26,1.57-5.07c2.67-8.61,4.15-19.55,2.09-21.87-1.67.83-5.14,6.05-7.48,9.56-3.17,4.77-6.77,10.18-10.9,14.21-9.43,9.22-48.6,46.07-52.32,49.57Zm125.73-29.11h0,0Z"></path>
      <path fill="#3a4a3a" d="m251.07,624.4c-.99,0-1.96-.49-2.53-1.39-.89-1.4-.48-3.25.92-4.14,1.55-.99,37.68-23.78,66.71-23.78.57,0,1.13,0,1.69.03,1.66.05,2.96,1.44,2.9,3.09-.05,1.66-1.46,3-3.09,2.9-27.49-.87-64.61,22.58-64.98,22.82-.5.32-1.06.47-1.61.47Z"></path>
      <path fill="#3a4a3a" d="m262.15,646.1c-.86,0-1.72-.37-2.31-1.09-1.06-1.28-.88-3.17.4-4.22.96-.8,23.89-19.58,47.42-22.59,1.64-.21,3.15.95,3.36,2.59.21,1.64-.95,3.15-2.59,3.36-21.83,2.8-44.14,21.08-44.36,21.26-.56.46-1.24.69-1.91.69Z"></path>
    </g>
    <g>
      <path fill="#3a4a3a" d="m599.65,783.85h-3.76c-.25,0-.49,0-.73-.01-17.23-.64-52.47-15.16-57.34-17.2-7.94-.3-31.07-1.22-33.38-1.77-.28-.07-.66-.13-1.11-.21-3.46-.59-11.56-1.97-12.7-9.11-.21-1.35.17-2.72,1.09-3.85,2.37-2.92,9.44-4.64,16.51-5.66-12.84-4.56-30.16-11.01-33.44-13.77-3.87-3.26-3.52-8.17-2.17-11.97-3.54-1.15-9.14-3.15-13.1-5.38-1.9-1.07-3.19-2.75-3.75-4.85-.91-3.42.34-7.37,1.48-9.98-3.27-2.03-8.15-5.98-7.55-11.16,1.1-9.42,26.59-13.13,26.85-13.17,4.95-.7,18.3-1.28,25.72-1.56-3.73-6.58-8.6-17.16-5.18-22.64,1.17-1.87,2.76-2.46,3.88-2.63,4.12-.62,8.6,3.25,14.82,8.61,4.12,3.55,8.78,7.57,13.29,10.04,7.02,3.85,29.14,15.53,62.28,32.9,1.17.61,1.96,1.77,2.09,3.09.14,1.34-.41,2.65-1.46,3.51-.21.18-.95.98-1.01,3.58-.11,4.88.28,27.87,4.3,51.3,1.2,7.04,2.4,13.17,3.54,18.22l.83,3.66Zm-102.94-28.67c.82,2.11,4.13,2.96,7.63,3.56.61.1,1.13.2,1.5.29,1.92.36,21.12,1.19,32.76,1.63l.55.02.51.21c.36.15,34.26,14.44,52.46,16.67-.9-4.29-1.82-9.18-2.74-14.59-3.73-21.75-4.57-44.73-4.38-52.45.06-2.63.64-4.51,1.39-5.87-31.96-16.75-53.29-28.02-60.19-31.8-5.06-2.78-9.98-7.02-14.32-10.76-3.19-2.75-7.93-6.83-9.76-7.19-1.32,2.91,3.02,12.97,7.89,20.5l2.88,4.46-5.3.17c-.24,0-23.65.76-30.18,1.69-9.43,1.33-21.01,5.57-21.73,7.95-.23,2.02,3.82,5.07,6.84,6.48l3.01,1.41-1.7,2.86c-.99,1.66-2.84,5.85-2.23,8.14.15.54.4.88.9,1.15,5.47,3.08,15.06,5.85,15.16,5.88l3.79,1.09-2.06,3.36s-3.19,5.57-.7,7.66c2.88,2.42,27.82,11.53,44.61,17.23l14.89,5.05-15.7.78c-11.65.58-23.2,2.6-25.73,4.43Zm91.85-49.38s0,0,0,0h0Zm-.38-3.36s0,0-.02.01c0,0,.01,0,.02-.01Z"></path>
      <path fill="#3a4a3a" d="m531.72,706.35c-.29,0-.58-.04-.87-.13-.42-.13-42.54-12.7-68.73-4.49-1.58.5-3.26-.38-3.76-1.96-.5-1.58.38-3.26,1.96-3.76,27.97-8.77,70.47,3.93,72.27,4.47,1.58.48,2.48,2.16,2,3.74-.39,1.3-1.58,2.13-2.87,2.13Z"></path>
      <path fill="#3a4a3a" d="m526.89,730.23c-.41,0-.82-.08-1.22-.26-.26-.12-26.71-11.72-48.45-8.54-1.63.24-3.16-.9-3.4-2.54-.24-1.64.9-3.16,2.53-3.4,23.48-3.43,50.61,8.49,51.75,9,1.51.67,2.19,2.45,1.52,3.96-.5,1.12-1.59,1.78-2.74,1.78Z"></path>
    </g>
    <path fill="#3a4a3a" d="m100.62,675.27c-.93,0-1.85-.43-2.44-1.25-.97-1.35-.66-3.22.69-4.19,31.38-22.51,91.56-34.11,94.1-34.59,1.62-.31,3.2.76,3.51,2.39s-.76,3.2-2.39,3.51c-.61.12-61.43,11.84-91.72,33.57-.53.38-1.14.56-1.75.56Z"></path>
    <path fill="#3a4a3a" d="m261.7,710.53c-.24,0-.48-.03-.72-.09-1.61-.4-2.59-2.02-2.19-3.63l7.12-28.82c.4-1.61,2.02-2.59,3.63-2.19,1.61.4,2.59,2.02,2.19,3.63l-7.12,28.82c-.34,1.37-1.56,2.28-2.91,2.28Z"></path>
    <path fill="#3a4a3a" d="m372.58,881.27c-.49,0-.99-.12-1.46-.38l-126.15-70.19c-1.45-.81-1.97-2.63-1.16-4.08.81-1.45,2.63-1.97,4.08-1.16l126.15,70.19c1.45.81,1.97,2.63,1.16,4.08-.55.99-1.57,1.54-2.62,1.54Z"></path>
    <path fill="#3a4a3a" d="m268.82,865.5c-1.08,0-2.12-.59-2.66-1.61l-22.38-42.73c-.77-1.47-.2-3.28,1.27-4.05,1.47-.77,3.28-.2,4.05,1.26l22.38,42.73c.77,1.47.2,3.28-1.27,4.05-.44.23-.92.34-1.39.34Z"></path>
    <path fill="#3a4a3a" d="m613.68,909.25h-117.21c-1.66,0-3-1.34-3-3s1.34-3,3-3h117.21c1.66,0,3,1.34,3,3s-1.34,3-3,3Z"></path>
    <path fill="#3a4a3a" d="m417.74,503.9c-8.77,0-16.11-2.42-21.92-7.25-14.49-12.05-13.73-34.48-13.69-35.43.07-1.66,1.45-2.96,3.12-2.87,1.65.07,2.94,1.46,2.87,3.12,0,.22-.65,20.46,11.55,30.59,7.06,5.86,17.22,7.32,30.22,4.35,1.61-.37,3.22.64,3.59,2.26.37,1.62-.64,3.22-2.26,3.59-4.82,1.1-9.32,1.65-13.5,1.65Z"></path>
    <path fill="#3a4a3a" d="m443.52,539.88c-11.75,5.89-20.17,17.47-21.63,31.12-.27,2.44-2.34,4.28-4.77,4.28h-24.8c-10.34,0-18.71,8.38-18.71,18.72v26.96c0,1.29,1,2.36,2.28,2.44,20.8,1.18,37.29,18.41,37.29,39.5s-16.49,38.31-37.29,39.5c-1.28.07-2.28,1.14-2.28,2.43v26.96c0,10.34,8.37,18.72,18.71,18.72h-35.41c-10.34,0-18.71-8.38-18.71-18.72v-26.96c0-1.29,1-2.36,2.28-2.43,20.8-1.19,37.29-18.42,37.29-39.5s-16.49-38.32-37.29-39.5c-1.28-.07-2.28-1.15-2.28-2.44v-26.96c0-10.34,8.37-18.72,18.71-18.72h24.8c2.44,0,4.5-1.84,4.77-4.28,2.12-19.84,18.92-35.29,39.33-35.29,6.37,0,12.38,1.5,17.72,4.17Z"></path>
    <g>
      <g>
        <path fill="#3a4a3a" d="m419.58,420.96c-15.11,0-29.82-4.67-39.25-16.35-13.05-16.17-17.23-36.65-21.28-56.46-.63-3.07-1.25-6.13-1.9-9.14-3.47-16.01-6.7-31.71-9.59-46.66-.31-1.63.75-3.2,2.38-3.51s3.2.75,3.52,2.38c2.88,14.9,6.1,30.56,9.56,46.52.66,3.03,1.29,6.11,1.92,9.21,3.9,19.11,7.94,38.86,20.07,53.89,13.52,16.76,40.08,16.84,60.4,9.5,42.28-15.28,52.52-51.13,52.62-51.49.44-1.6,2.09-2.54,3.68-2.1,1.6.44,2.54,2.09,2.1,3.68-.44,1.59-11.19,39.22-56.37,55.55-8.63,3.12-18.32,4.98-27.85,4.98Z"></path>
        <path fill="#3a4a3a" d="m529.58,407.34c-1.34,0-2.55-.9-2.9-2.25-9.56-37.06-10.4-62.17-10.84-75.66-.07-2.22-.14-4.15-.23-5.62-.17-2.74,1.75-5.12,4.47-5.55,4.03-.64,13.85-3.2,17.97-13.22,3.36-8.15,1.71-20.23-3.74-27.51-2.15-2.87-5.82-6.16-11.1-5.6-13.78,1.47-23.51,20.43-23.6,20.62-.75,1.48-2.55,2.07-4.03,1.33-1.48-.75-2.07-2.55-1.33-4.03.45-.9,11.28-22.08,28.33-23.89,6.32-.67,12.18,2.16,16.54,7.97,6.71,8.96,8.64,23.31,4.49,33.39-5.08,12.33-16.6,15.8-21.96,16.76.08,1.44.14,3.18.2,5.15.44,13.26,1.26,37.94,10.66,74.36.41,1.6-.55,3.24-2.16,3.66-.25.06-.5.1-.75.1Z"></path>
      </g>
      <g>
        <ellipse fill="#3a4a3a" cx="439.52" cy="315.42" rx="4.22" ry="7.61" transform="translate(-44.31 73.39) rotate(-9.09)"></ellipse>
        <ellipse fill="#3a4a3a" cx="382.75" cy="324.5" rx="4.22" ry="7.61" transform="translate(-46.46 64.54) rotate(-9.09)"></ellipse>
      </g>
      <g>
        <path fill="#3a4a3a" d="m412.65,363.03c-7.25,0-13.04-2.04-16.23-3.47-1.61-.73-2.81-2.11-3.29-3.8-.49-1.7-.2-3.52.78-5,5.87-8.8,11.2-26.68.52-37.18-10.25-10.08-22.94-.11-23.48.32-1.29,1.03-3.18.83-4.22-.45-1.04-1.29-.84-3.17.44-4.21,5.95-4.83,20.19-11.02,31.46.07,11.82,11.63,8.96,31.76.27,44.79,3.46,1.57,10.58,3.97,19.29,2.47,1.63-.29,3.19.81,3.47,2.44s-.81,3.19-2.44,3.47c-2.29.4-4.49.56-6.57.56Z"></path>
        <path fill="#3a4a3a" d="m424.45,306.07c-.88,0-1.74-.38-2.33-1.11-1.04-1.29-.84-3.18.45-4.22,13.1-10.6,28.79-1.02,29.46-.61,1.41.88,1.83,2.73.96,4.13-.88,1.4-2.72,1.83-4.13.96-.53-.33-12.76-7.7-22.51.18-.56.45-1.22.67-1.88.67Z"></path>
        <path fill="#3a4a3a" d="m410.8,389.52c-.45,0-.92-.1-1.35-.32-1.48-.75-2.07-2.55-1.33-4.03,3.33-6.59,8.11-10.87,14.2-12.72,11.43-3.47,23.2,3.05,23.7,3.33,1.44.81,1.95,2.64,1.14,4.09-.81,1.44-2.64,1.96-4.08,1.14-.19-.11-10.13-5.53-19.04-2.8-4.45,1.36-8.01,4.62-10.56,9.68-.53,1.04-1.58,1.65-2.68,1.65Z"></path>
      </g>
      <path fill="#3a4a3a" d="m351.92,299.03s-32.35,5.33-37.09-22.11c-4.74-27.43,18.51-35.54,18.51-35.54,0,0-15.57-52.19,26.84-69.96,42.41-17.77,61.2,6.05,61.2,6.05,0,0,36.93-30.36,70.32-6.65,33.39,23.71,24.48,45.04,24.48,45.04,0,0,20.1,1.5,35.24,36.43s-1.87,61.36-1.87,61.36c0,0,1.01,16.17-9.63,28.4-10.63,12.23-15.91,35.63-15.91,35.63,0,0-7.35-51.67-5.41-54.07,1.94-2.4,19.63-3.19,23.6-19.09,3.97-15.9-3.49-33.95-16.04-35.56-12.55-1.6-23.63,10.45-26.89,15.2-3.25,4.75-5.54,9.87-3.19,17.42,2.36,7.55,6.44,24.03,3.73,25.33s-10.74,3.18-11.3.65c-.56-2.53-11.19-41.39-11.19-41.39,0,0-20.59,8.64-34.97,3.2-14.38-5.44-18.63-9.84-18.63-9.84,0,0-22.95,15.48-36.65,13.97-13.7-1.52-17.63-7.2-17.63-7.2,0,0-6.25,9.63-17.52,12.74Z"></path>
      <path fill="#3a4a3a" d="m455.89,464.34c-1.25,0-2.41-.78-2.84-2.03-.54-1.57.3-3.27,1.86-3.81,38.27-13.12,72.36-54.59,72.7-55.01,1.05-1.28,2.94-1.48,4.22-.43,1.29,1.05,1.48,2.93.43,4.22-1.43,1.76-35.5,43.21-75.41,56.89-.32.11-.65.16-.97.16Z"></path>
    </g>
  </g>
  <g>
    <path fill="#e8b896" d="m263.01,309.07c-1.98-4.48-1.98-8.87,0-13.18,1.97-4.3,5.38-7.53,10.22-9.67,4.84-2.14,9.52-2.48,14.03-1.04,4.51,1.45,7.75,4.41,9.73,8.89,1.98,4.48,1.98,8.88,0,13.18-1.97,4.31-5.38,7.53-10.22,9.67-4.85,2.14-9.52,2.48-14.03,1.04-4.51-1.45-7.75-4.41-9.73-8.89Zm17.19-41.23l-24.8,10.94-43.78-88.66,32.61-14.39,35.97,92.11Z"></path>
    <path fill="#e8b896" d="m223.29,326.23c-1.79-2.86-2.23-5.86-1.31-8.99.92-3.13,2.92-5.67,6.02-7.61s6.25-2.64,9.47-2.09c3.22.54,5.73,2.24,7.52,5.11,1.79,2.86,2.23,5.86,1.31,8.99-.92,3.13-2.93,5.67-6.02,7.61s-6.25,2.64-9.47,2.09c-3.22-.54-5.73-2.24-7.52-5.11Zm7.65-29.83l-15.84,9.92-38.65-56.16,20.83-13.04,33.66,59.29Z"></path>
  </g>
  <g>
    <path fill="#f8c8a8" d="m670.41,396.5c1.74-4.58,4.82-7.71,9.25-9.39,4.43-1.68,9.12-1.58,14.07.3,4.95,1.88,8.52,4.92,10.72,9.12,2.19,4.2,2.42,8.59.68,13.16-1.74,4.58-4.82,7.71-9.25,9.39-4.43,1.68-9.12,1.58-14.07-.3-4.95-1.88-8.52-4.92-10.72-9.12-2.19-4.2-2.42-8.58-.68-13.16Zm41.19-17.28l-25.34-9.63,31.1-93.87,33.32,12.66-39.08,90.84Z"></path>
    <path fill="#f8c8a8" d="m630.09,380.83c.73-3.3,2.53-5.74,5.38-7.32,2.85-1.58,6.06-1.98,9.63-1.19s6.3,2.51,8.21,5.16c1.91,2.65,2.5,5.62,1.77,8.91s-2.53,5.74-5.38,7.32c-2.85,1.58-6.06,1.98-9.63,1.19-3.56-.79-6.3-2.51-8.21-5.16-1.91-2.65-2.5-5.62-1.77-8.91Zm26.39-15.86l-18.24-4.06,11.93-67.12,23.99,5.34-17.68,65.84Z"></path>
  </g>
  <path fill="#3a4a3a" d="m617.24,245.9c-3.17,0-6.39-.61-9.49-1.88h0c-11.69-4.81-17.88-17.5-14.51-29.63l-12.4-5.1c-3.3-1.36-5.87-3.92-7.24-7.21-1.37-3.29-1.38-6.92-.03-10.22l28.98-70.46c2.8-6.81,10.62-10.07,17.42-7.27l70.47,28.98c3.3,1.36,5.87,3.92,7.24,7.21,1.37,3.29,1.38,6.92.03,10.22l-5.67,13.79c-.88,2.13-3.26,3.21-5.44,2.46-9.44-3.27-19.81,1.41-23.62,10.66-3.8,9.25.27,19.88,9.28,24.2,2.07.99,3.01,3.44,2.13,5.57l-5.67,13.79c-1.36,3.3-3.92,5.87-7.21,7.24-3.29,1.37-6.92,1.38-10.22.03l-12.4-5.1c-4.5,8.07-12.9,12.73-21.67,12.73Zm-2.34-126.77c-2.89,0-5.64,1.72-6.81,4.55l-28.98,70.46c-.75,1.82-.74,3.81.01,5.62.75,1.81,2.17,3.22,3.99,3.97l12.68,5.22c2.67,1.1,4.08,4.02,3.28,6.79-2.7,9.28,2,19.04,10.95,22.71h0c8.94,3.68,19.15.05,23.76-8.43,1.39-2.54,4.45-3.62,7.12-2.53l12.68,5.22c1.82.75,3.81.74,5.62-.01,1.81-.75,3.22-2.17,3.97-3.99l5.1-12.39c-10.89-6.09-15.65-19.47-10.84-31.17,4.81-11.7,17.6-17.85,29.63-14.52l5.1-12.39c.75-1.82.74-3.81-.01-5.62-.75-1.81-2.17-3.22-3.99-3.97l-70.47-28.98c-.91-.38-1.86-.55-2.79-.55Zm54.77,97.92s0,0,0,0c0,0,0,0,0,0Z"></path>
  <path fill="#e8b896" d="m749.91,414.81c6.57-11.77,20.87-16.48,33.01-11.32,1.49.63,3.22.03,4-1.38l7.98-14.3c3.33-5.96,10.85-8.1,16.81-4.77l79.46,44.33c5.96,3.33,8.1,10.85,4.77,16.81l-44.34,79.47c-3.33,5.96-10.85,8.1-16.81,4.77l-15.55-8.68c-.74-.41-1.04-1.33-.67-2.1,6.01-12.37,1.38-27.43-10.78-34.21-12.16-6.79-27.41-2.82-34.78,8.79-.46.72-1.4.95-2.14.53l-15.55-8.68c-5.96-3.33-8.1-10.85-4.77-16.81l7.98-14.3c.79-1.41.39-3.19-.93-4.13-10.76-7.61-14.26-22.27-7.7-34.03Z"></path>
  <path fill="#3a4a3a" d="m171.38,493.83c-10.17,0-19.93-5.35-25.25-14.7-.04-.06-.14-.1-.21-.06l-15.01,6.54c-3.76,1.64-7.93,1.71-11.75.22-3.82-1.5-6.82-4.4-8.46-8.16l-36.35-83.41c-1.64-3.76-1.72-7.94-.22-11.75,1.5-3.82,4.4-6.82,8.16-8.46l83.42-36.36c3.76-1.64,7.93-1.71,11.75-.22,3.82,1.5,6.82,4.4,8.46,8.16l7.11,16.32c.98,2.24.04,4.85-2.14,5.95-10.92,5.52-15.65,18.64-10.75,29.87,4.9,11.23,17.72,16.71,29.2,12.46,2.29-.84,4.84.25,5.81,2.48l7.11,16.32c3.38,7.76-.18,16.83-7.94,20.22l-15.01,6.54c-.08.03-.12.13-.1.21,4.46,14.21-2.49,29.42-16.16,35.38h0c-3.8,1.65-7.76,2.44-11.67,2.44Zm-25.4-20.78c2.15,0,4.22,1.13,5.35,3.1,5.86,10.29,18.46,14.47,29.32,9.73h0c10.86-4.73,16.37-16.81,12.83-28.09-.94-3.02.54-6.24,3.43-7.5l15.01-6.54c4.73-2.06,6.9-7.59,4.84-12.32l-6.6-15.15c-14.13,4.51-29.54-2.39-35.53-16.12-5.99-13.74-.55-29.72,12.38-37l-6.6-15.15c-1-2.29-2.83-4.06-5.16-4.97-2.33-.92-4.87-.87-7.16.13l-83.42,36.36c-2.29,1-4.06,2.83-4.97,5.16-.91,2.33-.87,4.87.13,7.16l36.35,83.41c1,2.29,2.83,4.06,5.16,4.97,2.33.92,4.87.87,7.16-.13l15.01-6.54c.8-.35,1.64-.52,2.47-.52Z"></path>
  <path fill="#3a4a3a" d="m430.04,156.38c-7.13,0-14.23-5.88-18.13-15.07-1-2.35-1.79-4.97-2.26-7.75-2,1.36-3.95,2.57-5.86,3.6-11.55,6.23-22.38,4.26-28.97-5.25-8.69-12.55-7.33-35.1,6.84-52.82l3.14-6.85c3.52-7.69,10.95-12.45,19.4-12.45.05,0,.1,0,.15,0,1.76.01,3.48.23,5.13.64,5.86-6.58,12.94-12.12,20.26-15.67,2.99-2.46,6.56-4.41,10.58-5.65,13.61-4.21,32.5.1,44.68,24.82,2.04,4.14,3.59,8.37,4.7,12.6,3.61,2.03,6.61,5.56,8.94,10.55,6.61,14.13,4.67,26.25-5.32,33.26-2.82,1.98-6.1,3.42-9.64,4.34-.41.63-.83,1.24-1.26,1.82-4.51,6.13-9.87,9.05-15.08,8.23-2.79-.44-6.34-2.12-9.53-7.02-3.36,1.25-6.86,2.1-10.35,2.52-.17.02-.35.04-.52.06.72,3.47.36,7.55-1.5,12.41-4.48,11.74-11.41,13.61-15.15,13.68-.08,0-.16,0-.24,0Zm-14.83-26.9c.21,3.46,1.03,6.7,2.22,9.48,2.89,6.8,8.14,11.54,12.74,11.41,3.83-.07,7.26-3.56,9.65-9.82,1.55-4.07,1.79-7.32.94-10.06-6.66-.26-13.5-2.16-18.94-6.43-2.24,1.91-4.45,3.73-6.61,5.41Zm-28.89-46.7c-13.51,16.63-13.07,36.34-6.58,45.71,4.82,6.95,12.35,8.16,21.19,3.39,2.59-1.4,5.35-3.22,8.22-5.35.14-4.46,1.16-9.12,3.37-13.67-10.68-4.99-19.94-11.76-17.26-25.68,1.18-6.13,3.88-12.33,7.61-18.12-3.18,1.57-6.45,3.81-9.8,6.73-2.37,2.06-4.46,4.22-6.31,6.43-.13.21-.29.39-.46.56Zm77.02,42.41c1.52,2.09,3.19,3.33,4.93,3.6,2.06.32,4.41-.71,6.72-2.9-3.68.13-7.46-.2-11.18-.96-.16.09-.31.17-.47.26Zm-31.17-10.31c4.95,2.48,9.49,5.49,12.28,9.59.77-.05,1.53-.12,2.28-.21,2.8-.34,5.61-.99,8.32-1.94-.01-.03-.02-.05-.03-.08-5.01-2.07-9.61-4.99-13.32-8.7-1.21-1.21-2.42-2.55-3.64-4.03-.56.51-1.11,1.01-1.66,1.52-1.42,1.29-2.82,2.58-4.22,3.85Zm-5.71,5.14c2.73,1.93,5.87,3.18,9.17,3.86-2.21-1.66-5.01-3.15-8.28-4.65-.3.26-.59.53-.89.79Zm-9.8-1.41c-.29.86-.54,1.72-.74,2.57.54-.45,1.09-.91,1.63-1.38-.31-.39-.6-.79-.89-1.2Zm54.26,1.25c3.06.19,6.07.04,8.91-.47,5.24-9.47,7.75-23.91,4.68-38.55-.22-.06-.44-.11-.67-.16-3.62-.72-7.95.45-12.69,2.85.22.13.44.26.66.39,5,3.14,7.74,8.15,8.14,14.89.51,8.56-3.2,15.71-9.04,21.05Zm-11.23-2.25c1.04.36,2.09.67,3.15.95,6.85-4.41,11.62-11.08,11.13-19.39-.29-4.76-2.03-8.09-5.35-10.17-.2-.13-.41-.25-.62-.37-.13.42-.3.81-.49,1.19-2.07,3.94-6.74,4.42-12.66,4.93-1,.82-2.01,1.65-3.01,2.51,2.73,6.04,5.34,12.82,7.84,20.33,0,0,0,.02,0,.03Zm31.83-31.07c1.18,11.08-.43,21.67-3.81,30.19.75-.4,1.47-.84,2.15-1.32,7.59-5.32,8.74-14.24,3.33-25.8-.53-1.13-1.08-2.15-1.67-3.07Zm-49.04,18.94c1.16,1.41,2.31,2.69,3.45,3.83,1.82,1.82,3.92,3.43,6.2,4.8-1.64-4.58-3.31-8.84-5.02-12.77-1.55,1.36-3.09,2.75-4.63,4.14Zm-21.19,4.64c.48.2.96.4,1.45.6,1.14.47,2.31.95,3.48,1.45,2.04-1.84,4.08-3.71,6.11-5.56.69-.63,1.37-1.26,2.06-1.88-.85-1.21-1.71-2.48-2.57-3.81-2.62,1.57-5.24,3.56-7.8,6.12-1.01,1.01-1.91,2.04-2.73,3.08Zm-9.95-42.6c-5.08,6.46-8.82,13.73-10.18,20.79-1.61,8.38,2.53,13.1,10.52,17.38-2.06-12.24-.81-25.28,2.73-36.04-.93-.84-1.96-1.55-3.07-2.13Zm7.45,8.72c-2.18,9.02-2.78,19.37-1.13,28.83.66-.77,1.37-1.53,2.12-2.28,2.92-2.92,5.92-5.21,8.91-7-.62-1.07-1.25-2.18-1.87-3.31-.97.36-1.84.7-2.59,1-1.53.63-3.28-.11-3.91-1.64-.63-1.53.11-3.29,1.64-3.91.18-.07.9-.36,2.04-.79-1.73-3.39-3.46-7.02-5.2-10.9Zm18.43,22c.55.84,1.09,1.65,1.63,2.43,1.67-1.51,3.33-2.99,4.97-4.44-2.15.47-4.36,1.12-6.61,2.02Zm-4.63-7.7c.48.86.96,1.7,1.44,2.52,2.68-1.14,5.32-1.96,7.84-2.55-.4-.73-.8-1.45-1.2-2.15-2.86.66-5.6,1.41-8.08,2.17Zm14.21-3.38c.41.74.81,1.49,1.22,2.25,1.55-.2,3.03-.35,4.41-.47,1.13-.91,2.25-1.79,3.37-2.64-2.9.05-5.95.37-9,.86Zm-19.29-6.39c.73,1.51,1.47,2.98,2.2,4.4,1.15-.37,2.4-.75,3.73-1.12-2.22-.85-4.2-1.95-5.93-3.28Zm14.85-.9c6,.38,12.1-1.37,16.07-4.74-1.1-2.2-2.49-4.78-4.21-7.8-4.78-8.39-12.18-17.77-20.31-14.8-2.34.85-4.53,2.55-6.51,4.89-.85,1.97-1.36,4.05-1.49,6.18,5.79,3.15,11.28,8.58,16.46,16.27Zm23.23-3.69c.45,1,.84,1.95,1.17,2.83,5.69-3.12,11.07-4.84,16.06-4.51-.87-2.67-1.94-5.32-3.22-7.93-5.19-10.54-11.67-16.82-18.25-20.05,2.15,2.14,3.95,4.84,5.34,8.07,3.53,8.17,3.12,15.76-1.1,21.59Zm-37.99-4.27c1.37,2.46,3.37,4.14,5.35,5.28-1.76-2.05-3.54-3.81-5.35-5.28Zm14.67-25.05c5.19,1.86,11.09,6.83,17.17,17.5,1.07,1.88,2.03,3.62,2.9,5.25,1.28-3.59.9-7.88-1.16-12.64-3.34-7.74-9.21-11.2-17.44-10.3-.49.05-.98.12-1.47.2Zm-24.72,13.81c.19.03.39.07.58.1.24-.45.48-.89.72-1.33-.44.4-.88.81-1.31,1.22Z"></path>
  <path fill="#3a4a3a" d="m720.54,880.62c-31.13,0-51.16-5.7-52.12-5.98-1.59-.46-2.5-2.13-2.04-3.72.46-1.59,2.12-2.51,3.72-2.05.26.08,26.64,7.56,65.11,5.31,35.43-2.07,88.69-13.05,141.2-53.65,56.79-43.91,52.84-116.8,23.73-169.56-16.7-30.27-39-49.38-57.71-50.75,13.12,18.41,24.15,39.04,22.48,54.84-.84,7.96-4.75,14.2-11.61,18.53-11.28,7.13-23.35,7.42-33.97.84-13.41-8.31-21.57-25.87-19.84-42.69.99-9.61,6.19-27.03,29.94-35.71.63-.23,1.26-.44,1.9-.63-15.31-19.77-31.32-35.51-31.63-35.82-1.19-1.16-1.21-3.06-.05-4.24,1.16-1.19,3.06-1.21,4.24-.05,1.36,1.33,18.38,18.07,34.13,38.92,9.78-.68,20.53,3.04,31.52,11,13.12,9.5,25.85,24.72,35.86,42.86,30.35,55,34.29,131.12-25.31,177.21-53.82,41.61-108.44,52.83-144.78,54.91-5.15.29-10.08.42-14.76.42Zm114.73-280c-1.29.25-2.55.6-3.79,1.05-15.33,5.6-24.58,16.5-26.03,30.69-1.48,14.39,5.69,29.94,17.03,36.98,6.06,3.75,15.77,6.66,27.61-.81,5.31-3.35,8.2-7.96,8.85-14.09,1.58-14.95-10.21-35.6-23.67-53.82Z"></path>
  <path fill="#3a4a3a" d="m897.52,353.37c-.13,0-.26,0-.39-.02-.78-.1-19.35-2.57-43.41-13.52-22.21-10.1-53.38-29.65-75.71-65.39-9.44-15.11-13.88-29.39-14.97-42.04-14.63,1.25-27.5-.22-28.5-.34-1.65-.2-2.82-1.69-2.62-3.33.2-1.64,1.69-2.82,3.33-2.62.24.03,13.17,1.5,27.52.28-.06-14.67,4.39-26.76,10.41-34.84,6.71-9.02,15.36-13.4,22.56-11.43,3.6.99,9.85,4.51,11.17,17.03.95,8.99-1.55,16.49-7.43,22.29-7.35,7.25-19.03,10.74-30.48,12.31,1,11.79,5.17,25.21,14.11,39.52,41.25,65.99,114.07,76.04,114.8,76.13,1.64.21,2.8,1.71,2.59,3.36-.19,1.51-1.49,2.62-2.97,2.62Zm-105.27-167.71c-4.39,0-9.88,3.57-14.27,9.47-5.28,7.09-9.18,17.67-9.24,30.59,10.21-1.43,20.35-4.47,26.52-10.56,4.57-4.51,6.43-10.2,5.67-17.38-.7-6.65-3.11-10.86-6.78-11.87-.6-.17-1.24-.25-1.9-.25Z"></path>
</svg>