<?xml version="1.0" encoding="UTF-8"?>
<svg id="Layer_2" data-name="Layer 2" xmlns="http://www.w3.org/2000/svg" viewBox="0 0 1000 1000">

  <defs></defs>
  <g>
    <g>
      <path fill="#e8b896" d="m803.96,778.9c-14.52-36.49-71.04-216.68-92.24-239.85-21.2-23.16-148.9-56.14-148.9-56.14,0,0-9.17,50.39-60.98,50.39s-66.99-50.39-66.99-50.39c0,0-117.25,32.98-138.44,56.14-21.19,23.16-77.73,203.35-92.25,239.85-14.52,36.52,1.96,70.67,25.52,82.45,23.55,11.77,78.51-4.32,78.51-4.32l-21.27,85.69h434.33l-21.28-85.69s54.95,16.09,78.51,4.32c23.55-11.77,40.05-45.93,25.51-82.45Zm-249.04,6.49s-15.21-3.73-27.75-3.21c-12.55.53-24.41-13.87-24.41-13.87,0,0-.21-67.46-.21-113.98,0,46.52-.2,113.98-.2,113.98,0,0-11.87,14.4-24.41,13.87-12.54-.52-26.07,3.21-26.07,3.21,0,0-7.53-42.56-11.68-59,0,0,16.92-15.14,20.95-24.3,4.03-9.16,18.37-66.47,21.95-80.34,3.58-13.88,3.8-19.37,9.85-21.2,6.05-1.84,8.96,5.49,9.41,10.73.14,1.75.2,19.77.2,43.04,0-23.27.05-41.29.21-43.04.44-5.24,3.36-12.57,9.41-10.73,6.05,1.83,6.27,7.32,9.85,21.2,3.59,13.87,17.92,71.18,21.95,80.34,4.03,9.16,22.27,25.7,22.27,25.7-4.14,16.44-11.32,57.59-11.32,57.59Z"></path>
      <g>
        <path fill="#3a4a3a" d="m228.43,798.85c-.79,0-1.59-.31-2.18-.94-1.14-1.2-1.09-3.1.11-4.24,20.53-19.45,62.39-37.5,71.2-41.17l19.76-127.29c.25-1.64,1.79-2.76,3.42-2.5,1.64.25,2.76,1.79,2.5,3.42l-20.28,130.64-1.58.64c-.49.2-49.2,20.06-70.9,40.62-.58.55-1.32.82-2.06.82Z"></path>
        <path fill="#3a4a3a" d="m287.51,865.39c-1.28,0-2.47-.83-2.86-2.11-.49-1.58.39-3.26,1.98-3.75,59.31-18.39,155.01-49.36,163.81-55.54.41-3.69-1.48-20.56-5.21-41.43-4.57-25.59-8.35-37.95-10.01-40.65-.01,0-.03,0-.04,0-10.08,0-86.85,21.62-134.05,35.61-1.59.47-3.26-.44-3.73-2.02-.47-1.59.44-3.26,2.02-3.73.33-.1,33.04-9.78,66.05-18.96,67.9-18.87,70.74-17.35,72.63-16.34,1.49.79,5.45,2.9,12.88,44.12.74,4.1,7.16,40.21,5.01,45.94-.83,2.23-1.98,5.28-85.59,32.61-40.67,13.3-81.58,25.99-81.99,26.12-.3.09-.6.14-.89.14Zm148.26-143.45h0Z"></path>
      </g>
      <g>
        <path fill="#3a4a3a" d="m778.42,798.85c-.74,0-1.48-.27-2.06-.82-21.7-20.56-70.41-40.42-70.9-40.62l-1.58-.64-20.28-130.64c-.25-1.64.87-3.17,2.5-3.42,1.64-.26,3.17.87,3.42,2.5l19.76,127.29c8.8,3.67,50.66,21.72,71.2,41.17,1.2,1.14,1.25,3.04.11,4.24-.59.62-1.38.94-2.18.94Z"></path>
        <path fill="#3a4a3a" d="m719.34,865.39c-.29,0-.59-.04-.89-.14-.41-.13-41.32-12.82-81.99-26.12-83.61-27.34-84.75-30.39-85.59-32.61-2.15-5.73,4.27-41.85,5.01-45.94,7.43-41.21,11.39-43.32,12.88-44.12,1.89-1.01,4.74-2.53,72.63,16.34,33.01,9.17,65.72,18.86,66.05,18.96,1.59.47,2.5,2.14,2.02,3.73-.47,1.59-2.14,2.49-3.73,2.02-47.2-13.98-123.97-35.61-134.05-35.61-.01,0-.03,0-.04,0-1.66,2.7-5.44,15.06-10.01,40.65-3.71,20.78-5.6,37.59-5.19,41.44,8.9,6.21,104.52,37.15,163.8,55.53,1.58.49,2.47,2.17,1.98,3.75-.4,1.29-1.58,2.11-2.86,2.11Zm-163.29-61.7s0,0,0,0Zm15.03-81.76s0,0,0,0h0Z"></path>
      </g>
      <path fill="#3a4a3a" d="m449.49,789.16l-.58-3.24c-.08-.42-7.56-42.64-11.63-58.78l-.44-1.76,1.35-1.21c4.57-4.09,17.12-16.25,20.21-23.27,3.35-7.61,14.76-52.35,19.64-71.46.9-3.53,1.64-6.43,2.16-8.42.58-2.26,1.08-4.3,1.52-6.14,2.37-9.77,3.67-15.16,10.36-17.18,2.63-.8,5.17-.45,7.34,1.02,3.81,2.58,5.56,8.06,5.92,12.33.05.62.21,2.5.21,43.29,0,45.99-.19,113.31-.2,113.99v1.07s-.69.83-.69.83c-.52.64-12.96,15.53-26.85,14.96-11.9-.5-25.01,3.07-25.14,3.11l-3.18.87Zm-5.96-61.75c3.54,14.69,8.97,44.5,10.73,54.31,4.86-1.1,14.51-2.92,23.8-2.54,8.45.36,17.65-7.9,21.29-11.99.03-8.95.19-70.12.19-112.87,0-35.27-.12-41.95-.19-42.79-.29-3.45-1.68-6.76-3.31-7.86-.44-.3-1.09-.59-2.23-.24-3.28.99-4.01,3.48-6.28,12.85-.45,1.86-.95,3.93-1.54,6.22-.52,2-1.25,4.89-2.15,8.41-5.73,22.48-16.41,64.32-19.96,72.39-3.6,8.17-16.18,20.23-20.36,24.1Zm58.82,40.9h0,0Z"></path>
      <path fill="#3a4a3a" d="m474.35,713.76c-.2,0-.41-.02-.61-.06-1.62-.34-2.67-1.92-2.33-3.55.1-.5,10.33-49.89,13.2-66.4,2.09-12.03,8.5-12.43,10.43-12.26,5.89.51,10.51,7.73,10.51,16.44,0,1.66-1.34,3-3,3s-3-1.34-3-3c0-6.58-3.27-10.31-5.02-10.46-1.3-.09-3.1,2.13-4,7.31-2.89,16.6-13.13,66.1-13.23,66.59-.29,1.42-1.54,2.39-2.93,2.39Z"></path>
      <path fill="#3a4a3a" d="m557.32,789.07l-3.12-.76c-.15-.04-14.96-3.62-26.91-3.13-13.86.6-26.33-14.32-26.85-14.96l-.68-.83v-1.07c0-.67-.21-68-.21-113.99,0-36.61.12-42.25.22-43.3.36-4.25,2.11-9.73,5.92-12.32,2.17-1.47,4.71-1.82,7.35-1.02,6.69,2.02,7.99,7.41,10.36,17.18.44,1.83.94,3.87,1.52,6.14.52,2,1.26,4.9,2.16,8.42,4.87,19.1,16.29,63.84,19.64,71.46,3.09,7.03,16.6,20.21,21.54,24.69l1.33,1.21-.44,1.75c-4.07,16.15-11.2,56.96-11.27,57.37l-.55,3.16Zm-27.68-9.94c8.79,0,18.13,1.67,22.86,2.65,1.69-9.54,6.88-38.37,10.39-52.98-4.36-4.08-18.06-17.26-21.68-25.5-3.55-8.07-14.23-49.91-19.96-72.39-.9-3.52-1.64-6.41-2.15-8.41-.59-2.3-1.09-4.37-1.54-6.23-2.27-9.37-3-11.86-6.27-12.85-1.15-.35-1.8-.05-2.24.24-1.62,1.1-3.02,4.41-3.31,7.87-.07.83-.2,7.48-.2,42.78,0,42.71.18,103.83.2,112.85,2.56,2.83,11.92,12.41,21.29,12.01.86-.04,1.73-.05,2.6-.05Z"></path>
      <path fill="#3a4a3a" d="m530.74,713.76c-1.39,0-2.64-.98-2.93-2.39-.1-.5-10.35-49.99-13.23-66.59-.9-5.18-2.72-7.42-4-7.31-1.75.15-5.02,3.88-5.02,10.46,0,1.66-1.34,3-3,3s-3-1.34-3-3c0-8.71,4.62-15.93,10.51-16.44,1.92-.17,8.34.23,10.43,12.26,2.87,16.51,13.09,65.91,13.2,66.4.34,1.62-.71,3.21-2.33,3.55-.21.04-.41.06-.61.06Z"></path>
      <path fill="#3a4a3a" d="m571.89,916.97c-82.71,0-145.42-7.68-185.09-14.59-48.72-8.49-73.53-17.43-74.56-17.8-1.56-.57-2.36-2.29-1.79-3.85.57-1.56,2.29-2.36,3.85-1.79,1,.36,101.9,36.25,290.96,31.62,1.67,0,3.03,1.27,3.07,2.93s-1.27,3.03-2.93,3.07c-11.51.28-22.69.41-33.52.41Z"></path>
      <path fill="#3a4a3a" d="m351.2,940.66c-.95,0-1.88-.45-2.46-1.28l-37.92-54.18c-.95-1.36-.62-3.23.74-4.18,1.36-.95,3.23-.62,4.18.74l37.92,54.18c.95,1.36.62,3.23-.74,4.18-.52.37-1.12.54-1.72.54Z"></path>
      <path fill="#3a4a3a" d="m655.97,936.42c-.55,0-1.1-.15-1.6-.46-1.4-.88-1.82-2.74-.94-4.14l44.83-71.03c.88-1.4,2.74-1.82,4.14-.94,1.4.88,1.82,2.74.94,4.14l-44.83,71.03c-.57.9-1.54,1.4-2.54,1.4Z"></path>
      <path fill="#3a4a3a" d="m486.44,558.43c-19,0-34.16-4.81-45.22-14.38-17.27-14.94-17.88-35.85-17.89-36.73-.03-1.66,1.28-3.03,2.94-3.06,1.69-.05,3.02,1.28,3.06,2.94,0,.3.67,19.26,15.89,32.38,12.75,10.98,31.91,14.96,56.96,11.82,1.65-.21,3.14.96,3.35,2.6.21,1.64-.96,3.14-2.6,3.35-5.78.72-11.27,1.09-16.48,1.09Z"></path>
    </g>
    <g>
      <path fill="#3a4a3a" d="m464.56,175.34c-5.64,0-11.24-.77-16.18-2.83-19.84-8.24-24.49-26.02-24.68-26.77l-.73-2.91,2.91-.73c2.19-.55,53.93-12.99,74.84,21.73l1.81,3.01-3.26,1.32c-.95.38-17.99,7.18-34.71,7.18Zm-33.99-28.08c2.05,4.87,7.52,14.48,20.11,19.71,13.72,5.7,34.63-.31,42.85-3.11-16.84-22.88-52.12-18.57-62.96-16.6Z"></path>
      <path fill="#3a4a3a" d="m531.77,175.34c-16.72,0-33.76-6.8-34.71-7.18l-3.26-1.32,1.81-3.01c20.91-34.72,72.64-22.28,74.84-21.73l2.91.73-.73,2.91c-.19.75-4.85,18.53-24.68,26.77-4.94,2.05-10.54,2.83-16.18,2.83Zm-28.97-11.48c8.22,2.79,29.13,8.81,42.85,3.11,12.58-5.23,18.05-14.83,20.11-19.71-10.85-1.96-46.14-6.24-62.96,16.6Z"></path>
      <g>
        <path fill="#3a4a3a" d="m495,474.61c-23.6,0-42.97-8.11-57.59-24.11-38.76-42.42-31.22-124.98-30.88-128.47.16-1.65,1.62-2.85,3.28-2.7,1.65.16,2.86,1.63,2.7,3.28-.08.83-7.61,83.42,29.35,123.85,13.57,14.85,31.67,22.27,53.82,22.15,30.88-.21,54.88-10.08,71.36-29.34,35.01-40.91,24.96-111.33,24.85-112.04-.25-1.64.88-3.17,2.52-3.41,1.63-.25,3.17.88,3.41,2.52.45,2.99,10.58,73.79-26.21,116.81-17.66,20.65-43.19,31.23-75.89,31.46-.24,0-.48,0-.71,0Z"></path>
        <path fill="#3a4a3a" d="m561.58,490.69c-1.35,0-2.57-.91-2.91-2.28l-7.3-29.42c-.4-1.61.58-3.24,2.19-3.63,1.61-.4,3.24.58,3.63,2.19l7.3,29.42c.4,1.61-.58,3.24-2.19,3.63-.24.06-.49.09-.72.09Z"></path>
        <path fill="#3a4a3a" d="m440.16,484.59c-.27,0-.55-.04-.83-.12-1.59-.46-2.51-2.12-2.05-3.71l6.71-23.33c.46-1.59,2.12-2.51,3.71-2.05,1.59.46,2.51,2.12,2.05,3.71l-6.71,23.33c-.38,1.32-1.58,2.17-2.88,2.17Z"></path>
        <g>
          <path fill="#3a4a3a" d="m497.93,415.68s-.07,0-.1,0c-12.51-.42-21.76-4.97-26.16-7.65-1.75-1.06-2.83-2.77-2.97-4.68-.13-1.86.66-3.63,2.16-4.88,9.1-7.5,19.73-24.12,9.49-36.79-10.42-12.89-29.38-4.99-29.57-4.9-1.52.65-3.29-.06-3.94-1.58-.65-1.52.06-3.29,1.58-3.94.95-.4,23.36-9.73,36.6,6.65,11.51,14.23,3.38,33.78-10.15,45.04,3.93,2.38,12.1,6.36,23.16,6.73,1.66.06,2.95,1.44,2.9,3.1-.05,1.62-1.39,2.9-3,2.9Zm-23.28-12.88h0Z"></path>
          <path fill="#3a4a3a" d="m552.65,363.05c-.74,0-1.48-.27-2.06-.82h0c-.62-.59-15.5-14.37-31.44-6.13-1.47.76-3.28.19-4.04-1.29-.76-1.47-.19-3.28,1.29-4.04,19.76-10.22,37.58,6.39,38.33,7.11,1.2,1.14,1.25,3.04.11,4.24-.59.62-1.38.93-2.17.93Z"></path>
        </g>
        <path fill="#3a4a3a" d="m495.97,441.74c-19.22,0-22.39-13.1-22.52-13.66-.36-1.62.65-3.22,2.27-3.59,1.62-.36,3.22.65,3.59,2.27.08.33,2.42,8.98,16.67,8.98s17.92-8.93,18.06-9.31c.56-1.55,2.27-2.36,3.82-1.82,1.55.55,2.38,2.22,1.85,3.78-.19.54-4.76,13.35-23.73,13.35Z"></path>
        <path fill="#3a4a3a" d="m534.1,381.97c-13.6,0-15.9-9.48-15.99-9.88-.36-1.62.65-3.22,2.27-3.59,1.61-.36,3.22.65,3.59,2.27.13.48,1.64,5.2,10.13,5.2s11.02-5.33,11.1-5.55c.53-1.57,2.23-2.39,3.8-1.85,1.57.53,2.4,2.26,1.87,3.83-.13.39-3.41,9.58-16.77,9.58Z"></path>
        <path fill="#3a4a3a" d="m454.71,381.97c-13.6,0-15.9-9.48-15.99-9.88-.36-1.62.65-3.22,2.27-3.59,1.61-.36,3.22.65,3.59,2.27.13.48,1.64,5.2,10.13,5.2s11.02-5.33,11.1-5.55c.53-1.57,2.23-2.38,3.8-1.85,1.57.53,2.4,2.26,1.87,3.83-.13.39-3.41,9.58-16.77,9.58Z"></path>
      </g>
      <path fill="#3a4a3a" d="m596.35,350.49s-6.91.98-11.03-2.64c-4.12-3.63-4.61-32.51-4.61-32.51,0,0-19.15,6.06-32.74,8-13.58,1.94-24.73-8.97-24.73-8.97,0,0-12.12,12.12-27.89,12.61-15.76.48-26.73-12.12-26.73-12.12,0,0-11.34,7.51-23.95,8.24-12.61.73-24.25-9.69-24.25-9.69,0,0-.24,22.07-2.42,28.37-2.19,6.3-9.15,6.07-9.15,6.07,0,0-7.46-59.36-1.44-81.84,0,.04,0,.08,0,.12,0,9.05,42.48,16.39,94.88,16.39s94.88-7.34,94.88-16.39c0-.21-.02-.42-.07-.63,8.56,17.36-.74,85-.74,85Z"></path>
      <path fill="#3a4a3a" d="m407.52,399.86c-5.99,0-12.76-2.83-19.09-8.22-11.55-9.83-20.27-27.16-13.72-43.69,3.35-8.47,8.21-13.46,14.44-14.85,10.61-2.36,20.73,7.04,21.16,7.44,1.21,1.14,1.26,3.04.13,4.24-1.14,1.21-3.03,1.26-4.24.13h0c-.08-.08-8.27-7.63-15.76-5.95-4.16.93-7.57,4.7-10.15,11.19-5.43,13.7,2.43,28.73,12.03,36.91,7.4,6.3,15.43,8.43,20.46,5.44,1.42-.85,3.26-.38,4.11,1.04.85,1.42.38,3.26-1.04,4.11-2.48,1.48-5.31,2.2-8.33,2.2Z"></path>
      <g>
        <path fill="#3a4a3a" d="m400.63,379.88c-.71,0-1.43-.25-2-.77-1.23-1.11-1.33-3-.23-4.24,1.06-1.18,1.69-2.97,1.76-5.03.06-1.71-.03-7.48-3.72-9.71-3.43-2.08-8.33-1.43-10.95-.86-1.62.35-3.22-.67-3.57-2.29-.35-1.62.67-3.22,2.29-3.57,4.26-.93,10.38-1.4,15.33,1.59,6.31,3.82,6.72,11.8,6.61,15.06-.12,3.47-1.29,6.6-3.29,8.83-.59.66-1.41,1-2.23,1Z"></path>
        <path fill="#3a4a3a" d="m389.99,373.66c-.14,0-.29-.01-.43-.03-1.63-.24-2.77-1.75-2.54-3.38.1-.74,1.16-7.28,6.15-10.21,1.95-1.14,5.25-2.12,9.92-.31,1.54.6,2.31,2.34,1.71,3.88-.6,1.55-2.34,2.31-3.88,1.71-1.98-.77-3.52-.81-4.71-.12-2.13,1.24-3.07,4.67-3.26,5.89-.22,1.49-1.5,2.56-2.97,2.56Z"></path>
      </g>
      <path fill="#3a4a3a" d="m598.14,399.86c-3.02,0-5.85-.72-8.33-2.2-1.42-.85-1.89-2.69-1.04-4.11.85-1.42,2.69-1.89,4.11-1.04,5.03,3,13.06.86,20.46-5.44,9.6-8.18,17.46-23.21,12.03-36.91-2.58-6.5-6-10.27-10.16-11.2-7.42-1.65-15.66,5.87-15.74,5.95-1.21,1.14-3.1,1.08-4.24-.13s-1.08-3.1.13-4.24c.43-.4,10.55-9.8,21.16-7.44,6.23,1.39,11.08,6.38,14.44,14.85,6.55,16.53-2.17,33.85-13.72,43.69-6.33,5.39-13.09,8.22-19.09,8.22Z"></path>
      <g>
        <path fill="#3a4a3a" d="m605.03,379.88c-.82,0-1.64-.34-2.23-1-2-2.23-3.17-5.36-3.29-8.83-.12-3.26.3-11.24,6.61-15.06,4.95-2.99,11.07-2.52,15.33-1.59,1.62.35,2.65,1.95,2.29,3.57-.35,1.62-1.95,2.64-3.57,2.29-2.61-.57-7.52-1.21-10.95.86-3.69,2.23-3.78,8-3.72,9.71.07,2.06.7,3.85,1.76,5.03,1.11,1.23,1.01,3.13-.23,4.24-.57.52-1.29.77-2,.77Z"></path>
        <path fill="#3a4a3a" d="m615.67,373.67c-1.47,0-2.75-1.08-2.96-2.57-.18-1.22-1.13-4.65-3.26-5.89-1.19-.69-2.73-.65-4.71.12-1.54.6-3.28-.17-3.88-1.71-.6-1.54.17-3.28,1.71-3.88,4.68-1.81,7.98-.83,9.92.31,4.99,2.92,6.04,9.47,6.15,10.21.23,1.64-.91,3.16-2.55,3.39-.14.02-.28.03-.42.03Z"></path>
      </g>
      <path fill="#3a4a3a" d="m415.47,272.75c-5.19-2.02-8.06-4.26-8.06-6.62,0-.04,0-.08,0-.12.14-.5.27-.98.42-1.44,1.62-2.98,7.87-5.73,17.49-8.02-3.18,2.21-11.09,8.55-9.85,16.2Z"></path>
      <path fill="#3a4a3a" d="m597.16,266.13c0,2.8-4.07,5.43-11.25,7.74,2.8-10.07-10.9-18.16-10.9-18.16,0,0,.03-.03.07-.09,10.33,2.13,17.57,4.72,20.56,7.58.25.32.48.65.71.98.26.4.51.83.74,1.31.05.21.07.42.07.63Z"></path>
      <path fill="#3a4a3a" d="m407.41,266.01c.01-.48.16-.96.42-1.44-.15.46-.28.94-.42,1.44Z"></path>
      <g>
        <path fill="#3a4a3a" d="m502.28,285.52c-37.89,0-72.4-3.92-87.91-9.98l-1.6-.62-.27-1.69c-1.15-7.08,3.7-12.96,7.76-16.53-1.09-1.55-1.71-3.81-1.88-6.81-.44-7.9,5.7-12.12,9.58-13.98-1.49-4.66-3.25-13.9,2.64-21.75,6.1-8.15,16.77-8.66,21.94-8.38,1.1-4.71,4.28-13.82,12.95-18.26,8.61-4.4,16.12-2.46,19.72-.98,2.43-2.19,7.42-5.43,15.58-5.17,8.16-.26,13.15,2.98,15.58,5.17,3.6-1.48,11.11-3.42,19.72.98,8.68,4.44,11.86,13.55,12.96,18.26,5.17-.29,15.84.23,21.94,8.38,5.89,7.86,4.14,17.09,2.64,21.75,3.87,1.86,10.02,6.08,9.58,13.97-.17,3.09-.81,5.26-2,6.71,4.32,3.76,9.74,10.28,7.57,18.08l-.43,1.56-1.54.5c-16.85,5.42-49.25,8.79-84.55,8.79Zm-83.93-14.91c15.66,5.43,48.15,8.91,83.93,8.91,33.54,0,64.25-3.04,80.99-7.97.41-7.09-9.68-13.19-9.79-13.26l-3.62-2.16,2.99-2.52c1.2-1.34,2.83-1.12,3.54-1.03.08.01.19.03.29.04.16-.34.46-1.2.56-3.07.36-6.51-8.19-9.05-8.28-9.07l-3.42-.98,1.55-3.2c.05-.1,4.99-10.7-.89-18.53-5.88-7.85-18.96-5.78-19.09-5.76l-3.14.52-.34-3.16c-.01-.11-1.43-11.98-10.26-16.49-8.72-4.45-15.79-.29-16.09-.11l-2.4,1.45-1.63-2.28c-.13-.17-3.67-4.85-12.36-4.55h-.1s-.1,0-.1,0c-8.68-.3-12.22,4.38-12.37,4.57l-1.65,2.22-2.37-1.43c-.28-.17-7.36-4.33-16.08.12-8.88,4.54-10.24,16.37-10.25,16.49l-.34,3.18-3.15-.54c-.12-.02-13.21-2.09-19.09,5.76-5.92,7.9-.94,18.43-.89,18.54l1.55,3.2-3.42.98c-.34.1-8.63,2.62-8.27,9.07.17,3.07.85,3.75.85,3.75-.02-.02-.04-.03-.07-.05l3.04,4.99c-.05.03-.11.07-.16.1-.15.09-.51.32-1.01.67-2.07,1.44-8.29,6.2-8.68,11.61Zm167.56,3.26h.01-.01Zm-13-20.3h0Z"></path>
        <path fill="#3a4a3a" d="m469.77,229.17c-1.44,0-2.72-1.04-2.96-2.51-1.69-10.31-11.93-13.98-12.03-14.02-1.56-.55-2.39-2.26-1.85-3.82.55-1.56,2.26-2.39,3.82-1.85.56.19,13.71,4.93,15.98,18.71.27,1.63-.84,3.18-2.47,3.45-.16.03-.33.04-.49.04Z"></path>
        <path fill="#3a4a3a" d="m460.86,246.26c-.28,0-.57-.04-.86-.13-1.59-.47-2.49-2.14-2.02-3.73.27-.92,6.84-22.41,23.9-21.78,1.66.06,2.95,1.45,2.89,3.11-.06,1.66-1.43,2.97-3.11,2.89-12.37-.47-17.88,17.32-17.93,17.5-.39,1.3-1.58,2.14-2.87,2.14Z"></path>
        <path fill="#3a4a3a" d="m502.89,207.24c-.61,0-1.22-.18-1.75-.56-4.31-3.1-8.19-4.39-11.54-3.84-3.5.58-5.29,3.02-5.36,3.12-.96,1.34-2.82,1.67-4.17.73-1.35-.94-1.7-2.78-.77-4.13.32-.46,3.26-4.57,9.16-5.61,5.02-.89,10.47.75,16.19,4.86,1.35.97,1.65,2.84.69,4.19-.59.82-1.51,1.25-2.44,1.25Z"></path>
        <path fill="#3a4a3a" d="m491.6,201.53c-1.21,0-2.34-.73-2.8-1.92-.55-1.42-3.56-6.26-5.52-9.25-.91-1.38-.53-3.24.86-4.16,1.38-.91,3.24-.53,4.16.86.85,1.29,5.14,7.86,6.11,10.39.59,1.55-.18,3.28-1.72,3.88-.35.14-.72.2-1.08.2Z"></path>
        <path fill="#3a4a3a" d="m536.9,248.03l-1.51-3.6h0s-2.42-4.97-13.29-11.3c-2.18-1.27-4.26-1.58-6.36-.93-4.94,1.51-9,8-10.14,10.37-.72,1.49-2.51,2.12-4,1.4-1.49-.72-2.12-2.5-1.41-4,.21-.44,5.3-10.9,13.77-13.51,3.74-1.15,7.49-.65,11.16,1.48,7.7,4.48,11.77,8.49,13.85,11.1,5.97-3.88,20.78-11.78,32.5-3.94,1.38.92,1.75,2.78.83,4.16-.92,1.38-2.79,1.75-4.16.83-11.13-7.44-27.97,5.41-28.13,5.55l-3.09,2.39Z"></path>
        <path fill="#3a4a3a" d="m521.29,232.46s-.04,0-.06,0c-1.66-.03-2.97-1.4-2.94-3.06.38-18.9,18.73-23.55,28.38-23.36,1.66.03,2.97,1.4,2.94,3.06-.03,1.65-1.38,2.97-3.05,2.94h0c-.89-.02-21.92-.13-22.27,17.48-.03,1.64-1.37,2.94-3,2.94Z"></path>
        <path fill="#3a4a3a" d="m454.68,266.28c-1.11,0-2.19-.62-2.7-1.69-6.62-13.7-23.44-6.45-24.16-6.13-1.51.67-3.29-.01-3.96-1.52-.67-1.51,0-3.28,1.51-3.96,7.86-3.52,24.67-6.16,32,9,.72,1.49.1,3.29-1.39,4.01-.42.2-.87.3-1.3.3Z"></path>
        <path fill="#3a4a3a" d="m562.36,274.08l-4.03-6.5c-.22-.35-5.81-8.96-19.3-9.12-12.35-.15-14.57,10.15-14.78,11.33-.29,1.62-1.83,2.73-3.46,2.44-1.63-.28-2.73-1.81-2.46-3.44.94-5.72,6.5-16.46,20.76-16.33,10.6.12,17.36,4.61,21,8.06,2.17-3.21,6.43-6.94,14.65-7.87,1.65-.19,3.13,1,3.32,2.64.19,1.65-1,3.13-2.64,3.32-10.14,1.15-11.53,7.66-11.59,7.94l-1.48,7.54Z"></path>
        <path fill="#3a4a3a" d="m498.14,254.63c-1.66,0-3-1.34-3-3v-43.47c0-1.66,1.34-3,3-3s3,1.34,3,3v43.47c0,1.66-1.34,3-3,3Z"></path>
        <path fill="#3a4a3a" d="m498.14,280.46c-1.66,0-3-1.34-3-3v-21.84c0-1.66,1.34-3,3-3s3,1.34,3,3v21.84c0,1.66-1.34,3-3,3Z"></path>
      </g>
      <path fill="#3a4a3a" d="m498.14,187.42c-1.66,0-3-1.34-3-3v-56.5c0-1.66,1.34-3,3-3s3,1.34,3,3v56.5c0,1.66-1.34,3-3,3Z"></path>
      <g>
        <path fill="#3a4a3a" d="m507.69,135.26c-8.74,0-14.44-6.39-17.25-10.61-4.45,3.7-11.33,6.91-17.3,2.22-6.16-4.82-4.19-13.04-1.14-18.91-3.83-1.44-9.31-4.35-11.26-9.6-.75-2.01-.92-4.18-.51-6.45.84-4.53,3.88-8.12,8.78-10.39,3.57-1.65,8-2.43,12.14-2.35-2.56-4.15-4.49-9.77-2.3-15.86,1.8-5.04,6.22-8.29,12.12-8.92,6.68-.71,14,2.09,16.66,6.38,1.58,2.54,2.15,5.39,2.24,7.98,2.91-1.93,6.55-3.63,10.29-3.52,3.37.09,6.37,1.63,8.69,4.47,2.43,2.97,3.36,6.31,2.72,9.67-.72,3.74-3.26,6.85-5.73,9.09,2.77,1.13,5.84,2.94,7.93,5.81,2.29,3.13,3.03,6.88,2.2,11.14h0c-.78,4-2.85,7.11-5.97,9-3.86,2.34-8.67,2.45-12.31,2.04,1.14,4.19,1.97,10.01-.44,14.11-1.09,1.86-3.32,4.16-7.73,4.6-.62.06-1.22.09-1.81.09Zm-15.78-21l1.94,4.31c.05.11,5.39,11.6,15.07,10.63,2.06-.2,2.78-1.04,3.15-1.66,1.82-3.09-.06-10.12-1.67-13.83l-2.62-6.05,6.28,1.99c2.23.7,8.9,2,12.82-.37,1.69-1.02,2.73-2.66,3.19-5.02.5-2.58.12-4.69-1.15-6.44-3.06-4.21-10.17-5.14-10.24-5.15l-9.17-1.14,8.09-4.46c1.98-1.1,7.31-4.85,8.08-8.85.3-1.59-.18-3.13-1.48-4.72-1.22-1.5-2.55-2.22-4.19-2.27-4.49-.11-10.15,4.91-11.92,6.86l-9.77,10.73,4.71-13.72c.02-.06,2.23-6.76-.5-11.17-1.3-2.1-6.25-4.07-10.93-3.58-2.53.27-5.81,1.35-7.11,4.97-2.97,8.29,6.46,16.27,6.56,16.35l-3.41,4.91c-3.21-1.85-10.79-2.08-16.12.38-3.1,1.43-4.92,3.46-5.39,6.03-.22,1.2-.14,2.27.23,3.27,1.57,4.23,8.33,6.49,10.8,7.01l4.46.93-2.61,3.73c-.07.1-7.05,10.4-2.18,14.21,4.92,3.85,11.93-4.22,12-4.3l3.08-3.59Zm41.11-9.42h0,0Z"></path>
        <circle fill="#e8b896" cx="499.08" cy="95.89" r="12.39"></circle>
      </g>
    </g>
    <path fill="#3a4a3a" d="m502.23,536.23c-43.66,0-61.45-35.63-67.52-47.78-.35-.7-.72-1.45-1.04-2.07-4.84,1.42-15.7,4.64-15.83,4.68-1.59.47-3.26-.43-3.73-2.02-.47-1.59.43-3.26,2.02-3.73.63-.19,15.55-4.61,17.88-5.28,2.81-.8,3.9,1.38,6.07,5.74,6.59,13.2,24.1,48.28,69.36,44.13,1.67-.15,3.11,1.06,3.26,2.71.15,1.65-1.06,3.11-2.71,3.26-2.67.25-5.26.36-7.76.36Z"></path>
  </g>
  <path fill="#3a4a3a" d="m222.59,440.2c-17.64,0-34.43-7.11-49.06-21.11-25.57-24.48-39.36-67.07-29.51-91.15,4.59-11.22,13.99-17.32,26.49-17.14,4.67.06,9.11.86,13.26,2.36,1.04-.23,2.11-.44,3.2-.61.28-2.94,1.35-5.81,3.21-8.53,4.88-7.12,14.93-12.4,27.15-14.47,3.81-9.68,11.32-18.35,21.17-23.69-.48-4.32-.2-8.89.89-13.63,3.67-15.97,17.13-32.4,36.21-36.36,3.03-9.06,9.07-18.13,18.98-25.35,31.71-23.08,80.89,21.65,82.96,23.57,1.22,1.12,1.3,3.02.17,4.24-1.12,1.22-3.02,1.3-4.24.17-.47-.44-47.62-43.32-75.37-23.13-7.8,5.68-12.9,12.61-15.82,19.65,1.27-.06,2.56-.07,3.88-.01,24.51.98,39.19,16.52,38.74,30.37-.26,8-6.23,17.19-22.31,16.8-13.46-.34-23.85-8.08-27.78-20.7-1.7-5.47-2.14-12.06-.92-18.92-14.71,4.47-25.62,17.77-28.66,31.02-.76,3.32-1.05,6.53-.89,9.62,8.34-3.12,17.94-3.94,28.18-1.39,20.32,5.08,29.44,15.18,31.2,22.93,1.12,4.95-.41,9.59-4.21,12.73-.83.69-1.75,1.29-2.74,1.8,10.01,3.16,17.35,8.71,21.24,16.33,7.21,14.16,1.56,29.09-15.48,41.27,1.15,1.36,2.27,2.77,3.35,4.22,22.37,30.18,10,46.76.64,53.96-20.4,15.68-64.4,15.8-92.93-.53-2.35-.09-4.73-.27-7.12-.57-1.4,1.68-2.92,3.13-4.57,4.31-3.73,2.67-9.13,4.8-16.21,3.24,19.66,14.45,42.7,16.62,65.86,5.95,1.51-.7,3.29-.04,3.98,1.47.69,1.5.04,3.29-1.47,3.98-10.6,4.88-21.18,7.3-31.46,7.31Zm3.88-26.18c25.91,10.17,60.08,8.8,76.39-3.73,13.35-10.25,12.72-26.03-1.8-45.63-.71-.96-1.44-1.89-2.18-2.8,2.65,6.51,1.2,13.62-4.4,19.59-5.83,6.21-14.98,10.23-25.59,11.47-5.98,8.56-17.68,15.71-32.24,19.29-3.22.79-6.63,1.41-10.17,1.82Zm-62.75-20.31c1.07,5.77,5.25,11.34,12.47,16.62,8.7,6.35,16.17,7.38,22.2,3.06.29-.21.57-.43.85-.66-12.48-2.72-24.95-8.62-35.52-19.02Zm51.58,14.86c7.07.12,13.84-.71,19.91-2.19,10.7-2.63,19.77-7.4,25.5-13.06-1.06-.02-2.12-.06-3.19-.13-10.07-.66-24.37-3.88-40.19-14.48-.33,10.26-2.38,19.83-5.92,27.33,1.25.89,2.55,1.73,3.9,2.54Zm-51.05-23.05c11.19,12.88,25.29,19.48,39.22,21.92-2.53-2.17-4.83-4.53-6.85-7.07-9.03-11.34-9.9-22.62-2.69-32.35-2.55-1.27-5.02-2.7-7.37-4.28-11.73,5.92-19.82,13.79-22.31,21.78Zm35.34-14.99c-6.45,7.8-5.88,16.56,1.72,26.1,1.56,1.96,3.31,3.8,5.23,5.52,3.19-7.54,4.86-17.44,4.72-27.84-.12-.09-.24-.19-.36-.28-3.89-.91-7.67-2.07-11.31-3.5Zm-42.62,15.5c.23.47.47.94.71,1.41.02-.13.04-.26.06-.39-.26-.34-.52-.68-.77-1.01Zm67.58-9.84c15.05,9.08,29.28,11.77,40.85,10.95.68-1.3,1.18-2.61,1.49-3.94.81-3.5.31-6.94-1.49-10.3-13.09,3.16-27.27,4.5-40.85,3.29Zm46.76-4.86c2.35,5.08,2.24,9.7,1.42,13.23-.13.55-.28,1.09-.45,1.64,8.04-1.66,14.26-5.06,17.83-8.86,4.35-4.64,5.22-9.73,2.63-14.49-6.39,3.35-13.66,6.24-21.43,8.49Zm-102.42-26.11c-5.74,4.17-9.85,8.99-11.81,14.18-2.47,6.56-1.48,13.43,2.95,20.5,3.66-7.55,11.04-14.57,21.23-20.17-2.42-2.06-4.69-4.32-6.77-6.81-2.24-2.67-4.11-5.23-5.61-7.7Zm48.26,23.96c5.91,1.04,12.23,1.54,18.87,1.48,8.45-.08,17.12-1.12,25.49-2.97-.82-.85-1.73-1.69-2.72-2.52-8.28-6.95-19.24-10.1-30.65-10.56-4.31,1.23-8.44,2.72-12.23,4.45.6,3.37,1.02,6.77,1.25,10.13Zm-47.15-52.4c-9.92,0-16.79,4.51-20.43,13.42-4.05,9.91-3.64,23.33.22,37.19-.13-3.92.63-7.33,1.68-10.11,2.48-6.56,7.55-12.5,14.64-17.49-2.49-6.08-2.42-11.45.21-16.03,1.6-2.8,4.06-5.05,7.14-6.82-.98-.09-1.99-.14-3.03-.16-.14,0-.28,0-.42,0Zm37.74,46.7c.12.11.24.22.36.33.89.81,1.79,1.61,2.68,2.37-.15-1.42-.32-2.83-.54-4.25-.86.5-1.7,1.01-2.51,1.54Zm37.38-12.25c6.32,1.93,12.29,4.95,17.52,9.34,2.2,1.85,3.97,3.69,5.4,5.5,7.44-2.06,14.51-4.75,20.82-7.96-8.2-7.16-25.83-9.17-43.63-6.96-.04.03-.07.06-.11.08Zm-51.94,9.53c1.59.92,3.25,1.79,4.97,2.59.11-.1.22-.2.32-.3.11-.1.21-.19.32-.29-.89-1.08-1.69-2.15-2.4-3.21-.87.31-1.72.62-2.56.95-.22.09-.44.17-.66.26Zm9.24-3.08c.36.47.73.94,1.12,1.41,1.39-.95,2.87-1.86,4.42-2.74-1.88.39-3.72.83-5.54,1.33Zm-28.47-15.72c1.52,2.53,3.35,4.96,5.15,7.11,2.38,2.84,5.09,5.41,8.11,7.71,1.44-.65,2.93-1.27,4.46-1.87.59-.23,1.18-.45,1.79-.67-3.21-7.35-2.51-13.79-.84-18.6.17-.49.36-.98.55-1.46-7.25,1.99-13.75,4.63-19.22,7.78Zm85.77-12.58c14.16,4.37,27.68,11.73,38.74,23.01,9.34-6.54,21.96-18.85,14.21-34.07-5.57-10.94-20.43-16.72-41.05-16.08,9.02,6.99,8.62,13.12,7.16,16.63-2.4,5.78-9.72,9.42-19.06,10.51Zm-60.27,5.47c-.45.91-.84,1.83-1.17,2.77-1.7,4.89-1.4,9.82.89,14.74,2.72-.8,5.55-1.5,8.46-2.08-.06-.21-.13-.41-.19-.62-1.16-3.68-2.87-8.12-5.35-12.53-.88-.74-1.76-1.5-2.64-2.28Zm12.61,9.76c.39,1.06.75,2.15,1.1,3.26.15.47.29.95.43,1.42,1.79-.24,3.61-.43,5.43-.57-2.27-1.18-4.6-2.55-6.96-4.1Zm46.55-.29c10.81,0,20.22,1.7,27.22,4.9-10.96-8.38-23.69-13.6-36.64-16.41.09.33.17.67.23,1.01.87,4.62.71,8.16-.03,10.89,3.17-.26,6.25-.39,9.22-.39Zm-51.86-11.12c9.87,8.15,18.86,12.72,25.48,14.15,3.31-.76,6.73-1.39,10.23-1.87,1.98-2.59,1.73-6.99,1.06-10.55-.22-1.16-.77-2.31-1.61-3.44-12.04-1.8-24.01-1.65-34.71-.16-.49.07-.98.14-1.47.21.35.54.69,1.1,1.02,1.66Zm-23.31-13.81c-5.76,1.54-10.01,4.04-11.91,7.35-1.65,2.89-1.44,6.3-.22,9.77,6.1-3.46,13.28-6.31,21.31-8.41-1.6-1.92-2.87-3.87-3.8-5.84-1.66-1.1-3.46-2.07-5.39-2.87Zm31.38-.27c-2.96,1.93-5.65,4-7.99,6.19,6.68-.9,13.82-1.31,21.17-1.08-1.78-.91-3.39-1.97-4.83-3.17-2.62-.76-5.41-1.41-8.35-1.94Zm-21.11-.68c2.17,1.59,4.23,3.42,6.15,5.47,1.88-2.08,4.02-4.06,6.38-5.94-4.49-.4-8.79-.44-12.75-.17.07.21.14.43.22.64Zm46.84,3.77c16.41,3.88,30.38-.07,32.69-5.64,1.56-3.77-2.79-8.79-11.52-13.57-12.64,1.55-26.05,5.34-37.36,10.79.52.67,1.1,1.3,1.74,1.9,5.34,1.64,10.41,3.81,14.46,6.53Zm-41.86-10.56c4.95,0,10.01.42,14.9,1.18.87-.53,1.75-1.05,2.65-1.56-1.66-4.52-1.99-9.73-.85-15.29-9.21,2.02-16.62,6.09-20.26,11.41-1.03,1.5-1.66,2.99-1.98,4.44,1.82-.12,3.67-.18,5.54-.18Zm23.13-16.71c-1.44,5.04-1.5,9.62-.26,13.53,9.23-4.49,19.72-7.89,30.2-9.96-10.1-3.6-20.63-4.57-29.95-3.57Zm7.16-6.38c9.93,0,20.55,2.03,30.62,6.66,1.16.53,2.25,1.07,3.29,1.59.5-.05,1-.1,1.5-.15-.56-.23-1.13-.47-1.7-.72-11.94-5.21-19.82-13.62-22.92-23.91-7.01,4.3-12.29,10.47-15.46,16.67,1.54-.1,3.1-.15,4.68-.15Zm16.31-19.35c2.42,9.14,9.24,16.63,19.79,21.23,16.17,7.05,26.41,5.85,30.61,2.38,2.05-1.69,2.8-4.04,2.18-6.78-1.3-5.74-9.1-14.02-26.8-18.44-9.8-2.45-18.49-1.42-25.78,1.6Zm34.98-48.01c-1.61,6.71-1.37,13.2.28,18.47,3.18,10.21,11.27,16.21,22.2,16.49,9.89.24,15.93-3.86,16.16-10.99.3-9.21-9.98-23.25-32.98-24.18-1.93-.08-3.81,0-5.66.21Z"></path>
  <path fill="#3a4a3a" d="m765.42,404.63c-7.48,0-15.18-1.76-22.89-5.31-1.5-.69-2.16-2.48-1.47-3.98.09-.19.19-.36.31-.52-14.25.92-28.14-1.91-36.54-8.36-5.6-4.3-16.77-16.78.29-39.8.6-.81,1.21-1.59,1.84-2.36-12-8.89-15.87-19.73-10.6-30.07,2.66-5.22,7.47-9.12,13.98-11.52-.18-.13-.36-.27-.53-.41-2.97-2.46-4.18-6.09-3.3-9.96,1.7-7.51,10.28-13.88,22.95-17.05,7.04-1.76,13.69-1.33,19.53.62,0-2.19-.31-4.11-.63-5.49-2.02-8.8-9.04-17.64-18.57-21.12.58,4.24.29,8.5-.96,12.52-2.93,9.4-10.66,15.16-20.67,15.41-12.14.29-16.64-6.73-16.84-12.85-.33-10.31,10.48-21.89,28.54-22.61.5-.02,1-.03,1.49-.03-2.1-4.48-5.5-8.85-10.5-12.48-19.29-14.03-52.52,16.18-52.85,16.49-1.22,1.12-3.12,1.04-4.24-.17-1.12-1.22-1.04-3.12.17-4.24,1.51-1.39,37.2-33.84,60.45-16.93,6.52,4.75,11.26,11.19,13.73,18.1,13.75,3.08,23.43,14.99,26.09,26.56.75,3.25.96,6.42.67,9.44,6.87,3.86,12.13,9.93,14.91,16.72,8.76,1.59,15.97,5.44,19.5,10.6,1.29,1.88,2.08,3.86,2.38,5.88.47.08.94.18,1.4.27,3-1.06,6.21-1.62,9.58-1.67.12,0,.24,0,.36,0,9.14,0,16.02,4.53,19.4,12.8,7.16,17.52-2.8,48.44-21.32,66.17-10.63,10.18-22.85,15.35-35.68,15.35Zm-19.27-10.27c17.82,7.8,32.1,3.93,42.48-2.79-4.03.03-7.02-1.46-8.91-2.81-1.14-.82-2.19-1.78-3.15-2.87-1.52.18-3.03.29-4.53.35-7.61,4.29-16.71,6.99-25.9,8.12Zm-37.1-42.9c-6.6,9.35-11.59,21.76-.56,30.23,10.85,8.34,32.93,9.65,50.72,3.72-1.39-.24-2.75-.52-4.07-.85-10.48-2.57-18.94-7.72-23.4-13.91-7.93-.99-14.42-4.09-18.41-8.34-3.12-3.33-4.54-7.12-4.29-10.85Zm75.14,33.04c3.81,2.11,8.49,1.17,13.92-2.79,3.7-2.7,6.23-5.49,7.59-8.35-6.59,5.7-14.01,9.24-21.51,11.14Zm-44.07-13.59c3.99,3.37,9.77,6.19,16.46,7.83,4.22,1.04,8.93,1.62,13.84,1.55.65-.4,1.28-.81,1.9-1.23-2.28-5.12-3.54-11.34-3.87-17.84-9.82,6.25-19.61,9.17-28.32,9.69Zm47.04-18.47c4.7,7.07,3.9,15.34-2.5,23.37-.85,1.07-1.77,2.1-2.76,3.08,8.68-2.06,17.27-6.52,24.29-14.44-1.83-5.25-7.21-10.42-14.95-14.4-1.32.86-2.68,1.66-4.08,2.39Zm-12.81,4.71c-.04,6.65.95,12.97,2.85,17.96,1-.96,1.92-1.98,2.77-3.04,5.06-6.35,5.6-11.99,1.61-17.14-2.34.89-4.76,1.62-7.24,2.22Zm-39.02,7.87c7.21.41,15.85-1.12,25.07-5.98-8.44.36-17.06-.56-25.15-2.45-.96,2.04-1.19,4.12-.71,6.21.17.74.44,1.48.79,2.22Zm-19.74-15.44c-1.58,3.72.47,6.87,2.13,8.64,2.26,2.41,6.05,4.57,10.95,5.81-.55-2.45-.63-5.56.72-8.99-4.96-1.49-9.62-3.34-13.79-5.46Zm80.85-3.53c6.3,3.64,11.03,8.06,13.76,12.83,2.37-4.36,2.8-8.59,1.28-12.61-1.26-3.35-3.83-6.47-7.41-9.22-1.01,1.56-2.21,3.17-3.6,4.83-1.26,1.5-2.61,2.89-4.03,4.17Zm-57.13,5.35c5.44,1.1,11.04,1.72,16.5,1.77,4.48.05,8.75-.28,12.76-.94.16-2.02.4-4.03.72-6.01-2.45-1.08-5.08-2.03-7.82-2.83-7.98.32-15.63,2.52-21.4,7.36-.26.22-.51.43-.75.65Zm-19.74-6.52c4,1.94,8.4,3.59,13,4.89.99-1.2,2.19-2.4,3.63-3.61,2.9-2.44,6.11-4.3,9.5-5.67-10.59-.87-20.63.45-26.13,4.39Zm87.29-13.24c4.93,3.59,8.48,7.84,10.24,12.51.24.64.46,1.32.65,2.04,1.53-8.12,1.28-15.53-.88-20.8-2.45-5.98-7.06-9.03-13.71-9.07,1.34,1.06,2.44,2.29,3.26,3.72,1.93,3.37,2.07,7.25.44,11.6Zm-19.46,10.15c.15.06.3.12.46.18.94.37,1.86.75,2.76,1.15,1.95-1.53,3.71-3.23,5.27-5.08,1.09-1.3,2.19-2.74,3.16-4.24-3.27-1.8-7.04-3.35-11.2-4.59,1.07,3.36,1.46,7.69-.44,12.59Zm-10.18-2.99c1.53.33,3.02.7,4.47,1.11,1.27-3.1,1.38-6.19.32-9.24-.1-.29-.21-.58-.33-.87-.3.26-.61.52-.91.78-1.6,2.88-2.75,5.77-3.54,8.22Zm-49.16-32.92c-13.24.02-22.72,3.95-26.34,11.08-5.1,10.02,2.94,18.27,9.31,22.88,7.08-7.06,15.52-11.94,24.4-15.11-5.39-1.22-9.49-3.77-11.01-7.43-1.03-2.49-1.43-6.67,3.64-11.41Zm42.69,31.85c.17.02.33.04.5.06.03-.11.07-.22.1-.34.01-.03.02-.07.03-.1-.21.13-.42.25-.63.37Zm-19.08-2.56c2.35.33,4.68.77,6.98,1.29,4.56-1.08,10.75-4.33,17.4-9.77-7.42-1.01-15.69-1.11-24,.1-.39.6-.65,1.22-.77,1.83-.41,2.21-.61,4.91.38,6.56Zm-6.38-7.11c-6.79,1.59-13.46,4.14-19.57,7.86,5.71-1.43,12.48-1.88,19.46-1.42-.31-1.74-.33-3.86.1-6.43Zm43.05-4.97c4.92,1.38,9.39,3.15,13.28,5.26.52-1.92.49-3.76-.4-5.33-1.21-2.11-3.97-3.74-7.73-4.77-1.15.5-2.22,1.08-3.23,1.73-.52,1.04-1.16,2.08-1.92,3.1Zm-23.69-3.18c3.19,0,6.32.18,9.33.49-1-.8-2.07-1.59-3.2-2.34-1.87.35-3.65.76-5.33,1.24-.26.21-.53.42-.8.62Zm-27.05-13.43c-6.24,3.46-8.4,6.67-7.64,8.51,1.32,3.17,10.57,6.32,22.3,3.56,2.9-1.92,6.46-3.45,10.21-4.62.11-.11.22-.22.33-.34-7.35-3.45-16.12-6-25.21-7.11Zm41.67,10.56c.85.75,1.66,1.52,2.41,2.31.83-.84,1.7-1.63,2.59-2.36-1.61-.05-3.28-.04-5,.06Zm-8.26-5.86c.33.19.66.39.99.59,4.38-.67,8.96-.95,13.32-.74-.24-.6-.56-1.2-.96-1.79-2.34-3.42-6.95-6.08-12.73-7.55.53,3.41.3,6.62-.63,9.49Zm-23.18-8.93c6.15,1.43,12.21,3.49,17.72,6.08.65-2.96.19-5.89-.26-7.72-5.46-.5-11.5-.05-17.45,1.64Zm-9.41-22.08c-2.38,0-4.88.3-7.49.95-12.29,3.07-17.68,8.68-18.56,12.56-.37,1.65.05,3,1.27,4,2.68,2.22,9.8,3.07,21.02-1.83,8.32-3.63,12.03-8.91,13.5-13.89-2.94-1.13-6.21-1.79-9.74-1.79Zm15.11,4.56c-1.68,4.73-4.74,8.92-9.03,12.25,6.13-1.96,12.38-2.71,18.23-2.49-2.1-3.61-5.22-7.12-9.21-9.76Zm-32.39-36.97c-.34,0-.67,0-1.01.02-15.19.61-22.99,9.93-22.78,16.42.15,4.57,4.15,7.21,10.69,7.04,7.43-.19,12.93-4.27,15.09-11.2,1.09-3.48,1.29-7.75.32-12.18-.76-.07-1.53-.11-2.31-.11Z"></path>
  <path fill="#f8c8a8" d="m244.44,576.36s-63.99,4.23-75.43-25.01c-11.44-29.25,33.87-27.24,33.87-27.24,0,0,1.35-44.99,28.14-37.04,26.79,7.96,13.42,89.29,13.42,89.29Z"></path>
  <path fill="#f8c8a8" d="m743.38,507.26s-12.65-40.66,4.46-52.59,22.84,17.65,22.84,17.65c0,0,29.26-6.1,28.28,12.43-.99,18.54-55.58,22.5-55.58,22.5Z"></path>
  <path fill="#3a4a3a" d="m251.95,899.39c-18.21,0-42.73-2.88-72.45-13.07-18.94-6.49-33-17.77-40.07-31.59-.74-.11-1.48-.24-2.22-.38-13.19-2.5-44-13.69-45.04-63.46-.49-23.19,7.42-46.78,23.5-70.12,12.74-18.5,30.63-36.89,53.17-54.67,38.25-30.17,77.29-48.43,77.68-48.61,1.5-.7,3.29-.04,3.98,1.46.7,1.5.04,3.29-1.46,3.98-.38.18-38.88,18.19-76.58,47.95-34.47,27.21-75.35,70.09-74.3,119.88.89,42.1,23.74,54.04,38.48,57.34-1.05-3.16-1.76-6.42-2.1-9.76-1.28-12.5,3.32-23.46,12.01-28.6,5.19-3.07,16.31-6.55,32.51,4.63,12.62,8.71,11.33,17.61,9.44,22.14-4.85,11.61-23.02,19.39-41.69,18.87,5.5,8.86,15.71,18.77,34.64,25.26,64.83,22.23,104.66,8.42,105.06,8.28,1.56-.56,3.28.25,3.84,1.81.56,1.56-.25,3.28-1.81,3.84-.94.34-13.85,4.82-36.58,4.82Zm-108.37-50.2c18.35,1.63,35.66-6.1,39.38-14.99,2.64-6.31-2.52-11.58-7.31-14.89-9.96-6.88-19.21-8.44-26.04-4.4-6.65,3.93-10.14,12.68-9.1,22.83.24,2.32.95,6.49,3.07,11.45Z"></path>
  <path fill="#3a4a3a" d="m741.01,923.9c-1.27,0-2.04-.02-2.23-.03-1.66-.05-2.96-1.43-2.91-3.09.05-1.66,1.42-2.97,3.09-2.91.34,0,34.68.86,71.52-11.99,48.98-17.08,78.94-49.01,89.04-94.89,12.62-57.33-29.12-120.35-66.37-163.11-40.67-46.7-84.99-80.07-85.43-80.4-1.33-.99-1.6-2.87-.6-4.2.99-1.33,2.87-1.6,4.2-.6.45.33,45.2,34.03,86.29,81.19,24.2,27.77,42.43,54.74,54.2,80.15,14.84,32.05,19.41,61.75,13.57,88.27-10.44,47.44-42.64,81.78-93.1,99.33-32.85,11.42-62.95,12.28-71.28,12.28Z"></path>
</svg>