<?xml version="1.0" encoding="UTF-8"?>
<svg id="Layer_2" data-name="Layer 2" xmlns="http://www.w3.org/2000/svg" viewBox="0 0 1000 1000">

  <defs></defs>
  <g>
    <g>
      <path fill="#f8c8a8" d="m116.88,681.37s-38.91-35.73-23.95-72.58c14.96-36.85,39.62,2.49,36.57,30.48-3.05,27.99-12.63,42.1-12.63,42.1Z"></path>
      <path fill="#f8c8a8" d="m129.77,743.73s-59-16.07-49.86-44.89c9.14-28.82,44.02,17.18,49.86,44.89Z"></path>
      <path fill="#f8c8a8" d="m129.77,743.73s35.49-34.36,26.9-62.62c-8.59-28.26-40.49,12.47-26.9,62.62Z"></path>
      <path fill="#f8c8a8" d="m167.73,820.89s-61.12-1.99-58.88-32.14c2.23-30.15,46.8,6.54,58.88,32.14Z"></path>
      <path fill="#f8c8a8" d="m167.73,820.89s26.58-41.63,11.69-67.14c-14.89-25.51-36.51,21.49-11.69,67.14Z"></path>
      <path fill="#f8c8a8" d="m230.38,880.91s-55.2,26.31-67.07-1.49c-11.87-27.8,44.57-15.7,67.07,1.49Z"></path>
      <path fill="#f8c8a8" d="m230.38,880.91s4.48-49.19-20.47-65.01c-24.95-15.82-22.55,35.87,20.47,65.01Z"></path>
    </g>
    <path fill="#3a4a3a" d="m310.72,916.58c-.21,0-.43-.02-.65-.07-47.01-10.36-86.72-31.25-118.03-62.07-25.03-24.64-44.74-55.64-58.59-92.12-23.53-61.98-21.93-119.25-21.91-119.82.06-1.66,1.47-2.94,3.1-2.9,1.66.05,2.95,1.44,2.9,3.1-.02.56-1.56,56.8,21.59,117.68,30.94,81.35,88.89,131.91,172.23,150.28,1.62.36,2.64,1.96,2.28,3.58-.31,1.4-1.55,2.35-2.93,2.35Z"></path>
  </g>
  <g>
    <g>
      <path fill="#e8b896" d="m883.12,681.37s38.91-35.73,23.95-72.58c-14.96-36.85-39.62,2.49-36.57,30.48,3.05,27.99,12.63,42.1,12.63,42.1Z"></path>
      <path fill="#e8b896" d="m870.23,743.73s59-16.07,49.86-44.89c-9.14-28.82-44.02,17.18-49.86,44.89Z"></path>
      <path fill="#e8b896" d="m870.23,743.73s-35.49-34.36-26.9-62.62c8.59-28.26,40.49,12.47,26.9,62.62Z"></path>
      <path fill="#e8b896" d="m832.27,820.89s61.12-1.99,58.88-32.14c-2.23-30.15-46.8,6.54-58.88,32.14Z"></path>
      <path fill="#e8b896" d="m832.27,820.89s-26.58-41.63-11.69-67.14c14.89-25.51,36.51,21.49,11.69,67.14Z"></path>
      <path fill="#e8b896" d="m769.62,880.91s55.2,26.31,67.07-1.49c11.87-27.8-44.57-15.7-67.07,1.49Z"></path>
      <path fill="#e8b896" d="m769.62,880.91s-4.48-49.19,20.47-65.01c24.95-15.82,22.55,35.87-20.47,65.01Z"></path>
    </g>
    <path fill="#3a4a3a" d="m689.28,916.58c-1.38,0-2.62-.95-2.93-2.35-.36-1.62.67-3.22,2.28-3.58,103.89-22.9,151.04-94.46,172.3-150.46,23.11-60.87,21.54-116.94,21.52-117.5-.05-1.66,1.24-3.04,2.9-3.1,1.67-.05,3.04,1.24,3.1,2.9.02.57,1.62,57.84-21.91,119.82-13.85,36.48-33.56,67.48-58.59,92.12-31.31,30.83-71.02,51.71-118.03,62.07-.22.05-.43.07-.65.07Z"></path>
  </g>
  <g>
    <path fill="#e8b896" d="m274.15,744.84c-12.47-14.96-7.07-34.08-7.07-34.08,0,0-25.35-.42-32.42-42.4-7.07-41.97,17.46-58.18,17.46-58.18,0,0-15.79-20.37-11.22-52.37.08-.57.17-1.14.28-1.7-.06-.35-1.24-7.66-2.25-16.28-18.13,31.88-32.65,60.61-37.94,75.26-14.96,41.49-44.05,84.86,0,133.08,22.78,24.92,55.99,17.63,82.75,4.77-3.26-1.87-6.56-4.46-9.59-8.1Zm469.65-266.83c-18.29-58.19-171.23-109.31-171.23-109.31,0,0-1.81-13.85-6.24-21.61-4.43-7.76-93.15-2.08-109.5-.42-16.35,1.67-15.61,21.2-15.61,21.2,0,0-64.83,12.88-100.57,32.13-11.68,6.29-29.02,26.98-47.6,53.44,1.18.09,2.38.17,3.6.28h0c16.05-10.17,39-3.97,39-3.97,0,0-1.66-21.61,28.26-35.33,29.92-13.72,49.87,24.52,49.87,24.52,0,0,14.55-2.08,26.19,16.63,11.64,18.7,3.74,56.1,3.74,56.1v21.2s10.39,9.98,14.96,27.02c4.58,17.03-6.23,34.49-6.23,34.49,0,0,4.57,4.16,13.71,24.94,9.15,20.78-2.9,50.29-2.9,50.29,0,0,5.82,5.4,11.21,17.87,5.41,12.47,1.26,44.47,1.26,44.47,0,0,14.12,19.95,2.49,41.99-11.64,22.02-31.89,14.96-31.89,14.96,0,0-4.69,24.1-40.02,19.94-35.32-4.15-43.22-28.67-43.22-28.67,0,0-4.57,4.15-29.51,0-3.78-.63-7.1-1.6-10.03-2.79l-28.61,156.98h435.15l-21.5-159.59s94.85-45.99,106.49-77.32c11.63-31.32-52.99-161.25-71.28-219.44Zm-61.24,280.13c-17.17,10.25-40.73,44.61-47.38,49.32-6.65,4.71-47.93,14.41-58.74,11.09-10.81-3.33-5.54-12.2-5.54-12.2,0,0-9.97.28-15.79-5.54-.89-.89-1.47-1.87-1.81-2.9-20.79-2.45-33.67-27.52-33.67-27.52,0,0-14.56,1.98-26.09-16.79-11.51-18.77-3.39-56.13-3.39-56.13l.13-21.2s-10.33-10.03-14.8-27.1,6.45-34.46,6.45-34.46c0,0-4.54-4.19-13.56-25.02-9.02-20.84,3.21-50.27,3.21-50.27,0,0-5.78-5.45-11.11-17.95-5.33-12.5-.97-44.47-.97-44.47,0,0-14.01-20.04-2.24-41.99,11.77-21.96,31.97-14.77,31.97-14.77,0,0,4.84-24.08,40.15-19.71,35.3,4.38,43.05,28.94,43.05,28.94,0,0,4.59-4.12,29.5.18,24.92,4.32,29.78,23.04,29.78,23.04,0,0,17.06-2.38,29.44,12.66,12.38,15.03,6.86,34.12,6.86,34.12,0,0,25.34.57,32.16,42.59,6.8,42.03-17.82,58.09-17.82,58.09,0,0,15.67,20.45,10.91,52.43-3.92,26.25-31.86,38.92-41.72,42.6,12.17-4.46,26.87-13.23,26.87-13.23l24.1,63.99s-2.77,1.95-19.95,12.2Z"></path>
    <g>
      <g>
        <path fill="#3a4a3a" d="m414.11,812.32c-2.54,0-5.25-.16-8.15-.5-29.75-3.5-41.06-20.71-44.48-27.76-4.11,1.1-12.3,1.74-28.39-.94-21.39-3.57-29.16-17.11-31.48-22.67-5.53.15-19.13-.94-29.76-13.7-10.27-12.32-9.4-27.01-8.34-33.49-7.76-1.72-25.91-9.46-31.79-44.41-6.04-35.9,10.02-53.79,16.35-59.3-4.12-6.49-13.96-25.34-10.13-52.18.09-.63.19-1.25.31-1.87l.22-1.09,1.11-.85c7.41-5.75,32.07-24.77,38.13-28.04,2.73-1.48,9-2.48,19.86-4.14,7.72-1.17,16.46-2.5,23.44-4.19,10.56-2.55,11.51-4.64,11.55-4.72,1.73-4.86-7.5-10.27-10.87-11.78l-12.78-5.74h14.01c.06,0,6.83-.1,10.84-4.33,2.66-2.8-.99-9.35-2.47-11.42l-2.76-3.85,4.66-.85c.08-.02,9.15-1.78,8.39-7.26-1.73-2.89-20.02-8.39-45.18-10.53l-8.88-.76,7.53-4.77c13.24-8.39,30.41-6.49,37.79-5.12.91-7.34,5.75-23.33,29.83-34.38,28.32-12.98,48.32,16.66,52.83,24.19,4.85.09,17.03,2.04,27.03,18.11,11.69,18.79,5,54.03,4.2,58v19.68c2.75,2.96,10.88,12.62,14.86,27.45,4,14.89-2.74,29.74-5.5,34.93,2.16,2.85,6.43,9.52,12.83,24.07,8.32,18.9.35,43.86-2.18,50.81,2.17,2.47,6.47,8.05,10.5,17.36,5.14,11.87,2.31,39.01,1.61,44.94,2.83,4.53,13.02,23.31,2.03,44.11h0c-9.94,18.82-25.96,18.26-32.54,17.1-2.47,6.19-10.6,19.89-34.21,19.89Zm-49.56-38.87l1.39,5.8c.3.92,7.9,22.75,40.72,26.62,31.95,3.76,36.55-16.69,36.73-17.56l.69-3.35,3.24,1.11c.72.24,18,5.85,28.24-13.53h0c10.6-20.07-1.76-38.1-2.29-38.85l-.67-.95.15-1.16c1.12-8.68,3.13-33.3-1.03-42.89-5.03-11.63-10.46-16.82-10.51-16.87l-1.5-1.41.77-1.91c.12-.28,11.46-28.6,2.94-47.95-8.55-19.44-12.99-23.93-13.03-23.97l-1.85-1.68,1.36-2.08c.1-.16,10.06-16.6,5.89-32.14-4.28-15.96-14.05-25.54-14.14-25.63l-.91-.88v-1.28s0-21.52,0-21.52l.06-.31c.08-.36,7.51-36.45-3.36-53.9-10.36-16.65-22.72-15.3-23.24-15.24l-2.07.26-.99-1.84c-.76-1.46-19-35.54-45.97-23.18-27.47,12.6-26.57,31.59-26.52,32.39l.27,4.18-4.04-1.07c-.17-.05-13.37-3.49-26.15-.6,7.22.99,14.25,2.28,20.04,3.7,15.73,3.88,18.26,7.6,18.72,10.42,1.14,7.03-4.26,11.13-9.19,13.07,2.4,4.74,3.94,11.18-.19,15.52-2.1,2.22-4.62,3.64-7,4.56,5.02,3.76,9.24,9.13,7.09,15.17-2.37,6.68-17.27,9.42-39.74,12.84-7.48,1.14-15.97,2.43-17.91,3.48-4.43,2.39-21.69,15.4-36.62,26.98-.02.15-.05.3-.07.46-4.32,30.26,10.47,49.92,10.62,50.12l1.96,2.55-2.68,1.78c-.92.62-22.77,15.81-16.15,55.18,6.52,38.75,28.59,39.87,29.53,39.9l3.84.12-1.02,3.7c-.05.17-4.78,17.83,6.48,31.34,11.18,13.42,26.14,11.51,26.78,11.42l2.63-.37.69,2.56c.19.68,4.93,16.91,27.52,20.68,20.07,3.34,26.13,1.08,27.07.63l3.4-4.39Zm-3.48,4.5h0s0,0,0,0Zm117.15-4.01h.01-.01Z"></path>
        <path fill="#3a4a3a" d="m333.72,654.74c-1.18,0-2.29-.7-2.77-1.85-20.98-50.61-77.67-39.88-78.24-39.77-1.62.33-3.21-.73-3.53-2.35-.33-1.62.73-3.21,2.35-3.53.63-.13,15.67-3.06,33.69.73,16.79,3.53,39.32,13.79,51.27,42.62.63,1.53-.09,3.29-1.62,3.92-.38.16-.77.23-1.15.23Z"></path>
        <path fill="#3a4a3a" d="m321.25,681.62c-.11,0-.22,0-.33-.02-1.64-.18-2.83-1.65-2.66-3.3.04-.39,4.64-38.7,47.4-38.7.16,0,.32,0,.49,0,1.66.01,2.99,1.36,2.98,3.02-.01,1.66-1.36,3.03-3.02,2.98-.15,0-.3,0-.44,0-37.3,0-41.29,31.98-41.44,33.35-.17,1.53-1.47,2.67-2.98,2.67Z"></path>
        <path fill="#3a4a3a" d="m411.86,760.03c-.21,0-.43-.02-.65-.07-1.62-.35-2.64-1.96-2.29-3.57,6.72-30.62-15.1-36.11-16.03-36.33-1.61-.38-2.61-1.99-2.24-3.6s1.96-2.62,3.58-2.25c.29.06,28.58,6.9,20.56,43.47-.31,1.4-1.55,2.36-2.93,2.36Z"></path>
        <path fill="#3a4a3a" d="m391.08,788.01c-.12,0-.24,0-.35-.02-1.64-.19-2.82-1.67-2.63-3.32.04-.34,4.37-33.88,45.25-35.63,1.64-.08,3.05,1.21,3.13,2.87.07,1.66-1.21,3.05-2.87,3.13-35.64,1.53-39.4,29.15-39.54,30.33-.18,1.52-1.48,2.64-2.98,2.64Z"></path>
        <path fill="#3a4a3a" d="m313.21,583.81c-1.24,0-2.4-.77-2.83-2.01-.36-1.02-8.65-25.24,2.83-38.98,6.48-7.75,17.69-10.42,33.31-7.92,1.64.26,2.75,1.8,2.49,3.44-.26,1.64-1.8,2.75-3.44,2.49-13.38-2.14-22.71-.17-27.75,5.84-9.31,11.11-1.86,32.94-1.78,33.16.54,1.56-.28,3.27-1.84,3.82-.33.11-.66.17-.99.17Z"></path>
        <path fill="#3a4a3a" d="m348.33,556.24c-1.5,0-2.79-1.12-2.97-2.64-.1-.87-2.39-21.41,9.4-34.4,6.31-6.95,15.37-10.34,26.89-10.1,1.66.04,2.97,1.41,2.93,3.06-.04,1.66-1.41,2.98-3.06,2.93-9.69-.22-17.21,2.52-22.3,8.12-9.96,10.94-7.93,29.49-7.9,29.68.19,1.64-.99,3.13-2.63,3.33-.12.01-.24.02-.35.02Z"></path>
        <path fill="#3a4a3a" d="m381.16,534c-1.51,0-2.81-1.13-2.98-2.67-2.91-25.98,13.52-33.67,14.22-33.98,1.51-.68,3.29,0,3.97,1.51.68,1.51,0,3.27-1.49,3.96-.58.27-13.13,6.44-10.73,27.85.18,1.65-1,3.13-2.65,3.32-.11.01-.23.02-.34.02Z"></path>
        <path fill="#3a4a3a" d="m428.5,602.08c-19.11,0-27.08-10.3-27.52-10.89-.99-1.33-.71-3.21.61-4.2,1.32-.99,3.19-.72,4.19.6.53.69,12.73,15.84,45.64,3.97,1.56-.56,3.28.25,3.84,1.81.56,1.56-.25,3.28-1.81,3.84-9.86,3.55-18.12,4.87-24.96,4.87Z"></path>
        <path fill="#3a4a3a" d="m444.14,646.01c-.16,0-.32-.01-.48-.04-1.64-.26-2.75-1.8-2.49-3.43,4.23-26.52-12.37-40.58-13.07-41.17-1.27-1.05-1.46-2.94-.41-4.22,1.05-1.28,2.93-1.47,4.21-.42.82.67,19.98,16.72,15.2,46.75-.24,1.48-1.51,2.53-2.96,2.53Z"></path>
        <path fill="#3a4a3a" d="m282.14,715.64c-18.73,0-24.44-9.54-24.72-10.03-.82-1.44-.32-3.27,1.12-4.09,1.43-.81,3.24-.33,4.07,1.08.16.25,7.02,10.56,31.76,5.76,1.63-.32,3.2.75,3.52,2.37.32,1.63-.75,3.2-2.37,3.52-5.06.98-9.5,1.39-13.37,1.39Z"></path>
      </g>
      <g>
        <path fill="#3a4a3a" d="m557.64,801.44l-4.69-.55c-19.1-2.25-31.64-21.53-35.06-27.44-4.87-.12-17.02-2.17-26.9-18.28-11.57-18.86-4.66-54.06-3.84-58.02l.12-19.67c-2.74-2.97-10.8-12.68-14.69-27.54-3.91-14.92,2.92-29.73,5.71-34.91-2.14-2.87-6.37-9.56-12.68-24.14-8.2-18.95-.08-43.87,2.49-50.79-2.16-2.49-6.42-8.1-10.39-17.44-5.07-11.9-2.07-39.02-1.33-44.94-2.81-4.55-12.87-23.4-1.77-44.11,10.06-18.76,26.07-18.11,32.65-16.91,2.77-6.83,12.55-22.84,42.49-19.13,29.73,3.69,40.93,20.96,44.31,28.03,4.11-1.07,12.32-1.66,28.39,1.11,21.37,3.7,29.05,17.29,31.34,22.86,5.54-.12,19.13,1.06,29.68,13.89,10.19,12.38,9.23,27.06,8.14,33.54,7.75,1.76,25.85,9.62,31.52,44.6,5.82,35.94-10.35,53.74-16.72,59.21,4.08,6.52,13.81,25.41,9.82,52.23-4.29,28.74-35.2,41.95-44.57,45.31-.18.07-.45.17-.71.26l-.12.04c-.37.13-.76.26-1.13.38l-.15.05c-.14.04-.25.08-.35.11-.11.04-.21.07-.31.09l-.44.09c-.38.04-38.39,4.44-54.07,8.5-5.43,1.4-9.91,2.06-13.51,2.58-2.54.37-5.39.79-6.36,1.28.03.19.11.52.3,1.02,1.33,3.04,18.8,8.77,37.38,12.27l4.8.9-2.98,3.87c-2.05,2.66-20.4,26.13-33.23,29.34-7.67,1.91-31,7.74-33.92,13.56-.21.42-.19.66-.07.94,2.91,6.92,10.22,8.4,10.53,8.46l4.71.91-2.86,3.84c-1.23,1.65-4.17,6.7-3.02,10.15l1.49,4.48Zm-36.32-34.27l.98,1.85c.11.22,10.83,20.63,27.63,25.19.21-2.83,1.27-5.51,2.31-7.52-3.5-1.51-8.41-4.62-10.98-10.75-.82-1.95-.73-4.01.24-5.95,3.65-7.28,20.34-12.32,37.82-16.69,7.77-1.94,20.1-15.23,26.87-23.37-13-2.69-34.31-8.1-36.98-15.04-.36-.93-1.44-3.74,0-6.21,1.67-2.85,5.29-3.38,10.78-4.18,3.46-.5,7.76-1.13,12.88-2.46,15.53-4.02,50.78-8.18,54.6-8.62.03,0,.07-.02.1-.03l.32-.1c.32-.1.64-.21.95-.32l.14-.05c.18-.06.36-.12.54-.19,8.67-3.11,36.95-15.13,40.75-40.58,4.5-30.23-10.18-49.97-10.32-50.17l-1.95-2.57,2.69-1.76c.94-.62,22.89-15.68,16.5-55.1-6.29-38.79-28.35-40.04-29.29-40.07l-3.84-.14,1.04-3.69c.05-.17,4.89-17.8-6.29-31.38-11.18-13.59-26.55-11.61-26.7-11.59l-2.65.37-.67-2.59c-.18-.68-4.82-16.93-27.39-20.84-20.04-3.46-26.12-1.24-27.07-.8l-3.43,4.38-1.36-5.81c-.3-.92-7.75-22.8-40.56-26.87-31.94-3.95-36.66,16.46-36.84,17.34l-.71,3.35-3.23-1.13c-.72-.25-17.96-5.96-28.32,13.36-10.72,20,1.53,38.1,2.06,38.86l.66.96-.15,1.16c-1.18,8.67-3.34,33.27.76,42.89,4.96,11.66,10.36,16.9,10.41,16.95l1.49,1.42-.78,1.91c-.12.28-11.63,28.52-3.23,47.93,8.44,19.49,12.84,24,12.88,24.05l1.83,1.69-1.37,2.07c-.1.16-10.16,16.54-6.08,32.11,4.18,15.98,13.89,25.62,13.99,25.72l.91.89v1.28s-.14,21.51-.14,21.51l-.07.31c-.08.36-7.73,36.41,3.02,53.92,10.26,16.71,22.63,15.44,23.15,15.38l2.07-.25Zm126.78-70.8h0,0Zm-73.67-264.66h0Z"></path>
        <path fill="#3a4a3a" d="m668.84,604.2c-5.55,0-12.34-.48-19.61-2.05-16.77-3.63-39.23-14.03-51-42.94-.62-1.53.11-3.29,1.65-3.91,1.54-.62,3.29.11,3.91,1.65,8.63,21.2,24.29,34.42,46.52,39.29,16.83,3.69,31.33.98,31.48.96,1.62-.31,3.2.75,3.51,2.38.31,1.63-.75,3.2-2.37,3.51-.38.07-5.88,1.11-14.08,1.11Z"></path>
        <path fill="#3a4a3a" d="m569.42,570.03c-.31,0-.61,0-.92,0-1.66-.02-2.98-1.38-2.96-3.04.02-1.66,1.39-2.99,3.04-2.96.29,0,.57,0,.86,0,15.51,0,27.13-5.51,34.56-16.37,5.67-8.29,6.66-16.63,6.67-16.71.19-1.65,1.68-2.83,3.32-2.64,1.65.19,2.83,1.67,2.64,3.32-.04.39-4.84,38.41-47.2,38.41Z"></path>
        <path fill="#3a4a3a" d="m541.56,495.33c-.22,0-.45-.03-.68-.08-.29-.07-28.54-7.07-20.29-43.59.36-1.62,1.97-2.63,3.59-2.27,1.62.37,2.63,1.97,2.26,3.59-6.91,30.58,14.88,36.21,15.81,36.43,1.61.39,2.6,2,2.22,3.61-.33,1.38-1.55,2.31-2.91,2.31Z"></path>
        <path fill="#3a4a3a" d="m501.87,460.17c-1.61,0-2.94-1.27-3-2.89-.06-1.66,1.23-3.05,2.89-3.11,35.65-1.31,39.58-28.91,39.73-30.08.21-1.64,1.71-2.81,3.35-2.6,1.64.2,2.81,1.69,2.61,3.33-.04.34-4.58,33.85-45.46,35.35-.04,0-.08,0-.11,0Z"></path>
        <path fill="#3a4a3a" d="m598.37,675.82c-3.35,0-6.98-.32-10.88-.97-1.63-.27-2.74-1.82-2.47-3.45.27-1.63,1.82-2.74,3.45-2.47,13.36,2.22,22.71.31,27.78-5.67,9.37-11.06,2.06-32.93,1.98-33.15-.54-1.57.3-3.27,1.87-3.81,1.56-.54,3.27.3,3.81,1.86.35,1.03,8.49,25.29-3.07,38.96-4.9,5.78-12.43,8.69-22.47,8.69Z"></path>
        <path fill="#3a4a3a" d="m553.71,700.45c-.5,0-1,0-1.5-.02-1.66-.05-2.96-1.43-2.92-3.08.05-1.66,1.38-2.95,3.08-2.92,9.71.28,17.24-2.42,22.37-8,10.04-10.92,8.09-29.42,8.07-29.61-.19-1.65,1-3.13,2.65-3.32,1.64-.19,3.13,1,3.32,2.65.1.87,2.26,21.42-9.61,34.34-6.08,6.61-14.63,9.96-25.45,9.96Z"></path>
        <path fill="#3a4a3a" d="m540.16,712.36c-1.15,0-2.25-.67-2.75-1.79-.67-1.51.01-3.27,1.51-3.95.58-.27,13.17-6.36,10.9-27.78-.17-1.65,1.02-3.12,2.67-3.3,1.63-.17,3.12,1.02,3.3,2.67,2.75,26-13.73,33.59-14.43,33.9-.39.17-.8.26-1.21.26Z"></path>
        <path fill="#3a4a3a" d="m530.95,623c-.92,0-1.82-.42-2.41-1.21-.52-.69-12.63-15.92-45.62-4.25-1.56.55-3.28-.27-3.83-1.83s.27-3.28,1.83-3.83c37.49-13.25,51.85,5.53,52.44,6.34.98,1.33.7,3.21-.64,4.19-.54.39-1.16.58-1.78.58Z"></path>
        <path fill="#3a4a3a" d="m504.39,613.18c-.67,0-1.35-.23-1.91-.69-.81-.67-19.88-16.84-14.91-46.85.27-1.63,1.81-2.74,3.45-2.47,1.63.27,2.74,1.82,2.47,3.45-4.39,26.49,12.12,40.66,12.82,41.25,1.27,1.06,1.44,2.95.38,4.22-.59.71-1.45,1.08-2.31,1.08Z"></path>
        <path fill="#3a4a3a" d="m675.02,509.15c-1.04,0-2.04-.54-2.6-1.49-.16-.26-6.96-10.6-31.72-5.95-1.63.31-3.2-.77-3.5-2.39s.77-3.2,2.39-3.5c29.54-5.55,37.7,8.28,38.04,8.87.81,1.44.3,3.27-1.14,4.09-.46.26-.97.39-1.47.39Z"></path>
      </g>
    </g>
    <g>
      <path fill="#3a4a3a" d="m582.86,822.24c-2.95,0-5.46-.25-7.31-.82-4.29-1.32-7.08-3.6-8.3-6.77-.76-1.98-.76-3.94-.47-5.58-3.88-.52-9.66-2-13.8-6.14-1.18-1.18-2.03-2.55-2.54-4.08-1.45-4.39.21-9.08,1.79-12.17-3.5-1.5-8.41-4.61-10.99-10.75-.82-1.96-.73-4.02.24-5.96,3.66-7.29,20.34-12.33,37.83-16.69,7.76-1.94,20.1-15.22,26.87-23.37-13-2.69-34.31-8.1-36.99-15.04-.36-.93-1.43-3.74.01-6.21,1.67-2.85,5.29-3.38,10.78-4.18,3.46-.5,7.76-1.13,12.88-2.46,15.54-4.02,50.8-8.18,54.61-8.62.04-.01.08-.02.11-.03.07-.02.16-.05.26-.09.35-.11.69-.23,1.02-.34l.21-.07c.17-.06.35-.12.52-.18l.34-.12c.16-.06.33-.12.49-.18,11.84-4.34,26.3-12.94,26.45-13.02l3.08-1.84,26.18,69.52-1.9,1.34c-.12.08-3.06,2.13-20.14,12.32-10.54,6.29-24.06,22.62-33.93,34.54-6.12,7.39-10.53,12.72-13.25,14.65-5.93,4.2-37.23,12.33-54.05,12.33Zm-6.6-19.04l-2.78,4.68c-.39.69-1.3,2.9-.61,4.63.54,1.36,2.03,2.42,4.46,3.17,9.37,2.88,49.82-6.2,56.12-10.67,2.07-1.47,6.94-7.35,12.1-13.58,10.15-12.26,24.05-29.05,35.48-35.87,10.37-6.19,15.45-9.32,17.83-10.83l-22-58.42c-5.02,2.84-15.24,8.37-24.28,11.68-.15.06-.39.15-.63.23l-.27.1c-.21.08-.44.16-.66.23l-.19.07c-.37.13-.74.25-1.1.37-.21.07-.4.13-.55.17-.14.05-.28.09-.42.12l-.31.05c-.38.04-38.39,4.44-54.07,8.5-5.43,1.41-9.91,2.06-13.51,2.59-2.54.37-5.39.79-6.36,1.28.03.19.11.52.3,1.02,1.33,3.04,18.8,8.77,37.38,12.27l4.8.9-2.98,3.87c-2.05,2.67-20.4,26.13-33.23,29.34-7.67,1.91-30.99,7.72-33.92,13.56-.21.43-.19.66-.07.95,2.94,7,10.44,8.43,10.52,8.45l2.46.45v3.52l-.62.82c-1.14,1.52-4.15,6.66-3.01,10.13.21.64.57,1.2,1.08,1.72,4.77,4.77,13.49,4.67,13.59,4.66l5.45-.15Z"></path>
      <g>
        <path fill="#3a4a3a" d="m556.77,788.02c-1.57,0-2.89-1.23-2.99-2.82-.1-1.65,1.16-3.07,2.81-3.18.32-.02,26.64-1.97,53.98-24.27,1.28-1.05,3.17-.85,4.22.43,1.05,1.28.85,3.17-.43,4.22-28.96,23.61-56.26,25.54-57.41,25.61-.06,0-.12,0-.19,0Z"></path>
        <path fill="#3a4a3a" d="m570.9,809.35c-1.52,0-2.82-1.15-2.98-2.69-.17-1.65,1.03-3.12,2.67-3.29.34-.04,34.15-3.71,51.47-19.72,1.22-1.12,3.11-1.05,4.24.17,1.12,1.22,1.05,3.11-.17,4.24-18.8,17.38-53.46,21.13-54.93,21.29-.1.01-.21.02-.31.02Z"></path>
      </g>
    </g>
    <path fill="#3a4a3a" d="m676.29,683.96c-.57,0-1.14-.16-1.64-.49-1.38-.91-1.77-2.77-.86-4.15,1.01-1.54,25.31-37.95,66.14-51.76,1.58-.53,3.27.31,3.8,1.88.53,1.57-.31,3.27-1.88,3.8-38.89,13.16-62.81,49.02-63.05,49.38-.58.88-1.53,1.35-2.51,1.35Z"></path>
    <path fill="#3a4a3a" d="m708.59,777.77c-1.37,0-2.61-.95-2.92-2.34l-6.08-27.02c-.36-1.62.65-3.22,2.27-3.59,1.61-.36,3.22.65,3.59,2.27l6.08,27.02c.36,1.62-.65,3.22-2.27,3.59-.22.05-.44.07-.66.07Z"></path>
    <g>
      <path fill="#3a4a3a" d="m239.12,562.17l-.91-5.57c-.01-.08-1.23-7.62-2.27-16.42-1.58-13.45-1.94-22.54-1.04-27.01,1.62-8.13,6.52-13.75,8.89-16.08-.37-3.41-.58-11.13,3.81-17.23,3.61-5.02,6.17-7.6,7.48-8.77.97-3.94,5.1-16.86,18.06-20.09,4.92-1.23,13.65-.98,20.1-.55,1.17.08,2.36.17,3.56.27h.11c11.01.95,22.92,2.82,31.85,5.03,15.72,3.88,18.26,7.6,18.72,10.42,1.14,7.03-4.26,11.13-9.19,13.07,2.4,4.74,3.93,11.18-.19,15.52-2.1,2.22-4.62,3.64-7,4.56,5.02,3.76,9.24,9.13,7.09,15.17-2.37,6.68-17.27,9.42-39.74,12.84-7.48,1.14-15.97,2.43-17.91,3.48-4.49,2.43-22.22,15.8-37.31,27.51l-.12.09-4.01,3.78Zm20.4-86.98s-2.54,1.92-7.05,8.17c-4.14,5.75-2.56,14.2-2.54,14.29l.34,1.77-1.4,1.14c-.06.05-6.4,5.32-8.08,13.78-.75,3.74-.35,12.67,1.12,25.13.5,4.26,1.05,8.21,1.47,11.15,9.86-7.6,29.08-22.26,34.32-25.1,2.73-1.48,9-2.48,19.86-4.14,7.72-1.17,16.46-2.5,23.44-4.19,10.56-2.55,11.51-4.64,11.55-4.72,1.73-4.86-7.5-10.27-10.87-11.78l-12.78-5.74h14.01c.06,0,6.83-.1,10.84-4.33,2.66-2.8-.99-9.35-2.47-11.42l-2.76-3.85,4.65-.85c.09-.02,9.16-1.78,8.4-7.26-1.73-2.89-19.96-8.37-45.04-10.52h-.14c-1.2-.12-2.39-.2-3.55-.28-8.39-.56-15.04-.42-18.24.38-11.21,2.8-13.83,16.32-13.85,16.46l-.22,1.21-1,.71h0Zm82.09-7.9h0Z"></path>
      <g>
        <path fill="#3a4a3a" d="m257.52,503.09c-1.27,0-2.45-.82-2.86-2.09-.5-1.58.37-3.27,1.95-3.77,1.48-.47,36.71-11.45,67.18-2.14,1.58.48,2.48,2.16,1.99,3.75-.48,1.58-2.16,2.48-3.75,1.99-28.65-8.75-63.26,2.01-63.61,2.12-.3.1-.61.14-.91.14Z"></path>
        <path fill="#3a4a3a" d="m334.76,480.21c-.37,0-.75-.07-1.12-.22-25.45-10.28-57.41-3.29-57.73-3.21-1.62.36-3.22-.65-3.59-2.27-.36-1.62.65-3.22,2.27-3.59,1.38-.31,34.08-7.49,61.29,3.5,1.54.62,2.28,2.37,1.66,3.91-.47,1.17-1.6,1.88-2.78,1.88Z"></path>
      </g>
    </g>
    <path fill="#3a4a3a" d="m502.12,392.22c-38.88,0-61.94-21.22-62.95-22.16-1.21-1.13-1.27-3.03-.13-4.24,1.13-1.21,3.03-1.27,4.24-.14.31.29,24.67,22.5,64.29,20.39,40.15-2.14,59.23-13.32,59.42-13.43,1.42-.85,3.26-.39,4.11,1.02.85,1.42.4,3.26-1.01,4.11-.81.49-20.37,12.05-62.2,14.28-1.96.1-3.88.15-5.77.15Z"></path>
    <path fill="#3a4a3a" d="m452.86,898.5c-.28,0-.57-.04-.85-.12-54.95-16.24-117.76-77.93-120.4-80.54-1.18-1.17-1.19-3.06-.02-4.24,1.17-1.18,3.06-1.19,4.24-.02.64.63,64.39,63.25,117.89,79.06,1.59.47,2.5,2.14,2.03,3.73-.39,1.31-1.58,2.15-2.88,2.15Z"></path>
    <g>
      <g>
        <path fill="#3a4a3a" d="m454.19,348.04c-19.18,0-38.42-6.38-48.62-22.36-11.89-18.62-13.9-40.79-15.85-62.22-.3-3.33-.6-6.64-.94-9.9-1.79-17.34-3.35-34.35-4.66-50.54-.13-1.65,1.1-3.1,2.75-3.23,1.65-.14,3.1,1.1,3.23,2.75,1.3,16.15,2.86,33.11,4.64,50.41.34,3.29.64,6.62.95,9.97,1.88,20.72,3.83,42.15,14.93,59.54,12.4,19.42,40.61,22.67,63.06,17.27,46.54-11.19,61.79-48.08,61.94-48.45.62-1.54,2.36-2.29,3.9-1.67,1.54.61,2.29,2.35,1.68,3.89-.65,1.63-16.43,40.12-66.11,52.07-6.64,1.6-13.77,2.48-20.9,2.48Z"></path>
        <path fill="#3a4a3a" d="m563.52,346.11c-1.47,0-2.75-1.08-2.97-2.58-5.76-40.36-3.68-67.04-2.56-81.37.18-2.37.34-4.41.42-5.99.13-2.82,2.37-5.04,5.2-5.16,4.38-.2,15.16-1.77,20.76-11.98,4.55-8.29,4.23-21.37-.72-29.77-1.96-3.33-5.51-7.31-11.27-7.34-.03,0-.06,0-.08,0-14.88,0-27.39,18.96-27.51,19.15-.9,1.39-2.76,1.78-4.15.88-1.39-.9-1.78-2.76-.88-4.15.58-.9,14.44-21.88,32.54-21.88h.11c6.69.03,12.52,3.69,16.41,10.3,6.02,10.22,6.37,25.57.81,35.7-6.86,12.5-19.58,14.72-25.25,15.07-.09,1.57-.23,3.48-.4,5.65-1.1,14.1-3.14,40.35,2.52,80.06.23,1.64-.91,3.16-2.55,3.39-.14.02-.29.03-.43.03Z"></path>
      </g>
      <g>
        <ellipse fill="#3a4a3a" cx="478.61" cy="238.32" rx="4.49" ry="8.11" transform="translate(-10.83 23.12) rotate(-2.74)"></ellipse>
        <ellipse fill="#3a4a3a" cx="417.42" cy="241.24" rx="4.49" ry="8.11" transform="translate(-11.04 20.21) rotate(-2.74)"></ellipse>
      </g>
      <g>
        <path fill="#3a4a3a" d="m449.09,285.63c-9.85,0-17.43-3.57-21.22-5.82-1.57-.93-2.64-2.49-2.94-4.28-.31-1.8.2-3.64,1.37-5.04,7.29-8.68,15.09-27.09,4.94-39.57-9.78-12.02-24.54-2.87-25.16-2.47-1.4.89-3.25.48-4.14-.92-.89-1.39-.49-3.24.91-4.14,6.82-4.38,22.5-9.22,33.05,3.74,11.08,13.63,5.7,34.5-5,47.22-.02.02-.07.08-.05.17.01.08.06.11.09.13,3.51,2.08,10.82,5.49,20.27,4.91,1.64-.09,3.08,1.16,3.18,2.81.1,1.65-1.16,3.08-2.81,3.18-.84.05-1.66.07-2.47.07Z"></path>
        <path fill="#3a4a3a" d="m491.67,229.1c-.65,0-1.3-.21-1.85-.64-.54-.42-12.72-9.75-24.09-2.47-1.4.89-3.25.48-4.14-.91-.89-1.4-.49-3.25.91-4.14,15.01-9.6,30.39,2.31,31.04,2.82,1.3,1.03,1.52,2.91.49,4.21-.59.75-1.47,1.14-2.36,1.14Z"></path>
        <path fill="#3a4a3a" d="m453.79,310.96c-10.06,0-17.72-3.1-18.27-3.33-1.53-.64-2.26-2.39-1.62-3.92.64-1.53,2.39-2.25,3.92-1.62h0c.21.09,21.09,8.45,37.76-4.16,1.32-1,3.2-.74,4.2.58,1,1.32.74,3.2-.58,4.2-8.47,6.41-17.65,8.24-25.41,8.24Z"></path>
      </g>
      <path fill="#3a4a3a" d="m387.77,210.63s-34.89,1.83-36.68-27.79,23.8-35.46,23.8-35.46c0,0-10.34-57.11,36.67-70.93,47.01-13.82,64.1,13.63,64.1,13.63,0,0,42.7-27.8,75.26,1.25,32.57,29.05,20.61,50.59,20.61,50.59,0,0,21.11,3.95,33.03,42.74,11.92,38.79-9.22,64.77-9.22,64.77,0,0-.84,17.24-13.54,28.94s-21.05,35.86-21.05,35.86c0,0-1.69-55.59.64-57.91s21.17-1.06,27.25-17.43c6.08-16.37.3-36.37-12.8-39.55-13.1-3.18-26.26,8.28-30.27,12.93-4.01,4.65-7.03,9.8-5.43,18.07s3.99,26.21.97,27.26-11.75,2.1-12.05-.64-6.97-45.16-6.97-45.16c0,0-22.83,6.72-37.41-.74s-18.57-12.62-18.57-12.62c0,0-26.13,13.69-40.47,10.47-14.33-3.22-17.83-9.71-17.83-9.71,0,0-7.76,9.46-20.06,11.42Z"></path>
    </g>
  </g>
  <path fill="#e8b896" d="m299.08,347.09s-133.41,25.32-145.05-46.57c-11.64-71.89,72.53-62.74,72.53-62.74,0,0,11.01-56.94,54.65-32.42,43.64,24.52,17.87,141.73,17.87,141.73Z"></path>
  <path fill="#3a4a3a" d="m779.87,447.16l-1.05-1.83c-1.25-2.17-30.28-53.34-.57-72.47,8.28-5.33,16.12-6.71,23.32-4.1,11.16,4.04,17.2,16.57,19.34,21.95,4.42-.55,13.41-.87,19.24,4.3,4.08,3.61,5.78,9.04,5.07,16.12-1.07,10.57-12.24,19.81-33.21,27.45-14.99,5.46-29.45,8.09-30.05,8.2l-2.08.37Zm14.45-73.65c-3.98,0-8.27,1.47-12.83,4.41-22.15,14.26-3.23,53.55,1.51,62.57,16.95-3.35,54.63-14.06,56.23-29.94.51-5.06-.53-8.77-3.08-11.03-4.59-4.07-13.52-3.19-16.57-2.5l-2.69.6-.83-2.64c-.05-.16-5.32-16.5-16.57-20.57-1.66-.6-3.39-.9-5.18-.9Z"></path>
  <path fill="#3a4a3a" d="m193.6,482.35l-2.07-.41c-2.46-.49-60.08-12.32-54.92-47.28,1.44-9.74,5.57-16.55,12.27-20.25,10.39-5.74,23.8-2.04,29.25-.11,2.5-3.69,8.18-10.66,15.9-11.65,5.4-.69,10.61,1.6,15.47,6.8,7.26,7.76,6.85,22.25-1.2,43.07-5.76,14.88-13.3,27.49-13.62,28.02l-1.09,1.81Zm-31.6-65.02c-3.51,0-7.11.61-10.23,2.34-4.97,2.75-8.07,8.09-9.22,15.87-3.84,26.02,38.19,37.68,48.09,40.05,8.64-14.96,25.39-50.38,14.48-62.04-3.47-3.71-6.94-5.37-10.32-4.95-7.3.92-12.76,10.73-12.81,10.83l-1.32,2.41-2.52-1.11c-.11-.05-7.9-3.4-16.16-3.4Z"></path>
</svg>