<?xml version="1.0" encoding="UTF-8"?>
<svg id="Layer_2" data-name="Layer 2" xmlns="http://www.w3.org/2000/svg" viewBox="0 0 1000 1000">

  <defs></defs>
  <path fill="#e8b896" d="m443.77,932.02h-40.41s-25.62-1.28-33.1-47.23c-7.48-45.96,36.75-5.36,36.75-5.36,0,0-10.53-75.83,17.81-70.47,21.44,4.06,27.98,21.71,29.89,30.06.2.87,1.43.87,1.62,0,3.15-14.06,15.73-56.44,51.77-48.44,43.08,9.56,49.59,77.36,49.59,77.36,0,0,27.01-35.91,59.67-9.53,32.66,26.38,11.21,73.62,11.21,73.62h-184.8Z"></path>
  <path fill="#3a4a3a" d="m508.11,935.02h-248.39l6.09-103.15c-8.26,2.79-27.36,8.64-49.23,11.3-38.55,4.69-66.87-3.16-81.88-22.68-33.8-43.89-4.23-196.27,0-217.05-10.93-6.45-63.94-38.75-72.67-63.86-6.05-17.36,10.18-27.58,28.97-39.42,13.56-8.55,28.94-18.23,38.42-32.16,7.14-10.5,14.46-36.83,23.72-70.16,18.83-67.76,47.28-170.16,102.38-229.53,11.1-11.94,23.81-22.42,37.79-31.16,1.29-.8,2.66-1.65,4.1-2.48l.22-.14c1.17-.69,2.35-1.37,3.54-2.03.51-.28.97-.54,1.43-.78,1.22-.69,2.4-1.33,3.52-1.92.06-.03.11-.06.17-.09l.15-.08c1.26-.65,2.52-1.3,3.8-1.94l.47-.23c.36-.18.72-.35,1.07-.52.98-.49,2.04-.99,3.08-1.47,1.56-.73,2.87-1.32,4.11-1.85,1.21-.54,2.45-1.07,3.69-1.6.36-.14.63-.26.9-.37.3-.12.59-.25.89-.37,1.27-.51,2.54-1.02,3.79-1.51,1.29-.49,2.54-.97,3.78-1.41,1.79-.66,3.68-1.32,5.57-1.95l.24-.08c.8-.27,1.6-.54,2.4-.79.62-.21,1.24-.4,1.85-.58.72-.24,1.46-.46,2.19-.67.5-.18.98-.31,1.41-.43l.87-.26c.38-.11.75-.22,1.12-.33,1.44-.42,2.84-.81,4.22-1.18l.38-.09c1.72-.46,3.42-.88,5.12-1.3l2.66-.63c.52-.11.99-.22,1.45-.33l1.2-.27c.47-.1.93-.2,1.39-.3.42-.09.83-.17,1.25-.27,1.96-.41,3.68-.76,5.28-1.05,2.59-.51,5.22-.97,7.76-1.37l.1-.02c1.08-.17,2.16-.35,3.22-.48.45-.07.94-.13,1.43-.2.57-.08,1.14-.16,1.7-.24l3.22-.43c2.07-.26,4.11-.48,6.13-.71l1.08-.12h.03c.74-.06,1.48-.14,2.23-.2l3.05-.26c1.81-.16,3.79-.3,6.04-.44.94-.07,1.91-.12,2.89-.17,2.58-.12,5.62-.26,8.68-.34l.98-.02c.62-.02,1.24-.03,1.86-.03.87-.02,1.79-.04,2.7-.04,28.63-.21,48.56,3.37,50.98,3.83,10.43.52,23.58,3.39,38.04,8.31,46.28,15.7,114.26,55.04,166.28,118.34,1.05,1.28.87,3.17-.41,4.22-1.28,1.05-3.17.87-4.22-.41-51.22-62.33-118.08-101.03-163.58-116.47-14.04-4.77-26.7-7.54-36.61-8.01l-.44-.05c-.2-.04-20.73-3.99-50.02-3.76-.9,0-1.78.02-2.67.03-.63,0-1.2.02-1.77.03l-1,.02c-2.98.07-5.97.21-8.5.33-.92.05-1.85.1-2.79.17-2.23.14-4.16.28-5.93.43l-3.05.26c-.96.08-1.91.18-2.87.28l-.93.17-.13-.06c-1.75.19-3.51.39-5.29.61l-3.16.42c-.53.08-1.12.16-1.71.24-.48.07-.96.13-1.44.2-1.05.14-2.07.3-3.09.47l-.1.02c-2.48.39-5.03.84-7.59,1.34-1.58.29-3.25.62-5.13,1.02-.41.09-.85.18-1.28.27-.44.09-.88.18-1.32.28l-1.15.26c-.48.11-.97.22-1.46.33l-2.58.62c-1.63.4-3.28.82-4.95,1.26-.19.06-.37.1-.55.14-1.3.35-2.61.72-3.92,1.1-.36.11-.76.23-1.17.35l-.87.26c-.41.12-.77.21-1.11.34l-.24.08c-.7.2-1.39.41-2.08.64l-.11.04c-.56.16-1.13.34-1.7.54l-.11.04c-.75.23-1.49.48-2.24.73l-.26.09c-1.85.62-3.68,1.26-5.45,1.91-1.23.44-2.43.9-3.64,1.36-1.24.48-2.49.99-3.75,1.49-.27.11-.55.22-.82.34-.29.12-.59.24-.88.36-1.17.5-2.38,1.01-3.6,1.56-1.22.52-2.48,1.09-3.99,1.79-1,.46-2.02.94-3.01,1.43-.38.18-.7.34-1.02.5l-.47.23c-1.2.6-2.41,1.22-3.62,1.85-.06.04-.13.07-.19.1l-.14.07c-1.08.56-2.23,1.19-3.42,1.86l-.1.05c-.43.22-.85.46-1.28.7-1.2.66-2.32,1.31-3.45,1.98l-.25.16c-1.36.79-2.7,1.61-3.94,2.39-13.53,8.46-25.83,18.6-36.57,30.16-54.1,58.3-82.32,159.85-101,227.05-9.41,33.87-16.84,60.62-24.54,71.93-10.19,14.96-26.12,25-40.19,33.86-19.21,12.1-30.76,20.14-26.5,32.37,8.8,25.32,71.24,61.37,71.87,61.73l1.89,1.09-.45,2.14c-.36,1.7-35.41,170.32-1.56,214.28,33.29,43.28,127.6,8.26,128.55,7.9l4.06-1.54v4.43s0,.11,0,.11l-5.98,101.29h242.02c1.66,0,3,1.34,3,3s-1.34,3-3,3Z"></path>
  <path fill="#3a4a3a" d="m269.07,830.55c-1.36,0-2.58-.93-2.92-2.3-.39-1.61.61-3.23,2.22-3.62,1-.24,100.96-24.51,143.48-60.56,1.26-1.07,3.16-.91,4.23.35,1.07,1.26.92,3.16-.35,4.23-43.61,36.98-141.81,60.82-145.96,61.81-.23.06-.47.08-.7.08Z"></path>
  <g>
    <path fill="#3a4a3a" d="m431.97,658.16v-3.43c-16.07-8.03-103.79-63.21-151.77-127.84-12.8-17.24-36.82-52.47-53.88-94.78-16.72-41.45-22.31-78.31-16.62-109.54,5.76-31.59,23.13-56.91,51.64-75.24,92.91-59.76,160.33,10.53,173.82,26.43,6.23-7.33,23.57-25.82,49.25-38.09,17.8-8.51,36.3-12.49,54.96-11.83,23.07.81,46.46,8.75,69.53,23.59,28.51,18.34,45.88,43.65,51.64,75.24,5.69,31.23.1,68.08-16.62,109.54-17.06,42.31-41.08,77.55-53.88,94.79h0c-52.16,70.24-152.59,128.03-153.6,128.61l-4.49,2.56Zm-97.19-428.41c-20.92,0-44.53,6.12-70.19,22.62-27.05,17.4-43.53,41.38-48.98,71.27-11.46,62.86,28.34,144.36,69.41,199.67,49.67,66.89,139.28,120.96,149.93,126.22,12.58-7.4,102.31-61.52,150.28-126.11h0c41.07-55.31,80.87-136.81,69.41-199.67-5.45-29.89-21.93-53.87-48.98-71.27-40.31-25.93-80.23-29.76-118.66-11.39-29.53,14.11-47.51,36.72-49.46,39.25l-2.39,3.09-2.37-3.11c-2.1-2.75-39.53-50.58-98-50.58Zm252.87,295.45h0,0Z"></path>
    <path fill="#3a4a3a" d="m420.56,513.8l-13.04-4.06c-25.91-8.07-44-38.94-44-75.06,0-42.48,25.5-77.03,56.85-77.03s56.85,34.56,56.85,77.03c0,14.47-2.96,28.55-8.56,40.73l-3.35,7.29-2.25-7.7c-1.61-5.5-4.78-16.29-7.99-26.77-5.77-18.79-8-24.74-8.87-26.42-2.41-4.67-6.29-3.81-7.05-3.58l-2.45.72-1.14-2.29c-3.01-6.27-7.2-12.46-8.98-13.29-1.36.49-2.8,3.83-3.26,6.17l-1.07,5.38-3.96-3.79c-4.14-3.98-9.43-7.39-11.04-7.12-2.09,2.84-1.41,7.98-.97,9.73l1.65,6.54-5.96-3.15c-1.09-.56-2.84-.97-3.45-.66-.24.13-.46.71-.56,1.47-.59,4.71,7.36,35.91,12.5,54.47l2.93,10.55-7.9-7.59c-7.61-7.31-17.66-15.4-20.65-15.72-.09,0-.15,0-.21,0-.03.9.55,2.74,1.73,5.48l.11.27c1.24,2.9,16.64,31.81,21.92,37.3.54.56,1.2,1.19,2.03,1.94l10.14,9.15Zm-.19-150.15c-28.04,0-50.85,31.86-50.85,71.03,0,27.3,11.46,51.98,28.48,63.75-7.08-11.21-16.1-28.45-17.05-30.66l-.11-.26c-1.37-3.19-3.44-8.02-1.23-11.37.75-1.13,2.26-2.49,5.21-2.49.21,0,.44.01.67.04,4,.43,10.91,5.63,16.49,10.4-4.08-15.29-10.68-41.26-9.98-46.89.45-3.62,2.29-5.29,3.74-6.05,1.32-.69,2.74-.84,4.07-.76-.11-3.06.35-7,2.72-10.1,1.03-1.35,2.49-2.13,4.24-2.26,3.88-.3,8.77,2.92,12.17,5.67,1.26-2.76,3.42-5.8,6.94-6.33,5.02-.74,10.27,7.13,14.09,14.67,3.56-.19,8.52,1.14,11.55,7.02,1.44,2.8,4.47,11.76,9.27,27.41,1.98,6.49,3.96,13.1,5.56,18.51,3.2-9.42,4.86-19.74,4.86-30.29,0-39.17-22.81-71.03-50.85-71.03Zm6.05,39.65h0Z"></path>
    <path fill="#3a4a3a" d="m459.03,434.68c0,4.37-.38,8.61-1.11,12.67-3.78-12.32-7.49-23.84-9.07-26.91-3.76-7.28-10.6-5.08-10.6-5.08,0,0-7.51-15.68-11.93-15.02-4.42.66-5.96,8.61-5.96,8.61,0,0-11.92-11.48-15.46-6.84-3.54,4.63-1.54,12.36-1.54,12.36,0,0-7.51-3.98-8.39,3.09-.88,7.06,12.59,55.64,12.59,55.64,0,0-16.55-15.91-22.4-16.54-2.22-6.7-3.46-14.15-3.46-21.99,0-29.36,17.31-53.16,38.67-53.16s38.67,23.8,38.67,53.16Z"></path>
    <g>
      <path fill="#3a4a3a" d="m701.11,406.49c-.22,0-.45-.03-.68-.08-1.61-.37-2.62-1.99-2.24-3.6l1.02-4.38c-8.11,1.99-23.68,2.63-37.23-15.33-8.02-10.62-6.83-35.97,3.53-75.33,7.57-28.78,17.47-54.99,17.57-55.25.59-1.55,2.32-2.33,3.87-1.74,1.55.59,2.33,2.32,1.74,3.87-10.8,28.49-35.8,106.45-21.92,124.84,16.2,21.46,34.42,12.12,35.18,11.71l5.82-3.1-3.73,16.07c-.32,1.39-1.56,2.32-2.92,2.32Z"></path>
      <path fill="#f8c8a8" d="m935.98,692.04c-3.97,20.37-16.39,23.85-26.33,30.31-9.94,6.46-62.6,38.26-62.6,38.26l19.87,171.41h-367.17s29.42-74.26,51.44-131.89c7.76.11,17.81-1.53,28.55-5.24,27.33-9.44,38.26-39.25,37.6-48.53-.66-9.28-44.98-3.52-44.98-3.52,1.3-3.9,2.15-6.67,2.42-8.08,2.98-15.41,4.48-29.31,1.99-41.73-2.48-12.42-8.45-68.57-8.45-68.57,0,0-39.25,24.35-56.64,15.41-17.39-8.94-87.45-117.26-87.45-117.26l44.22-39.74,69.06,58.63s52.17-92.41,63.09-94.9c10.93-2.48,80.99-24.18,80.99-24.18,0,0,4.42-16.79,10.38-16.79s98.27-.66,102.9,8.39c4.64,9.06,4.86,19.65,4.86,19.65,0,0,80.1,61.11,83.58,70.55,3.48,9.44,56.64,167.44,52.66,187.81Z"></path>
      <path fill="#3a4a3a" d="m568.32,627.47c-.95,0-1.89-.45-2.47-1.3-.94-1.36-.6-3.23.77-4.17.66-.46,66.31-46.04,76.82-82.82,9.87-34.55-9.33-60.29-13.29-65.1l2.26-1.98,2.32-1.9-2.32,1.9,2.38-1.83c4.28,5.21,25.11,33.12,14.42,70.56-11.1,38.85-76.41,84.2-79.19,86.11-.52.36-1.11.53-1.7.53Z"></path>
      <path fill="#3a4a3a" d="m525.58,565.37c-.5,0-1.02-.13-1.49-.4-1.44-.82-1.94-2.65-1.12-4.09l11.92-20.87c.82-1.44,2.65-1.94,4.09-1.12,1.44.82,1.94,2.65,1.12,4.09l-11.92,20.87c-.55.97-1.57,1.51-2.61,1.51Z"></path>
      <path fill="#3a4a3a" d="m732.77,437.68c-.09,0-.18,0-.27-.01-28.47-2.5-51.14-12.08-52.09-12.48-1.52-.65-2.23-2.41-1.58-3.94.65-1.52,2.41-2.23,3.94-1.58.22.1,22.78,9.62,50.26,12.03,1.65.14,2.87,1.6,2.73,3.25-.14,1.56-1.45,2.74-2.99,2.74Z"></path>
      <path fill="#3a4a3a" d="m758.11,610.58c-.15,0-.31-.01-.46-.04-1.64-.25-2.76-1.78-2.51-3.42,7.82-50.82,5.95-152.49,5.93-153.51-.03-1.66,1.28-3.03,2.94-3.06.02,0,.04,0,.06,0,1.63,0,2.97,1.3,3,2.94.02,1.03,1.9,103.2-6,154.54-.23,1.48-1.51,2.54-2.96,2.54Z"></path>
      <path fill="#3a4a3a" d="m725.32,769.57c-.18,0-.36-.02-.54-.05-1.63-.3-2.71-1.86-2.41-3.49l21.86-119.24c.3-1.63,1.86-2.71,3.49-2.41,1.63.3,2.71,1.86,2.41,3.49l-21.86,119.24c-.27,1.45-1.53,2.46-2.95,2.46Z"></path>
      <path fill="#3a4a3a" d="m732.6,935.02c-1.38,0-2.62-.96-2.93-2.36-15.16-69.72-7.42-147.4-7.34-148.18.17-1.65,1.65-2.84,3.29-2.68,1.65.17,2.85,1.64,2.68,3.29-.08.77-7.72,77.53,7.23,146.29.35,1.62-.68,3.22-2.29,3.57-.21.05-.43.07-.64.07Z"></path>
      <path fill="#3a4a3a" d="m847.4,766.65c-1.6,0-2.93-1.27-3-2.88-.02-.39-1.51-38.75-1.51-56.81,0-9.39,3.43-32.76,7.4-59.82,3.69-25.12,7.86-53.59,9.17-71.24,2.59-34.93.7-50.25.68-50.4-.21-1.64.95-3.15,2.59-3.36,1.64-.23,3.15.94,3.36,2.59.08.63,2,15.95-.65,51.62-1.32,17.87-5.34,45.22-9.22,71.67-3.77,25.71-7.34,49.99-7.34,58.95,0,17.95,1.49,56.19,1.51,56.58.06,1.66-1.22,3.05-2.88,3.12-.04,0-.08,0-.12,0Z"></path>
      <path fill="#3a4a3a" d="m847.73,689.73c-.87,0-1.74-.38-2.33-1.11-1.05-1.29-.85-3.17.43-4.22l22-17.9c1.29-1.04,3.17-.85,4.22.43,1.05,1.29.85,3.17-.43,4.22l-22,17.9c-.56.45-1.23.67-1.89.67Z"></path>
      <path fill="#3a4a3a" d="m551.93,803.14c-.26,0-.52,0-.78,0-9.12-.12-15.12-2.42-17.35-6.66-1.06-2.01-1.7-5.32,1.22-9.71,1.72-2.58,3.87-6.14,6.37-10.26,12.24-20.23,22.27-35.77,30.66-36.64,6.21-.81,37.97-4.55,45.92,1.94,1.81,1.48,2.29,3.18,2.37,4.35.73,10.18-10.35,41.46-39.61,51.58h0c-10.13,3.5-20.32,5.41-28.79,5.41Zm46.3-59.06c-1.52,0-3.19.03-5.01.09-10.37.35-20.38,1.64-20.48,1.65-6.17.64-19.21,22.2-26.22,33.78-2.53,4.18-4.72,7.8-6.51,10.49-.71,1.07-1.45,2.55-.9,3.58.81,1.53,4.47,3.36,12.12,3.46,7.94.13,17.73-1.69,27.54-5.08,26.08-9.01,36.12-37.94,35.58-45.48h0s-1.72-2.5-16.12-2.5Zm-18.48,50.81h0,0Z"></path>
      <path fill="#3a4a3a" d="m693.11,317.78s-28.33-24.72-19.57-70.56c8.76-45.84,44.81-57.69,85.5-56.66,40.69,1.03,58.72,24.21,58.72,52.54s8.76,39.66,45.84,46.36c37.09,6.7,44.81,52.54,22.15,70.05s-16.48,34.51,7.21,62.32,33.48,89.62-52.54,93.74c-86.02,4.12-138.55-12.36-128.25-55.11,10.3-42.75,47.9-72.63,23.18-79.84-24.72-7.21-62.84-28.33-42.24-62.84Z"></path>
      <path fill="#3a4a3a" d="m703.35,396.84c-1.08,0-2.12-.58-2.66-1.61-.77-1.47-.21-3.28,1.26-4.05l20.76-10.9c1.47-.77,3.28-.21,4.05,1.26.77,1.47.21,3.28-1.26,4.05l-20.76,10.9c-.45.23-.92.34-1.39.34Z"></path>
      <g>
        <path fill="#3a4a3a" d="m426.74,524.4l-1.94-1.32c-.48-.32-11.75-7.98-18.4-13.97-.94-.85-1.7-1.58-2.33-2.24-6.22-6.46-21.85-36.14-23.12-39.1l-.11-.26c-1.37-3.19-3.44-8.02-1.23-11.37.75-1.13,2.26-2.49,5.21-2.49.21,0,.44.01.67.04,4,.43,10.91,5.63,16.49,10.4-4.08-15.29-10.68-41.26-9.98-46.89.45-3.62,2.29-5.29,3.74-6.05,1.32-.69,2.74-.84,4.07-.76-.11-3.06.35-7,2.72-10.1,1.03-1.35,2.49-2.13,4.24-2.26,3.88-.3,8.77,2.92,12.17,5.67,1.26-2.76,3.42-5.8,6.94-6.33,5.02-.74,10.27,7.13,14.09,14.67,3.56-.19,8.52,1.14,11.55,7.02,1.44,2.8,4.47,11.76,9.27,27.41,3.21,10.52,6.4,21.33,8.01,26.85,1.55,5.28,2.53,8.73,2.53,8.73l.52,1.8-45.11,40.54Zm-42.12-64.74c-.03.9.55,2.74,1.73,5.48l.11.27c1.24,2.9,16.64,31.81,21.92,37.3.54.56,1.2,1.19,2.03,1.94,4.75,4.28,12.3,9.67,15.82,12.13l38.81-34.88c-.44-1.52-1.13-3.91-2.01-6.9-1.61-5.5-4.78-16.29-7.99-26.78-5.77-18.79-8.01-24.74-8.87-26.42-2.41-4.67-6.29-3.81-7.04-3.58l-2.45.72-1.14-2.29c-3.01-6.27-7.2-12.46-8.98-13.29-1.36.5-2.82,3.89-3.26,6.17l-1.05,5.41-3.97-3.82c-4.14-3.98-9.43-7.39-11.04-7.12-2.09,2.84-1.41,7.98-.97,9.73l1.65,6.54-5.96-3.15c-1.09-.56-2.84-.97-3.45-.66-.24.13-.46.71-.56,1.47-.59,4.71,7.36,35.91,12.5,54.47l2.93,10.55-7.9-7.59c-7.61-7.31-17.66-15.4-20.65-15.72-.08,0-.15,0-.21,0Zm41.79-56.36h0Z"></path>
        <path fill="#3a4a3a" d="m449.29,454.35c-1.28,0-2.47-.83-2.87-2.12l-11.04-35.99c-.49-1.58.4-3.26,1.99-3.75,1.58-.49,3.26.4,3.75,1.99l11.04,35.99c.49,1.58-.4,3.26-1.99,3.75-.29.09-.59.13-.88.13Z"></path>
        <path fill="#3a4a3a" d="m436.93,457.44c-1.23,0-2.38-.76-2.82-1.97l-16.56-45.49c-.57-1.56.24-3.28,1.79-3.85,1.56-.56,3.28.24,3.85,1.79l16.56,45.49c.57,1.56-.24,3.28-1.79,3.85-.34.12-.69.18-1.03.18Z"></path>
        <path fill="#3a4a3a" d="m424.23,465.39c-1.16,0-2.26-.67-2.75-1.8l-20.87-47.92c-.66-1.52.03-3.29,1.55-3.95,1.52-.66,3.29.03,3.95,1.55l20.87,47.92c.66,1.52-.03,3.29-1.55,3.95-.39.17-.8.25-1.2.25Z"></path>
      </g>
      <path fill="#3a4a3a" d="m477.77,603.75c-.96,0-1.9-.46-2.48-1.3l-53.66-78.25,2.11-4.81c.67-1.52,2.43-2.21,3.95-1.54,1.52.66,2.21,2.43,1.54,3.95l-.77,1.76,51.77,75.5c.94,1.37.59,3.23-.78,4.17-.52.36-1.11.53-1.69.53Z"></path>
      <path fill="#3a4a3a" d="m508.11,519.54c-.69,0-1.38-.23-1.94-.71l-39.66-33.67c-1.26-1.07-1.42-2.97-.35-4.23,1.07-1.26,2.97-1.42,4.23-.35l39.66,33.67c1.26,1.07,1.42,2.97.35,4.23-.59.7-1.44,1.06-2.29,1.06Z"></path>
    </g>
    <path fill="#3a4a3a" d="m408.41,506.88s-54.07,162.65,17.48,226.24c71.55,63.6,147.47-64.29,147.47-64.29l-1.87-15.83s-54.18,72.5-101.54,79.46c-47.37,6.96-68.9-75.85-63.6-127.85,5.3-52,14.02-88.42,14.02-88.42l-11.95-9.3Z"></path>
    <g>
      <path fill="#3a4a3a" d="m279.45,465.39h-35.91c-1.66,0-3-1.34-3-3s1.34-3,3-3h35.91c1.33,0,2.47-.91,2.76-2.21l22-98.67c.96-4.28,4.69-7.11,9.06-6.9,4.38.22,7.8,3.42,8.32,7.78l11.28,95.57c.17,1.42,1.37,2.5,2.81,2.5h30.85c1.66,0,3,1.34,3,3s-1.34,3-3,3h-30.85c-4.47,0-8.24-3.35-8.77-7.79l-11.28-95.57c-.26-2.2-2.1-2.46-2.66-2.49-.56-.02-2.42.05-2.9,2.21l-22,98.67c-.91,4.07-4.45,6.91-8.62,6.91Z"></path>
      <path fill="#3a4a3a" d="m513.54,457.44h-39.33c-1.66,0-3-1.34-3-3s1.34-3,3-3h39.33c1.41,0,2.61-1.05,2.8-2.45l16.43-121.67c.59-4.37,4.08-7.52,8.49-7.64,4.43-.13,8.08,2.81,8.92,7.14l17.51,90.31c.26,1.33,1.42,2.29,2.77,2.29h20.82c1.21,0,2.29-.77,2.68-1.93l5.23-15.53c1.28-3.81,4.85-6.23,8.85-6,4.01.22,7.28,3.01,8.14,6.94l3.11,14.29c.28,1.29,1.44,2.23,2.76,2.23h19.13c1.66,0,3,1.34,3,3s-1.34,3-3,3h-19.13c-4.12,0-7.75-2.92-8.62-6.95l-3.11-14.29c-.42-1.95-2.1-2.19-2.61-2.22-.5-.02-2.2.03-2.84,1.92l-5.23,15.53c-1.21,3.6-4.57,6.01-8.37,6.01h-20.82c-4.22,0-7.86-3.01-8.67-7.15l-17.51-90.31c-.42-2.19-2.3-2.31-2.86-2.29-.56.02-2.42.24-2.72,2.45l-16.43,121.67c-.59,4.36-4.35,7.65-8.75,7.65Z"></path>
    </g>
  </g>
  <path fill="#3a4a3a" d="m889,935.02h-389.25c-1.66,0-3-1.34-3-3s1.34-3,3-3h389.25c1.66,0,3,1.34,3,3s-1.34,3-3,3Z"></path>
  <polygon fill="#e8b896" points="592.92 121.89 592.92 148.05 566.47 148.05 566.47 174.5 540.31 174.5 540.31 148.05 513.87 148.05 513.87 121.89 540.31 121.89 540.31 95.45 566.47 95.45 566.47 121.89 592.92 121.89"></polygon>
  <polygon fill="#e8b896" points="183.29 216.45 183.29 236.88 162.62 236.88 162.62 257.55 142.19 257.55 142.19 236.88 121.54 236.88 121.54 216.45 142.19 216.45 142.19 195.8 162.62 195.8 162.62 216.45 183.29 216.45"></polygon>
  <polygon fill="#e8b896" points="458.8 204.24 458.8 217.83 445.05 217.83 445.05 231.58 431.45 231.58 431.45 217.83 417.71 217.83 417.71 204.24 431.45 204.24 431.45 190.49 445.05 190.49 445.05 204.24 458.8 204.24"></polygon>
  <polygon fill="#e8b896" points="890.28 224.78 890.28 238.37 876.53 238.37 876.53 252.12 862.93 252.12 862.93 238.37 849.19 238.37 849.19 224.78 862.93 224.78 862.93 211.04 876.53 211.04 876.53 224.78 890.28 224.78"></polygon>
</svg>