<?xml version="1.0" encoding="UTF-8"?>
<svg id="Layer_2" data-name="Layer 2" xmlns="http://www.w3.org/2000/svg" viewBox="0 0 1000 1000">

  <defs></defs>
  <g>
    <path fill="#f8c8a8" d="m788.41,366.42c.89,1.02.14,2.61-1.21,2.56-15.13-.53-75.09-5.52-98.73-51.21-27.16-52.49,12.82-81.79,31.43-86.52,16.61-4.22,36.38,15.74,40.45,20.08.45.48.55,1.2.24,1.79l-13.02,24.38c-.43.81-.07,1.81.78,2.16l27.31,11.2c.86.35,1.22,1.38.76,2.19l-13.75,24.27c-.49.86-.05,1.95.89,2.24l13.25,4.1c.9.28,1.34,1.28.94,2.13l-8.28,17.62c-.26.56-.17,1.21.24,1.68l18.7,21.34Z"></path>
    <path fill="#f8c8a8" d="m787.96,245.7s.02-.06.03-.09c.56-1.67,17.12-50.18,54.61-29.48,38.15,21.06,18.92,96.44,3.05,119.63-12.48,18.24-20.43,25.16-23.26,27.28-.64.48-1.53.38-2.07-.21l-18.13-20.11c-.31-.35-.45-.82-.38-1.28l4.54-28.4c.13-.79-.38-1.55-1.16-1.75l-12.83-3.13c-.89-.22-1.39-1.15-1.09-2.01l12.21-35c.33-.95-.32-1.96-1.33-2.05l-18.15-1.54c-.96-.08-1.61-1.01-1.36-1.94l5.31-19.92Z"></path>
  </g>
  <path fill="#3a4a3a" d="m436.98,202.77H167.56l-.76-1.88c-.28-.69-2.5-7.03,4.5-18.44,5.44-8.88,17.57-8.14,24.22-6.95-.79-6.95-.95-20.22,7.25-29.15,9.15-9.96,26.17-6.81,33.41-4.87,1.16-5.88,4.18-18.46,10.72-31.31,11.85-23.29,29.61-36.02,51.36-36.81,21.02-.77,50.11,8.38,69.42,56.22,8.47-2.66,18.06.9,24.89,4.57,14.22,7.64,16.65,27.05,17.02,35.34,3.26-.15,8.19.78,14.4,5.41,10.77,8.02,12.57,23.89,12.64,24.56l.35,3.32Zm-264.72-6h257.8c-1.03-4.53-3.63-12.58-9.65-17.06-7.91-5.88-12.21-3.95-12.39-3.87l-4.84,3.13.46-5.9c0-.25.71-25.79-13.91-33.64-6.28-3.37-15.19-6.71-21.94-3.46-.33.16-.57.26-.72.31-2.79.93-3.79-1.54-4.84-4.16-18.01-44.87-44.61-53.45-63.75-52.76-47.3,1.72-56.86,65.75-56.96,66.39l-.51,3.64-3.46-1.23c-.21-.07-21.45-7.43-30.36,2.25-9.16,9.97-5.13,28.16-5.08,28.34l1.16,5.08-4.98-1.54c-.17-.05-16.86-4.91-21.88,3.29-3.29,5.37-4.06,9.1-4.15,11.19Z"></path>
  <path fill="#3a4a3a" d="m872.66,544.78h-242.9l-.76-1.88c-.25-.63-2.3-6.47,4.07-16.86,4.88-7.96,15.58-7.5,21.71-6.45-.67-6.4-.66-18.11,6.65-26.06,8.21-8.94,23.31-6.31,30.04-4.55,1.09-5.43,3.82-16.57,9.61-27.93,10.72-21.06,26.78-32.56,46.46-33.28,18.97-.69,45.2,7.53,62.63,50.5,7.65-2.27,16.23.92,22.35,4.21,12.76,6.85,15.07,24.08,15.45,31.75,2.99-.06,7.38.86,12.85,4.93,9.8,7.29,11.42,21.69,11.49,22.3l.35,3.32Zm-238.14-6h231.21c-.97-4.08-3.3-10.95-8.48-14.81-6.58-4.89-10.29-3.67-10.78-3.47l-4.82,3.18.4-5.93c0-.23.63-23.01-12.35-29.99-5.59-3-13.5-5.98-19.46-3.11-.31.15-.54.25-.68.29-2.78.93-3.77-1.53-4.73-3.92-16.13-40.2-39.93-47.89-57.06-47.27-42.23,1.54-50.86,58.89-50.95,59.47l-.52,3.63-3.46-1.23c-.19-.07-19.11-6.62-26.98,1.95-8.13,8.85-4.54,25.06-4.5,25.23l1.16,5.08-4.97-1.54c-.14-.04-14.94-4.35-19.34,2.83-2.77,4.52-3.53,7.73-3.67,9.6Z"></path>
  <g>
    <path fill="#e8b896" d="m478.3,634.05c-.04.37-.07.74-.1,1.11-1.23,15.26-5.19,23.5-5.19,23.5,0,0,6.31-1.83,14.19-4.41-3.51-6.24-6.5-13.01-8.9-20.2Zm0,0c-.04.37-.07.74-.1,1.11-1.23,15.26-5.19,23.5-5.19,23.5,0,0,6.31-1.83,14.19-4.41-3.51-6.24-6.5-13.01-8.9-20.2Zm0,0c-.04.37-.07.74-.1,1.11-1.23,15.26-5.19,23.5-5.19,23.5,0,0,6.31-1.83,14.19-4.41-3.51-6.24-6.5-13.01-8.9-20.2Zm0,0c-.04.37-.07.74-.1,1.11-1.23,15.26-5.19,23.5-5.19,23.5,0,0,6.31-1.83,14.19-4.41-3.51-6.24-6.5-13.01-8.9-20.2Zm257.55-40.01c-13.04-67.98-40.51-138.94-40.51-138.94,0,0-3.67-15.56-11.45-32.51-7.78-16.93-113.84-67.29-113.84-67.29,0,0,38.76,83.02-34.17,84.84-72.95,1.83-90.38-79.14-90.38-79.14,0,0-51.84,12.31-79.61,23.9-27.77,11.6-51.27,20.45-65.01,48.22-13.73,27.77-64.7,275.58-55.55,335.41,9.15,59.81,80.57,40.43,80.57,40.43l-35.02,112.58s488.22,4.81,492.35,0c4.12-4.81-34.34-259.52-47.38-327.5Zm-180.6,102.88c-.52.69-.98,1.27-1.37,1.72-5.8,6.71-61.34,25.63-85.76,32.35-24.41,6.71-37.34,16.83-37.34,16.83,0,0-21.18-53.4-23.96-59.83,0,0,18.27-15.59,31.4-29.32,11.09-11.61,25.23-42.81,34.13-51.84-.56-5.07-.86-10.26-.86-15.53,0-54.03,30.66-98.61,70.24-104.95,3.2-.53,6.45-.79,9.75-.79,44.18,0,79.99,47.34,79.99,105.74s-33.79,103.03-76.22,105.63Zm-77.05-61.76c-1.23,15.26-5.19,23.5-5.19,23.5,0,0,6.31-1.83,14.19-4.41-3.51-6.24-6.5-13.01-8.9-20.2-.04.37-.07.74-.1,1.11Zm.1-1.11c-.04.37-.07.74-.1,1.11-1.23,15.26-5.19,23.5-5.19,23.5,0,0,6.31-1.83,14.19-4.41-3.51-6.24-6.5-13.01-8.9-20.2Zm0,0c-.04.37-.07.74-.1,1.11-1.23,15.26-5.19,23.5-5.19,23.5,0,0,6.31-1.83,14.19-4.41-3.51-6.24-6.5-13.01-8.9-20.2Zm0,0c-.04.37-.07.74-.1,1.11-1.23,15.26-5.19,23.5-5.19,23.5,0,0,6.31-1.83,14.19-4.41-3.51-6.24-6.5-13.01-8.9-20.2Z"></path>
    <path fill="#3a4a3a" d="m631.48,591.29c0,56.73-33.79,103.03-76.22,105.63,3.4-4.49,9.31-13.64,14.63-22.99,17.22-20.45,28.02-49.9,28.02-82.65,0-48.17-23.39-89.23-56.18-104.95,3.2-.53,6.45-.79,9.75-.79,44.18,0,79.99,47.34,79.99,105.74Z"></path>
    <g>
      <path fill="#3a4a3a" d="m429.47,752.64l-1.48-3.71c-.21-.53-21.19-53.42-23.93-59.75l-.88-2.03,1.69-1.44c.18-.15,18.31-15.65,31.17-29.11,5.54-5.8,12-16.92,18.24-27.67,5.86-10.09,11.39-19.62,15.92-24.21,1.52-1.55,3.89-3.58,6.7-3.36,2.1.16,3.86,1.05,5.08,2.58,3.08,3.86,2.02,10.87.69,19.74-.52,3.45-1.06,7.03-1.39,10.65-.03.36-.07.72-.09,1.06-.66,8.25-2.1,14.54-3.34,18.69,2.35-.72,5.26-1.64,8.42-2.67,23.26-7.63,27.66-11.1,28.46-11.99,1.26-1.4,3.58-4.49,6.27-8.06,12.51-16.63,23.48-30.46,31.07-31.22,4.12-.42,6.59,1.17,7.93,2.58,2.17,2.27,2.81,5.44,2.94,7.88,3.91.17,10.03,1.34,12.46,6.73,2.31,5.13,1.4,11.44.68,14.67,2.96,2.42,8.39,8,8.13,16.26h0c-.15,4.63-4.09,13.77-11.69,27.17-5.02,8.81-11.13,18.4-14.85,23.31-.62.82-1.1,1.43-1.51,1.89-7.23,8.37-69.35,28.35-87.22,33.26-23.45,6.45-36.16,16.2-36.29,16.3l-3.16,2.46Zm-19.04-63.8c4.03,9.76,17.35,43.29,21.75,54.37,5.34-3.46,17.19-10.16,35.15-15.1,27.53-7.57,79.56-25.95,84.28-31.41.32-.37.71-.86,1.25-1.56,3.59-4.74,9.51-14.06,14.42-22.67,6.72-11.84,10.8-20.96,10.91-24.4.24-7.56-7.06-12.27-7.14-12.31l-1.97-1.24.7-2.22c.66-2.08,1.97-8.38.12-12.5-1.49-3.31-7.68-3.38-9.73-3.14l-3.88.45.56-3.86c.16-1.15.29-4.82-1.21-6.37-.23-.24-.92-.96-2.99-.75-5.59.56-20.5,20.39-26.87,28.85-2.88,3.84-5.16,6.86-6.6,8.47-1.11,1.23-4.47,4.96-31.05,13.67-7.84,2.57-14.23,4.42-14.29,4.44l-6.45,1.87,2.91-6.05c.03-.07,3.74-8.02,4.9-22.44.03-.37.06-.77.1-1.16.35-3.79.9-7.44,1.43-10.98.94-6.23,2-13.3.55-15.11-.08-.1-.21-.27-.77-.33-.16.05-.81.33-2.04,1.58-3.99,4.05-9.34,13.26-15.01,23.01-6.42,11.06-13.06,22.49-19.09,28.8-10.77,11.27-25.13,23.91-29.96,28.1Zm170.76-40.68h0,0Zm-104.75-40.82s0,0,0,0c0,0,0,0,0,0Zm.12,0h0Z"></path>
      <path fill="#3a4a3a" d="m493.76,682.24c-1.18,0-2.29-.69-2.77-1.85-.64-1.53.09-3.29,1.61-3.92.26-.11,25.75-10.8,40.51-22.31,14.33-11.18,23.76-41.08,23.85-41.38.49-1.58,2.17-2.46,3.75-1.97,1.58.49,2.47,2.17,1.98,3.75-.4,1.3-10.07,32-25.89,44.33-15.4,12.01-40.82,22.67-41.89,23.12-.38.16-.77.23-1.15.23Z"></path>
      <path fill="#3a4a3a" d="m512.07,698.59c-1.22,0-2.37-.76-2.82-1.97-.57-1.56.23-3.28,1.79-3.85.22-.08,22.19-8.15,31.12-15.81,7.39-6.34,22.27-33.75,27.38-43.78.75-1.48,2.56-2.06,4.04-1.31,1.48.75,2.06,2.56,1.31,4.04-.77,1.52-19.02,37.2-28.82,45.61-9.76,8.37-32.03,16.55-32.97,16.89-.34.12-.69.18-1.03.18Z"></path>
    </g>
    <path fill="#3a4a3a" d="m325.91,811.97c-1.2,0-2.33-.72-2.79-1.9-.61-1.54.15-3.28,1.69-3.89,41.06-16.2,100.34-41.46,105.84-47.79-.52-7.11-18.88-51.81-29.35-75.63-.03-.03-1.18-1.19-8.82.05-5.73.93-13.37,2.89-22.21,5.16-11.41,2.93-24.34,6.25-38.32,8.75-36.27,6.49-60.05,25.44-60.29,25.63-1.29,1.04-3.18.84-4.22-.45-1.04-1.29-.84-3.17.44-4.22,1.01-.82,25.15-20.1,63.01-26.87,13.77-2.46,26.58-5.75,37.89-8.65,22.49-5.77,34.88-8.95,38.02-1.81.31.7,30.58,69.81,29.85,78.97-.22,2.77-.53,6.57-55.9,30.33-26.59,11.41-53.45,22.02-53.72,22.12-.36.14-.73.21-1.1.21Z"></path>
    <path fill="#3a4a3a" d="m351.7,692.5c-.28,0-.57-.04-.85-.12-1.59-.47-2.5-2.14-2.03-3.73.32-1.08,31.82-108.08,34.51-159.31,2.6-49.43-31.47-66.25-32.92-66.94-1.49-.71-2.13-2.5-1.42-3.99.71-1.5,2.49-2.14,3.99-1.43.41.19,10.06,4.82,19.38,16.14,8.55,10.38,18.44,28.62,16.97,56.54-2.73,51.94-33.45,156.28-34.75,160.7-.39,1.31-1.58,2.15-2.88,2.15Z"></path>
    <g>
      <path fill="#3a4a3a" d="m695.34,926.68c-1.47,0-2.76-1.09-2.97-2.59-.03-.2-2.85-20.22-12.96-55.94-10.38-36.66-12.52-98.84-11.78-113.58.72-14.46,17.24-72.75,32.41-120.25,11.52-36.06-1.96-63.3-12.79-85.19-3.62-7.31-6.74-13.62-8.51-19.47-6.99-23.05-3.01-49-2.84-50.09.26-1.64,1.79-2.75,3.43-2.5,1.64.26,2.75,1.79,2.5,3.43-.04.25-3.92,25.71,2.65,47.42,1.63,5.37,4.65,11.47,8.15,18.54,10.71,21.65,25.38,51.3,13.13,89.67-15.27,47.8-31.46,105.27-32.14,118.72-.7,14.01,1.53,76.21,11.56,111.65,10.24,36.18,13.02,55.93,13.13,56.75.23,1.64-.92,3.15-2.56,3.38-.14.02-.28.03-.41.03Z"></path>
      <path fill="#3a4a3a" d="m673.83,821.75c-.79,0-1.58-.31-2.17-.93-1.14-1.2-1.1-3.09.09-4.24.74-.7,18.37-17.33,47.74-22.92,1.63-.31,3.2.76,3.51,2.39.31,1.63-.76,3.2-2.39,3.51-27.55,5.25-44.55,21.2-44.72,21.36-.58.55-1.33.83-2.07.83Z"></path>
      <path fill="#3a4a3a" d="m707.41,830.51c-.22,0-.44-.02-.66-.07l-24.42-5.49c-1.62-.36-2.63-1.97-2.27-3.58.36-1.62,1.97-2.63,3.58-2.27l24.42,5.49c1.62.36,2.63,1.97,2.27,3.58-.31,1.4-1.55,2.34-2.92,2.34Z"></path>
    </g>
    <g>
      <path fill="#3a4a3a" d="m351.24,311.02s58.22,60.85,101.97,7.53l-.33-10.2c.99,2.18,1.96,4.47,2.87,6.9.07-.7.09-1.4.14-2.07,1.74-31.27-1.77-56.31-1.77-56.31,0,0-20.82.46-24.28-16.82-3.47-17.28,11.86-31.67,25.27-27.17,13.4,4.5,4.73,20.35,31.57,20.93,26.86.57,54.15-13.71,67.27-31.29,11-14.77,18.7-30.61,20.88-35.3.29-.62,1.11-.73,1.53-.2,3.47,4.22,17.53,18.56,52.38,24.22.44.07.78.45.78.89-.02,3.54-.15,18.81-1.23,37.92.63-1.21,26.92-51.63,18.8-85.91-8.22-34.68-46.78-43.14-77.37-36.71,0,0-20.89-17.49-51.52-21.05,0,0-56.13-2.67-89.88,39.28-10.35-1.65-23.3.8-39.11,11.38-50.92,34.06-25.06,84-14.55,123.06,10.52,39.06-23.41,50.93-23.41,50.93Z"></path>
      <path fill="#3a4a3a" d="m555.62,350.33c-1.62,0-2.96-1.29-3-2.92-.04-1.66,1.26-3.03,2.92-3.08,32.79-.85,52.52-15.08,60.3-43.51,4.46-16.25,7.73-40.79,9.46-70.96,1-17.64,1.18-31.95,1.21-36.63-.58-.64-.88-1.53-.75-2.45.24-1.64,1.77-2.77,3.4-2.53,1.92.28,3.36,1.95,3.35,3.87-.01,2.92-.12,18.47-1.23,38.07-1.78,31.03-5.03,55.32-9.66,72.21-8.46,30.88-30.64,47-65.93,47.92-.03,0-.05,0-.08,0Zm72.68-156.14h0,0Z"></path>
      <path fill="#3a4a3a" d="m446.46,363.96c-.17,0-.35-.02-.52-.05-1.63-.29-2.72-1.84-2.43-3.47.86-4.89,2.35-11.35,3.93-18.19,2.42-10.47,4.91-21.29,5.32-27.21.04-.5.07-.95.09-1.4l.04-.66c1.4-24.98-.62-46.14-1.43-53.2-8.52-.65-21.75-5.14-24.57-19.15-1.92-9.57,1.33-19.45,8.5-25.77,6.06-5.34,13.78-7.15,20.67-4.84,6.39,2.15,8.7,6.51,10.74,10.35,2.88,5.42,5.36,10.1,19.93,10.42,1.66.04,2.97,1.41,2.93,3.06-.04,1.66-1.4,2.97-3.06,2.93-18.09-.39-21.98-7.72-25.1-13.61-1.81-3.41-3.24-6.09-7.35-7.48-4.83-1.62-10.36-.25-14.79,3.65-5.56,4.91-8.09,12.6-6.58,20.09,2.92,14.57,20.53,14.41,21.29,14.41l2.66-.05.38,2.63c.04.25,3.54,25.71,1.79,56.89l-.04.65c-.03.5-.06,1-.1,1.51-.44,6.35-2.99,17.41-5.46,28.1-1.56,6.76-3.03,13.15-3.87,17.88-.26,1.46-1.52,2.48-2.95,2.48Z"></path>
      <path fill="#3a4a3a" d="m554.62,350.33c-33.5,0-53.82-13.94-65.01-25.71-12.27-12.91-16.39-25.81-16.56-26.35-.49-1.58.39-3.26,1.97-3.76,1.58-.49,3.26.39,3.76,1.97.05.15,3.99,12.32,15.38,24.21,15.23,15.9,35.91,23.87,61.44,23.64h.03c1.65,0,2.99,1.33,3,2.97.01,1.66-1.32,3.01-2.97,3.03-.34,0-.69,0-1.02,0Z"></path>
      <g>
        <g>
          <path fill="#3a4a3a" d="m568.51,289.8c-.27,0-.55,0-.82,0-1.66-.04-2.97-1.41-2.93-3.07.04-1.66,1.42-2.99,3.07-2.93,8.26.17,14.55-2.98,17.64-4.95-10.02-11.12-15.52-29.7-6.01-42.36,9.12-12.14,23.52-8.29,29.85-4.56,1.43.84,1.9,2.68,1.06,4.11-.84,1.43-2.67,1.9-4.1,1.07h0c-.56-.33-13.85-7.87-22.02,2.99-8.54,11.36-1,27.4,5.75,34.83,1.17,1.28,1.71,3,1.48,4.71-.22,1.71-1.18,3.22-2.63,4.15-3.52,2.27-10.77,6.01-20.36,6.01Z"></path>
          <path fill="#3a4a3a" d="m529.77,240.66c-.85,0-1.69-.36-2.29-1.06-1.07-1.26-.92-3.15.33-4.22.57-.49,14.09-11.81,28.04-3.62,1.43.84,1.91,2.68,1.07,4.11-.84,1.43-2.68,1.91-4.11,1.07-10.23-6.01-20.67,2.64-21.11,3.01-.56.48-1.25.71-1.94.71Z"></path>
          <path fill="#3a4a3a" d="m601.52,266.01c-.26,0-.51,0-.78-.02-8.89-.42-12.83-7.4-13.67-11.03-.37-1.61.63-3.23,2.25-3.6,1.62-.37,3.23.63,3.6,2.25.15.6,1.7,6.08,8.11,6.39,6.66.31,9.48-6.47,9.59-6.76.62-1.53,2.36-2.28,3.89-1.67,1.53.61,2.29,2.34,1.69,3.87-.17.44-4.26,10.57-14.68,10.57Z"></path>
          <path fill="#3a4a3a" d="m543.14,260.21c-.17,0-.34,0-.51,0-7.87-.29-11.28-6.56-11.98-9.84-.35-1.62.68-3.22,2.3-3.56,1.62-.35,3.22.68,3.56,2.3.11.48,1.3,4.92,6.33,5.1,5.46.21,7.8-5.7,7.82-5.76.6-1.54,2.34-2.3,3.89-1.7,1.54.6,2.3,2.35,1.7,3.89-.16.4-3.86,9.57-13.11,9.57Z"></path>
          <ellipse fill="#f8c8a8" cx="518.24" cy="280.8" rx="13.38" ry="16.08" transform="translate(115.66 711.32) rotate(-75.37)"></ellipse>
          <circle fill="#f8c8a8" cx="605.03" cy="280.93" r="12.2"></circle>
        </g>
        <path fill="#3a4a3a" d="m582.85,314.64c-.93,0-1.84-.43-2.43-1.23-9.9-13.56-33.9-1.72-34.14-1.6-1.48.74-3.28.15-4.03-1.33-.74-1.48-.15-3.28,1.33-4.03,1.17-.59,28.78-14.25,41.69,3.42.98,1.34.68,3.21-.65,4.19-.53.39-1.15.58-1.77.58Z"></path>
      </g>
      <path fill="#3a4a3a" d="m404.75,180.05c.92-2.75,1.75-5.75,2.47-9.01,0-.06.03-.1.03-.16-.95,3.06-1.79,6.11-2.51,9.17Z"></path>
      <path fill="#3a4a3a" d="m524.53,228.4c-1.32,0-2.53-.88-2.89-2.22-.43-1.6.51-3.25,2.11-3.68,28.29-7.67,44.72-49.04,44.88-49.46.6-1.54,2.34-2.31,3.88-1.71,1.54.6,2.31,2.34,1.71,3.88-.71,1.82-17.72,44.61-48.9,53.07-.26.07-.53.11-.79.11Z"></path>
      <g>
        <path fill="#3a4a3a" d="m453.52,250.09c-.97,0-1.93-.47-2.51-1.35-.91-1.38-.53-3.24.85-4.16,1.16-.77,2.09-2.16,2.62-3.91.44-1.47,1.67-6.47-.98-9.2-2.5-2.57-6.91-3.12-9.32-3.22-1.66-.07-2.94-1.47-2.87-3.12s1.45-2.92,3.12-2.87c4.03.17,9.62,1.17,13.37,5.03,3.38,3.47,4.27,8.98,2.43,15.11-.93,3.1-2.72,5.65-5.06,7.19-.51.34-1.08.5-1.65.5Z"></path>
        <path fill="#3a4a3a" d="m445.53,242.12c-.39,0-.78-.08-1.16-.24-1.52-.64-2.24-2.39-1.6-3.91.27-.64,2.76-6.29,7.96-7.76,2.04-.58,5.27-.69,9.07,2.06,1.34.97,1.65,2.84.68,4.19-.97,1.34-2.85,1.65-4.19.68-2.24-1.62-3.5-1.27-3.92-1.15-2.06.57-3.67,3.38-4.08,4.31-.49,1.14-1.6,1.82-2.77,1.82Z"></path>
      </g>
      <path fill="#3a4a3a" d="m573.23,368.15c-1.22,0-2.37-.75-2.82-1.97l-6.52-17.82c-.57-1.56.23-3.28,1.79-3.85,1.56-.57,3.28.23,3.85,1.79l6.52,17.82c.57,1.56-.23,3.28-1.79,3.85-.34.12-.69.18-1.03.18Z"></path>
    </g>
    <g>
      <path fill="#3a4a3a" d="m612.83,753.93c-33.27,0-61.52-6.49-63.29-6.91-1.61-.38-2.61-1.99-2.24-3.61.38-1.61,1.99-2.61,3.6-2.24.64.15,64.81,14.88,112.88.05,1.58-.49,3.26.4,3.75,1.98.49,1.58-.4,3.26-1.98,3.75-16.93,5.22-35.5,6.96-52.72,6.96Z"></path>
      <path fill="#3a4a3a" d="m361.55,897.77c-1.33,0-2.54-.89-2.9-2.23l-22.83-85.8c-.43-1.6.53-3.24,2.13-3.67,1.6-.43,3.24.53,3.67,2.13l22.83,85.8c.43,1.6-.53,3.24-2.13,3.67-.26.07-.52.1-.77.1Z"></path>
    </g>
  </g>
  <g>
    <path fill="#3a4a3a" d="m787.26,371.98c-.05,0-.11,0-.16,0-17.67-.61-77.18-6.24-101.29-52.83-10.74-20.75-12.38-40.71-4.75-57.7,8.16-18.17,25.47-29.89,38.11-33.11,17.85-4.53,37.71,14.88,43.38,20.94,1.33,1.42,1.61,3.53.69,5.25l-12.26,22.96,25.82,10.59c1.21.5,2.14,1.49,2.57,2.72s.3,2.59-.34,3.73l-12.86,22.7,11.52,3.56c1.26.39,2.28,1.3,2.82,2.51.53,1.2.52,2.58-.04,3.77l-7.87,16.76,18.08,20.62c1.2,1.37,1.47,3.31.69,4.95-.75,1.59-2.35,2.59-4.1,2.59Zm-62.67-138.3c-1.36,0-2.67.15-3.94.47-9.42,2.39-26.27,12.29-34.11,29.75-6.96,15.48-5.41,33.14,4.6,52.48,21.27,41.1,72.71,48.24,92.77,49.43l-16.45-18.77c-1.19-1.36-1.46-3.29-.7-4.93l7.56-16.11-11.65-3.6c-1.32-.41-2.37-1.38-2.88-2.67s-.41-2.71.27-3.92l12.94-22.83-25.79-10.57c-1.19-.49-2.12-1.46-2.55-2.67-.43-1.21-.34-2.55.27-3.68l12.53-23.46c-8.93-9.33-22.06-18.95-32.86-18.95Z"></path>
    <path fill="#3a4a3a" d="m821.47,366.36c-1.24,0-2.48-.52-3.38-1.51l-18.13-20.11c-.92-1.03-1.33-2.4-1.11-3.76l4.33-27.08-11.53-2.81c-1.24-.3-2.3-1.12-2.92-2.24-.61-1.12-.72-2.46-.3-3.67l11.59-33.23-16.28-1.39c-1.34-.11-2.56-.81-3.33-1.91-.78-1.1-1.02-2.48-.67-3.79l5.39-20.19c.92-2.76,9.53-27.14,28.57-34.57,9.39-3.67,19.59-2.52,30.34,3.41,10.86,5.99,18.1,16.36,21.54,30.82,7.39,31.1-5.19,75.21-17.46,93.14-12.72,18.59-20.98,25.76-23.93,27.98-.82.61-1.77.91-2.72.91Zm-16.58-25.12l16.75,18.58c3.37-2.78,10.63-9.82,21.53-25.74,11.37-16.62,23.48-59.3,16.57-88.36-3.03-12.74-9.28-21.81-18.6-26.95-9.11-5.03-17.61-6.06-25.26-3.08-16.58,6.47-24.54,29.34-25.04,30.84l-4.85,18.2,16.42,1.4c1.41.12,2.66.87,3.43,2.06s.94,2.63.48,3.97l-11.68,33.49,11.28,2.75c2.28.56,3.78,2.81,3.41,5.13l-4.43,27.72Zm-14.06-94.67s0,0,0,0h0s0,0,0,0Zm-2.87-.86h0,0Z"></path>
  </g>
  <path fill="#3a4a3a" d="m208.62,550.11c-.71,0-1.43-.25-2.01-.77-1.23-1.11-1.33-3-.22-4.24.13-.15,7.94-8.91,13.55-19.29-8.61,8.24-21.47,13.99-37.99,13.3-1.66-.07-2.94-1.47-2.87-3.12.07-1.65,1.46-2.92,3.12-2.87,23.26.97,38.23-12.25,42.76-25.77.17-.5.32-1,.47-1.51-.04-.34-.1-.67-.16-1-.81-4.19-3.39-7.31-7.9-9.52-.94-.46-1.85-.95-2.73-1.47-25.08,8.52-62.27,7.22-78.85-7.96-5.9-5.4-11.63-14.93-5.46-29.67,6.64-15.85,18.46-18.22,31.99-17.26,2.21-5.2,5.06-10.62,8.52-16.14.07-.11.14-.22.21-.33-4.03-2.84-7.56-6.64-10.47-11.37-9.7-15.8-9.83-40.92,5.43-53.13,4.86-3.89,10.88-5.13,17.56-4.75,1.85-4.77,4.14-9.64,6.88-14.52,15.11-26.96,37.08-30.7,52.6-25.21,16.46,5.82,31,24.16,26.95,47.94-1.21,7.08-4.2,12.02-8.89,14.69-1.1.62-2.26,1.11-3.49,1.48-1.74,5.22-5.13,10.62-9.8,15.73,3.17,1.83,5.42,4.32,6.6,7.39.93,2.42,1.16,5.06.7,7.89,7.87.86,13.71,3.72,16.27,8.6,3.32,6.31,3.18,19.92-31.28,42.63.11,1.1.17,2.2.17,3.31.07,9.01-3.32,16.71-9.7,22.29,2.33,6.65,2.7,13.81.9,20.93,1.15,18.29-19.71,41.7-20.64,42.74-.59.66-1.41.99-2.23.99Zm13.26-59.16c1.8,1.07,3.36,2.3,4.66,3.67-.17-1.88-.51-3.73-1.03-5.55-.42.25-.86.49-1.3.72-.75.4-1.53.78-2.33,1.16Zm-64.57-46.15c-10.18,0-17,3.1-21.46,13.74-3.87,9.25-2.53,16.97,3.98,22.93,13.02,11.91,44.66,14.91,68.77,8.05-3.06-2.64-5.64-5.65-7.79-8.86-21.8,8.08-32.84,4.41-38.44-1.29-6.84-6.97-7.46-19.53-2.33-34.5-.93-.04-1.84-.07-2.72-.07Zm49.2,33.57c2.39,3.33,5.34,6.37,8.9,8.85,2.1-.83,4.11-1.74,6.01-2.74.65-.34,1.26-.7,1.85-1.06-1.75-3.4-4.17-6.61-7.22-9.52-3.36,1.7-6.54,3.19-9.53,4.47Zm15.07-7.38c2.57,2.7,4.72,5.61,6.41,8.68,4.99-5.1,6.28-11.22,6.3-16.1-1,.62-2.02,1.24-3.07,1.87-3.36,2.03-6.58,3.87-9.65,5.54Zm-55.39-25.61c-4.89,13.27-4.94,24.29.46,29.78,5.45,5.55,16.27,5.5,31.06.19-3.87-7.67-5.65-15.92-5.89-22.86-.05-1.37-.04-2.72.02-4.03-5.92-.36-11.64-1.18-17.01-1.95-3.07-.44-5.95-.84-8.64-1.14Zm31.87,10.26c.6,5.57,2.25,11.77,5.26,17.53,2.45-1.03,4.99-2.18,7.62-3.45-.12-.09-.24-.17-.36-.25-5.06-3.51-9.22-8.25-12.51-13.82Zm3.07-7.07c3.17,6.63,7.44,12.2,12.87,15.96,1,.7,1.97,1.42,2.89,2.16,3.61-1.92,7.36-4.04,11.24-6.38,1.91-1.15,3.74-2.28,5.49-3.4-1.09-5.44-3.43-10.77-6.37-15.31-8.67,4.76-17.52,6.6-26.12,6.97Zm31.21-10.13c2.88,4.46,5.25,9.59,6.63,14.95,24.07-16.34,29.95-28.01,27.12-33.38-1.64-3.12-6.22-5.08-12.76-5.58-1.94,4.39-5.27,9.16-9.99,14.3-3.6,3.92-7.27,7.11-11,9.7Zm-33.69,4.09s.03.07.04.11c8.3-.11,16.72-1.58,24.94-5.92-2.39-2.78-4.96-5.01-7.48-6.45-2.5-1.43-6.14-2.76-9.22-.98-4.03,2.33-6.92,7.09-8.27,13.23Zm-30.08-2.94c2.35.29,4.72.63,7.12.98,5.36.77,10.91,1.57,16.55,1.91-1.42-4.42-2.46-9.09-3.14-13.87-4.59-.25-8.9-1.29-12.85-3.12-.11.17-.22.35-.33.52-2.91,4.64-5.36,9.2-7.34,13.58Zm45.6-16.6c1.62.43,3.28,1.13,4.95,2.08,3.26,1.86,6.62,4.82,9.67,8.52,3.43-2.37,6.81-5.3,10.12-8.91,3.37-3.67,5.95-7.12,7.7-10.27-9.02.54-20.35,3.23-32.44,8.58Zm-18.97,5.49c.21,1.38.45,2.74.73,4.09.95-1.73,2.05-3.28,3.29-4.65-1.35.25-2.69.43-4.01.55Zm-15.3-7.99c2.5,1.05,5.34,1.81,8.53,2.1-.28-3.42-.38-6.87-.31-10.3-2.99,2.48-5.76,5.21-8.22,8.2Zm14.26-8.27c-.07,3.46.05,6.93.34,10.35,4.71-.42,10.05-1.82,16.09-4.56,13.88-6.31,27.51-9.55,38.46-9.68.45-2.06.38-3.9-.22-5.47-.93-2.44-3.05-4.04-5.46-5.08-5.38,4.89-11.92,9.33-19.25,12.85-10.97,5.27-21.61,5.73-29.96,1.59Zm-12.78-53.06c-4.54,0-8.51,1.01-11.62,3.5-11.59,9.27-13.45,30.02-4.07,45.3,1.64,2.67,4.51,6.48,8.88,9.56,3.39-4.3,7.34-8.12,11.64-11.46-9.26-10.52-10.75-27.73-4.72-46.91-.03,0-.07,0-.1,0Zm14.81,47.37c6.79,3.72,15.7,3.32,25.33-1.31,5.56-2.67,10.49-5.83,14.69-9.22-.19-.02-.38-.04-.57-.06-11.42-1.11-26.5,2.64-39.46,10.59Zm13.36-40.36c-4.84,5.13-8.79,12.28-11.55,21.17-1.25,4.03-2.21,8.33-2.85,12.75,13.57-7.78,28.94-11.31,41.08-10.12,2,.2,3.86.52,5.58.97,4.07-4.15,7.1-8.44,8.97-12.46-9.54-.11-21.37-4.67-33.69-9.43-2.51-.97-5.03-1.94-7.54-2.88Zm-22.01-6.48c-6.24,18.58-3.83,32.41,1.55,40.32.7-5.02,1.77-9.89,3.18-14.44,2.71-8.75,6.51-16.02,11.18-21.6-5.56-1.92-10.96-3.5-15.91-4.28Zm27.17,2.01c1.52.58,3.03,1.16,4.55,1.75,12.28,4.74,24.91,9.61,33.48,8.96.31-1.85.29-3.57-.06-5.12-1.54-6.7-9.58-10.39-22.65-10.39-.1,0-.21,0-.31,0-5.44.02-10.49,1.68-15,4.79Zm15.31-10.79c21.78,0,27.21,9.41,28.5,15.04.33,1.43.47,2.92.44,4.45,2.63-1.88,4.32-5.15,5.14-9.97,3.49-20.52-8.95-36.29-23.04-41.28-13.22-4.68-32.08-1.22-45.37,22.49-2.41,4.29-4.39,8.4-6.01,12.33,5.85,1.04,12.07,2.99,18.39,5.26,6.19-5.39,13.52-8.28,21.61-8.32.11,0,.23,0,.34,0Z"></path>
</svg>