<?xml version="1.0" encoding="UTF-8"?>
<svg id="Layer_2" data-name="Layer 2" xmlns="http://www.w3.org/2000/svg" viewBox="0 0 1000 1000">

  <defs></defs>
  <g>
    <g>
      <g>
        <path fill="#e8b896" d="m758.74,658.67c-9.42-39.2-104.51-88.81-104.51-88.81,0,0,1.65-19.85,0-24.15-1.66-4.3-8.93-12.56-42.67-19.18-33.74-6.61-53.58-2.65-59.54-1.98-5.95.66-8.6,16.53-8.6,16.53,0,0-105.17,21.34-123.53,32.75-18.36,11.41-159.26,228.71-149.34,264.93,9.93,36.22,36.72,32.25,36.72,32.25l17.36,71.27h393.1l-1.32-33.07s67.64,4.96,78.05-39.69c10.42-44.65-26.29-171.66-35.72-210.85Zm-379.53,118.74c-4.22,6.66-18.03,2.43-18.52,2.28.09.37,4.9,19.09-.5,22.69-5.46,3.64-14.89-4.14-14.89-4.14,0,0,1.49,19.68-8.26,21.17-9.76,1.49-22.99-18.52-22.99-18.52,0,0,7.27,28.44,1.65,32.91-5.62,4.46-12.07-6.95-12.07-6.95,0,0-13.07-21.83-12.57-35.88.5-14.06,10.92-13.9,10.92-13.9,0,0,.82-15.71,6.28-20.17,5.46-4.47,13.23-3.97,13.23-3.97,0,0,3.64-10.25,10.58-12.73,6.95-2.48,13.9,1.54,13.9,1.54,0,0,4.13-9.61,11.9-9.22,7.78.4,25.64,38.1,21.34,44.89Zm287.55,45.45s-6.44,11.41-12.07,6.95c-5.62-4.47,1.66-32.91,1.66-32.91,0,0-13.23,20.01-22.99,18.52-9.76-1.49-8.27-21.17-8.27-21.17,0,0-9.43,7.77-14.88,4.14-5.4-3.6-.6-22.32-.51-22.69-.49.15-14.29,4.37-18.51-2.29-4.3-6.78,13.56-44.48,21.33-44.88,7.77-.39,11.91,9.22,11.91,9.22,0,0,6.94-4.03,13.89-1.55,6.95,2.49,10.58,12.74,10.58,12.74,0,0,7.78-.5,13.23,3.97,5.46,4.46,6.29,20.17,6.29,20.17,0,0,10.42-.16,10.91,13.9.5,14.05-12.57,35.88-12.57,35.88Z"></path>
        <path fill="#3a4a3a" d="m487.3,944.18c-1.51,0-2.81-1.14-2.98-2.68-.16-1.46-16-146.13-38.57-176.88-13.47-18.34-43.15-24.72-75.62-16.27-1.6.42-3.24-.54-3.66-2.15s.54-3.24,2.15-3.66c34.87-9.08,67.04-1.81,81.97,18.52,23.53,32.04,39.05,173.77,39.7,179.78.18,1.65-1.01,3.13-2.66,3.3-.11.01-.22.02-.33.02Z"></path>
        <path fill="#3a4a3a" d="m307.26,874.01c-1.42,0-2.68-1.01-2.95-2.46-.15-.8-3.56-19.77-2.7-42.58.06-1.65,1.43-2.95,3.11-2.88,1.66.06,2.95,1.46,2.88,3.11-.83,22.12,2.57,41.08,2.61,41.27.3,1.63-.78,3.19-2.41,3.49-.18.03-.36.05-.54.05Z"></path>
        <path fill="#3a4a3a" d="m639.45,944.18c-.25,0-.5-.03-.75-.09-1.6-.41-2.57-2.05-2.16-3.65.16-.63,16.14-63.24,21.78-109.95.2-1.65,1.69-2.82,3.34-2.62,1.64.2,2.82,1.69,2.62,3.34-5.68,47.11-21.76,110.09-21.92,110.72-.35,1.35-1.57,2.26-2.9,2.26Z"></path>
        <path fill="#3a4a3a" d="m476.76,870.25s-.09,0-.14,0c-1.66-.07-2.94-1.48-2.86-3.13.19-4.28,5.3-105.03,54.1-125.87,20.1-8.58,46.74-10.41,73.1-5.02,1.62.33,2.67,1.92,2.34,3.54-.33,1.62-1.92,2.67-3.54,2.34-24.82-5.08-50.82-3.34-69.54,4.66-45.34,19.37-50.41,119.62-50.46,120.63-.07,1.61-1.4,2.86-3,2.86Z"></path>
        <path fill="#3a4a3a" d="m312.91,837.83c-.48,0-.96-.05-1.45-.14-5.51-1.07-9.66-7.99-10.44-9.37-.51-.86-13.48-22.7-12.96-37.46.39-11.02,6.41-15.3,11.12-16.45.5-5.01,2.14-15.72,7.18-19.84,4.45-3.64,10.07-4.47,13.12-4.63,1.57-3.45,5.39-10.36,11.58-12.57,5.31-1.9,10.52-.66,13.6.49,2.11-3.38,6.55-8.7,13.36-8.34,5.59.29,11.78,10.05,15.99,18.19,1.27,2.45,12.26,24.15,7.73,31.3h0c-3.65,5.77-11.7,5.58-17.09,4.67,1.52,7.85,2.25,17.82-2.8,21.19-4.26,2.84-9.65,1.06-13.52-1.03-.35,6.85-2.3,17.22-10.84,18.53-6.13.94-12.8-4.3-17.86-9.66,1.57,9.45,2.18,20.05-2.07,23.43-1.41,1.12-2.99,1.69-4.66,1.69Zm-10.98-57.77c-.73,0-7.5.38-7.88,11.01-.46,12.99,12.02,34.02,12.15,34.23,1.38,2.42,4.33,6.09,6.41,6.49.38.07.73.04,1.22-.35,2.11-1.83.83-16.05-2.69-29.82l-4.4-17.21,9.81,14.81c5.06,7.64,14.65,18.04,20.04,17.21,5.27-.81,6.13-12.46,5.72-17.98l-.52-7.01,5.42,4.47c2.42,1.99,8.64,5.74,11.32,3.96,1.68-1.12,1.79-9.37-.74-19.43l-1.29-5.15,5.07,1.52c4.68,1.43,12.92,2.42,15.1-1.01.75-1.36-.26-9.05-6.08-21.47-5.96-12.7-11.35-18.53-12.91-18.83-5.47-.28-8.92,7.34-8.95,7.41l-1.33,3.1-2.92-1.69s-5.88-3.28-11.39-1.31c-4.59,1.64-7.88,8.43-8.76,10.91l-.76,2.14-2.26-.15c-.06,0-6.69-.34-11.14,3.3-3.06,2.5-4.87,12.03-5.18,18l-.15,2.89-2.89-.04Zm77.28-2.66h0,0Zm-2.53-1.6h0Z"></path>
        <g>
          <path fill="#3a4a3a" d="m314.73,804.87c-1.09,0-2.14-.59-2.67-1.63l-12.75-24.8c-.76-1.47-.18-3.28,1.3-4.04,1.48-.76,3.28-.18,4.04,1.3l12.75,24.8c.76,1.47.18,3.28-1.3,4.04-.44.23-.91.33-1.37.33Z"></path>
          <path fill="#3a4a3a" d="m345.31,801.24c-1.09,0-2.14-.6-2.67-1.64l-23.5-46.11c-.75-1.48-.17-3.28,1.31-4.04,1.47-.75,3.28-.17,4.04,1.31l23.5,46.11c.75,1.48.17,3.28-1.31,4.04-.44.22-.9.33-1.36.33Z"></path>
          <path fill="#3a4a3a" d="m360.68,782.68c-1.2,0-2.34-.73-2.8-1.92l-14.72-37.94c-.6-1.54.17-3.28,1.71-3.88,1.54-.6,3.28.17,3.88,1.71l14.72,37.94c.6,1.54-.17,3.28-1.71,3.88-.36.14-.72.2-1.08.2Z"></path>
        </g>
        <path fill="#3a4a3a" d="m657.48,833.84c-1.66,0-3.25-.57-4.65-1.68-4.25-3.38-3.64-13.98-2.07-23.43-5.06,5.35-11.71,10.59-17.85,9.65-8.55-1.31-10.5-11.69-10.85-18.53-3.87,2.08-9.25,3.87-13.51,1.03-5.06-3.37-4.33-13.35-2.81-21.19-5.38.9-13.42,1.09-17.08-4.68-4.52-7.13,6.45-28.81,7.72-31.26,4.21-8.15,10.41-17.93,15.99-18.22,6.81-.32,11.25,4.96,13.37,8.34,3.08-1.15,8.28-2.4,13.6-.5,6.2,2.22,10.02,9.14,11.58,12.58,3.05.16,8.68.99,13.12,4.63,5.04,4.12,6.68,14.82,7.18,19.83,4.71,1.15,10.73,5.43,11.11,16.45.52,14.62-12.2,36.19-12.98,37.49-.56.99-4.86,8.24-10.41,9.33-.49.1-.98.14-1.46.14Zm6.18-53.41l-4.4,17.21c-3.52,13.77-4.81,27.99-2.7,29.82.49.39.85.42,1.22.35,2.08-.4,5.03-4.08,6.37-6.43l.04-.06c.13-.21,12.61-21.24,12.15-34.23-.37-10.63-7.13-11-7.9-11.01l-2.81-.03-.19-2.81c-.32-5.98-2.14-15.52-5.19-18.01-4.44-3.64-11.08-3.3-11.15-3.3l-2.25.13-.76-2.12c-.89-2.48-4.19-9.28-8.76-10.92-5.5-1.96-11.32,1.29-11.38,1.33l-2.91,1.66-1.34-3.07c-.03-.07-3.31-7.42-8.71-7.42-.1,0-.2,0-.3,0-1.52.29-6.91,6.13-12.87,18.85-5.81,12.41-6.82,20.08-6.07,21.44,2.18,3.44,10.42,2.45,15.1,1.02l5.05-1.54-1.26,5.13c-2.53,10.1-2.42,18.36-.74,19.48,2.67,1.78,8.89-1.98,11.31-3.96l5.42-4.44-.53,6.99c-.41,5.52.45,17.17,5.73,17.98,5.41.84,14.97-9.57,20.04-17.21l9.81-14.81Z"></path>
        <g>
          <path fill="#3a4a3a" d="m655.67,800.88c-.46,0-.93-.11-1.37-.33-1.47-.76-2.05-2.57-1.3-4.04l12.75-24.8c.76-1.47,2.56-2.05,4.04-1.3,1.47.76,2.05,2.57,1.3,4.04l-12.75,24.8c-.53,1.03-1.58,1.63-2.67,1.63Z"></path>
          <path fill="#3a4a3a" d="m625.09,797.25c-.46,0-.92-.11-1.36-.33-1.48-.75-2.06-2.56-1.31-4.04l23.5-46.11c.75-1.48,2.56-2.06,4.04-1.31,1.48.75,2.06,2.56,1.31,4.04l-23.5,46.11c-.53,1.04-1.58,1.64-2.67,1.64Z"></path>
          <path fill="#3a4a3a" d="m609.71,778.69c-.36,0-.73-.07-1.08-.2-1.54-.6-2.31-2.34-1.71-3.88l14.72-37.94c.6-1.54,2.34-2.31,3.88-1.71,1.54.6,2.31,2.34,1.71,3.88l-14.72,37.94c-.46,1.19-1.6,1.92-2.8,1.92Z"></path>
        </g>
        <path fill="#3a4a3a" d="m389.62,745.01c-1.55,0-2.87-1.2-2.99-2.77-2.45-32.26,4.81-56.4,22.2-73.79,9.02-9.02,10.66-38.39,10.53-48.94-.02-1.66,1.31-3.02,2.96-3.04,1.65-.03,3.02,1.31,3.04,2.96.02,1.65.37,40.6-12.29,53.26-16.08,16.08-22.77,38.68-20.46,69.09.13,1.65-1.11,3.09-2.76,3.22-.08,0-.15,0-.23,0Z"></path>
        <path fill="#3a4a3a" d="m763.71,834.81c-.92,0-1.82-.42-2.41-1.21-29.03-39.13-86.57-54.86-87.15-55.01l-2.52-.67.31-2.59c.06-.53,6.41-53.11,6.41-75.98s18.93-57.6,19.74-59.03c.81-1.44,2.65-1.95,4.09-1.14,1.44.81,1.95,2.65,1.14,4.09-.19.34-18.96,33.82-18.96,56.08,0,20.58-4.86,63.21-6.15,74.16,11.77,3.52,60.8,19.98,87.91,56.52.99,1.33.71,3.21-.62,4.2-.54.4-1.16.59-1.79.59Z"></path>
        <path fill="#3a4a3a" d="m716.41,912.21c-.3,0-.6-.04-.9-.14-51.63-16.15-61.84-44.6-62.25-45.81-.53-1.57.31-3.27,1.87-3.81,1.56-.53,3.26.3,3.8,1.86.13.36,10,26.9,58.36,42.02,1.58.49,2.46,2.18,1.97,3.76-.4,1.28-1.58,2.11-2.86,2.11Z"></path>
        <path fill="#3a4a3a" d="m584.44,577.49c-.15,0-.29-.01-.44-.03-22.97-3.41-33.59-12.97-38.45-20.38-5.43-8.29-5.13-15.82-5.12-16.14.08-1.66,1.46-2.94,3.14-2.85,1.65.08,2.92,1.48,2.85,3.13-.04,1.04-.42,24.54,38.46,30.31,1.64.24,2.77,1.77,2.53,3.41-.22,1.49-1.5,2.56-2.96,2.56Z"></path>
        <path fill="#3a4a3a" d="m631.4,579.14h-26.13c-1.66,0-3-1.34-3-3s1.34-3,3-3h26.13c1.66,0,3,1.34,3,3s-1.34,3-3,3Z"></path>
        <path fill="#3a4a3a" d="m559.63,638.35c-.84,0-1.69-.36-2.28-1.05-28.03-32.7-33.86-71.98-34.1-73.64-.23-1.64.91-3.16,2.55-3.39,1.62-.24,3.16.91,3.39,2.55.06.39,5.86,39.24,32.71,70.57,1.08,1.26.93,3.15-.33,4.23-.57.48-1.26.72-1.95.72Z"></path>
        <path fill="#3a4a3a" d="m510.02,740.75h-56.89c-1.66,0-3-1.34-3-3s1.34-3,3-3h56.89c1.66,0,3,1.34,3,3s-1.34,3-3,3Z"></path>
      </g>
      <path fill="#3a4a3a" d="m554.12,526.77c-.53,0-1.07-.14-1.55-.44-1.42-.86-1.87-2.71-1.01-4.12l4.87-8.02c-12.12-2.38-44.55-11.1-48.06-36.54-4.06-29.47,38.27-101.74,40.08-104.8.84-1.43,2.68-1.9,4.11-1.06,1.43.84,1.9,2.68,1.06,4.11-.43.73-43.08,73.52-39.3,100.93,3.62,26.2,46.92,32.11,47.36,32.16l4.57.59-9.56,15.74c-.57.93-1.55,1.44-2.57,1.44Z"></path>
      <path fill="#3a4a3a" d="m648.29,542.07c-.29,0-.58-.04-.87-.13-1.59-.48-2.48-2.15-2-3.74l13.54-44.83,2.29.06c.1,0,11.16.16,16.98-6.21,2.92-3.2,4.08-7.67,3.45-13.28-.61-5.43-2.63-9.26-6-11.39-7.04-4.44-18.04-.71-18.15-.67-1.56.54-3.27-.28-3.82-1.85s.28-3.27,1.84-3.82c.56-.2,13.79-4.73,23.3,1.24,5,3.14,7.96,8.46,8.79,15.81.84,7.42-.85,13.49-5.01,18.02-5.85,6.38-14.95,7.77-19.21,8.06l-12.26,40.58c-.39,1.3-1.58,2.13-2.87,2.13Z"></path>
      <path fill="#3a4a3a" d="m590.06,369.75s-26.79,27.45-2.98,58.54c23.81,31.09,55.9,36.6,68.91,32.19,13.01-4.41,29.37,3.86,28.85,18.58-.52,14.72-15.73,16.04-19.87,16.37-4.13.33-4.35,2.79-4.35,2.79l-11.44,37.87s5.63,9.37,5.7,14.28c.06,4.91-.66,19.48-.66,19.48,0,0,60.95,35.21,79.59,53.99,18.64,18.78,19.3,21.42,24.6,32.67,5.29,11.25,18.93,76.01,18.93,76.01,0,0,55.49-8.87,49.54-78.98-5.95-70.12-92.94-33.41-102.86-54.24-9.92-20.84,46.14-46.8,45.15-93.93-.99-47.13-55.57-38.2-51.1-71.94,4.47-33.74,29.27-76.9-19.35-102.2-48.62-25.3-93.11,11.74-93.11,11.74,0,0-20.18-15.21-40.35-3.31-20.18,11.91-19.13,43.39-19.13,43.39,0,0,11.2-18.25,43.94-13.29Z"></path>
      <path fill="#3a4a3a" d="m573.4,515.99c-3.99,0-8.19-.33-12.61-1.06-1.63-.27-2.74-1.81-2.47-3.45s1.82-2.74,3.45-2.47c37.22,6.15,58.6-19.51,58.81-19.77,1.05-1.29,2.94-1.48,4.22-.43,1.29,1.05,1.48,2.94.43,4.22-.85,1.04-19.12,22.96-51.84,22.96Z"></path>
      <g>
        <g>
          <path fill="#3a4a3a" d="m556.43,454.53c-.39,0-.78-.07-1.15-.23-7.67-3.2-11.95-8.77-13.82-11.81-.8-1.3-1-2.89-.54-4.37.47-1.52,1.58-2.77,3.05-3.42,7.61-3.38,18.9-12.91,16.76-24.1-1.97-10.34-14.02-9.06-14.53-9-1.65.19-3.13-.98-3.33-2.62s.97-3.13,2.61-3.33c6.25-.77,18.72,1.13,21.15,13.83,2.75,14.43-10.06,25.98-19.68,30.46,1.66,2.5,5,6.47,10.64,8.82,1.53.64,2.25,2.4,1.61,3.92-.48,1.15-1.6,1.84-2.77,1.85Z"></path>
          <path fill="#3a4a3a" d="m604.19,430.71c-1.15,0-2.25-.67-2.75-1.79-.19-.43-4.59-9.98-13.89-8.85-1.64.2-3.14-.97-3.34-2.61-.2-1.65.97-3.14,2.61-3.34,11-1.34,17.97,7.51,20.11,12.38.67,1.52-.02,3.29-1.54,3.95-.39.17-.8.25-1.2.25Z"></path>
          <ellipse fill="#3a4a3a" cx="587.19" cy="434.97" rx="6.53" ry="5.29" transform="translate(-22.27 838.15) rotate(-70.02)"></ellipse>
          <ellipse fill="#3a4a3a" cx="545.53" cy="414.98" rx="6.53" ry="5.29" transform="translate(-30.91 785.83) rotate(-70.02)"></ellipse>
        </g>
        <path fill="#3a4a3a" d="m563.58,482.5c-.18,0-.37-.02-.56-.05-.93-.18-22.92-4.42-29.42-15.5-.84-1.43-.36-3.27,1.07-4.11,1.42-.84,3.27-.36,4.11,1.07,4.25,7.24,19.75,11.58,25.36,12.64,1.63.31,2.7,1.88,2.39,3.5-.27,1.44-1.53,2.44-2.94,2.44Z"></path>
      </g>
      <g>
        <path fill="#3a4a3a" d="m658.19,490.5c-1.35,0-2.58-.92-2.91-2.3-2.16-8.98-1.32-15.77,2.5-20.19,4.75-5.51,12.17-4.91,12.48-4.89,1.65.15,2.87,1.6,2.72,3.25-.15,1.65-1.6,2.85-3.24,2.72-.11,0-4.76-.3-7.46,2.86-2.42,2.84-2.83,7.97-1.18,14.83.39,1.61-.6,3.23-2.22,3.62-.24.06-.47.08-.7.08Z"></path>
        <path fill="#3a4a3a" d="m668.78,484.33c-.08,0-.16,0-.24,0-1.65-.13-2.88-1.57-2.75-3.21.07-1.02-.17-3.15-1.06-3.72-.72-.46-2.65-.3-5.95,1.49-1.45.79-3.28.25-4.07-1.2s-.25-3.28,1.2-4.07c5.06-2.76,9.13-3.18,12.09-1.25,4.16,2.7,3.82,8.55,3.77,9.21-.12,1.57-1.44,2.76-2.99,2.76Z"></path>
      </g>
    </g>
    <g>
      <g>
        <path fill="#e8b896" d="m196.25,789.23s-25.2-23.14-15.51-47.01c9.69-23.87,25.66,1.62,23.69,19.74-1.97,18.13-8.18,27.27-8.18,27.27Z"></path>
        <path fill="#e8b896" d="m204.59,829.62s-38.22-10.41-32.29-29.07c5.92-18.67,28.51,11.13,32.29,29.07Z"></path>
        <path fill="#e8b896" d="m204.59,829.62s22.98-22.25,17.42-40.56c-5.56-18.31-26.23,8.08-17.42,40.56Z"></path>
        <path fill="#e8b896" d="m229.19,879.6s-39.59-1.29-38.14-20.82,30.31,4.23,38.14,20.82Z"></path>
        <path fill="#e8b896" d="m229.19,879.6s17.22-26.97,7.57-43.49c-9.65-16.52-23.65,13.92-7.57,43.49Z"></path>
        <path fill="#e8b896" d="m269.76,918.47s-35.75,17.04-43.44-.97c-7.69-18.01,28.87-10.17,43.44.97Z"></path>
        <path fill="#e8b896" d="m269.76,918.47s2.9-31.86-13.26-42.11c-16.16-10.24-14.61,23.23,13.26,42.11Z"></path>
      </g>
      <path fill="#3a4a3a" d="m321.8,942.64c-.21,0-.43-.02-.65-.07-30.65-6.75-56.54-20.38-76.96-40.48-16.32-16.07-29.17-36.27-38.2-60.05-15.32-40.35-14.31-76.5-14.26-78.02.05-1.66,1.46-2.95,3.1-2.9,1.66.05,2.95,1.44,2.9,3.1-.01.36-1,36.64,13.94,75.88,19.91,52.3,57.18,84.8,110.77,96.62,1.62.36,2.64,1.96,2.28,3.58-.31,1.4-1.55,2.35-2.93,2.35Z"></path>
    </g>
    <g>
      <g>
        <path fill="#e8b896" d="m857.19,826.97s22.44-14.67,18-34.36c-4.44-19.69-20.05-2.03-20.83,12.24-.79,14.26,2.84,22.13,2.84,22.13Z"></path>
        <path fill="#e8b896" d="m845.58,857.12s30.87-3.17,28.68-18.35c-2.19-15.19-23.46,4.96-28.68,18.35Z"></path>
        <path fill="#e8b896" d="m845.58,857.12s-14.93-20.14-8.29-33.58c6.64-13.44,19.24,9.59,8.29,33.58Z"></path>
        <path fill="#e8b896" d="m820.18,892.62s30.77,4.06,32.14-11.22c1.38-15.28-23.97-.6-32.14,11.22Z"></path>
        <path fill="#e8b896" d="m820.18,892.62s-9.87-23.04-.3-34.59c9.57-11.54,16.5,13.78.3,34.59Z"></path>
        <path fill="#e8b896" d="m783.85,917.49s25.46,17.74,33.71,4.8c8.24-12.94-21.02-11.55-33.71-4.8Z"></path>
        <path fill="#e8b896" d="m783.85,917.49s1.83-25,15.63-30.86c13.8-5.86,8.33,19.82-15.63,30.86Z"></path>
      </g>
      <path fill="#3a4a3a" d="m719.31,935.53c-1.55,0-2.87-1.2-2.99-2.77-.13-1.65,1.11-3.09,2.76-3.22,53.06-4.03,92.65-25.74,117.66-64.53,18.71-29.02,21.81-57.29,21.84-57.57.17-1.65,1.64-2.85,3.29-2.68,1.65.17,2.85,1.64,2.68,3.29-.12,1.2-3.21,29.78-22.62,59.99-17.92,27.9-53.71,62.26-122.39,67.48-.08,0-.15,0-.23,0Z"></path>
    </g>
  </g>
  <path fill="#3a4a3a" d="m240.62,448.62c-.8,0-1.59-.32-2.18-.94-1.14-1.21-1.08-3.1.13-4.24,56.29-53.05,70.32-59.82,75.97-60.3,4.07-.34,10.2-.49,17.95-.68,27.8-.67,79.55-1.91,98.24-16.4,17.96-13.92,39.75-37.1,54.16-52.44,4.97-5.29,8.9-9.47,11.44-11.95,2.22-2.17,5.75-5.17,9.85-8.64,9.15-7.77,28.19-23.92,27.66-29.37-.01-.14-.03-.28-.47-.53-6.12-3.4-11.55-1.26-19.76,1.98-4.42,1.74-9.42,3.72-15.47,5.16-7.65,1.83-26.39,13.72-42.93,24.21-28.54,18.11-36.87,22.75-41.08,20.91-1.23-.54-2.08-1.61-2.33-2.95-1.42-7.75,1.29-63.1,7.25-71.02,1.07-1.43,2.29-1.82,3.12-1.91,2.09-.21,8.1.85,21.5,3.27,22.84,4.12,65.36,11.79,76.4,7.88,4.42-1.57,11.9-4.22,15.32-6.02-.77-.37-1.92-.92-3.4-1.64-86.57-41.94-104.41-44.08-108.06-43.06-14.21,4-29.89,12.05-30.04,12.13l-11.49,5.93,7.7-10.38c36.25-48.85,90.69-126.42,92.07-139.88,1.56-15.2-.29-18.71-1.16-19.51-.12-.11-.35-.33-1.11-.26-7.27,5.35-67.84,78.16-107.27,126.42l-14.44,17.67,9.38-20.8c26.92-59.69,54.67-126.87,54.73-137.56-.07,0-.13,0-.2,0-4.01,0-12.39,9.89-19.23,17.98-2.92,3.45-5.95,7.02-9.08,10.46-13.32,14.64-67.08,106.01-67.62,106.94l-5.89,10.02.3-11.62c1.05-40.42.2-84.95-3.04-89.73-.96-.94-1.9-1.2-3.14-.89-3.43.85-7.3,5.73-8.14,8.48-.83,2.71-13.51,42.29-25.77,80.56-10.88,33.97-21.16,66.06-21.75,67.97-1.58,5.19-48.51,71.44-69.65,88.76-12.19,9.99-40.82,33.49-62.96,51.68-1.28,1.05-3.17.87-4.22-.41-1.05-1.28-.87-3.17.41-4.22,22.15-18.19,50.78-41.69,62.97-51.68,20.61-16.89,65.33-80.32,67.73-85.93.79-2.56,10.97-34.35,21.75-67.98,12.26-38.25,24.93-77.81,25.74-80.48,1.27-4.18,6.43-11.06,12.43-12.55,3.29-.82,6.45.08,8.89,2.53,1.52,1.52,4.68,4.69,5.1,50.32.11,12.06,0,23.99-.13,32.33,14.45-24.34,51.35-85.8,62.54-98.11,3.06-3.36,6.05-6.89,8.94-10.3,11.23-13.26,20.1-23.75,27.94-18.96,2.68,1.64,3.95,4.57-4.15,27.49-4.22,11.94-10.65,28.24-19.09,48.45-7.45,17.83-15.19,35.63-20.93,48.68,9.99-12.14,24.09-29.22,38.29-46.22,53.69-64.3,56.23-64.76,58.07-65.1,3.34-.61,5.47.59,6.67,1.7,3.57,3.3,4.48,10.63,3.05,24.53-1.74,16.89-63.85,102.86-86.19,133.3,5.78-2.53,13.17-5.46,20.35-7.48,3.54-1,14.34-4.03,112.3,43.43,2.1,1.02,3.51,1.7,4.09,1.97,1.04.48,4.22,1.95,4.07,5.08-.18,3.87-4.77,5.98-18.7,10.95,4-.54,7.97-.06,12.21,2.29,2.06,1.14,3.31,2.98,3.53,5.18.78,7.94-12.41,19.82-29.74,34.53-4.01,3.4-7.47,6.34-9.54,8.36-2.45,2.39-6.34,6.53-11.26,11.77-14.54,15.47-36.52,38.85-54.86,53.07-20.24,15.7-71.28,16.92-101.77,17.65-7.65.18-13.7.33-17.59.66-4.14.35-19.04,8.44-72.36,58.69-.58.55-1.32.82-2.06.82Zm182.89-203.11c-3.75,6.8-6.88,52.02-6.03,63.99,5.69-1.81,22.17-12.26,34.5-20.09,17.76-11.27,36.12-22.92,44.75-24.98,5.64-1.34,10.43-3.24,14.67-4.91,1.95-.77,3.84-1.52,5.7-2.16-14.6,1.72-44.61-3.29-74.5-8.69-8.01-1.45-16.27-2.94-19.08-3.17Zm-170.49-13.45s0,.02,0,.03c0,0,0-.02,0-.03Z"></path>
  <path fill="#3a4a3a" d="m260.63,685.97c-.73,0-1.43-.4-1.78-1.09-2.59-5.09-5.04-10.16-7.27-15.06-16.03-35.2-37.63-102.2-2.16-155.52,10.69-16.07,24.91-29.47,38.69-41.56,2.01-1.76,4.12-3.55,6.16-5.27,8.75-7.41,17.81-15.08,23.66-24.59-3.07.94-6.15,1.47-9.19,1.54-.24,0-.47,0-.71,0-13.17,0-22.41-8.75-23.09-21.97-.55-10.66,3.47-18.48,11.04-21.46,8.3-3.27,19.1.06,25.68,7.9,3.06,3.65,8.58,12.54,4.45,25.83,6.79-4.23,13.26-10.66,18.69-18.83,9.03-13.57,19.83-38.76,20.02-81.71.11-25.23,9.01-44.98,26.46-58.7,21.83-17.16,56.27-24.8,102.39-22.7,32.18,1.46,59.07,7.44,62.33,8.19,6.36-.6,12.99-.81,19.41-1.02,5.73-.18,11.52-.37,17.24-.83,0-2.39.33-4.77,1.08-7.11,2.05-6.4,6.92-11.74,14.53-15.94.39-4.64,1.2-8.82,2.45-12.78,1.75-5.57,6.13-15.56,15.86-19.91,5.34-2.38,12.42-2.19,17.75.86.07-1.57.22-3.14.46-4.71-6.76-6.51-11.36-15.38-10.4-24.98,1.15-11.41,10.42-22.06,23.07-26.5,12.48-4.39,26.2-2.74,35.44-1.13,15.99,2.8,36.62,9.84,44.15,27.51,3.25,7.62,3.79,16.79,1.61,27.26-.21,1.03-.45,2.05-.71,3.07,2.85-.77,5.58-.92,8.16-.44,4.86.91,9.41,4.09,13.53,9.45,8.84,11.5,11.17,26.58,5.93,38.41-.94,2.12-2.12,4.08-3.51,5.87,1.2,5.21.67,10.99-1.07,16.33,3.07,8.15,2.76,17.58-.6,25.65.04-.01.07-.03.1-.04,6.22-2.4,15.45-5.2,23.66-1.83,2.78,1.14,5.13,2.85,7.11,4.9,2.15-1.65,4.38-3.28,6.78-4.65,6.53-3.71,13.34-4.54,18.67-2.26,4.29,1.83,7.35,5.45,9.77,8.75,10.01,13.62,15.96,30.42,16.77,47.31.5,10.44-1.69,17.85-6.7,22.63-6.65,6.36-18.16,6.38-26.18.55-.38.03-.76.04-1.15.05-2.27.04-4.44-.23-6.58-.7-.51,3.38-1.51,6.65-2.99,9.64,1.46,7.9-.18,16.36-4.26,23.44.25.1.51.2.76.31.35.15.7.31,1.05.47,5.18-6.8,11.93-11.69,19.22-13.73,12.43-3.47,26.5,2.36,31.35,13.02,2.67,5.87,2.07,13.27-1.58,19.32-3.27,5.41-8.35,8.7-13.94,9.02-3.89.22-7.33-.76-10.48-2.44,2.57,2.46,4.32,5.51,4.91,8.81.74,4.18-.59,8.65-3.64,12.25-3.46,4.08-8.5,6.52-13.52,6.44-.12,0-.23,0-.35,0-.26,2.26-.66,4.38-1.1,6.29.75.02,1.5.06,2.25.12,10.11.78,20.41,7.37,20.15,17.07-.18,6.77-5.23,12.59-15.01,17.28-6.02,2.89-13.96,6.01-21.99,4.46-1.03-.2-2.04-.49-3.04-.88-6.3,4.69-14.98,7.74-25.92,9.12-1.07.14-2.09-.64-2.23-1.74-.14-1.1.64-2.1,1.74-2.23,9.34-1.17,16.84-3.6,22.44-7.25-4.1-2.83-7.1-7.23-7.16-12.2-3.98-1.25-7.06-3.82-9.4-7.16-2.28-.33-4.59-1-6.89-2.01-8.24-3.61-14.71-10.96-16.88-19.18-1.71-6.49-1.1-13.4,1.29-19.64-.96-.74-1.84-1.62-2.64-2.64-4.86-6.17-3.09-14.95,1.51-20.68-.59-.34-1.17-.69-1.75-1.06-4.32-2.8-6.57-6-6.67-9.52-.07-2.45.92-4.58,2.04-6.73,2.61-5.04,5.53-10.3,9.93-14.45.43-.41.88-.8,1.33-1.18-.28-.54-.54-1.09-.78-1.65-4.5-.44-8.98-1.62-13.14-3.96-13.32-7.48-17.95-23.77-17.85-36.52.04-4.31.5-8.61,1.38-12.82-1.32-1.45-2.5-2.96-3.57-4.54-1.05-1.55-1.95-3.16-2.71-4.82-7.99,4.78-17.62,3.92-27.62,2.5l-36.71-5.19c-1.46.67-3.08,1.06-4.74,1.11-3.22.09-6.1-1.18-7.87-3.49-.51-.15-1.02-.3-1.53-.47-1.41,2.35-3.56,4.35-6.07,5.52-3.04,1.42-6.23,1.51-8.99.26-3.03-1.38-4.97-4.01-6.01-6.97-4.84,3.11-10.53,4.58-16.05,2.65-8.42-2.95-13.25-13.16-10.34-21.84,1.94-5.8,6.82-10.38,12.81-12.56-.69-.76-1.33-1.73-1.93-2.92-2.98-5.93-5.67-12.11-6.53-18.24-5.79.46-11.62.65-17.4.83-6.46.21-13.14.42-19.48,1.03l-.33.03-.32-.08c-1.11-.26-111.32-25.89-161.65,13.7-16.44,12.93-24.83,31.63-24.93,55.57-.19,43.94-11.35,69.88-20.69,83.91-6.9,10.37-15.44,18.13-24.36,22.45-.68,1.4-1.47,2.84-2.38,4.32-6.18,10.1-15.51,17.99-24.53,25.63-2.03,1.72-4.12,3.49-6.1,5.23-13.57,11.91-27.57,25.09-38,40.76-34.4,51.7-13.21,117.2,2.47,151.64,2.21,4.85,4.63,9.87,7.2,14.91.5.98.11,2.19-.88,2.69-.29.15-.6.22-.91.22Zm533.35-183.44c.07.01.14.03.21.04,6.89,1.32,14.04-1.52,19.51-4.14,5.72-2.74,12.57-7.36,12.74-13.78.2-7.21-8.39-12.35-16.46-12.97-1.01-.08-2.03-.12-3.06-.13-1.65,4.84-4.25,9.38-7.5,12.96,2.37,4.63.49,10.25-2.15,14.07-.97,1.4-2.06,2.71-3.28,3.94Zm-10.66-10.46c.4,3.67,3.12,6.93,6.51,8.87,1.6-1.4,2.98-2.94,4.14-4.62,1.74-2.51,3.09-5.95,2.32-8.83-3.81,3.08-8.24,4.87-12.97,4.59Zm.62-3.97c3.75.15,7.07-1.35,9.96-3.75-1.5-.76-3.22-.56-4.08-.39-2.28.45-4.74,1.96-5.88,4.14Zm-8.74-3.78c1.36,1.31,2.92,2.34,4.72,2.99,1.37-3.57,4.87-6.44,9.12-7.28,2.95-.58,5.7-.04,7.77,1.44,2.47-2.88,4.45-6.39,5.8-9.83-.79.03-1.58.07-2.37.1-2.46.11-4.96.23-7.47.18-2.11,4.2-5.29,7.76-9.61,10.05-2.49,1.32-5.17,2.1-7.96,2.35Zm-3.05-3.95c3.24.19,6.36-.46,9.14-1.94,3.04-1.61,5.4-3.98,7.13-6.81-1.65-.2-3.29-.52-4.91-1-6.78-2-12.37-6.92-15.65-13.05-.06,1.12-.08,2.2-.09,3.21-.06,6.59,1.18,14.1,4.39,19.59Zm-21.26-35.08c-1.92,5.33-2.37,11.16-.92,16.67,1.86,7.07,7.46,13.4,14.61,16.54.89.39,1.78.72,2.67.99-2.54-5.74-3.55-12.6-3.5-18.73.03-3.42.24-7.57,1.22-11.69-.27-1.73-.36-3.49-.27-5.25-2.94,1.43-6.04,2.32-9.04,2.32h-.07c-1.66,0-3.23-.29-4.7-.84Zm45.03,10.34c.23,4.19-.26,8.41-1.51,12.3,1.85-.01,3.73-.1,5.66-.19,1.27-.06,2.56-.12,3.86-.15,0-.03.02-.06.02-.1.5-2.01.96-4.31,1.24-6.77-3.35-.86-6.55-2.64-9.26-5.1Zm-26.84-6.48c1.58,8.04,7.7,15.31,15.57,17.64,1.84.54,3.72.85,5.63,1,2.13-5.67,2.26-12.4.64-18.43-.77-1.37-1.42-2.81-1.92-4.33-.21-.65-.41-1.31-.57-1.98-1.86-3.51-4.11-6.01-6.7-7.44-.16-.09-.32-.17-.48-.25-2.76,1.06-5.26,2.52-7.29,4.59-2.49,2.54-3.99,5.81-4.88,9.2Zm40.36,8.15c.07,0,.13,0,.2,0,3.74,0,7.68-1.92,10.31-5.02,2.32-2.73,3.29-5.92,2.75-8.97-1-5.66-6.49-9.53-11.49-10.85-3.54-.94-7.25-1.01-11.06-.71,2.55,2.52,4.68,5.48,6.2,8.8,2.54,5.56,3.26,11.41,3.09,16.75Zm-14.82-9.5c2.53,4.3,6.5,7.54,10.83,8.86.1-4.67-.57-9.7-2.74-14.45-1.78-3.9-4.59-7.23-8.01-9.83-.5.07-1,.14-1.5.22-.52.08-1.04.16-1.55.24-.26,3.09-.08,6.05.55,8.81.25.5.5,1.01.74,1.54.67,1.48,1.23,3.03,1.68,4.62Zm-42.14-6.18c.97.33,2.01.5,3.13.5h.06c3.19,0,6.7-1.36,9.91-3.37.69-2.22,1.78-4.03,3.24-5.42,1.51-1.44,3.48-2.37,5.61-2.77,1.03-1.4,1.95-2.86,2.77-4.37-3.31-.08-6.64.43-9.76,1.61-6.51,2.46-11.77,7.59-14.95,13.8Zm-449.76-37.86c-1.85,0-3.65.31-5.29.96-5.95,2.34-8.97,8.57-8.51,17.53.58,11.31,8.29,18.45,19.71,18.17,3.98-.09,8.06-1.07,12.08-2.84,4.37-9.88,3.67-19.19-2.14-26.11-4.08-4.86-10.23-7.7-15.86-7.7Zm447.25,18.08c-3.92,4.34-5.8,11.63-2.07,16.37.39.49.79.93,1.21,1.33,3.33-6.36,8.56-11.69,15.03-14.68-4.84-.1-9.68-1.11-14.17-3.02Zm36.26,12.02c.45.37.89.77,1.31,1.19,0-.5.03-.99.05-1.49-.46.1-.91.2-1.37.3Zm14.45-23.26c4.11,2.69,7.7,6.3,11.21,9.82,6.28,6.31,12.21,12.28,20.1,11.82,4.25-.24,8.17-2.83,10.74-7.1,2.98-4.93,3.5-10.91,1.37-15.59-4.07-8.94-16.02-13.79-26.63-10.82-6.31,1.77-12.18,5.99-16.79,11.87Zm-21.4,19.96c.69.12,1.37.29,2.04.52,2.18-.73,4.45-1.26,6.74-1.69.04-.26.09-.52.14-.78-2.16-.92-4.42-1.59-6.73-1.98-.66,1.35-1.39,2.66-2.19,3.94Zm24.64-2.98c2.8,0,5.58.28,8.33,1.01,1.43.38,2.79.88,4.06,1.49-2.53-2.08-4.91-4.47-7.26-6.83-3.38-3.4-6.85-6.89-10.69-9.37-1.3,2.03-2.47,4.22-3.46,6.53-.85,1.98-1.54,3.95-2.08,5.91,1.04.57,2.05,1.19,3.03,1.87,2.71-.35,5.4-.6,8.06-.6Zm-20.81-4.79c2.07.41,4.09,1.01,6.05,1.8.55-1.91,1.24-3.84,2.07-5.76,1.04-2.42,2.26-4.72,3.62-6.87-.09-.04-.19-.08-.28-.12-.48-.2-.97-.39-1.46-.55-2.07,2.77-4.56,5.24-7.42,7.25-.5.35-1.02.69-1.54,1.02-.3,1.09-.65,2.17-1.04,3.24Zm-4.25-.56c.06,0,.12,0,.18.01.01-.03.03-.07.04-.1-.07.03-.15.06-.22.09Zm-25.5-3.34c8.96,3.22,19.17,2.56,27.32-1.94.51-2.25.8-4.53.86-6.8-4.28.36-8.67,1.36-12.96,2.52-5.33,1.43-10.81,3.1-15.22,6.22Zm-.05-28.4c-.25.22-.5.44-.75.67-3.94,3.72-6.67,8.65-9.12,13.38-.9,1.73-1.64,3.29-1.59,4.78.08,2.65,2.68,4.88,4.84,6.28.81.53,1.65,1.01,2.5,1.46,5.28-4.46,12.19-6.59,18.35-8.25,4.56-1.23,9.24-2.3,13.86-2.66-.18-1.84-.52-3.65-1.02-5.41-.07-.25-.14-.49-.22-.74-2.79.69-5.67.94-8.51.7-7.37-.63-14.08-4.54-18.34-10.2Zm32.23,19.53c-.03,1.26-.12,2.52-.27,3.78,1.28-1.07,2.46-2.25,3.53-3.52-1.07-.15-2.16-.23-3.26-.26Zm-.13-4.01c2.03.04,4.04.24,6.01.66,3.15-5.06,4.83-11.01,4.74-16.87-3.25,4-7.51,7.09-12.19,8.96.09.29.18.58.26.87.59,2.08.98,4.21,1.17,6.38Zm-28.81-17.86c3.62,4.71,9.3,8.03,15.39,8.55,2.22.19,4.46.02,6.66-.46-2.42-4.88-6.56-9.48-12.37-10.28-3.1-.42-6.51.37-9.67,2.18Zm14.8-4.84c5.15,2.3,8.85,6.98,11.1,11.74,5-2,9.47-5.63,12.39-10.37.18-.29.35-.58.52-.88-.22-.94-.5-1.87-.83-2.78-.81-2.25-1.89-4.34-3.15-6.27-5.18,4.16-11.77,6.37-17.81,7.99-.72.19-1.46.38-2.23.57Zm-18.15-1.72c6.96.23,13.89-1.26,19.34-2.72,5.66-1.51,11.81-3.56,16.46-7.34-1.15-1.39-2.39-2.67-3.69-3.87-1.36-.67-2.73-1.32-4.08-1.92-1.83-.81-3.81-1.53-5.83-2.08-3.07.56-6.26.7-9.42.24-1.65,3.79-4.31,6.65-7.56,7.99-1.68.7-3.51.95-5.37.78-.62,2.41-.7,5.06-.15,7.7.09.41.19.82.3,1.22Zm-29.06-46.09c-.51,3.13-.79,6.3-.82,9.47-.1,11.61,4,26.37,15.81,33,3.1,1.74,6.45,2.75,9.86,3.25,0-.01,0-.03,0-.04-.67-3.23-.58-6.5.2-9.49-.52-.22-1.04-.48-1.55-.77-4.09-2.33-7.03-6.52-7.65-10.92-.62-4.36.57-8.96,3.17-13.04-7.92-3.43-14.15-7.17-19.01-11.47Zm70.2,36.49c1.3,1.91,2.45,3.98,3.37,6.2.44-1.47.76-2.98.96-4.52-1.46-.49-2.91-1.06-4.33-1.68Zm21.99,2.19c5.72,2.37,12.79,2.14,17.36-2.23,4.06-3.88,5.9-10.46,5.46-19.55-.77-16.11-6.45-32.14-16-45.13-2.1-2.86-4.71-5.99-8.11-7.44-4.17-1.78-9.68-1.03-15.12,2.06-2.17,1.23-4.18,2.69-6.21,4.25.48.67.93,1.37,1.35,2.07,4.12-.35,8.15.6,11.15,3.53,4.98,4.86,4.41,12.35,3.42,16.95,3.18-2.49,6.95-3.84,11.04-3.35,9.17,1.1,14.59,10.86,15.05,19.48.41,7.78-2.7,16.01-8.32,22.03-3.23,3.46-7.02,5.95-11.08,7.33Zm-13.42-3.44c1.02.24,2.05.43,3.08.55-1.26-1.57-2.33-3.31-3.23-5.18.15,1.54.2,3.09.15,4.63Zm16.11-41.5c-7.22,0-13.06,7.91-14.67,16.06-1.92,9.7.45,19.31,6.17,25.07.31.31.63.6.96.89,4.75-.69,9.3-3.17,13.01-7.14,4.89-5.24,7.6-12.37,7.25-19.09-.37-7.09-4.79-14.9-11.53-15.71-.4-.05-.8-.07-1.19-.07Zm-22.22,39.45c.71.3,1.43.58,2.14.84,0-1.43-.1-2.88-.3-4.31-.53,1.18-1.13,2.35-1.84,3.47Zm-34.99-5.36c-2.06.65-3.93,1.72-5.48,3.31-.61.62-1.14,1.32-1.61,2.07.74-.06,1.47-.23,2.16-.52,2.01-.83,3.71-2.54,4.93-4.86Zm-15.55-13.83c-1.93,3.17-2.8,6.65-2.33,9.93.46,3.2,2.63,6.27,5.68,8.01.32.18.65.35.97.49.76-1.52,1.73-2.9,2.89-4.09,1.19-1.23,2.49-2.2,3.85-2.97-4.22-2.45-7.91-6.26-11.05-11.38Zm41.31,14.81c.52.25,1.03.51,1.54.76,1.35.67,2.68,1.33,4,1.96,1.6-2.39,2.81-5.3,3.7-8.89,0,0,0,0,0,0-.58-1.48-1.26-2.91-2.05-4.28-1.56,1.39-3.22,2.68-4.95,3.85-1.84,1.24-3.92,2.4-6.17,3.39,1.33.99,2.66,2.06,3.94,3.22Zm-35.9-13.94c2.76,3.7,5.9,6.36,9.39,7.95.5.23,1.01.44,1.52.62.27-.06.54-.11.81-.15.04-.19.08-.39.11-.59.19-1.05.3-2.1.38-3.17-2.95-1.2-5.92-2.31-8.85-3.4-1.11-.42-2.24-.84-3.37-1.26Zm15.85,8.11c1.71.01,3.4.18,5,.45-1.56-.8-3.15-1.54-4.76-2.26-.06.6-.14,1.21-.24,1.81Zm.49-6.06c2.47,1.06,4.92,2.2,7.31,3.46,1.39.73,2.85,1.56,4.34,2.5,2.92-1.04,5.62-2.46,7.92-4,1.75-1.18,3.4-2.48,4.96-3.9-3.7-4.91-8.74-8.72-14.42-10.72-2.84-1-5.82-1.53-8.79-1.62-.52,2-.88,4.04-1.06,6.11-.16,1.87-.18,3.81-.21,5.69,0,.82-.02,1.65-.04,2.48Zm29.69-1.43c.1.16.19.32.29.48.04-.3.07-.6.11-.9-.13.14-.26.28-.39.42Zm-48.05-5.68c2.27.89,4.55,1.74,6.79,2.58,2.51.94,5.06,1.89,7.6,2.9,0-.29,0-.59.01-.89.02-1.95.05-3.97.22-5.99.16-1.88.46-3.75.88-5.59-4.58.52-8.99,2.11-12.72,4.71-1,.7-1.94,1.46-2.78,2.28Zm20.93-11.1c3,.19,5.99.78,8.85,1.78,6.24,2.2,11.8,6.32,15.94,11.64,1.14-1.25,2.2-2.57,3.19-3.94.19-7.38-.61-14.83-2.39-21.94-.72-2.9-1.77-6.13-3.28-9.17-2.21.52-4.41,1.44-6.36,2.59-7.29,4.3-12.93,11.17-15.96,19.04Zm-45.51-3.32c4.33,4.29,10.07,8.03,17.54,11.46-.02-.05-.05-.11-.07-.16-2.79-6.58-3.85-12.87-3.17-18.56-3.97-.07-7.93-.3-11.83-.63-.99,2.57-1.82,5.21-2.46,7.9Zm18.3-7.25c-.73,5.09.22,10.78,2.85,16.98.25.58.5,1.16.76,1.71.97-.92,2.03-1.79,3.17-2.59,4.71-3.28,10.37-5.16,16.18-5.54,2.28-6.65,6.25-12.72,11.43-17.47-10.69,5.03-22.54,6.77-34.38,6.9Zm53.73-11.51c1.32,2.93,2.27,5.92,2.95,8.65,1.33,5.32,2.14,10.82,2.42,16.35,1.31-2.7,2.34-5.53,3.06-8.44.72-2.91,1.95-10.12-2.11-14.08-1.69-1.65-3.92-2.4-6.32-2.48Zm-78.59,9.94c.56,1.11,1.2,2.2,1.92,3.26.46.67.93,1.33,1.44,1.98.45-1.58.96-3.15,1.53-4.7-1.4-.14-2.79-.29-4.17-.45-.24-.03-.47-.06-.71-.08Zm-64.14-5.44l32.98,4.66c8.37,1.19,16.44,1.98,22.99-.93-2.17-.77-4.19-1.88-5.91-3.53-.03-.03-.07-.06-.1-.1-3.91,1.16-8.02,1.49-12.03.85-7.69-1.23-14.42-6.29-18.29-12.81l-13.83-1.63c-1.41-.17-2.92-.34-4.47-.45,1.58,4.27,1.73,9.35-1.05,13.54-.09.14-.19.27-.28.4Zm-36.11-3.16c.59,2.52,1.95,4.82,4.28,5.88,1.67.76,3.67.68,5.63-.24,1.59-.75,2.98-1.95,3.97-3.37-2.19-1-4.27-2.26-6.17-3.86-1.03-.88-2.07-2.1-3.01-3.54-.02.03-.04.05-.06.08-1.33,1.8-2.9,3.52-4.65,5.05Zm117.69,6.05c1.4.06,2.79.1,4.19.11.13-.46.27-.91.43-1.36-1.51.52-3.05.94-4.62,1.25Zm10.12-3.67c-.46.78-.86,1.59-1.21,2.42-.19.44-.36.9-.52,1.35,13.9-.27,27.67-2.9,39.18-10.76,1.51-1.03,3.01-2.18,4.47-3.32-1.56-1.54-3.37-2.82-5.46-3.68-6.9-2.83-15.12-.3-20.7,1.86-1.66.64-3.21,1.34-4.65,2.09-.81,1.2-1.69,2.33-2.66,3.41-2.41,2.67-5.29,4.9-8.45,6.63Zm-37.44-.75c1.12.75,2.37,1.31,3.73,1.73-.11-.44-.2-.89-.29-1.33-.62-.39-1.23-.8-1.82-1.22-.53.29-1.08.56-1.62.82Zm49.78-34.89c-.28.54-.58,1.06-.89,1.58-3.49,5.87-8.16,10.9-12.67,15.76-3.21,3.46-6.53,7.03-9.33,10.83-1.83,2.48-3.47,5.09-4.91,7.82,4.37-.23,8.72-1.38,12.62-3.36,2.57-3.95,6.33-7.34,11.14-10.04,4.15-6.6,5.6-14.94,4.04-22.59Zm-36.29,35.22c1.33.32,2.69.54,4.05.67,1.74-3.54,3.79-6.93,6.13-10.1,2.94-3.98,6.33-7.64,9.62-11.17,4.57-4.93,8.89-9.58,12.17-15.09.97-1.64,1.82-3.42,2.51-5.29-.24-.54-.49-1.08-.77-1.6-1.24-2.38-2.77-4.46-4.51-6.17-6.35,3.11-13.63,3.92-20.12,1.61-1.51-.54-3.05-1.32-4.46-2.32-.68.45-1.33.9-1.93,1.34-3.2,2.37-6.12,5.08-8.71,8.07,4.58,1.37,8.33,5.56,9.5,10.76.33,1.47.46,2.92.43,4.33.72.23,1.39.59,1.99,1.08,2.01,1.65,3.74,5.07.55,12-1.73,3.76-3.71,8.06-6.46,11.87Zm-82.08-1.21c3.15.8,6.36,1.28,9.3,1.7.81-.51,1.49-1.16,1.99-1.91,2.28-3.43,1.69-7.95,0-11.38-2.31.13-4.57.57-6.58,1.58-2.39,1.2-4.33,3.66-4.94,6.27-.24,1.02-.35,2.4.23,3.74Zm-30.81-27.36c-7.56,0-14.77,4.73-16.95,11.24-2.2,6.57,1.55,14.57,7.87,16.79,4.64,1.63,9.67-.08,13.83-3.14-.09-1.14-.07-2.27.05-3.34.49-4.26,2.31-8.25,5.03-11.48-.03-.72-.02-1.42.06-2.1.19-1.79.74-3.35,1.64-4.64-3.41-2.01-7.12-3.18-10.81-3.33-.24,0-.48-.01-.71-.01Zm106.46,26.12c.78.42,1.58.8,2.4,1.14,2.96-3.75,5.05-8.3,6.86-12.23.95-2.07,2.29-5.75.57-7.21-.53,2.38-1.39,4.51-2.24,6.2-1.91,3.82-4.6,7.15-7.79,9.82.03.75.1,1.52.2,2.28Zm-36.48-7.6c3.36,4.24,8.26,7.38,13.72,8.26,2.89.46,5.88.3,8.8-.39-2.03-3.81-2.25-8.24-1.83-12.08-.85-2.13-1.41-4.34-1.65-6.59-.56-5.27.64-10.19,3.37-13.85,2.38-3.19,5.97-5.25,9.63-5.71,3.21-4.11,6.97-7.79,11.19-10.91.41-.3.82-.6,1.23-.88-1.92-2.22-3.15-4.96-3-8.03.12-2.38,1.03-4.47,2.44-6.23-.36-.3-.71-.61-1.05-.92-1.43,6.77-4.51,15.01-11.1,21.34-4.65,4.47-10.93,7.48-17.83,9.05.54.52,1.02,1.11,1.43,1.75,1.43,2.25,1.84,4.89,2.05,6.94.78,7.78-1.62,14.06-6.4,16.81-3.51,2.01-7.67,1.8-11,1.44Zm-53.85-.88c.95,1.83,2.09,3.39,3.2,4.32,1.54,1.3,3.26,2.35,5.1,3.2.77-4.23-.75-9.25-4.24-13.95-.48-.65-.98-1.27-1.5-1.87-.25,3.11-1.36,5.99-2.56,8.3Zm78.87,4.04c.3,1.21.75,2.37,1.4,3.44.42-.17.83-.35,1.24-.55-.95-.91-1.83-1.88-2.64-2.9Zm86.33.06c-.34.27-.68.53-1.03.8.43-.15.86-.28,1.3-.41-.09-.13-.18-.26-.27-.39Zm-86.55-7.96c1.46,3.26,3.71,6.26,6.51,8.74.33-.22.66-.45.99-.69.17-5.06,1.67-9.86,4.52-13.75,1.55-2.11,3.8-3.74,6.01-4.41.03-1.14-.06-2.32-.33-3.5-.9-4.01-3.96-7.29-7.43-7.98-.32-.06-.64-.11-.97-.13-3.87,5.32-6.78,11.34-8.5,17.74-.27.99-.59,2.38-.81,3.97Zm-83.87,1.79c-.97,1.72-1.66,3.6-2,5.54.56-.63,1.08-1.27,1.56-1.92.34-.46.74-1.03,1.16-1.71-.26-.62-.5-1.26-.72-1.91Zm10.94-8.69c.54.63,1.06,1.28,1.56,1.95,2.45,3.3,4.07,6.78,4.79,10.18,1.32-2.22,3.26-4.08,5.53-5.22,1.84-.93,3.78-1.47,5.74-1.77-4.32-4.57-11.24-6.73-17.35-5.2-.09.02-.18.05-.27.07Zm90.14,1.64c-.73.52-1.41,1.19-1.95,1.93-1.57,2.13-2.64,4.61-3.23,7.26,1.45-1.65,2.7-3.49,3.69-5.47.53-1.07,1.07-2.33,1.5-3.72Zm-44.71,5.66l1.93.23c3.82.45,7.19.7,9.8-.79,5-2.87,4.64-10.63,4.41-12.94-.17-1.71-.48-3.67-1.45-5.2-.95-1.5-2.61-2.49-4.48-2.87-1.46.14-2.93.22-4.41.25-.52.17-1.02.38-1.5.65-3.34,1.86-5.7,5.93-6.17,10.62-.34,3.44.37,6.9,1.87,10.06Zm-22.9-2.45c2.47.05,4.87.33,7.06.59l11.33,1.33c-1.17-3.18-1.67-6.56-1.34-9.92.45-4.45,2.22-8.4,4.93-11.18-2.14-.23-4.27-.59-6.35-1.07-10.91,8.41-28.63,6.66-36.98,5.21-6.51-1.13-11.16-3.06-14.64-6.08-.64-.56-1.24-1.15-1.79-1.77-1.38,2.56-2.96,5.03-4.94,7.23,4.51.32,9.01,1.92,13.07,4.55l1.62-.87.92,1.85c.22.44.41.88.58,1.33.3.25.6.51.9.78.79-.3,1.6-.56,2.42-.77,8.62-2.15,18.15,1.45,23.19,8.75,0,.02.02.03.03.05Zm-30.36-.23c.03.2.07.4.11.6.09-.32.18-.64.26-.96-.12.12-.25.24-.37.36Zm84.1-17.66c-.94.65-1.8,1.47-2.51,2.42-1.71,2.29-2.65,5.37-2.71,8.7,1.34-3.89,3.1-7.62,5.22-11.12Zm-110.53-17.95c.83,5.77,3.49,11.55,6.14,16.81.9,1.78,1.79,2.78,2.47,2.72.48-.04,1.11-.61,1.54-1.04,2.63-2.59,4.52-5.74,6.23-9.15-2.02-3.46-3.18-7.41-3.9-11.3-4.1.91-8.27,1.53-12.48,1.97Zm20.96,9.05c.71.96,1.53,1.85,2.45,2.65,2.91,2.52,6.95,4.16,12.71,5.16,5.56.97,20.81,2.88,31.14-2.76-5.16-1.81-9.87-4.46-13.67-7.96-6.71-6.18-9.84-14.56-11.24-22.02-1.03.5-2.03,1.02-3.01,1.58-.72.59-1.46,1.15-2.23,1.7-1.28.93-2.59,1.79-3.91,2.59-1.9,1.63-3.62,3.46-5.12,5.53-2.37,3.26-4.15,7.12-5.87,10.85-.41.89-.83,1.79-1.25,2.68Zm54.88,3.27c2.83.51,5.72.77,8.61.79,1.97-.6,4.06-.7,6.02-.34,8.09-.96,15.66-3.96,20.92-9.01,6.19-5.95,8.94-13.91,10.15-20.24-1.88,2.17-3.94,4.15-6.14,5.89-.27.21-.54.42-.82.63-2.32,4.54-5.22,8.93-9.06,12.5-7.38,6.87-17.29,9.31-25.25,6.22-.54-.21-1.08-.45-1.6-.7-.81,1.59-1.76,3-2.82,4.26Zm-29.73-29.85c1.19,7.01,3.98,15,10.19,20.72,4.07,3.75,9.29,6.44,14.96,8.07,1.6-1.46,2.96-3.22,4-5.33-3.74-2.88-6.72-7.11-8.5-12.21-.75-2.16-1.26-4.36-1.59-6.54-1.44-1.36-2.83-2.76-4.21-4.15-1.34-1.35-2.66-2.68-4-3.95-3.75.92-7.41,2.02-10.86,3.39Zm111.97,19.42c1.18,1.26,2.26,2.66,3.23,4.19.41-2.34.54-4.71.34-6.99-1.12,1.02-2.32,1.96-3.57,2.8Zm-77.88,2.46c.5.26,1,.49,1.51.69,7.44,2.88,15.95-.65,21.08-5.42,1.72-1.6,3.23-3.38,4.58-5.28-8.23,3.82-17.47,4.77-25.71,2.65-.21,2.6-.69,5.05-1.46,7.37Zm-63.84-7.27c.47,2.67,1.15,5.29,2.18,7.7.01-.03.03-.06.04-.09,1.57-3.39,3.18-6.89,5.28-10.09-2.46.97-4.96,1.79-7.5,2.48Zm117.55,3.92c.6.31,1.22.58,1.83.79,4.79,1.7,10.21,1.31,15.17-.67-1.9-1.16-3.94-1.92-6.01-2.22-3.83-.54-7.65.5-10.99,2.1Zm-63.67-9.51c.1.31.2.62.3.92,1.33,3.84,3.52,7.16,6.21,9.55.54-1.96.87-4.04.98-6.24-1.5-.59-2.95-1.3-4.34-2.12-1.09-.65-2.14-1.35-3.16-2.11Zm77.69,3.98c2.48.71,4.87,1.94,7.04,3.6,2.1-1.29,4.03-2.87,5.71-4.71-.36-1.07-.82-2.09-1.38-3.06-3.03,2.57-7.04,4-11.37,4.16Zm-18.49-6.73c-.91,1.15-1.5,2.47-1.57,3.93-.11,2.16.89,4.11,2.42,5.69,3.84-2.14,7.57-3.33,11.17-3.56-.78-.19-1.55-.42-2.32-.69-3.55-1.24-6.76-3.17-9.69-5.37Zm-118.34-10.62c-5.43,3.45-8.93,7.58-10.46,12.36-.58,1.81-.86,3.66-.9,5.52,4.11-.44,8.17-1.05,12.15-1.95-.12-.97-.21-1.93-.29-2.86-.42-4.78-.59-9.1-.5-13.08Zm70.67,14.76c9.54,2.79,20.8.81,29.7-5.51,1.25-2.54,2.34-5.17,3.34-7.78-.16.1-.31.19-.47.29-10.22,6.19-22.31,8.27-33.29,6.23.42,2.34.65,4.6.72,6.77Zm-66.57-17.05c-.24,4.46-.11,9.4.39,15.02.07.74.14,1.48.22,2.23,5.23-1.46,10.28-3.49,15.04-6.33,1.95-1.65,4.04-3.1,6.27-4.38,1.59-1.32,3.08-2.72,4.43-4.2-.03-.32-.05-.64-.08-.95-.17-2.32-.22-4.63-.16-6.92-5.6-.87-12.19.11-19.98,2.93-2.21.8-4.26,1.67-6.14,2.6Zm117.36,10.24c2.45,1.76,5.06,3.26,7.91,4.26,5.05,1.77,11.95,1.73,16.4-2.19-.12-.12-.24-.23-.36-.34-4.36-4-11.21-5.48-18.34-3.95-1.91.41-3.89,1.17-5.6,2.22Zm-63.59-.84c2.04,1.85,4.18,3.56,6.48,4.92.73.43,1.48.83,2.24,1.19-.15-2-.45-4.08-.91-6.25-2.82-.82-5.53-1.94-8.09-3.34.05,1.14.13,2.31.27,3.48Zm93.14,2.98c.53.78,1,1.59,1.41,2.43.56-.9,1.06-1.85,1.49-2.82,4.66-10.51,2.52-23.99-5.45-34.35-3.5-4.56-7.24-7.24-11.1-7.96-2.66-.5-5.6-.1-8.77,1.18-.22.67-.45,1.33-.68,1.98,1.18.37,2.36.78,3.53,1.23,9.75,3.79,17.05,10.23,20.57,18.13,2.65,5.96,3.17,14.12-.99,20.18Zm-18.5-8.95c6.06,0,11.63,1.95,15.6,5.59.06.05.11.11.17.16,2.62-4.71,2.03-10.93.06-15.35-3.08-6.93-9.6-12.63-18.36-16.03-1.17-.46-2.36-.86-3.55-1.23-1.31,3.04-2.82,5.94-4.51,8.68-1.48,5.72-3.71,11.04-6.6,15.76-.09,1.26-.21,2.52-.36,3.77,1.04.97,2.1,1.93,3.19,2.85,2.36-1.72,5.24-2.92,8.07-3.53,2.12-.46,4.23-.68,6.29-.68Zm-63.48,2.58c10.46,2.41,22.24.61,32.15-5.39,1.12-.67,2.2-1.4,3.26-2.16-.88-1.81-1.38-3.76-1.29-5.88.13-3.04,1.55-5.74,3.04-7.92-8.85,7.29-20,11.76-31.54,12.27-6.23.27-11.91-.77-16.53-2.96-.12.97-.22,1.93-.29,2.86,2.32-.23,4.73-.08,6.79,1.32,2.47,1.67,3.52,4.53,4.21,7.11.07.25.13.49.19.74Zm-18.48-3.81c.73.73,1.46,1.46,2.18,2.19.28.28.56.57.84.85-.02-.64-.03-1.27-.02-1.89-.62-.45-1.22-.91-1.81-1.4-.4.08-.8.16-1.2.25Zm57.52,1.39c-.12.31-.24.63-.35.93-.05.14-.11.28-.16.42.28-.33.56-.66.83-1-.11-.12-.21-.23-.32-.35Zm-50.48-2.33c2.16,1.38,4.47,2.51,6.89,3.39-.47-1.34-1.1-2.52-2.09-3.19-1.23-.83-2.97-.83-4.79-.58,0,.12,0,.25-.01.38Zm-18.71-3.58c-.88,1.49-1.87,2.95-2.95,4.36,2.07-.73,4.18-1.38,6.34-1.97-1.09-.87-2.21-1.67-3.38-2.39Zm70.88,1.71c.33.43.68.85,1.05,1.27.2-.3.4-.6.59-.91.04-.62.06-1.24.08-1.87-.57.51-1.14,1.02-1.72,1.51Zm-69.01-5.25c2.26,1.36,4.33,2.99,6.29,4.74.38-.09.76-.17,1.14-.26-2.3-2.44-4.3-5.17-5.96-8.11-.42,1.23-.92,2.44-1.47,3.63Zm3.01-9.76c2.15,5.08,5.25,9.65,9.16,13.27.29-.05.58-.11.86-.16.13-1.83.33-3.75.62-5.7-1.63-1.17-3.07-2.51-4.27-4.04-4.01-5.08-5.54-12.2-4.47-20.25-1.19-.66-2.37-1.38-3.51-2.17-.63,1.12-1.23,2.27-1.79,3.44,0,.06,0,.12,0,.18.81.94,1.52,2,2.08,3.17,1.61,3.33,2.05,7.42,1.33,12.15,0,.04-.01.07-.02.11Zm-9.55,11.07c0,.71,0,1.42,0,2.14.38-.57.75-1.14,1.1-1.72-.24-.1-.47-.19-.71-.28-.13-.05-.26-.09-.39-.14Zm-7.54-28.31c-2.26,0-4.51.45-6.46,1.32-8.29,3.7-12.13,12.52-13.67,17.45-.93,2.98-1.61,6.1-2.02,9.49,1.39-.61,2.84-1.2,4.37-1.75,8.27-3,15.38-4.06,21.57-3.19.61-7.19,2.32-14.16,5.04-20.61-2.47-1.83-5.66-2.7-8.82-2.7Zm82,21.09c-.81,1.4-1.45,2.95-1.52,4.53-.01.33,0,.65.03.98.56-1.88,1.06-3.71,1.49-5.5Zm-49.9,1.61c5.71,3.09,12.47,3.25,15.71,3.1,13.67-.6,26.75-7.21,35.51-17.63-.11-.51-.24-.99-.39-1.45-6.32-.33-12.76-.11-19.09.11-7.5.26-16.09.56-24.67-.49-3.82,4.49-5.94,10.47-7.07,16.36Zm-24.38,1.47c.54.16,1.06.33,1.58.53.41.15.81.31,1.21.48,1.09-2.38,1.9-4.83,2.4-7.31-1.05-2.63-1.85-5.37-2.41-8.17-1.46,4.64-2.4,9.5-2.78,14.47Zm80.3-10.59c.22,2.4.42,4.79.57,7.16,1.04-1.35,2.02-2.76,2.94-4.22.58-2.36,1.03-4.8,1.34-7.29-1.71,1.35-3.33,2.8-4.85,4.35Zm-65.21-11.36c-.5,5.15.04,11.19,3.78,15.92.6.76,1.26,1.46,1.96,2.08,1.15-5.13,3.05-10.26,6.11-14.56-4.03-.74-8.02-1.84-11.84-3.44Zm68.66,1.3c.61.09,1.21.18,1.81.29.03-1.28.02-2.54-.04-3.76-.54,1.2-1.13,2.36-1.77,3.48Zm-48.34-.8c7.14.58,14.23.34,20.52.12,5.24-.18,10.54-.37,15.82-.25-1.83-1-4.17-1.52-6.61-1.99-10.31-1.98-20.22-3.38-28.11,1.1-.56.32-1.1.66-1.61,1.02Zm-19.69-4.6c.27.12.54.24.82.36,4.27,1.8,8.81,2.93,13.41,3.61,1.49-1.48,3.18-2.79,5.1-3.87,9.07-5.15,19.76-3.68,30.83-1.55,3.02.58,7.44,1.43,10.41,4.33-.21-3.03-.69-5.93-1.44-8.73-2.22-8.34-7.92-16.52-15.48-21.14-.59-.08-1.18-.16-1.78-.22-11.77-1.18-24.04,2.38-34.06,9.54-2.99,4.14-5.19,8.73-6.58,12.98-.38,1.18-.85,2.8-1.24,4.69Zm72.68-6.58c.8,3.36,1.14,6.75,1.19,9.94.45-.24.9-.47,1.35-.69.55-1.84,1.03-3.72,1.42-5.63,2.01-9.65,1.54-18.02-1.38-24.88-6.83-16.02-26.15-22.51-41.16-25.14-14.17-2.48-24.48-2.18-33.42.96-9.33,3.28-19.27,11.71-20.41,23.13-.75,7.42,2.43,14.39,7.38,19.87.13-.51.27-1.01.42-1.52,5.04-16.86,20.14-31.13,38.47-36.37,14.47-4.13,28.42-1.86,37.32,6.08,9.53,8.51,11.64,22.07,8.82,34.24Zm-19.62-17.84c4.76,4.97,8.26,11.21,9.95,17.54.9,3.4,1.41,6.83,1.6,10.22,1.7-3,3.04-6.32,3.95-9.77-1.12-4.22-2.95-7.89-5.44-10.81-2.58-3.02-6-5.45-10.04-7.18Zm-58.95,21.07c.72.5,1.46.98,2.2,1.42.31-1.32.68-2.65,1.12-4,.38-1.15.81-2.32,1.29-3.51-1.67,1.92-3.22,3.95-4.62,6.09Zm46.4-41.58c-4.12,0-8.46.62-12.87,1.88-17.05,4.87-31.08,18.09-35.74,33.67-.34,1.13-.62,2.27-.86,3.42,1.43-2.14,2.99-4.18,4.68-6.11,2.79-3.19,5.91-6.03,9.28-8.49,5.4-7.24,13.06-13.15,22.83-14.13,6.19-.62,12.01.92,17.11,3.85,8.84,1.4,16.3,5.26,21.2,11.01,1.47,1.72,2.68,3.56,3.67,5.46.51-8.79-1.99-17.55-8.62-23.46-5.23-4.67-12.52-7.1-20.69-7.1Zm-11,14.12c-.42.02-.85.05-1.28.09-2.76.28-5.33,1.02-7.71,2.11,2.94-.99,5.95-1.73,8.98-2.2Z"></path>
  <polygon fill="#e8b896" points="399.52 488.11 399.52 514.26 373.07 514.26 373.07 540.72 346.92 540.72 346.92 514.26 320.48 514.26 320.48 488.11 346.92 488.11 346.92 461.67 373.07 461.67 373.07 488.11 399.52 488.11"></polygon>
  <polygon fill="#f8c8a8" points="856.81 548.87 856.81 566.69 838.79 566.69 838.79 584.72 820.97 584.72 820.97 566.69 802.95 566.69 802.95 548.87 820.97 548.87 820.97 530.86 838.79 530.86 838.79 548.87 856.81 548.87"></polygon>
  <polygon fill="#f8c8a8" points="447.61 408.6 447.61 421.36 434.71 421.36 434.71 434.26 421.96 434.26 421.96 421.36 409.06 421.36 409.06 408.6 421.96 408.6 421.96 395.7 434.71 395.7 434.71 408.6 447.61 408.6"></polygon>
  <polygon fill="#f8c8a8" points="210.28 619.35 210.28 632.1 197.38 632.1 197.38 645 184.63 645 184.63 632.1 171.73 632.1 171.73 619.35 184.63 619.35 184.63 606.45 197.38 606.45 197.38 619.35 210.28 619.35"></polygon>
</svg>