<?xml version="1.0" encoding="UTF-8"?>
<svg id="Layer_1" data-name="Layer 1" xmlns="http://www.w3.org/2000/svg" width="1496.57" height="1352.45" viewBox="0 0 1496.57 1352.45">
  <defs>
    
  </defs>
  <g id="Generative_Object" data-name="Generative Object">
    <g id="petal-shadow">
      <path class="cls-30" d="M716.45,872.56c.08.04,1.24,1.28,1.32,1.32-4.51,3.01-6.79,10.63-9.91,15.53-4.43,6.94-19.07,27.96-28.08,25.44-9.53-2.66-24.48-32.63-28.75-41.3-.65-1.32-.95-1.97-2.64-1.65,1.34-.72,3.21-1.87,3.96-3.3,2.72,4.96,23.24,31.01,27.42,31.72,3.07.52,11.37-10.19,13.55-12.56,4.36-4.74,7.87-9.59,11.89-14.54,1.07-1.31,1.84-3.17,1.98-3.3.67-.66,1.77-1.11,2.31-1.98,1.89,2.18,4.46,3.32,6.94,4.63Z"></path>
      <path class="cls-45" d="M844.65,811.77l2.31,13.22-47.91,2.64c2.1-3.2,3.84-6.34,5.29-9.91,5.75.86,12.02-.42,17.84-1.32,4.52-.7,19.06-2.94,22.47-4.63Z"></path>
      <path class="cls-1" d="M647.73,858.02c.11.35-.11,1,0,1.32.86,2.46,3.28,6.79,4.63,9.25-.75,1.44-2.63,2.59-3.96,3.3-2.82,1.51-6.28,2.72-9.25,3.96-5.68,2.38-11.24,4.28-17.18,5.95-.2.06-.46-.06-.66,0-2.86-4.5-8.94-6.9-13.22-9.91,3.47-.35,7.09-1.4,10.57-1.98,2.54-.43,5.71-.18,7.93-1.98,4.69-1.24,10.25-3.66,14.54-5.95,2.22-1.18,4.34-2.85,6.61-3.96Z"></path>
      <path class="cls-9" d="M850.6,661.76c.23.76,1.35,2.21,1.32,2.64,0,.07-1.23-.23-1.32.33-2.15,13.75-9.87,27.4-16.52,39.32-1.54-1.07-3.66-2.32-5.29-3.3,2.8-3.7,1.64-9.83,2.64-13.22.24-.8.4-1.86.66-2.64,2.71-8.19,8.14-14.27,10.57-25.11,1.93.71,6.21,4.62,7.93,1.98Z"></path>
      <path class="cls-13" d="M522.83,744.36c5.77,4.84,11.33,10.83,18.5,13.88l-8.59,10.57c-.24.02-.55-.07-.66,0-4.14-3.67-24.66-23.73-23.79-28.08.06-.31,4.32-4.23,4.63-4.3,1.38-.28,8.31,6.59,9.91,7.93Z"></path>
      <path class="cls-29" d="M774.61,867.28c-.45,3.18-1.61,20.22-3.63,21.15-9.59-.51-18.87-2.24-28.08-4.63l2.64-10.57c1.21.25,2.71.45,3.96.66,5.78.97,11.97,1.17,17.84,1.32l1.98-.33c-.76-2.94,1.3-5.16,1.98-7.6h3.3Z"></path>
      <path class="cls-26" d="M551.91,816.39c3.08.36,6.12.96,9.25.66.87,2.78,2.19,5.87,3.3,8.59-14.57-1.57-29.64-1.8-43.61-6.28-.08-.17.53-3.16.66-3.63.32-1.16,3.04-4.74,3.96-5.95,8.48,3.46,17.31,5.55,26.43,6.61Z"></path>
      <path class="cls-1" d="M736.28,870.58c2.79.91,6.43,2.05,9.25,2.64l-2.64,10.57c-9.51-2.46-16.36-5.35-25.11-9.91-.08-.04-1.24-1.28-1.32-1.32l5.29-8.59c4.37,2.54,9.73,5.04,14.54,6.61Z"></path>
      <path class="cls-29" d="M594.86,871.24c1.87,2.75,8.08.94,11.23.66.65-.06,1.34.07,1.98,0,4.28,3.01,10.36,5.41,13.22,9.91-8,2.18-15.89,4.1-24.12,5.29-2.74-7.79-4.97-16.1-4.96-23.79h.66c.1,1.12,1.61,7.38,1.98,7.93Z"></path>
      <path class="cls-28" d="M591.56,859.35c.09,1.29.1,2.2-.66,3.3-12.21-4.5-7.66-4.91-13.22-13.22l13.88,9.91Z"></path>
    </g>
    <g id="lilypad">
      <path class="cls-9" d="M591.56,859.34l-13.87-9.91c-6.31-9.42-8.82-13.02-13.22-23.79,7.34,8.85,14.81,17.55,25.11,23.13.39,3.46,1.75,7.14,1.98,10.57Z"></path>
      <path class="cls-45" d="M777.91,848.11c-3.22,4.14-2.56,13.89-3.3,19.16h-3.3c.74-2.67,1.48-7.63,1.98-10.57.36-2.15.73-4.41.66-6.61,1.04-.48,2.42-2.17,3.96-1.98Z"></path>
      <path class="cls-11" d="M721.74,863.97l-5.29,8.59c-2.48-1.3-5.05-2.44-6.94-4.63-.54.87-1.64,1.33-2.31,1.98,2.43-3.5,4.95-7.28,6.61-11.23,2.67,1.49,5.35,3.79,7.93,5.29Z"></path>
      <path class="cls-45" d="M828.79,700.75c-1.63-.98-3.64-2.52-5.29-3.3l7.93-9.91c-1.01,3.38.16,9.51-2.64,13.22Z"></path>
      <g id="petal-bot">
        <g id="petal-bot-3">
          <path class="cls-20" d="M760.73,865.63c-4.76,1.58-9.07.93-13.88.33-8.63-1.09-16.66-4.9-24.12-9.26-2.03-1.19-3.59-5.28-7.59-3.3.45-1.71,1.8-3.03.66-4.63,12.18,6.43,25.36,8.29,38.98,6.61l5.95,10.25Z"></path>
          <path class="cls-4" d="M773.95,850.09c.07,2.2-.3,4.46-.66,6.61-1.25-1.33-1.82,1-1.98,1.65-1.16,4.5-.86,10-4.96,12.89-5.23-4.73-7.28-2.46-13.22-.66-1.38.42-3.53-2.1-2.31,1.98-1.11.14-1.51-.21-1.32,1.32-1.26-.21-2.76-.41-3.96-.66-2.83-.6-6.47-1.73-9.25-2.64,1.75-3.69,8.58.18,10.57-4.63,4.81.6,9.12,1.25,13.88-.33l-5.95-10.24c.22-.03.45.03.66,0l5.62,7.27c2.16-2.37,1.61-5.64,1.65-8.59,2.94-.73,8.48-2.68,11.23-3.96Z"></path>
          <path class="cls-21" d="M773.28,856.7c-.5,2.94-1.24,7.9-1.98,10.57-.68,2.44-2.74,4.66-1.98,7.6l-1.98.33c4.39-4.54-14.6-2.89-16.52-2.64-1.22-4.08.93-1.57,2.31-1.98,5.94-1.8,7.99-4.07,13.22.66,4.1-2.89,3.8-8.38,4.96-12.89.17-.65.73-2.98,1.98-1.65Z"></path>
          <path class="cls-15" d="M746.85,865.96c-1.99,4.8-8.82.93-10.57,4.62-4.81-1.57-10.16-4.07-14.54-6.61-2.58-1.5-5.26-3.8-7.93-5.28.12-.29-.12-1.01,0-1.33.56-1.48.91-2.4,1.33-3.96,4-1.98,5.56,2.11,7.59,3.3,7.46,4.36,15.49,8.17,24.12,9.26Z"></path>
          <path class="cls-21" d="M767.34,875.21c-5.87-.15-12.06-.35-17.84-1.32-.19-1.53.21-1.18,1.32-1.32,1.92-.25,20.91-1.89,16.52,2.64Z"></path>
          <path class="cls-20" d="M762.71,854.06c-.04,2.95.5,6.22-1.65,8.59l-5.62-7.27c2.37-.33,4.95-.74,7.27-1.32Z"></path>
        </g>
        <g id="petal-bot-2">
          <path class="cls-39" d="M715.14,853.4c-.42,1.56-.77,2.48-1.33,3.96-6.81-.78-4.49-5.48-9.25,1.99-1.44,2.27-2.81,4.55-4.16,6.85-.95,1.74-1.99,3.53-3.09,5.28-.02.04-.05.08-.08.13-1.94,3.35-3.96,6.75-6.21,10.21-1.41,2.15-.85,1.22.99,1.32-1.46,1.02-9.88,9.67-10.91,9.25-.24-.1-.37-2.33-1.98-3.31-.55-.33-2.94.21-3.96-.66-.54-.45-.22-1.99-1-2.64l5.29,1.65c.07-3.63-.1-7.28,0-10.9.36-13.41-.27-26.9,0-40.31-.26-1.33.74-2.96-1.32-2.64h0c.1-.12.6-1.84,1.32-2.65,1.4-1.58,2.69-3.23,4.3-4.62l21.8,25.77,1.66-9.25c.32.25.65.51.99.77,2.03,1.6,4.33,3.3,6.55,4.58.35.21.7.41,1.05.59,1.14,1.6-.21,2.92-.66,4.63Z"></path>
          <path class="cls-40" d="M707.21,842.83l-1.66,9.25-21.8-25.77c-1.61,1.39-2.9,3.04-4.3,4.62l.66-20.48h0c1.29-4.63,1.31-9.47,3.31-13.88,2.15,16.13,7.38,30.39,18.6,41.63.8.81,1.64,1.59,2.5,2.36.87.78,1.76,1.53,2.69,2.27Z"></path>
          <path class="cls-39" d="M693.33,887.76c-2.18,2.37-10.48,13.08-13.55,12.56-4.18-.72-24.7-26.76-27.42-31.72-1.35-2.46-3.77-6.79-4.63-9.25,1.26-1.58,2.92-2.35,4.63-3.31,1.63,2.56,3.31,5.52,4.62,8.26,3.5,7.33,4.68,9.62,11.24,16.19,1.58,1.59,4.17,3.8,5.94,5.29.78.65.46,2.19,1,2.64,1.02.87,3.41.33,3.96.66,1.61.98,1.74,3.21,1.98,3.31,1.03.42,9.45-8.23,10.91-9.25,1.25-.89,2.58-3.06,3.96-.99-.56.08-4.85,4.92-2.64,5.61Z"></path>
          <path class="cls-12" d="M713.81,858.69c-1.65,3.95-4.17,7.73-6.6,11.23-.5.71-2.35,1.68-1.99,3.3-4.02,4.95-7.54,9.81-11.89,14.54-2.21-.69,2.08-5.53,2.64-5.61-1.38-2.07-2.71.1-3.96.99-1.84-.1-2.4.83-.99-1.32,2.25-3.46,4.27-6.86,6.21-10.21.03-.05.06-.09.08-.13,1.1-1.75,2.14-3.54,3.09-5.28,1.35-2.3,2.72-4.58,4.16-6.85,4.76-7.47,2.44-2.77,9.25-1.99-.12.32.12,1.04,0,1.33Z"></path>
          <path class="cls-32" d="M705.22,873.22c-.36-1.62,1.49-2.59,1.98-3.3-.14.13-.91,1.99-1.98,3.3Z"></path>
          <path class="cls-40" d="M654.34,854.72c-.79,1.32-1.34.96-1.98,1.32-1.71.96-3.37,1.73-4.63,3.31-.11-.32.11-.97,0-1.32-.71-2.41-1.69-4.65-1.32-7.27.79-.36,1.64-.83,2.49-1.35,1.41-.86,2.84-1.85,4.12-2.62.91,2.29.81,4.85,1.32,7.27.04.21-.05.45,0,.66Z"></path>
          <path class="cls-10" d="M679.45,887.43l-5.29-1.65c-1.77-1.49-4.36-3.7-5.94-5.29-6.56-6.57-7.74-8.86-11.24-16.19-1.31-2.74-2.99-5.7-4.62-8.26.64-.36,1.19,0,1.98-1.32-.05-.21.04-.45,0-.66,2.8-1.75,5.49-3.64,8.08-5.65,2.07-1.61,4.07-3.3,6.02-5.06.49-.44.97-.89,1.45-1.33.95-.89,1.9-1.8,2.83-2.73,1.85-1.85,3.65-3.76,5.41-5.71,2.06-.32,1.06,1.31,1.32,2.64-.27,13.41.36,26.9,0,40.31-.1,3.62.07,7.27,0,10.9Z"></path>
          <path class="cls-35" d="M680.11,810.45l-.66,20.48c-.72.81-1.22,2.53-1.32,2.64h0c-1.76,1.96-3.56,3.87-5.41,5.72-.93.92-1.88,1.83-2.83,2.73-.48.44-.96.89-1.45,1.33-1.95,1.75-3.95,3.44-6.02,5.06-2.59,2.01-5.28,3.9-8.08,5.65-.51-2.42-.41-4.98-1.32-7.27,4.6-2.81,7.49-5.46,11.23-9.25,7.83-7.93,10.97-13.23,14.54-23.79.37-1.1.98-2.07,1.32-3.3Z"></path>
        </g>
        <g id="petal-bot-1">
          <path class="cls-4" d="M592.88,863.31h-.66c-.53-.05-.75-.45-1.32-.66.77-1.1.75-2.02.66-3.31-.23-3.43-1.59-7.11-1.98-10.57.68.37,2.31.85,3.3,1.32,1.03.49,2.72,1.76,3.31,1.98l2.64,9.92c-2.46-.39-3.84-1.28-6.28-1.32-1.07,1.04.27,1.97.33,2.64Z"></path>
          <path class="cls-21" d="M641.12,861.99c-4.29,2.29-9.85,4.71-14.54,5.95-2.34.62-5.76.45-7.93,1.98-3.48.58-7.11,1.63-10.57,1.98-.65.07-1.33-.06-1.98,0-.07-3.69-3.79-3.26-5.95-5.29.09-.06-.23-1.35.99-1.98.64-.34,3.09.32,3.96,0,.77-.28-.71-1.21-.33-1.32,8.82-2.62,20.47-.91,28.42-7.27.11.12,1.04-.28,1.32.33l-4.3,3.63c5.17-4.42,6.26,2.09,11.23-1.98l-.33,3.96Z"></path>
          <path class="cls-4" d="M646.41,850.76c-.37,2.63.61,4.86,1.32,7.27-2.26,1.12-4.39,2.78-6.61,3.96l.33-3.96c-4.97,4.07-6.06-2.43-11.23,1.98l4.3-3.63c-.28-.61-1.21-.21-1.32-.33-.09-.1.05-.9,0-1.32,3.84-.72,9.7-2.39,13.22-3.96Z"></path>
          <path class="cls-2" d="M626.58,867.94c-2.22,1.8-5.39,1.56-7.93,1.98,2.17-1.53,5.59-1.37,7.93-1.98Z"></path>
          <path class="cls-21" d="M606.76,855.38l-4.96,7.27,2.97.66c-.38.11,1.1,1.05.33,1.32-.88.32-3.32-.34-3.96,0-1.22.63-.9,1.92-.99,1.98-1.73,1.15-3.81,1.23-5.29,4.63-.38-.55-1.88-6.81-1.98-7.93-.06-.67-1.4-1.6-.33-2.64,2.43.04,3.82.93,6.28,1.32,1.02.16,6.3-6.23,7.27-7.27,2.72.26,1.41.78.66.66Z"></path>
          <path class="cls-22" d="M600.15,866.62c2.16,2.03,5.87,1.59,5.95,5.29-3.16.28-9.36,2.09-11.23-.66,1.47-3.4,3.56-3.48,5.29-4.63Z"></path>
          <path class="cls-15" d="M606.1,854.72c5.8,1.51-3.9,7.65-4.3,7.93-1.56,1.11-1.96-.5-2.97-.66l-2.64-9.91c2.47.96,7.22,2.12,9.91,2.64Z"></path>
          <path class="cls-15" d="M633.19,856.04c-7.94,6.35-17.58,5.81-26.44,7.41h-2.33c-.47,0-.95-.03-1.41-.1l-2.52-.36s1.73-2.96,7-7.55c.16-.14-2.93-1.05-.02-.81,8.11.66,23.6.48,25.73.08.05.42-.09,1.22,0,1.32Z"></path>
        </g>
      </g>
      <g id="petal-right">
        <g id="petal-right-2">
          <path class="cls-39" d="M859.19,728.83c-2.37,1.58-3.66,4.37-5.28,6.28-5.35,6.3-23.12,21.02-30.4,24.45-.15.07-1.4-.75-3.3,0-4.54-3.15,7.68-4.93,6.27-9.25-3.7,1.81-12.42,5.85-16.19,5.95-.91.02-2.66.19-2.31-1.32,7.91-.61,17.28-4.16,23.79-8.59,3.15-2.15,15.6-13.57,14.87-17.18-.12-.57,1.16-1.08.33-1.33-15.97,1.09-31.9,1.29-47.91,1.33-4.28,0-8.61-.15-12.89,0-1.2.04-3.26-.67-2.97,1.32-1.04-.56-4.34-1.98-4.63-1.99,10.35-6.89,21.16-13.83,28.75-23.79l-2.31-1.32c.25,0-.18-1,3.96-.66,3.75.32,5.87,1.27,9.25,1.98,2.14.46,4.55.86,6.61,1.33,3.61.81,5.82,4.49,6.61,0,9.56,5.18,15.74,11.67,24.45,17.84.99,1.32,3.61,3.31,3.3,4.95Z"></path>
          <path class="cls-19" d="M855.89,723.88c-8.71-6.17-14.89-12.66-24.45-17.84-5.66-3.08-12.94-4.85-17.18-8.59.68-.8,1.42-1.75,1.98-2.65,2.48.75,4.95,1.54,7.27,2.65,1.64.78,3.66,2.32,5.29,3.3,1.63.98,3.75,2.24,5.28,3.3,6.2,4.31,17.36,13.86,21.81,19.83Z"></path>
          <path class="cls-10" d="M846.64,729.17c.73,3.61-11.72,15.03-14.87,17.18-6.51,4.43-15.88,7.98-23.79,8.59-.35,1.51,1.4,1.34,2.31,1.32-1.86,2.45,1.46,4.48,2.65,6.61-3.2.88-6.59,1.36-9.92,1.32-1.15-2.45-3.09-5.67-4.62-7.93h7.6c2.49-1.06-6.51-10.97-8.26-12.89-2.81-3.06-11.21-11.12-14.54-12.88-.29-1.99,1.77-1.28,2.97-1.32,4.28-.15,8.61,0,12.89,0,16.01-.04,31.94-.24,47.91-1.33.83.25-.45.76-.33,1.33Z"></path>
          <path class="cls-35" d="M807.32,704.71c-7.59,9.96-18.4,16.9-28.75,23.79-3.32-.12-6.53,2.76-8.59,5.29l-18.5-4.62c5.96-.63,12.91-1.92,18.5-3.97,11.34-4.16,22.34-13.1,29.08-23.13-.41,2.01,4.17,1.43,5.95,1.32l2.31,1.32Z"></path>
          <path class="cls-36" d="M806,756.26h-7.6c-1.5-2.2-2.23-2.67-4.63-5.29-7.07-7.74-13.99-13.1-23.79-17.18,2.06-2.53,5.27-5.41,8.59-5.29.29.01,3.59,1.43,4.63,1.99,3.33,1.76,11.73,9.82,14.54,12.88,1.75,1.92,10.75,11.83,8.26,12.89Z"></path>
          <path class="cls-39" d="M820.21,759.56c-2.29.9-4.67,2.59-7.27,3.31-1.19-2.13-4.51-4.16-2.65-6.61,3.77-.1,12.49-4.14,16.19-5.95,1.41,4.32-10.81,6.1-6.27,9.25Z"></path>
          <path class="cls-40" d="M818.22,704.71c-3.38-.71-5.5-1.66-9.25-1.98-4.14-.34-3.71.65-3.96.66-1.78.11-6.36.69-5.95-1.32,1.9-2.82,4.69-7.47,5.95-10.57-.25,1.13.04.9.66,1.32l-2.65,4.96,9.26,1.65c-.62,1.2-1.99,1.46-.33,2.64l6.27,2.64Z"></path>
          <path class="cls-19" d="M831.44,706.04c-.79,4.49-3,.81-6.61,0-2.06-.47-4.47-.87-6.61-1.33l-6.27-2.64c-1.66-1.18-.29-1.44.33-2.64.37-.74,1.52-1.45,1.98-1.98,4.24,3.74,11.52,5.51,17.18,8.59Z"></path>
          <path class="cls-17" d="M814.92,694.14c.58.14.74.49,1.32.66-.56.9-1.3,1.85-1.98,2.64-.46.53-1.6,1.24-1.98,1.98l-9.25-1.65,2.64-4.96c1.57,1.07,6.48.62,9.25,1.32Z"></path>
        </g>
        <g id="petal-right-3">
          <path class="cls-22" d="M843.33,798.55c-3.22,2.36-1.94,4.61-3.63,7.93-.98-.82-1.8-1.41-2.97-1.98-.05-.02.21-.25-.66-.66.06-.53.45-.78.66-1.32,2.57-6.72-2.87-15.67-6.61-21.15-.3-6.95-15.75-15.33-5.95-19.82,2.32,3.16,5.84,6.54,7.93,9.91,5.13,8.27,8.67,17.74,11.23,27.09Z"></path>
          <path class="cls-21" d="M844.66,811.77c-3.42,1.68-17.95,3.92-22.47,4.62-3.35-.25,1.69-3.99,1.32-5.94,4.62-1.17,9.6-2.68,13.22-5.95,1.17.57,1.99,1.16,2.97,1.98,1.69-3.32.41-5.57,3.63-7.93.93,3.36,5.07,11.37,1.33,13.22Z"></path>
          <path class="cls-15" d="M828.14,781.37c4.84,5.78,6.56,13.92,8.59,21.15,2.57-6.72-2.87-15.67-6.61-21.15-.3-6.95-15.75-15.33-5.95-19.82-.4-.55-.79-1.24-.66-1.99-.15.07-1.4-.75-3.3,0-2.29.9-4.67,2.59-7.27,3.31-3.2.88-6.59,1.36-9.92,1.32,2.05,4.34,4.36,9.85,5.29,14.54,2.69,13.53,1.13,26.38-3.96,38.99,5.75.86,12.01-.43,17.84-1.33-3.35-.25,1.69-3.99,1.32-5.94,4.62-1.17,9.6-2.68,13.22-5.95-.05-.02.21-.25-.66-.66-4.45-2.08-9.15-3.82-13.22-6.61-.67-7.09-3.18-13.71,5.29-15.86ZM823.51,799.21c3.92,1.96,8.06,3.48,11.89,5.62-3.72,2.45-7.72,3.15-11.89,4.29v-9.91Z"></path>
          <path class="cls-4" d="M836.73,802.52c-.21.54-.6.79-.66,1.32-4.45-2.08-9.15-3.82-13.22-6.61-.67-7.09-3.18-13.71,5.29-15.86,4.84,5.78,6.56,13.92,8.59,21.15Z"></path>
          <path class="cls-15" d="M835.4,804.83c-3.72,2.45-7.72,3.15-11.89,4.29v-9.91c3.92,1.96,8.06,3.48,11.89,5.62Z"></path>
        </g>
        <g id="petal-right-1">
          <path class="cls-21" d="M820.86,641.27c.06,1.08,1.23.56,1.98.66,4.8.64,10.31,1.39,14.54,3.96.47.28.71,1.11,1.98.66.99.43,2.75.8,3.3,1.32,3.7,3.46,1.07,7.13,0,11.89-2.43,10.84-7.86,16.92-10.57,25.11-5.33-5.93,5.81-15.19,3.3-22.47.31-1.93,1.63-4.8,0-6.61-1.5-1.65-8.5,2.97-10.57,3.96-4.58,2.2-13.72,5.88-15.2,10.57-.03-1.31.04-2.65,0-3.96,4.86-1.54,8.84-4.92,13.22-7.27,1.37-.73,11.96-4.89,11.89-5.62-5.7-3.11-11.65-4.36-17.84-5.62-.61-.12-.9-.48-1.98-.66-.14-4.69-3.52-5.16-5.95-7.93,4,.34,7.61,1.79,11.89,1.98Z"></path>
          <polygon class="cls-40" points="808.91 671.34 836.13 657.34 835.07 653.83 808.91 652.34 808.91 671.34"></polygon>
          <path class="cls-4" d="M808.97,639.29c2.42,2.77,5.81,3.24,5.95,7.93-2.54-.42-6.69,1.02-8.26-1.98l-.33,1.32c-.7-2.2-2.27-5.12-3.3-7.27,1.96.12,4-.16,5.95,0Z"></path>
          <path class="cls-20" d="M830.11,673.65c.05.42.04.9,0,1.32-.17,1.95-11.09,15.03-13.22,17.18-.48.49-1.88.96-1.98,1.98-2.77-.7-7.69-.25-9.25-1.32-.62-.42-.9-.19-.66-1.32,3.21-7.9,2.56-14.6,4.63-21.15,1.48-4.69,10.62-8.37,15.2-10.57,1,4.79,2.95,8.6,3.96,13.55.12.56,1.31.26,1.32.33Z"></path>
          <path class="cls-20" d="M814.92,647.22c1.08.18,1.38.54,1.98.66l5.95,11.23c-4.38,2.35-8.36,5.73-13.22,7.27-.21-6.3-1.4-13.83-3.3-19.82l.33-1.32c1.57,3,5.72,1.56,8.26,1.98Z"></path>
          <path class="cls-15" d="M832.1,684.89c-.26.78-.42,1.85-.66,2.64l-7.93,9.91c-2.32-1.1-4.79-1.9-7.27-2.64-.58-.17-.75-.52-1.32-.66.1-1.02,1.5-1.5,1.98-1.98,5.78-3.45,10.89-10.58,13.88-16.52,1.98-3.94,3.94-8.85,4.63-13.22,2.51,7.28-8.63,16.54-3.3,22.47Z"></path>
          <path class="cls-15" d="M834.12,655.47c.17-.02.33-.02.48,0"></path>
          <path class="cls-15" d="M834.6,655.47c.34.03.61.14.8.34-.58,6.12-1.93,12.59-5.29,17.84,0-.07-1.21.23-1.32-.33-1.01-4.95-2.97-8.76-3.96-13.55,1.7-.82,6.72-4.07,9.29-4.3"></path>
          <path class="cls-15" d="M834.74,653.5c.01.14-.35.39-.96.73"></path>
          <path class="cls-15" d="M833.6,654.33c-2.76,1.47-9.67,4.21-10.76,4.79l-5.95-11.23c6.19,1.25,12.15,2.5,17.84,5.62"></path>
          <path class="cls-15" d="M833.79,654.23c-.06.03-.12.07-.18.1"></path>
          <path class="cls-40" d="M835.4,655.81c1.63,1.81.31,4.68,0,6.61-.69,4.36-2.64,9.28-4.63,13.22l-.66-.66c.04-.42.05-.9,0-1.32,3.35-5.26,4.71-11.73,5.29-17.84"></path>
          <path class="cls-40" d="M830.78,675.64c-2.99,5.94-8.09,13.07-13.88,16.52,2.13-2.15,13.04-15.23,13.22-17.18l.66.66Z"></path>
        </g>
      </g>
      <g id="petal-left">
        <g>
          <g>
            <path class="cls-7" d="M560.17,644.58c-5.8-.14-21.28.42-25.44,4.62-.47.48-.61.74-1.32.99.07,1.17,13.35,9.04,15.53,10.25,1.71.94,5.64,3.37,7.6,2.64-.05.87.01,1.77,0,2.64l-25.77-13.88c-2.53,13.74,10.43,30.19,20.15,38.99.05.04.7-.93.99-.66,1.25,1.15,2.13.33,2.65.99.07.1-1.36,1.28-.66,2.32-7.25,3.06-16.69,5.08-21.15,11.89-7.39,3.86-13.68,9.36-17.84,16.52-.1.17.09.49,0,.66-.14.26-.68.61-1.32,1.99-.46.96-1.4,1.53-1.33,3.3-1.67-1.59-5.45-4.49-7.27-1.32-.08-.16-2.02-1.67-1.98-2.31.04-.58,2.65-3.48,3.31-4.3,5.66-7.03,19.91-16.71,27.75-21.81,1.37-.89,4.25-1.6,6.61-3.3,1.53-1.11,4.91-.74,3.3-4.96-.35-.92-10.91-14.94-11.89-15.86-1.22-1.14-1.1-1.34-2.65-.33-1.91-4.13-3.31-9.02-5.94-12.55-.5-4.88-.23-9.99-1.32-14.87,1.49-4.35,34.03-7.08,39.65-6.94-.15.24.59,4.4-1.66,5.29Z"></path>
            <path class="cls-27" d="M529.44,673.65c3.36,7.23,7.34,14.2,11.23,21.15-2.36,1.7-5.24,2.41-6.61,3.3-5.81-11.82-9.23-23.9-10.57-37.01,2.64,3.53,4.03,8.43,5.95,12.56Z"></path>
            <path class="cls-3" d="M565.13,699.42c-3.84-.15-7.39-.3-11.23,0,5.69-3.66,2.11-2.78,0-5.94-.7-1.04.73-2.22.66-2.32-.52-.66-1.4.16-2.65-.99-11.26-10.41-19.69-22.56-21.14-38.33l25.77,13.88c-.19,12,2.42,23.45,8.59,33.7Z"></path>
            <path class="cls-41" d="M559.51,645.24c-.72,6.15-2.61,11.49-2.97,17.84-1.96.73-5.89-1.7-7.6-2.64-2.18-1.21-15.46-9.08-15.53-10.25.71-.25.85-.51,1.32-.99l24.78-3.96Z"></path>
            <path class="cls-18" d="M540.67,694.8c-3.9-6.95-7.87-13.91-11.23-21.15,1.54-1.01,1.43-.81,2.64.33.98.92,11.54,14.93,11.89,15.86,1.6,4.21-1.77,3.85-3.3,4.96Z"></path>
            <path class="cls-41" d="M553.89,699.43c-7.97.63-14.06,2.25-21.15,5.95,4.46-6.81,13.9-8.83,21.15-11.89,2.12,3.16,5.69,2.29,0,5.95Z"></path>
            <path class="cls-41" d="M551.91,690.18c-.29-.27-.95.7-.99.66-9.72-8.8-22.68-25.25-20.16-38.99,1.45,15.77,9.89,27.91,21.15,38.33Z"></path>
          </g>
          <g>
            <path class="cls-46" d="M512.26,727.84c1.9,1.81,10.08,9.13,10.24,9.25,6.26,4.54,13.32,11.78,21.48,11.89.89.5,1.73.79,2.64,1.32.15.09-.34,1.57.33,1.98.97.59,8.03,2.46,8.26,2.97-.13,1.55-1.7,2.13-2.64,2.97l-29.74-13.88c-1.6-1.34-8.54-8.21-9.91-7.93-1.34-4.47-5.5-5.46-7.93-9.91,1.81-3.17,5.59-.27,7.27,1.32Z"></path>
            <path class="cls-41" d="M559.18,700.09c.37,2.89,11.12,13.94,11.23,14.87.24,1.95-4.28,4,1.98,9.58-.73-.04-3.38.75-5.29.66-14.68-.7-36.56.86-50.22-1.98-.71-.15-1.92.46-1.98-.66.09-.17-.09-.5,0-.66,11.72-14.22,25.66-21.56,44.28-21.81Z"></path>
            <path class="cls-23" d="M516.88,723.22l50.22,1.98c1.91.09,4.56-.7,5.29-.66.49.03,8.01,1.11,9.25,1.32.82.14,3.39.47,3.3,1.65l-7.6.33c-.96,1.85,2.49,2.69,2.31,4.3-.16,1.43-19.72,15.65-20.49,20.16-3.82-.15-8.09-1.38-11.89-1.98h-.66c-.91-.53-1.76-.82-2.64-1.32-2.17-1.22-17.03-7.21-16.52-9.58,6.21-3.82,24.37,1.49,18.83-10.24l-26.43,2.64-6.28-7.27c.64-1.37,1.19-1.72,1.32-1.98.07,1.12,1.27.51,1.98.66Z"></path>
            <path class="cls-18" d="M519.86,731.81l26.43-2.64c5.36,11.37-11.51,6.74-18.22,9.91"></path>
            <path class="cls-18" d="M528.07,739.07c-.22.1,13.73,8.69,15.9,9.91-8.16-.11-15.22-7.35-21.48-11.89-.16-.12-8.34-7.44-10.24-9.25-.07-1.76.87-2.34,1.32-3.3l6.28,7.27,8.22,7.27Z"></path>
            <path class="cls-41" d="M565.79,700.09c-2.2.02-4.41-.03-6.61,0-18.62.24-32.55,7.58-44.27,21.8,4.16-7.16,10.45-12.66,17.84-16.52,7.09-3.7,13.18-5.32,21.15-5.95,3.84-.3,7.39-.15,11.23,0,.02.04.2-.07.66.67Z"></path>
            <path class="cls-43" d="M552.57,758.24c-.53.47-1.18,1.44-1.98,1.98-1.32-.22-1.99.5-3.96,0-1.03-.26-4.14-1.5-5.29-1.98-7.17-3.05-12.73-9.03-18.5-13.88l29.74,13.88Z"></path>
            <path class="cls-25" d="M571.08,752.29c-2.43,3.2-5.34,6.37-7.27,9.91-4.36-.81-8.84-1.26-13.22-1.98.8-.54,1.46-1.51,1.98-1.98.95-.85,2.51-1.43,2.65-2.98-.23-.51-7.29-2.38-8.26-2.97-.67-.41-.18-1.89-.33-1.98h.66c6.39,4.16,16.5,2.73,23.79,1.98Z"></path>
            <path class="cls-47" d="M581.65,725.86c-1.24-.21-8.76-1.3-9.25-1.32-6.26-5.59-1.74-7.64-1.98-9.59-.12-.92-10.86-11.98-11.24-14.86,2.2-.03,4.41.02,6.61,0,1.68,2.64,3.91,4.91,5.95,7.26,2.81,3.26,7.18,8.1,10.57,10.58-3.14,3.17-2.76,4.63-.66,7.93Z"></path>
            <path class="cls-41" d="M567.11,725.2l-50.22-1.98c13.66,2.84,35.54,1.28,50.22,1.98Z"></path>
            <path class="cls-31" d="M612.71,730.48c-8.77.95-17.76,3.55-25.44,7.93-4,2.29-14.25,12.54-16.19,13.22-1.65.58-9.75.75-11.9.66.76-4.5,20.33-18.73,20.49-20.16.18-1.6-3.28-2.44-2.32-4.29l7.6-.33c.09-1.19-2.48-1.51-3.3-1.65-2.1-3.3-2.48-4.76.66-7.93,1.72,1.25,5.25,2.87,7.27,3.96,2.31,1.25,4.58,2.76,6.94,3.97l16.19,4.62Z"></path>
            <path class="cls-46" d="M571.08,751.63v.66c-7.29.75-17.4,2.18-23.79-1.98,3.8.6,8.07,1.83,11.89,1.98,2.15.09,10.25-.08,11.9-.66Z"></path>
            <polygon class="cls-23" points="519.86 731.81 528.07 739.07 550.17 736.23 547.93 727.84 519.86 731.81"></polygon>
          </g>
        </g>
        <g>
          <path class="cls-34" d="M525.48,801.19c.13.02,1.01,1.83,1.65,1.98,1.03.24,4.38.5,4.96.66,8.29,2.35,12.9,5.3,22.47,5.29-1.93,3.48,2.65,6.12-2.64,7.27-9.12-1.06-17.95-3.15-26.43-6.61-1.85-.75-4-3.02-6.61-2.64-.13-1-.75-.25-.66-2.64,1.76.24,5.61-3.25,5.95-3.3.38-.07.94-.07,1.32,0Z"></path>
          <path class="cls-34" d="M536.71,770.8c-7.01,8.55-12.65,20.05-12.56,30.4-.34.06-4.19,3.54-5.95,3.3.22-5.67,9.8-33.27,13.88-35.68.11-.07.42.02.66,0,1.41-.13,2.55,1.69,3.96,1.98Z"></path>
          <path class="cls-22" d="M546.62,760.22c-2.68,3.57-7.11,7.15-9.91,10.57-1.42-.29-2.56-2.11-3.96-1.98l8.59-10.57c1.15.49,4.25,1.72,5.29,1.98Z"></path>
          <path class="cls-21" d="M561.16,817.05c-3.13.3-6.17-.3-9.25-.66,5.3-1.15.72-3.79,2.65-7.27,1.43,0,2.69.26,3.96-.66.67,3.05,1.73,5.66,2.64,8.59Z"></path>
          <path class="cls-17" d="M563.81,762.2c-4,7.32-6.68,15.47-7.27,23.79-.01-.07-1.27.22-1.32-.33-.15-1.62,1.56-6.9.99-7.6-.61-.74-14.51-2.53-16.19-5.95,2.05-2.54,5.52-4.79,6.28-7.93-10.34,9.64-20.37,22.28-20.82,37.01-.38-.07-.94-.07-1.32,0-.1-10.35,5.54-21.85,12.55-30.4,2.81-3.42,7.23-7,9.92-10.57,1.97.5,2.64-.22,3.96,0,4.38.72,8.86,1.17,13.22,1.98Z"></path>
          <path class="cls-4" d="M558.52,808.46c-1.27.92-2.53.66-3.96.66-9.57.01-19.45-3.77-27.74-6.13l-.98-1.15,29.39-13.87c.32.11.9-.05,1.32,0,.58,7.72.25,12.56,1.98,20.49Z"></path>
          <path class="cls-21" d="M540.01,772.12c-6.93,8.6-12.6,16.74-13.88,28.08,6.77.94,25.01-13.5,29.08-12.23l-26.76,13.22,3.63,2.64c-.57-.16-3.93-.42-4.96-.66-.64-.15-1.53-1.96-1.65-1.98.45-14.73,10.48-27.37,20.82-37.01-.75,3.13-4.23,5.39-6.28,7.93Z"></path>
          <path class="cls-21" d="M556.54,785.99c.05.65-.05,1.33,0,1.98-.42-.05-1,.11-1.32,0-4.07-1.27-22.3,13.17-29.08,12.23,1.28-11.34,6.94-19.48,13.88-28.09,1.68,3.42,15.58,5.21,16.19,5.95.57.7-1.14,5.98-.99,7.6.05.55,1.31.26,1.32.33Z"></path>
        </g>
      </g>
      <g id="petal-top">
        <g>
          <path class="cls-16" d="M648.39,598.32c-7.44-6.25-36.27-21.89-44.93-16.52-1.31.81-.35,2.2-.66,2.64-5.65,7.89-4.22,13.6-6.61,22.47-1.3.49-3.87,1.92-5.29,2.64-1.41-10.94,2.16-21.73,5.29-32.05l.99-.99c3.45,1.27,7.29,1.53,10.9,1.98.94,3.06,6.78,1.94,9.58,2.65,11.15,2.82,21.24,9.67,30.73,15.86-.09.38.08.91,0,1.32Z"></path>
          <path class="cls-37" d="M651.69,589.73c-.59,1.17-2.56,3.74-2.64,3.96-10.03-5.74-18.35-10.44-29.74-13.22.61-.69.99-3.39,1.32-3.63,2.52-1.89,27.48,9.65,31.06,12.89Z"></path>
          <path class="cls-19" d="M619.31,580.48c11.39,2.77,19.71,7.48,29.74,13.22-.06.16-.44,2.35-.66,3.3-9.49-6.18-19.59-13.03-30.73-15.86-2.8-.71-8.65.41-9.58-2.64,3.86.49,7.45,1.06,11.23,1.98Z"></path>
          <path class="cls-19" d="M649.71,610.21c-9.09-4.75-15.38-6.67-25.77-7.27l-11.23-7.27c-3.19-4.47-7.61-8.36-9.25-13.87,8.66-5.37,37.49,10.27,44.93,16.52-.04.21.03.44,0,.66-.65,4.6-2.09,7.04,1.32,11.23Z"></path>
          <path class="cls-33" d="M623.94,602.94c-9.45-.54-18.86.58-27.75,3.97,2.39-8.87.96-14.58,6.61-22.47,1.83,6.31,8.15,9.96,11.56,15.2,1.87-.5-1.23-3.37-1.65-3.97l11.23,7.27Z"></path>
          <path class="cls-14" d="M612.7,595.68c.42.59,3.52,3.47,1.65,3.96-3.41-5.24-9.73-8.89-11.56-15.2.31-.44-.65-1.83.66-2.64,1.65,5.51,6.06,9.4,9.25,13.88Z"></path>
        </g>
        <g>
          <path class="cls-34" d="M766.68,573.87c-.45,2.62-6.35,7.78-6.61,8.26-.05.09,1.05.84,1.32,1.65l-12.89,19.82,18.83,2.97c.2-7.87-2.55-14.99-5.29-22.14,2.08,1.94,3.93,6.27,4.63,8.92,1.71,6.46-.22,13.96,5.95,16.85-1.44.49-2.74,3.76-2.64,5.29-11.43-5.44-23.41-7.06-36.01-5.29l.33-5.95c3.54-.78,9.61-.01,11.56-.66,2.18-.72,11.27-17.74,14.21-20.16-10.04-1.08-22.69,2.98-31.72,8.26,5.38-3.99,9.7-5.85,15.86-8.26-10.46,1.2-19.39,6.88-27.75,12.89-.67-2.03-2.68-3.62-2.64-5.95,3.59-1.72,7.39-5.03,10.9-6.61,13.17-5.91,27.49-9.24,41.96-9.91Z"></path>
          <path class="cls-21" d="M773.95,610.22c-.37-.05-1.06-.09-1.32,0-6.16-2.89-4.24-10.39-5.95-16.85-.7-2.65-2.54-6.98-4.63-8.92-.02-.04-.36.25-.66-.66-.27-.81-1.37-1.56-1.32-1.65.25-.48,6.16-5.64,6.61-8.26,5.13,10.42,6.99,24.4,7.27,36.35Z"></path>
          <path class="cls-21" d="M734.3,604.27c-4.65,1.03-10.91,2.66-15.2,4.63-.68-3.78-1.53-7.56-2.64-11.23-.11-.35.11-.99,0-1.32,8.37-6,17.3-11.69,27.75-12.89-6.15,2.41-9.63,3.88-15.01,7.86-2.2,1.29,13.24-4.24,11.7-1.96,2.27.26-14.01,3.44-12.55,2.36,9.03-5.28,22.83-9.36,32.87-8.28-2.94,2.42-11.53,19.45-13.71,20.17-1.96.65-9.68-.12-13.22.66Z"></path>
          <path class="cls-4" d="M762.05,584.44c1.34,3.5,2.97,2.23,4.96,6.28,1.71,3.48,3.26,12.29,3.16,16.31l-21.66-3.42,12.89-19.82c.3.92.64.62.66.66Z"></path>
          <path class="cls-21" d="M728.35,591.71c-1.46,1.08-3.67,4.55-5.95,4.3,1.54-2.28,3.75-3.01,5.95-4.3Z"></path>
        </g>
        <g>
          <path class="cls-6" d="M686.72,558.67c9.32,6.79,19.74,22.2,26.43,31.72-1.58.71-2.91,2.49-4.96,2.64-3.93-10.84-10.46-20.17-20.16-26.43-1.42-.92-3.57-2.07-4.63-3.3.43-1.7-.31-4.7,0-6.61.25.06,2.88,1.67,3.3,1.98Z"></path>
          <path class="cls-39" d="M713.15,590.39c.18-.08.48.09.66,0-.04,2.33,1.97,3.91,2.64,5.95.11.34-.11.97,0,1.32-1.43-.08-4.66,3.29-4.96,3.3-1.85.11-.1-2.9-2.31-1.32-2.49-13.12-11.13-22.11-20.99-31.04-.31-.29-2.14-1.05-2.45-1.44-.27-.34,2.37-.49,2.29-.56,9.69,6.27,16.22,15.6,20.16,26.43,2.05-.16,3.37-1.93,4.96-2.64Z"></path>
          <path class="cls-6" d="M683.41,556.69c-.31,1.91.43,4.91,0,6.61-.03.14-.86.56-1.98,1.98-6.91,2.08-8.32,7.37-13.21,11.88l-.66,1.01c-2.45,3.44-7.77,10.29-9.25,13.88-1.34,3.24-.76,8.02-1.32,11.56-.03.21.03.44,0,.66l-1.32,6.61c.26-6.91.09-10.4-7.27-11.89.03-.22-.04-.45,0-.66.07-.4-.09-.94,0-1.32.22-.96.6-3.15.66-3.3.09-.22,2.05-2.79,2.64-3.96,6.5-12.89,18.5-25.32,30.07-33.7.78-.19.93.48,1.65.66Z"></path>
          <path class="cls-12" d="M683.41,563.3c1.06,1.23,3.21,2.39,4.63,3.3-.28-.21-1.1,1.04-1.98.66-.19-.09-2.56-.77-2.64-.66l.66,50.22c-.05,2.19.1,4.42,0,6.61-.05,1.03.12,5.99,0,6.28-.57,1.39-1.28-.39-1.32-.33l-25.77-25.11c.03-.22-.03-.45,0-.66,2.34-13.29,7.64-25.91,18.5-34.03h0c1.56-2.22,4.32-2.23,5.95-4.3,1.12-1.42,1.95-1.85,1.98-1.98Z"></path>
          <path class="cls-10" d="M719.1,608.89c-2.74,1.25-6.07,3.57-8.59,5.29v-3.96c0-4.52-.52-6.38-1.32-10.57,2.22-1.57.46,1.43,2.31,1.32.3-.02,3.53-3.39,4.96-3.3,1.12,3.67,1.96,7.45,2.64,11.23Z"></path>
          <path class="cls-16" d="M709.18,599.64c.8,4.2,1.32,6.06,1.32,10.57-1.39-1.51-1.04-4.19-1.32-5.95-1.76-10.97-12.91-31.96-23.13-37.01,1.03.89,1.58.83,2.24,1.4,10.07,8.69,18.39,17.86,20.89,30.98Z"></path>
          <path class="cls-36" d="M710.51,610.21v3.97c-3.14,2.14-5.27,4.7-7.93,7.27-4.26,4.12-8.16,7.7-11.23,12.88l-9.92,22.14c-.65-5.44-2.46-13.53-4.62-18.5,3.2-1.44,3.78-5.26,5.95-8.59.03-.06.75,1.72,1.32.33.12-.29-.05-5.25,0-6.28l25.11-19.16c.28,1.75-.07,4.44,1.32,5.94Z"></path>
          <path class="cls-38" d="M682.76,629.38c-2.17,3.33-2.75,7.15-5.95,8.59-3.86-8.88-14.93-20.56-23.13-25.77l1.98-1.33,1.32-6.6,25.78,25.11Z"></path>
          <path class="cls-33" d="M655.66,610.87l-1.98,1.33c-1.21-.78-2.68-1.32-3.97-1.99-3.41-4.19-1.97-6.63-1.32-11.23,7.36,1.49,7.53,4.98,7.27,11.89Z"></path>
          <path class="cls-24" d="M681.43,565.28c-1.63,2.06-4.38,2.08-5.95,4.3,0,0-16.16,20.75-18.5,34.03.56-3.54-.02-8.32,1.32-11.56,1.48-3.59,6.8-10.44,9.25-13.88,0,0,6.99-11.27,13.88-12.89Z"></path>
          <path class="cls-24" d="M686.06,567.26c10.22,5.05,21.37,26.04,23.13,37.01l-25.11,19.16c.1-2.19-.05-4.42,0-6.61.4-16.72-.05-33.53-.66-50.22.08-.11,2.45.57,2.64.66Z"></path>
          <path class="cls-24" d="M684.07,616.82l-.66-50.22c.61,16.7,1.07,33.51.66,50.22Z"></path>
        </g>
      </g>
      <g id="top_main" data-name="top main">
        <g>
          <path class="cls-5" d="M773.95,610.22c8.17,1,25.45,21.51,29.08,29.08,1.03,2.15,2.6,5.07,3.3,7.27,1.91,5.99,3.09,13.53,3.3,19.82.04,1.31-.03,2.65,0,3.96-2.07,6.55-1.41,13.24-4.63,21.15-1.26,3.1-4.05,7.75-5.95,10.57-6.74,10.02-17.74,18.97-29.08,23.13l7.93-5.62-2.31-4.96-5.62,2.31c28.77-18.31,43.34-51.15,22.47-81.61-5.8-8.46-13.15-15.39-22.47-19.82-.1-1.53,1.21-4.8,2.64-5.29.26-.09.95-.05,1.32,0Z"></path>
          <path class="cls-21" d="M734.3,604.27l-.33,5.95c12.61-1.77,24.59-.15,36.01,5.29,9.32,4.44,16.67,11.36,22.47,19.82-.63-.08-1.37.13-1.98,0-16.98-3.63-36.55,11.29-50.88,18.5-1.05-10.1-13.19-22.96-22.8-25.77-6.19-1.82-13.3,1.29-14.21-6.61,2.66-2.57,4.79-5.13,7.93-7.27,2.52-1.72,5.85-4.03,8.59-5.29,4.29-1.96,10.54-3.59,15.2-4.63Z"></path>
          <path class="cls-44" d="M790.47,635.33l-31.72,21.81c-.1-.53-1.18-2.51-1.65-2.64l-17.51.66c-.03-.43.04-.89,0-1.32,14.33-7.21,33.9-22.13,50.88-18.5Z"></path>
          <path class="cls-34" d="M758.75,657.13c.16.84-.92,15.93-1.65,16.52-1.85,1.48-17.03,2.11-18.17-2.64-1.03-4.28.95-11.88.66-15.86l17.51-.66c.47.14,1.55,2.11,1.65,2.64Z"></path>
          <path class="cls-34" d="M792.45,635.33c20.87,30.46,6.3,63.3-22.47,81.61l5.62-2.31,2.31,4.96-7.93,5.62c-5.6,2.05-12.54,3.34-18.5,3.96s-12.07.94-18.17.66c-3.05-.14-7.52-3.42-9.58.66.19-11.31-5.42-23.61-13.88-31.06l29.08-28.42c1.15,4.76,16.32,4.12,18.17,2.64.73-.59,1.82-15.68,1.65-16.52l31.72-21.81c.61.13,1.35-.08,1.98,0Z"></path>
          <g>
            <path class="cls-40" d="M739.59,655.15c-.03-.43.04-.89,0-1.32-.12-1.15-.38-2.33-.77-3.53-3.01-9.36-13.51-19.75-22.03-22.24-6.19-1.82-13.3,1.29-14.21-6.61-4.26,4.12-8.16,7.7-11.23,12.88l-9.92,22.14c1.3,10.67-.31,21.1.67,31.72,8.26.06,21.5,5.73,27.75,11.23l29.08-28.41c-.21-.86-.29-1.86-.3-2.93-.03-4.26,1.18-9.75.96-12.93ZM716.13,669.69c-10.73-2.69-9.69-18.43,0-19.83,7.49-1.08,8.06,4.41,8.59,4.63.49.2,2.03-1.24,3.3-.66,13.71,6.17.39,18.94-11.89,15.86Z"></path>
            <g>
              <path class="cls-40" d="M728.02,653.83c-1.27-.58-2.81.86-3.3.66-.53-.22-1.1-5.71-8.59-4.63-9.69,1.4-10.73,17.14,0,19.83,12.28,3.08,25.6-9.69,11.89-15.86ZM716.13,666.38c-5.13-1.81-6.61-11.68-.66-13.21,13.99-3.62,9.73,16.42.66,13.21Z"></path>
              <path class="cls-40" d="M716.13,666.38c-5.13-1.81-6.61-11.68-.66-13.21,13.99-3.62,9.73,16.42.66,13.21Z"></path>
            </g>
          </g>
        </g>
        <g>
          <path class="cls-16" d="M607.42,702.73c-.47,4.04-6.11,22.4-9.58,22.47-1.74.03-2.57,1.27-8.26-3.31-2.02-1.09-5.55-2.71-7.27-3.96-3.39-2.48-7.76-7.32-10.57-10.58.69-2.94,5.33-2.04,6.61-4.29.91-1.61.86-6.81,1.98-9.25,4.64-10.15,15.28-20.74,27.09-21.48.77-.05.98,1.41,2.65,1.32l.59,2.94.07.37c-1.68,0-1.47,10.78-1.52,11.28-1.04,10.52-.8,16.23-1.79,14.49Z"></path>
          <path class="cls-37" d="M626.59,671.01c-.72,2.46-2.84,2.38-4.63,2.64-3.46.5-8.18-.19-11.89,0-1.67.09-1.88-1.37-2.65-1.32.07-.34.13-.73.16-1.17.33-4.36-1.14-13.15-.16-15.68.47-1.21,6.45-2.16,11.62-2.07,3.71.06,7,.65,7.55,2.07.27.72.21,14.78,0,15.53Z"></path>
          <g>
            <path class="cls-37" d="M560.09,644.58c.49-.19.84-.55,1.09-.98"></path>
            <path class="cls-37" d="M560.07,644.57c-5.96-.35-21.17.47-25.32,4.61l24-3.82s1.49-.78,1.32-.79Z"></path>
            <path class="cls-37" d="M561.18,643.6c.88-1.54.45-4.12.57-4.31,6.82-11.59,16.94-23.55,29.07-29.74,1.42-.72,3.99-2.15,5.29-2.64,8.89-3.39,18.3-4.51,27.75-3.97,10.39.6,16.68,2.52,25.77,7.27,1.29.67,2.76,1.21,3.97,1.99,8.2,5.21,19.27,16.89,23.13,25.77,2.16,4.97,3.97,13.06,4.62,18.5,1.3,10.67-.31,21.1.67,31.72-8.18-.06-20.03,4.86-26.44,9.91l-29.07-27.09c.21-.75.27-14.81,0-15.53-.55-1.42-3.84-2.01-7.55-2.07-.43-1.94-1.1-3.38-2.09-3.7-2.37-.78-17.87-.43-18.83,2.05-.31.8-.31,16.31,0,17.11.51,1.34,5,2.04,9.46,2.29-.03.44-.09.83-.16,1.17-11.81.74-22.45,11.33-27.09,21.48-1.12,2.44-1.07,7.64-1.98,9.25-1.28,2.25-5.92,1.35-6.61,4.29-2.04-2.35-4.27-4.62-5.95-7.26-.46-.74-.64-.63-.66-.67-6.17-10.25-8.78-21.7-8.59-33.7.01-.87-.05-1.77,0-2.64.36-6.35,2.24-11.68,2.96-17.83l-.68.1c1.65-.82,2.43-1.76,2.43-1.76Z"></path>
            <path class="cls-37" d="M607.34,655.48c-.98,2.53.49,11.32.16,15.68-4.46-.25-8.95-.95-9.46-2.29-.31-.8-.31-16.31,0-17.11.96-2.48,16.46-2.83,18.83-2.05.99.32,1.66,1.76,2.09,3.7-5.17-.09-11.15.86-11.62,2.07Z"></path>
          </g>
          <path class="cls-37" d="M655.66,698.1c-1.21.96-3.69,2.93-4.62,3.97l-29.08-28.42c1.79-.26,3.91-.18,4.63-2.64l29.07,27.09Z"></path>
          <path class="cls-6" d="M653.1,699.83c-6.31,6.95-13.34,21.97-13.3,31.31-9.01-1.32-18.03-1.64-27.09-.66l-16.19-4.62c-2.36-1.21-.42-.63,1.32-.66,3.47-.07,9.11-18.43,9.58-22.47,0,0,.02,0,.03.01-.03-.01,1.76-25.89,3.28-25.78l-.07-.37-.59-2.94c3.71-.19,11.73-2.14,15.19-2.64l27.84,28.82Z"></path>
        </g>
      </g>
      <g id="bottom_main" data-name="bottom main">
        <g id="leaf-bot-right">
          <path class="cls-17" d="M683.42,796.57c-2,4.41-2.02,9.25-3.31,13.87-.34,1.23-.95,2.21-1.32,3.31-.74-16.33-3.14-30.59-11.23-44.94,4.13,1.39,9.55,2.64,13.87,2.64,1.74,8.29.87,16.77,1.99,25.12Z"></path>
          <path class="cls-37" d="M643.11,772.11c-2.1,2.09-15.43,15.15-15.86,16.19-2.14,5.16,1.13,12.39-1.99,17.52-5.03.61-10.47,1.18-15.52,1.32-.2,0-.61-.29-1.05-.65,4.28.01,8.6-.07,9.02-.22,2.61-.94,2.89-15.36,2.13-17.8-.51-1.63-2.66-2.46-4.26-2.74-3.13-.53-16.68-.71-17.77,2.4-.8,2.28-.44,17.21,2.14,18.14.28.1,2.29.17,4.87.19-6.54,4.64-24.51,20.12-28.46,21.49-1.04,4.16,16.27,13.5,17.18,15.2.41.76-1.67,5.56-.66,6.94-.99-.47-2.62-.95-3.3-1.32-10.3-5.58-17.77-14.28-25.11-23.13-1.11-2.72-2.44-5.8-3.31-8.59-.91-2.93-1.97-5.54-2.64-8.59-1.73-7.93-1.4-12.77-1.98-20.49-.05-.65.05-1.33,0-1.98.59-8.32,3.27-16.47,7.27-23.79,1.93-3.54,4.84-6.71,7.27-9.91v-.66c1.94-.68,12.19-10.93,16.19-13.22,7.68-4.38,16.67-6.98,25.44-7.93,9.06-.98,18.08-.66,27.09.66.01,2.73,1.21,7.8,1.98,10.58-5.98,1.2-7.43,8.43-9.91,12.88-.47.85-3.34,3.17-3.88,3.86-.04.04-.07.08-.08.11-.47.94,3.27,3.25-1.32,3.63.28.48.85,3.35,1.98,4.63.26.29.94-.7.99-.66.54.38.09,2.23,1.32,2.64.06.02.12.03.19.04,1.95.28,9.9-2.23,12.04,3.26Z"></path>
          <path class="cls-37" d="M617.71,806.27c-.42.15-4.74.23-9.02.22-.71-.57-1.49-1.33-1.6-1.33-.29-.01-1.09.47-2.27,1.3-2.58-.02-4.59-.09-4.87-.19-2.58-.93-2.94-15.86-2.14-18.14,1.09-3.11,14.64-2.93,17.77-2.4,1.6.28,3.75,1.11,4.26,2.74.76,2.44.48,16.86-2.13,17.8Z"></path>
          <path class="cls-5" d="M664.25,837.54c-3.74,3.79-6.63,6.44-11.23,9.25-2.04,1.24-4.49,3.01-6.61,3.96-3.51,1.58-9.37,3.25-13.22,3.97-8.41,1.58-26.18.17-27.09,0-2.7-.52-7.44-1.69-9.91-2.65-.59-.22-2.28-1.49-3.31-1.98-1.01-1.38,1.07-6.18.66-6.94-.91-1.7-18.22-11.04-17.18-15.2,3.95-1.37,21.92-16.85,28.46-21.49,1.18-.83,1.98-1.31,2.27-1.3.11,0,.89.76,1.6,1.33.44.36.85.65,1.05.65,5.05-.14,10.49-.71,15.52-1.32,3.84,11.85,12.31,24.94,25.45,27.75,5.21,1.11,10.71-2.69,13.54,3.97Z"></path>
          <path class="cls-37" d="M654.34,761.54c-3.67,3.56-7.61,6.97-11.23,10.57-2.14-5.49-10.09-2.98-12.04-3.26-.07-.01-.13-.02-.19-.04-1.23-.41-.78-2.26-1.32-2.64-.05-.04-.73.95-.99.66-1.13-1.28-1.7-4.15-1.98-4.63,4.59-.38.85-2.69,1.32-3.63.01-.03.04-.07.08-.11.54-.69,3.41-3.01,3.88-3.86,2.48-4.45,3.93-11.68,9.91-12.88,1.88,6.73,7.22,15.3,12.56,19.82Z"></path>
          <path class="cls-19" d="M678.79,813.75c-3.57,10.56-6.71,15.86-14.54,23.79-2.83-6.66-8.33-2.86-13.54-3.97-13.14-2.81-21.61-15.9-25.45-27.75,3.12-5.13-2.14-10.66,0-15.82.43-1.04,24.17-25.04,27.84-28.6,3.29,2.78,10.36,6.03,14.46,7.41,8.09,14.35,10.49,28.61,11.23,44.94Z"></path>
        </g>
        <g id="leaf-bot-right-2" data-name="leaf-bot-right">
          <path class="cls-21" d="M798.4,756.26c1.53,2.26,3.47,5.48,4.63,7.93,2.04,4.34,4.36,9.85,5.29,14.54-.12,5.22-4.33,2.13-5.29,4.3-.78,1.78.44,13.16,0,16.52-1.8,13.76-9.53,26.66-19.49,36.01l-30.11-31.72c-22.28-4.74-2.78-15.68,5.33-16.52,12.55-2.49,25.24-10.76,29.08-23.46,1.82-6.01-2.17-10.55,5.95-12.89,2.4,2.62,3.13,3.08,4.63,5.29Z"></path>
          <path class="cls-34" d="M741.56,785.33c-1.58.47,19.33,14.21-2.64,3.96l-29.74-27.75c.72-.6,4.02-3.9,4.63-4.63l27.75,28.42Z"></path>
          <g>
            <path class="cls-37" d="M804.35,817.71h0c-1.44,3.58-3.19,6.72-5.29,9.91-6.64,10.12-16.2,14.14-21.15,20.49-.99-.12-1.92.54-2.73,1.15-.22.17-.44.33-.64.48-.21.14-.4.26-.59.35-.51.24-1.13.5-1.8.78-.24.09-.47.19-.71.29-.71.27-1.48.56-2.25.84-.01,0-.01.01-.01.01-.78.27-1.57.55-2.35.81-.51.17-1.02.34-1.51.49-.97.3-1.87.57-2.6.75h-.01c-.64.16-1.29.3-1.96.44-.54.11-1.09.21-1.65.31-.3.05-.61.11-.92.16-.62.1-1.23.19-1.83.28-.3.05-.6.09-.9.13-.05,0-.11,0-.16,0-.17,0-.34-.03-.5,0h-.01c-13.62,1.68-26.8-.18-38.98-6.61-.35-.18-.7-.38-1.05-.59-2.22-1.28-4.52-2.98-6.55-4.58-.34-.26-.67-.52-.99-.78-.93-.74-1.82-1.49-2.69-2.26-.86-.78-1.7-1.56-2.5-2.36-11.22-11.24-16.45-25.5-18.6-41.63-.31-2.31-.47-4.63-.57-6.96v-.03c-.02-.56-.05-1.12-.07-1.68-.01-.43-.02-.85-.04-1.28-.1-3.26-.18-6.53-.51-9.77,0-.11-.01-.23-.03-.35-.17-1.69-.42-3.37-.77-5.05,9.39,0,20.54-3.92,27.76-9.91h.01c.34.29,6.87,5.68,14.64,12.01.03.02.06.05.09.07,2.75,2.24,5.65,4.59,8.49,6.87.22.18.44.35.66.53.59.47,1.17.94,1.74,1.39,1.66,1.33,3.27,2.62,4.8,3.82,3.56,2.8,17.25,21.24,17.25,21.24l26.66,28.08c.62-.58,1.24-1.18,1.84-1.79.61-.62,1.2-1.24,1.79-1.88.58-.63,1.16-1.28,1.72-1.94,1.4-1.66,2.74-3.39,3.99-5.18.5-.72.98-1.45,1.45-2.18,2.36-3.69,4.35-7.61,5.87-11.7,1.36-3.67,2.33-7.47,2.84-11.34.02-.13.03-.28.04-.43.09-1.08.06-2.71-.01-4.52-.02-.63-.05-1.29-.08-1.95-.01-.37-.03-.75-.05-1.12-.02-.4-.03-.81-.05-1.21-.02-.34-.03-.69-.04-1.03-.12-2.93-.15-5.49.19-6.26.06-.14.13-.25.21-.35.26-.3.62-.44,1.03-.5.12-.03.25-.05.38-.06.14-.01.28-.02.42-.03.08,0,.16,0,.24,0,.59-.03,1.21-.08,1.73-.36.47-.25.86-.69,1.07-1.48.05-.17.09-.36.12-.56.05-.28.07-.59.08-.94,2.69,13.54,1.13,26.38-3.96,38.98Z"></path>
            <path class="cls-37" d="M720.75,806.48c-13.13,7.69-23.74-7.62-11.23-17.18.34-.26,6.85-3.87,7.27-3.97,13.02-3.26,13.82,15.37,3.96,21.15Z"></path>
          </g>
          <path class="cls-40" d="M751.48,729.16l18.5,4.63c9.79,4.07,16.72,9.44,23.79,17.18-8.12,2.34-4.13,6.87-5.95,12.89-3.84,12.69-12.53,47.4-25.08,49.9-4.81-2.74-53.56-52.21-53.56-52.21,5.75-6.88,14.39-22.06,14.54-31.06,2.06-4.08,6.53-.8,9.58-.66,6.11.28,12.11-.02,18.17-.66Z"></path>
        </g>
      </g>
      <g id="pad_centers" data-name="pad centers">
        <g>
          <path class="cls-8" d="M759.46,787.4c.31.8.31,16.31,0,17.11-.96,2.48-16.46,2.83-18.83,2.05-3.23-1.05-3.04-14.1-2.49-17.11.28-1.55,1.14-3.62,2.84-4.11,2.54-.73,17.5-.46,18.47,2.05Z"></path>
          <path class="cls-8" d="M739.87,655.42c.83-.3,16.93-.3,17.76,0,2.58.93,2.93,15.85,2.13,18.14-1.09,3.11-14.64,2.93-17.76,2.4-1.6-.27-3.76-1.1-4.26-2.74-.76-2.44-.48-16.86,2.13-17.8Z"></path>
          <path class="cls-8" d="M617.71,806.27c-.42.15-4.74.23-9.02.22-1.33,0-2.66-.01-3.87-.03-2.58-.02-4.59-.09-4.87-.19-2.58-.93-2.94-15.86-2.14-18.14,1.09-3.11,14.64-2.93,17.77-2.4,1.6.28,3.75,1.11,4.26,2.74.76,2.44.48,16.86-2.13,17.8Z"></path>
          <path class="cls-8" d="M627.54,671.13c-.29,1.54-1.15,3.61-2.85,4.1-1.18.34-5.09.46-9.01.24-4.46-.25-8.95-.95-9.46-2.29-.31-.8-.31-16.31,0-17.11.96-2.48,16.46-2.83,18.83-2.05.99.32,1.66,1.76,2.09,3.7.99,4.39.78,11.31.4,13.41Z"></path>
        </g>
        <g>
          <path class="cls-42" d="M759.46,787.4c.31.8.31,16.31,0,17.11-.96,2.48-16.46,2.83-18.83,2.05-3.23-1.05-3.04-14.1-2.49-17.11.28-1.55,1.14-3.62,2.84-4.11,2.54-.73,17.5-.46,18.47,2.05Z"></path>
          <path class="cls-42" d="M739.87,655.42c.83-.3,16.93-.3,17.76,0,2.58.93,2.93,15.85,2.13,18.14-1.09,3.11-14.64,2.93-17.76,2.4-1.6-.27-3.76-1.1-4.26-2.74-.76-2.44-.48-16.86,2.13-17.8Z"></path>
          <path class="cls-42" d="M617.71,806.27c-.42.15-4.74.23-9.02.22-1.33,0-2.66-.01-3.87-.03-2.58-.02-4.59-.09-4.87-.19-2.58-.93-2.94-15.86-2.14-18.14,1.09-3.11,14.64-2.93,17.77-2.4,1.6.28,3.75,1.11,4.26,2.74.76,2.44.48,16.86-2.13,17.8Z"></path>
          <path class="cls-42" d="M627.54,671.13c-.29,1.54-1.15,3.61-2.85,4.1-1.18.34-5.09.46-9.01.24-4.46-.25-8.95-.95-9.46-2.29-.31-.8-.31-16.31,0-17.11.96-2.48,16.46-2.83,18.83-2.05.99.32,1.66,1.76,2.09,3.7.99,4.39.78,11.31.4,13.41Z"></path>
        </g>
      </g>
    </g>
  </g>
  <circle class="cls-23" cx="682.89" cy="730.23" r="42.7"></circle>
</svg>