<?xml version="1.0" encoding="UTF-8"?>
<svg id="OBJECT" xmlns="http://www.w3.org/2000/svg" viewBox="0 0 32 32">
  <path d="M25.5,18h-1.5v-2h.5c.55,0,1-.45,1-1s-.45-1-1-1h-3.1l2.44-7.08c.18-.52-.1-1.09-.62-1.27-.52-.18-1.09.1-1.27.62l-2.66,7.73h-2.29V2c0-.55-.45-1-1-1s-1,.45-1,1v12h-2.29l-2.66-7.73c-.18-.52-.75-.8-1.27-.62-.52.18-.8.75-.62,1.27l2.44,7.08h-3.1c-.55,0-1,.45-1,1s.45,1,1,1h.5v2h-1.5c-1.38,0-2.5,1.12-2.5,2.5v8c0,1.38,1.12,2.5,2.5,2.5h19c1.38,0,2.5-1.12,2.5-2.5v-8c0-1.38-1.12-2.5-2.5-2.5ZM10,16h12v2h-12v-2ZM6,28.5v-4.5h12c1.1,0,2,.9,2,2v3H6.5c-.28,0-.5-.22-.5-.5ZM26,28.5c0,.28-.22.5-.5.5h-3.5v-3c0-2.21-1.79-4-4-4H6v-1.5c0-.28.22-.5.5-.5h19c.28,0,.5.22.5.5v8Z"></path>
  <path d="M23.53,4.53c.1.03.2.04.29.04.43,0,.82-.28.96-.71l.17-.57c.16-.53-.13-1.09-.66-1.25-.53-.16-1.09.14-1.25.66l-.17.57c-.16.53.13,1.09.66,1.25Z"></path>
  <path d="M7.22,3.86c.13.43.53.71.96.71.1,0,.2-.01.29-.04.53-.16.82-.72.66-1.25l-.17-.57c-.16-.53-.71-.83-1.25-.66-.53.16-.82.72-.66,1.25l.17.57Z"></path>
</svg>