<?xml version="1.0" encoding="UTF-8"?>
<svg id="OBJECT" xmlns="http://www.w3.org/2000/svg" viewBox="0 0 32 32">
  <defs>
    
  </defs>
  <path class="cls-1" d="m9.51,23.56c.01-.12.04-.23.04-.36v-1.6c0-1.38-1.12-2.5-2.5-2.5h-1.09c-1.38,0-2.5,1.12-2.5,2.5v1.6c0,.12.02.24.04.36-1.5.8-2.49,2.36-2.49,4.11v.83c0,1.38,1.12,2.5,2.5,2.5h6c1.38,0,2.5-1.12,2.5-2.5v-.83c0-1.75-.99-3.32-2.49-4.11Zm-4.05-1.95c0-.28.22-.5.5-.5h1.09c.28,0,.5.22.5.5v1.6c0,.5-.41.9-.9.9h-.29c-.5,0-.9-.4-.9-.9v-1.6Zm4.54,6.9c0,.28-.22.5-.5.5H3.5c-.28,0-.5-.22-.5-.5v-.83c0-.99.56-1.88,1.4-2.34.52.48,1.2.77,1.96.77h.29c.76,0,1.44-.3,1.96-.77.84.46,1.4,1.35,1.4,2.34v.83Z"></path>
  <path class="cls-1" d="m28.51,23.56c.01-.12.04-.23.04-.36v-1.6c0-1.38-1.12-2.5-2.5-2.5h-1.09c-1.38,0-2.5,1.12-2.5,2.5v1.6c0,.12.02.24.04.36-1.5.8-2.49,2.36-2.49,4.11v.83c0,1.38,1.12,2.5,2.5,2.5h6c1.38,0,2.5-1.12,2.5-2.5v-.83c0-1.75-.99-3.32-2.49-4.11Zm-4.05-1.95c0-.28.22-.5.5-.5h1.09c.28,0,.5.22.5.5v1.6c0,.5-.41.9-.9.9h-.29c-.5,0-.9-.4-.9-.9v-1.6Zm4.54,6.9c0,.28-.22.5-.5.5h-6c-.28,0-.5-.22-.5-.5v-.83c0-.99.56-1.88,1.4-2.34.52.48,1.2.77,1.96.77h.29c.76,0,1.44-.3,1.96-.77.84.46,1.4,1.35,1.4,2.34v.83Z"></path>
  <path class="cls-1" d="m28,1h-7c-1.65,0-3,1.35-3,3v5c0,1.48,1.08,2.72,2.5,2.96v.74c0,1.27,1.03,2.3,2.3,2.3.77,0,1.49-.38,1.92-1.03l1.32-1.97h1.96c1.65,0,3-1.35,3-3v-5c0-1.65-1.35-3-3-3Zm1,8c0,.55-.45,1-1,1h-2.5c-.33,0-.65.17-.83.45l-1.61,2.42c-.15.22-.55.1-.55-.17v-1.7c0-.55-.45-1-1-1h-.5c-.55,0-1-.45-1-1v-5c0-.55.45-1,1-1h7c.55,0,1,.45,1,1v5Z"></path>
  <path class="cls-1" d="m26.5,5.5h-4c-.55,0-1,.45-1,1s.45,1,1,1h4c.55,0,1-.45,1-1s-.45-1-1-1Z"></path>
  <path class="cls-1" d="m17,19.52v-4.52h.64c.55,0,1-.45,1-1s-.45-1-1-1h-3.28c-.55,0-1,.45-1,1s.45,1,1,1h.64v4.5l-2.77,2.12c-.44.33-.52.96-.19,1.4.2.26.49.39.8.39.21,0,.42-.07.61-.21l2.54-1.94,2.39,1.92c.18.15.41.22.63.22.29,0,.58-.13.78-.37.35-.43.28-1.06-.15-1.41l-2.63-2.12Z"></path>
  <path class="cls-1" d="m3.27,11.7v1.9h-.16c-.55,0-1,.45-1,1s.45,1,1,1h7.78c.55,0,1-.45,1-1s-.45-1-1-1h-.16v-1.9c1.43-1.13,2.27-2.85,2.27-4.7s-.81-3.51-2.22-4.66c-1.41-1.15-3.26-1.59-5.07-1.21C3.34,1.63,1.47,3.59,1.08,6c-.35,2.18.5,4.35,2.19,5.7Zm-.22-5.38c.26-1.58,1.52-2.9,3.07-3.23,1.24-.26,2.44.03,3.4.8.94.76,1.48,1.9,1.48,3.11,0,1.35-.68,2.61-1.82,3.35-.28.18-.45.5-.45.84v2.41h-3.46v-2.41c0-.34-.17-.65-.45-.84-1.35-.88-2.03-2.42-1.76-4.03Z"></path>
  <path class="cls-1" d="m6.15,9.23c.18.17.43.26.67.26.02,0,.04,0,.05,0,.27-.01.52-.14.7-.34l2-2.26c.37-.41.33-1.05-.09-1.41-.41-.36-1.04-.33-1.41.09l-1.33,1.5-.49-.45c-.41-.37-1.04-.35-1.41.06-.37.41-.34,1.04.06,1.41l1.24,1.13Z"></path>
</svg>