<?xml version="1.0" encoding="UTF-8"?>
<svg id="OBJECT" xmlns="http://www.w3.org/2000/svg" viewBox="0 0 32 32">
  <defs>
    
  </defs>
  <path class="cls-1" d="m22,1H4c-1.65,0-3,1.35-3,3v21.5c0,1.93,1.57,3.5,3.5,3.5h3.5v1c0,.35.19.68.49.86.31.18.68.19.99.01l2.02-1.11,2.02,1.11c.15.08.32.12.48.12.18,0,.35-.05.51-.14.3-.18.49-.51.49-.86v-1h7c.38,0,.73-.22.9-.57.17-.35.12-.76-.12-1.06l-1.25-1.56c-.15-.19-.15-.44,0-.63l1.25-1.56c.15-.18.21-.4.21-.63h0V2c0-.55-.45-1-1-1Zm-1,21H7V3h14v19ZM4,3h1v19h-.5c-.54,0-1.04.13-1.5.35V4c0-.55.45-1,1-1Zm.5,24c-.83,0-1.5-.67-1.5-1.5s.67-1.5,1.5-1.5h3.5v3h-3.5Zm7.48.74c-.3-.17-.67-.17-.97,0l-1.02.56v-4.31h3v4.31l-1.02-.56Zm7.94-.74h-4.92v-3h4.92c-.67.89-.67,2.11,0,3Z"></path>
  <path class="cls-1" d="m18.48,18.5h-8.98c-.55,0-1,.45-1,1s.45,1,1,1h8.98c.55,0,1-.45,1-1s-.45-1-1-1Z"></path>
  <path class="cls-1" d="m9.5,17h8.98c.55,0,1-.45,1-1s-.45-1-1-1h-8.98c-.55,0-1,.45-1,1s.45,1,1,1Z"></path>
  <path class="cls-1" d="m9.5,12h9c.55,0,1-.45,1-1v-5.5c0-.55-.45-1-1-1h-9c-.55,0-1,.45-1,1v5.5c0,.55.45,1,1,1Zm1-5.5h7v3.5h-7v-3.5Z"></path>
  <path class="cls-1" d="m31,21.27l-.03-14.78s0,0,0-.01,0,0,0-.01v-2.4c0-.81-.32-1.58-.88-2.16-.57-.59-1.37-.9-2.14-.9-1.65,0-2.99,1.39-2.99,3.08l.04,17.21c0,1.29.27,2.54.79,3.72l1.24,2.83v2.16c.01.55.46,1,1.01,1h0c.55,0,1-.45,1-1v-2.16s1.21-2.84,1.21-2.84c.51-1.18.76-2.43.76-3.73Zm-4.04-17.19c0-.59.44-1.07.99-1.08h0c.26,0,.5.11.69.3.2.2.31.48.31.77v1.42s-1.99,0-1.99,0v-1.41s0,0,0,0Zm0,3.42h2s.03,13.78.03,13.78c0,1.02-.2,2-.59,2.93l-.39.91-.4-.91c-.41-.93-.61-1.91-.62-2.92l-.03-13.79Z"></path>
</svg>