<?xml version="1.0" encoding="UTF-8"?>
<svg id="OBJECT" xmlns="http://www.w3.org/2000/svg" viewBox="0 0 32 32">
  <path d="M8,1c-3.86,0-7,3.14-7,7s3.14,7,7,7,7-3.14,7-7S11.86,1,8,1ZM8,13c-2.76,0-5-2.24-5-5s2.24-5,5-5,5,2.24,5,5-2.24,5-5,5Z"></path>
  <path d="M8,17c-3.86,0-7,3.14-7,7s3.14,7,7,7,7-3.14,7-7-3.14-7-7-7ZM8,29c-2.76,0-5-2.24-5-5s2.24-5,5-5,5,2.24,5,5-2.24,5-5,5Z"></path>
  <path d="M24,17c-3.86,0-7,3.14-7,7s3.14,7,7,7,7-3.14,7-7-3.14-7-7-7ZM24,29c-2.76,0-5-2.24-5-5s2.24-5,5-5,5,2.24,5,5-2.24,5-5,5Z"></path>
  <path d="M9.41,9.41c-.76.76-2.07.76-2.83,0-.39-.39-1.02-.39-1.41,0-.39.39-.39,1.02,0,1.41.76.76,1.76,1.17,2.83,1.17s2.07-.42,2.83-1.17c.39-.39.39-1.02,0-1.41-.39-.39-1.02-.39-1.41,0Z"></path>
  <path d="M24,15c3.86,0,7-3.14,7-7s-3.14-7-7-7-7,3.14-7,7,3.14,7,7,7ZM24,3c2.76,0,5,2.24,5,5s-2.24,5-5,5-5-2.24-5-5,2.24-5,5-5Z"></path>
  <path d="M22.59,10.71c.76-.75,2.07-.75,2.83,0,.2.2.45.29.71.29s.51-.1.71-.29c.39-.39.39-1.02,0-1.41-1.56-1.56-4.1-1.56-5.66,0-.39.39-.39,1.02,0,1.41s1.02.39,1.41,0Z"></path>
  <path d="M10.12,25.12h-4.24c-.55,0-1,.45-1,1s.45,1,1,1h4.24c.55,0,1-.45,1-1s-.45-1-1-1Z"></path>
  <path d="M26.85,23.84c-.29-.47-.91-.61-1.38-.32l-1.47.92-1.47-.92c-.47-.29-1.08-.15-1.38.32-.29.47-.15,1.08.32,1.38l.64.4-.64.4c-.47.29-.61.91-.32,1.38.19.3.52.47.85.47.18,0,.36-.05.53-.15l1.47-.92,1.47.92c.16.1.35.15.53.15.33,0,.66-.17.85-.47.29-.47.15-1.08-.32-1.38l-.64-.4.64-.4c.47-.29.61-.91.32-1.38Z"></path>
</svg>