<?xml version="1.0" encoding="UTF-8"?>
<svg id="OBJECT" xmlns="http://www.w3.org/2000/svg" viewBox="0 0 32 32">
  <path d="M16,1C7.73,1,1,7.73,1,16c0,2.62.69,5.21,2,7.48.28.48.89.64,1.37.37.48-.28.64-.89.37-1.37-1.14-1.97-1.74-4.21-1.74-6.48,0-7.17,5.83-13,13-13s13,5.83,13,13c0,2.27-.6,4.51-1.74,6.48-.28.48-.11,1.09.37,1.37.16.09.33.13.5.13.35,0,.68-.18.87-.5,1.31-2.27,2-4.86,2-7.48,0-8.27-6.73-15-15-15Z"></path>
  <path d="M6.87,25.24c-.16-.15-.31-.31-.46-.48-.37-.41-1-.45-1.41-.08-.41.37-.45,1-.08,1.41.19.21.38.41.58.6.19.18.44.27.69.27.27,0,.53-.11.73-.31.38-.4.36-1.04-.04-1.41Z"></path>
  <path d="M25.59,24.76c-.15.17-.3.33-.46.48-.4.38-.42,1.01-.04,1.41.2.21.46.31.73.31.25,0,.49-.09.69-.27.2-.19.39-.39.58-.6.37-.41.33-1.04-.08-1.41-.41-.37-1.05-.33-1.41.08Z"></path>
  <path d="M23.93,20.37c.13.05.26.08.38.08.39,0,.76-.23.92-.62.51-1.22.76-2.51.76-3.83,0-5.51-4.49-10-10-10s-10,4.49-10,10c0,1.32.26,2.61.76,3.83.21.51.8.75,1.31.54.51-.21.75-.8.54-1.31-.41-.98-.61-2.01-.61-3.06,0-4.41,3.59-8,8-8s8,3.59,8,8c0,1.05-.21,2.08-.61,3.06-.21.51.03,1.09.54,1.31Z"></path>
  <path d="M24.5,29h-1v-3.5c0-2.6-1.38-5.01-3.56-6.36.03-.21.06-.42.06-.64v-2c0-1.65-1.35-3-3-3h-2c-1.65,0-3,1.35-3,3v2c0,.22.03.43.06.64-2.18,1.36-3.56,3.76-3.56,6.36v3.5h-1c-.55,0-1,.45-1,1s.45,1,1,1h17c.55,0,1-.45,1-1s-.45-1-1-1ZM14,16.5c0-.55.45-1,1-1h2c.55,0,1,.45,1,1v2c0,1.1-.9,2-2,2s-2-.9-2-2v-2ZM10.5,25.5c0-1.81.92-3.5,2.39-4.52.73.92,1.85,1.52,3.11,1.52s2.38-.6,3.11-1.52c1.47,1.02,2.39,2.71,2.39,4.52v3.5h-2.04v-2.69c0-.55-.45-1-1-1s-1,.45-1,1v2.69h-2.92v-2.69c0-.55-.45-1-1-1s-1,.45-1,1v2.69h-2.04v-3.5Z"></path>
</svg>