<?xml version="1.0" encoding="UTF-8"?>
<svg id="OBJECT" xmlns="http://www.w3.org/2000/svg" viewBox="0 0 32 32">
  <path d="M23,15c-.55,0-1,.45-1,1v.5c0,.55.45,1,1,1s1-.45,1-1v-.5c0-.55-.45-1-1-1Z"></path>
  <path d="M30.91,21.86l-1.85-4.15v-3.69c0-5.53-4.5-10.03-10.03-10.03-.5,0-1,.05-1.5.13-1.74-1.92-4.24-3.13-7.03-3.13C5.26,1,1,5.26,1,10.5s3.96,9.17,8.93,9.47c.15.33.3.64.46.92l1.51,2.56-1.65,5.55h-1.25c-.55,0-1,.45-1,1s.45,1,1,1h13c.55,0,1-.45,1-1s-.45-1-1-1h-.68l.35-1.23,1.51.53c.88.31,1.84.28,2.7-.1,1.64-.72,2.52-2.52,2.08-4.26l-.17-.67h2.21c.34,0,.65-.17.84-.46s.21-.64.07-.95ZM3,10.5c0-4.14,3.36-7.5,7.5-7.5s7.5,3.36,7.5,7.5-3.36,7.5-7.5,7.5-7.5-3.36-7.5-7.5ZM26.5,21.27c-.31,0-.6.14-.79.39-.19.24-.26.56-.18.86l.49,1.92c.2.79-.2,1.61-.95,1.94-.39.17-.82.19-1.23.04l-2.52-.89c-.26-.09-.55-.07-.79.06-.25.13-.43.35-.5.62l-.79,2.8h-6.9l1.6-5.39c.08-.27.04-.55-.1-.79l-1.73-2.94s0-.02-.01-.02c4.48-.76,7.9-4.66,7.9-9.35,0-1.62-.41-3.15-1.13-4.49.05,0,.11,0,.16,0,4.43,0,8.03,3.6,8.03,8.03v3.9c0,.14.03.28.09.41l1.31,2.93h-1.96Z"></path>
  <path d="M14.5,10.32v.81c0,.55.45,1,1,1s1-.45,1-1v-3.22c0-.13-.03-.26-.08-.38-.1-.25-.3-.44-.54-.54-.12-.05-.25-.08-.38-.08h-3.22c-.55,0-1,.45-1,1s.45,1,1,1h.81l-2.58,2.58-.96-1.62c-.15-.25-.4-.43-.69-.48-.29-.05-.59.03-.81.22l-3.19,2.66c-.42.35-.48.98-.13,1.41.35.42.98.48,1.41.13l2.29-1.9,1.01,1.72c.16.27.43.45.74.49.04,0,.08,0,.13,0,.26,0,.52-.1.71-.29l3.49-3.49Z"></path>
</svg>