<?xml version="1.0" encoding="UTF-8"?>
<svg id="OBJECT" xmlns="http://www.w3.org/2000/svg" viewBox="0 0 32 32">
  <path d="M30.83,13.74c-1.08-7.1-7.31-12.57-14.49-12.73-4.08-.12-7.92,1.43-10.83,4.27-2.91,2.85-4.51,6.65-4.51,10.72,0,1.44.21,2.88.63,4.29.13.42.52.71.96.71h2.05c1.1,0,2.11-.44,2.85-1.25.76-.83,1.14-1.96,1.04-3.1-.02-.24-.03-.48-.03-.73.02-1.96.91-3.91,2.43-5.34,1.53-1.43,3.55-2.18,5.5-2.07,3.96.23,7.06,3.51,7.06,7.49,0,.21,0,.42-.03.63-.1,1.15.29,2.29,1.05,3.12.74.8,1.75,1.25,2.84,1.25h2.04c.44,0,.83-.29.96-.71.64-2.14.79-4.35.46-6.55ZM21.97,8.62c-1.38-1.12-3.09-1.86-4.97-2.06v-3.51c2.78.22,5.37,1.35,7.42,3.11l-2.46,2.46ZM6.01,18.4c-.36.39-.85.6-1.38.6h-1.28c-.24-.99-.35-2-.35-3,0-.43.02-.85.06-1.26l3.47.61c-.01.18-.03.37-.04.55,0,.31,0,.62.04.92.05.58-.14,1.16-.52,1.57ZM6.9,13.38l-3.48-.62c.49-1.92,1.4-3.7,2.71-5.22l2.54,2.54c-.81.99-1.41,2.11-1.77,3.29ZM10.09,8.68l-2.54-2.54c2.11-1.81,4.69-2.88,7.45-3.1v3.53c-1.76.21-3.47.94-4.91,2.11ZM23.38,10.03l2.45-2.45c1.28,1.48,2.24,3.24,2.74,5.19l-3.46.61c-.36-1.23-.96-2.37-1.74-3.34ZM28.65,19h-1.28c-.53,0-1.01-.21-1.37-.6-.39-.42-.58-1-.53-1.6.02-.26.03-.53.03-.8,0-.22-.02-.44-.03-.66l3.46-.61c.14,1.43.06,2.86-.28,4.26Z"></path>
  <path d="M20.38,18.55l1.26-3.48c.27-.75.24-1.57-.1-2.29-.34-.73-.94-1.28-1.69-1.55-.75-.27-1.57-.24-2.29.1-.73.34-1.28.94-1.55,1.69l-1.51,4.15c-3.14.69-5.49,3.49-5.49,6.83,0,3.86,3.14,7,7,7s7-3.14,7-7c0-2.2-1.03-4.17-2.62-5.45ZM17.88,13.7c.09-.25.28-.45.52-.56.24-.11.51-.13.76-.03.52.19.79.76.6,1.28l-1.14,3.13c-.61-.25-1.27-.42-1.95-.48l1.21-3.33ZM16,29c-2.76,0-5-2.24-5-5s2.24-5,5-5,5,2.24,5,5-2.24,5-5,5Z"></path>
  <path d="M17.41,25.41c-.76.76-2.07.76-2.83,0-.39-.39-1.02-.39-1.41,0-.39.39-.39,1.02,0,1.41.76.76,1.76,1.17,2.83,1.17s2.07-.42,2.83-1.17c.39-.39.39-1.02,0-1.41-.39-.39-1.02-.39-1.41,0Z"></path>
</svg>