<?xml version="1.0" encoding="UTF-8"?>
<svg id="OBJECT" xmlns="http://www.w3.org/2000/svg" viewBox="0 0 32 32">
  <path d="M23.64,19.9c2.17-2.09,3.36-4.9,3.36-7.9s-1.34-6.12-3.67-8.21c-2.33-2.08-5.47-3.08-8.61-2.72-4.89.55-8.94,4.49-9.61,9.37-.49,3.55.7,7,3.26,9.47.41.39.63.91.63,1.45v3.65h-.5c-.55,0-1,.45-1,1s.45,1,1,1h2.5v1.5c0,1.38,1.12,2.5,2.5,2.5h5c1.38,0,2.5-1.12,2.5-2.5v-1.5h2.5c.55,0,1-.45,1-1s-.45-1-1-1h-.5v-3.64c0-.54.23-1.06.64-1.46ZM19,28.5c0,.28-.22.5-.5.5h-5c-.28,0-.5-.22-.5-.5v-1.5h6v1.5ZM11,25v-3.65c0-1.07-.45-2.13-1.24-2.89-2.1-2.02-3.07-4.85-2.67-7.75.55-3.98,3.85-7.2,7.85-7.65,2.61-.29,5.11.5,7.05,2.23,1.91,1.71,3.01,4.15,3.01,6.71s-.98,4.75-2.75,6.46c-.81.78-1.25,1.8-1.25,2.89v3.64h-10Z"></path>
  <path d="M2.54,13c.55,0,1-.45,1-1s-.45-1-1-1h-.54c-.55,0-1,.45-1,1s.45,1,1,1h.54Z"></path>
  <path d="M3.54,7.21l-.46-.3c-.46-.3-1.08-.17-1.38.3-.3.46-.17,1.08.3,1.38l.46.3c.17.11.36.16.54.16.33,0,.65-.16.84-.46.3-.46.17-1.08-.3-1.38Z"></path>
  <path d="M2.46,15.11l-.46.3c-.46.3-.6.92-.3,1.38.19.3.51.46.84.46.19,0,.37-.05.54-.16l.46-.3c.46-.3.6-.92.3-1.38s-.92-.6-1.38-.3Z"></path>
  <path d="M30,11h-.54c-.55,0-1,.45-1,1s.45,1,1,1h.54c.55,0,1-.45,1-1s-.45-1-1-1Z"></path>
  <path d="M29,9.05c.19,0,.37-.05.54-.16l.46-.3c.46-.3.6-.92.3-1.38s-.92-.6-1.38-.3l-.46.3c-.46.3-.6.92-.3,1.38.19.3.51.46.84.46Z"></path>
  <path d="M30.01,15.41l-.46-.3c-.46-.3-1.08-.17-1.38.3-.3.46-.17,1.08.3,1.38l.46.3c.17.11.36.16.54.16.33,0,.65-.16.84-.46.3-.46.17-1.08-.3-1.38Z"></path>
  <path d="M14.25,21h-.5c-.55,0-1,.45-1,1s.45,1,1,1h.5c.55,0,1-.45,1-1s-.45-1-1-1Z"></path>
  <path d="M18.25,21h-.5c-.55,0-1,.45-1,1s.45,1,1,1h.5c.55,0,1-.45,1-1s-.45-1-1-1Z"></path>
  <path d="M21,10h1c.55,0,1-.45,1-1s-.45-1-1-1h-2c-.55,0-1,.45-1,1v2c0,.55-.45,1-1,1h-1v-5h.5c.55,0,1-.45,1-1s-.45-1-1-1h-3c-.55,0-1,.45-1,1s.45,1,1,1h.5v5h-1c-.55,0-1-.45-1-1v-2c0-.55-.45-1-1-1h-2c-.55,0-1,.45-1,1s.45,1,1,1h1v1c0,1.65,1.35,3,3,3h1v3h-.5c-.55,0-1,.45-1,1s.45,1,1,1h3c.55,0,1-.45,1-1s-.45-1-1-1h-.5v-3h1c1.65,0,3-1.35,3-3v-1Z"></path>
</svg>