<?xml version="1.0" encoding="UTF-8"?>
<svg id="OBJECT" xmlns="http://www.w3.org/2000/svg" viewBox="0 0 32 32">
  <defs>
    
  </defs>
  <path class="cls-1" d="m27.5,24h-1.02c0-.08.02-.17.02-.25v-6.56c0-3.61-2.23-6.81-5.53-8.12.04-.26.08-.52.08-.79V3.99c0-1.65-1.34-2.99-2.99-2.99h-4.02c-1.65,0-2.99,1.34-2.99,2.99v4.3c0,.26.04.5.08.75-1.15.44-2.2,1.11-3.07,1.98-1.65,1.65-2.56,3.85-2.56,6.18v6.56c0,.08.02.17.02.25h-1.02c-1.93,0-3.5,1.57-3.5,3.5s1.57,3.5,3.5,3.5h23c1.93,0,3.5-1.57,3.5-3.5s-1.57-3.5-3.5-3.5ZM13.05,3.99c0-.55.44-.99.99-.99h4.02c.55,0,.99.44.99.99v4.3c0,1.65-1.35,3-3,3s-3-1.35-3-3V3.99Zm-5.55,13.2c0-1.8.7-3.49,1.98-4.76.66-.66,1.46-1.18,2.34-1.52.88,1.42,2.45,2.38,4.24,2.38s3.32-.93,4.21-2.33c2.52,1.02,4.23,3.47,4.23,6.23v6.56c0,.08-.01.17-.02.25h-2.98v-6.66c0-.55-.45-1-1-1s-1,.45-1,1v6.66h-7v-6.66c0-.55-.45-1-1-1s-1,.45-1,1v6.66h-2.98c0-.08-.02-.17-.02-.25v-6.56Zm4.23,11.81h-7.23c-.83,0-1.5-.67-1.5-1.5s.67-1.5,1.5-1.5h11.5c-.22.25-.47.52-.75.84-1.84,2.07-3.43,2.16-3.53,2.16Zm15.77,0h-11.58c.27-.25.55-.52.83-.84,1.26-1.42,1.74-1.88,1.9-2.02.08-.04.15-.09.21-.14h8.64c.83,0,1.5.67,1.5,1.5s-.67,1.5-1.5,1.5Z"></path>
</svg>