<?xml version="1.0" encoding="UTF-8"?>
<svg id="OBJECT" xmlns="http://www.w3.org/2000/svg" viewBox="0 0 32 32">
  <defs>
    
  </defs>
  <path class="cls-1" d="m14.5,22.5H5.5c-.55,0-1,.45-1,1s.45,1,1,1h9c.55,0,1-.45,1-1s-.45-1-1-1Z"></path>
  <path class="cls-1" d="m14.5,18.5h-5.5c-.55,0-1,.45-1,1s.45,1,1,1h5.5c.55,0,1-.45,1-1s-.45-1-1-1Z"></path>
  <path class="cls-1" d="m5.5,20.5h.5c.55,0,1-.45,1-1s-.45-1-1-1h-.5c-.55,0-1,.45-1,1s.45,1,1,1Z"></path>
  <path class="cls-1" d="m20.5,9.45h-2c-.55,0-1,.45-1,1s.45,1,1,1h2c.55,0,1-.45,1-1s-.45-1-1-1Z"></path>
  <path class="cls-1" d="m20.5,12.95h-2c-.55,0-1,.45-1,1s.45,1,1,1h2c.55,0,1-.45,1-1s-.45-1-1-1Z"></path>
  <path class="cls-1" d="m21.5,6.95c0-.55-.45-1-1-1h-5c-.55,0-1,.45-1,1s.45,1,1,1h5c.55,0,1-.45,1-1Z"></path>
  <path class="cls-1" d="m13.01,8.96c.01-.12.04-.24.04-.36v-1.6c0-1.38-1.12-2.5-2.5-2.5h-1.09c-1.38,0-2.5,1.12-2.5,2.5v1.6c0,.12.02.24.04.36-1.5.8-2.49,2.36-2.49,4.11v.83c0,1.38,1.12,2.5,2.5,2.5h6c1.38,0,2.5-1.12,2.5-2.5v-.83c0-1.75-.99-3.32-2.49-4.11Zm-4.05-1.96c0-.28.22-.5.5-.5h1.09c.28,0,.5.22.5.5v1.6c0,.5-.4.9-.9.9h-.28c-.5,0-.9-.4-.9-.9v-1.6Zm4.54,6.9c0,.27-.23.5-.5.5h-6c-.27,0-.5-.23-.5-.5v-.83c0-.99.56-1.88,1.4-2.34.52.47,1.2.77,1.95.77h.28c.75,0,1.44-.3,1.95-.77.85.46,1.4,1.35,1.4,2.34v.83Z"></path>
  <path class="cls-1" d="m28.29,17h-3.29V4c0-1.65-1.35-3-3-3H4c-1.65,0-3,1.35-3,3v21c0,1.65,1.35,3,3,3h13v.29c0,1.5,1.22,2.71,2.71,2.71h8.57c1.5,0,2.71-1.22,2.71-2.71v-8.57c0-1.5-1.22-2.71-2.71-2.71ZM4,26c-.55,0-1-.45-1-1V4c0-.55.45-1,1-1h18c.55,0,1,.45,1,1v13h-3.29c-1.5,0-2.71,1.22-2.71,2.71v6.29H4Zm25,2.29c0,.39-.32.71-.71.71h-8.57c-.39,0-.71-.32-.71-.71v-8.57c0-.39.32-.71.71-.71h8.57c.39,0,.71.32.71.71v8.57Z"></path>
  <path class="cls-1" d="m26.5,23h-1.5v-1.5c0-.55-.45-1-1-1s-1,.45-1,1v1.5h-1.5c-.55,0-1,.45-1,1s.45,1,1,1h1.5v1.5c0,.55.45,1,1,1s1-.45,1-1v-1.5h1.5c.55,0,1-.45,1-1s-.45-1-1-1Z"></path>
</svg>