<?xml version="1.0" encoding="UTF-8"?>
<svg id="OBJECT" xmlns="http://www.w3.org/2000/svg" viewBox="0 0 32 32">
  <path d="M27.87,5.48l-.49-.47c-1.59-1.52-3.76-2.3-5.94-2.14-1.71.12-3.25.79-4.46,1.89-.13-2.09-1.85-3.75-3.97-3.75h-1c-2.09,0-3.81,1.61-3.99,3.66-.87.53-1.55,1.35-1.9,2.31-3.08,1.31-5.11,4.57-5.11,8.28,0,2.5.96,4.85,2.64,6.54.1,2.44,1.97,4.42,4.36,4.7h0c0,2.49,2.02,4.51,4.5,4.51,1.5,0,2.82-.74,3.64-1.88,1.59-.03,3.1-.65,4.23-1.75l7.56-7.35c1.34-1.31,2.3-2.96,2.76-4.77.89-3.52-.19-7.27-2.82-9.78ZM15,26.5c0,1.38-1.12,2.5-2.5,2.5s-2.5-1.12-2.5-2.5v-2.5c0-.55-.45-1-1-1s-1,.45-1,1v.47c-1.35-.27-2.36-1.45-2.36-2.85,0-.03.02-.15.02-.18.02-.3-.1-.6-.33-.8-1.48-1.33-2.32-3.29-2.32-5.39,0-3,1.75-5.71,4.26-6.58.32-.11.57-.38.65-.72.19-.79.74-1.45,1.48-1.76.37-.16.61-.52.61-.92v-.27c0-1.1.9-2,2-2h1c1.1,0,2,.9,2,2v21.5ZM28.76,14.77c-.37,1.46-1.13,2.78-2.21,3.83l-7.56,7.35c-.57.55-1.27.9-2.03,1.07.02-.17.05-.33.05-.51V7.48c.27-.15.52-.35.73-.62.94-1.18,2.3-1.89,3.85-1.99,1.63-.11,3.24.47,4.43,1.6l.49.47c2.11,2.01,2.98,5.02,2.26,7.84Z"></path>
  <path d="M19.1,20.95l-.3.29c-.4.38-.41,1.02-.02,1.41.2.2.46.3.72.3s.5-.09.7-.28l.3-.29c.4-.38.41-1.02.02-1.41-.38-.4-1.02-.41-1.41-.02Z"></path>
  <path d="M24.96,7.54c-.4-.38-1.03-.37-1.41.03-.38.4-.37,1.03.03,1.41l.49.47c1.2,1.14,1.69,2.85,1.28,4.45-.21.83-.64,1.58-1.25,2.17l-2.59,2.52c-.4.38-.41,1.02-.02,1.41.2.2.46.3.72.3s.5-.09.7-.28l2.59-2.52c.88-.85,1.5-1.93,1.8-3.12.58-2.3-.13-4.75-1.84-6.39l-.49-.47Z"></path>
  <path d="M9,19.49c-.55,0-1,.45-1,1v.5c0,.55.45,1,1,1s1-.45,1-1v-.5c0-.55-.45-1-1-1Z"></path>
  <path d="M12.57,12.98c-.63.19-1.15.1-1.52-.04.53-1.2.64-2.34.55-3.09-.06-.55-.55-.94-1.1-.87-.55.06-.94.55-.88,1.1.01.14.3,3.37-3.62,4.99-.51.21-.75.8-.54,1.31.16.39.53.62.92.62.13,0,.26-.02.38-.08,1.44-.6,2.47-1.4,3.22-2.27.47.24,1.11.45,1.88.45.4,0,.83-.06,1.29-.19.53-.16.83-.71.67-1.24s-.72-.83-1.24-.67Z"></path>
</svg>