<?xml version="1.0" encoding="UTF-8"?>
<svg id="OBJECT" xmlns="http://www.w3.org/2000/svg" viewBox="0 0 32 32">
  <path d="M20.99,15.29c1.34-.31,2.36-1.46,2.49-2.86.97-1.04,1.52-2.44,1.52-3.92,0-2.71-1.79-4.97-4.14-5.42-.39-1.21-1.52-2.08-2.86-2.08-.77,0-1.47.29-2,.77-.53-.48-1.23-.77-2-.77-1.33,0-2.47.88-2.86,2.08-2.35.45-4.14,2.71-4.14,5.42,0,1.48.55,2.89,1.52,3.92.13,1.4,1.15,2.55,2.49,2.86.14,1.52,1.43,2.71,2.99,2.71.77,0,1.47-.29,2-.77.53.48,1.23.77,2,.77,1.56,0,2.84-1.19,2.99-2.71ZM14,16c-.55,0-1-.45-1-1v-.65c0-.28-.12-.56-.33-.75-.21-.19-.49-.28-.78-.25,0,0-.13.02-.13.02-.69,0-1.25-.56-1.25-1.18,0-.03.01-.1.01-.13.02-.3-.1-.6-.33-.8-.75-.68-1.19-1.68-1.19-2.76,0-1.93,1.35-3.5,3-3.5.55,0,1-.45,1-1s.45-1,1-1,1,.45,1,1v11c0,.55-.45,1-1,1ZM17,15V4c0-.55.45-1,1-1s1,.45,1,1,.45,1,1,1c1.65,0,3,1.57,3,3.5,0,1.08-.43,2.08-1.19,2.76-.23.2-.35.5-.33.8,0,.04,0,.1.01.06,0,.69-.56,1.25-1.23,1.25l-.15-.02c-.29-.03-.57.06-.78.25-.21.19-.33.46-.33.75v.65c0,.55-.45,1-1,1s-1-.45-1-1Z"></path>
  <path d="M28.13,11c-1.57,0-2.86,1.28-2.87,2.84l-.05,4.88c-.47-.27-.99-.41-1.54-.41-.82,0-1.61.36-2.17.97l-3.14,3.41c-.13.14-.22.32-.25.52l-1.09,6.64c-.05.29.03.59.22.81.19.22.47.35.76.35h8.48c.55,0,1-.45,1-1v-1.52l2.71-3.03c.52-.58.81-1.34.81-2.12v-9.46c0-1.58-1.29-2.87-2.87-2.87ZM29,23.33c0,.29-.11.57-.3.79l-2.97,3.31c-.16.18-.26.42-.26.67v.9h-6.3l.85-5.18,2.94-3.19c.19-.2.45-.32.72-.32.27,0,.54.1.73.3l.44.45-2.19,2.76c-.34.43-.27,1.06.16,1.4.43.34,1.06.27,1.4-.16l2.73-3.45c.14-.17.21-.39.22-.61l.07-7.15c0-.48.4-.86.87-.86s.87.39.87.87v9.46Z"></path>
  <path d="M13.64,22.69l-3.14-3.41c-.56-.6-1.35-.96-2.17-.97-.55,0-1.08.14-1.54.41l-.05-4.88c-.02-1.57-1.3-2.84-2.87-2.84s-2.87,1.29-2.87,2.87v9.46c0,.78.29,1.54.81,2.12l2.71,3.03v1.52c0,.55.45,1,1,1h8.48c.29,0,.57-.13.76-.35.19-.22.27-.52.22-.81l-1.09-6.64c-.03-.19-.12-.37-.25-.52ZM6.52,29v-.9c0-.25-.09-.48-.26-.67l-2.97-3.31c-.19-.22-.3-.5-.3-.79v-9.46c0-.48.39-.87.87-.87s.87.39.87.86l.07,7.15c0,.22.08.44.22.61l2.73,3.45c.34.43.97.51,1.4.16.43-.34.51-.97.16-1.4l-2.19-2.76.44-.45c.19-.2.44-.3.73-.3.28,0,.53.12.72.32l2.94,3.19.85,5.18h-6.3Z"></path>
  <path d="M20,9.5c.55,0,1-.45,1-1v-.5c0-.55-.45-1-1-1s-1,.45-1,1v.5c0,.55.45,1,1,1Z"></path>
  <path d="M12,7c-.55,0-1,.45-1,1v.5c0,.55.45,1,1,1s1-.45,1-1v-.5c0-.55-.45-1-1-1Z"></path>
</svg>