<?xml version="1.0" encoding="UTF-8"?>
<svg id="OBJECT" xmlns="http://www.w3.org/2000/svg" viewBox="0 0 32 32">
  <path d="M30,29h-.41l-9.59-17.26v-2.74h8c.32,0,.62-.15.81-.42.19-.26.24-.6.14-.9l-.89-2.68.89-2.68c.1-.31.05-.64-.14-.9-.19-.26-.49-.42-.81-.42h-9c-.55,0-1,.45-1,1v9.74l-5.33,9.59-1.83-2.87c-.37-.58-1.32-.58-1.69,0l-6.71,10.54h-.45c-.55,0-1,.45-1,1s.45,1,1,1h28c.55,0,1-.45,1-1s-.45-1-1-1ZM20,3h6.61l-.56,1.68c-.07.21-.07.43,0,.63l.56,1.68h-6.61V3ZM19,14.06l2.3,4.13-.58.8-.61-1.02c-.16-.27-.43-.44-.74-.48-.31-.04-.62.07-.83.3l-.42.43-.83-1.07,1.71-3.08ZM4.82,29l5.18-8.14,5.18,8.14H4.82ZM17.55,29l-3.66-5.75,2.34-4.21,1.02,1.31c.18.23.44.37.73.38.29.01.57-.09.77-.3l.31-.32.72,1.21c.17.29.48.47.82.49.01,0,.03,0,.04,0,.32,0,.62-.15.81-.41l.92-1.27,4.93,8.88h-9.75Z"></path>
  <path d="M8.75,27c0,.55.45,1,1,1h.5c.55,0,1-.45,1-1s-.45-1-1-1h-.5c-.55,0-1,.45-1,1Z"></path>
  <path d="M3.73,13.93h9.53c1.51,0,2.73-1.23,2.73-2.73,0-1.39-1.04-2.54-2.38-2.71-.31-1.16-1.31-2.04-2.53-2.17-.92-.85-2.16-1.32-3.46-1.32-2.39,0-4.38,1.56-4.81,3.62-1.06.38-1.82,1.39-1.82,2.58,0,1.51,1.23,2.73,2.73,2.73ZM3.73,10.47c.55,0,1-.45,1-1,0-1.36,1.3-2.47,2.9-2.47.89,0,1.73.36,2.29.98.2.22.46.34.79.33.05,0,.1,0,.06,0,.52,0,.95.42.95.92l-.02.13c-.03.28.06.56.25.78.19.21.46.33.74.33h.57c.4,0,.73.33.73.73s-.33.73-.73.73H3.73c-.4,0-.73-.33-.73-.73s.33-.73.73-.73Z"></path>
</svg>