<?xml version="1.0" encoding="UTF-8"?>
<svg id="OBJECT" xmlns="http://www.w3.org/2000/svg" viewBox="0 0 32 32">
  <defs>
    
  </defs>
  <path class="cls-1" d="m22,11.12h-1.61c-.55,0-1,.45-1,1v2.43c0,1.51-1.01,2.78-2.39,3.2v-7.5h.56c.55,0,1-.45,1-1s-.45-1-1-1h-3.13c-.55,0-1,.45-1,1s.45,1,1,1h.56v7.5c-1.38-.43-2.39-1.69-2.39-3.2v-2.43c0-.55-.45-1-1-1h-1.61c-.55,0-1,.45-1,1s.45,1,1,1h.61v1.43c0,2.62,1.9,4.8,4.39,5.27v1.94h-.56c-.55,0-1,.45-1,1s.45,1,1,1h3.13c.55,0,1-.45,1-1s-.45-1-1-1h-.56v-1.94c2.5-.47,4.39-2.65,4.39-5.27v-1.43h.61c.55,0,1-.45,1-1s-.45-1-1-1Z"></path>
  <path class="cls-1" d="m16,1C7.73,1,1,7.73,1,16s6.73,15,15,15,15-6.73,15-15S24.27,1,16,1Zm0,28c-7.17,0-13-5.83-13-13S8.83,3,16,3s13,5.83,13,13-5.83,13-13,13Z"></path>
  <path class="cls-1" d="m16,4.5c-6.34,0-11.5,5.16-11.5,11.5s5.16,11.5,11.5,11.5,11.5-5.16,11.5-11.5-5.16-11.5-11.5-11.5Zm0,21c-5.24,0-9.5-4.26-9.5-9.5s4.26-9.5,9.5-9.5,9.5,4.26,9.5,9.5-4.26,9.5-9.5,9.5Z"></path>
</svg>