<?xml version="1.0" encoding="UTF-8"?>
<svg id="OBJECT" xmlns="http://www.w3.org/2000/svg" viewBox="0 0 32 32">
  <defs>
    
  </defs>
  <path class="cls-1" d="m27,24h-10v-1.55h1.8c2.87,0,5.2-2.33,5.2-5.2v-.7c0-.55-.45-1-1-1h-2.8c-1.21,0-2.31.43-3.2,1.13v-3.25c1.1-.21,2.12-.77,2.92-1.63l2.84-3.04c1.65-1.77,1.65-4.64,0-6.4-.82-.88-1.93-1.37-3.11-1.37s-2.28.48-3.11,1.37l-.55.59-.55-.58c-.82-.88-1.93-1.37-3.11-1.37s-2.28.48-3.11,1.37c-1.65,1.77-1.65,4.64,0,6.4l2.84,3.04c.8.86,1.81,1.41,2.92,1.63v3.25c-.89-.7-1.99-1.13-3.2-1.13h-2.8c-.55,0-1,.45-1,1v.7c0,2.87,2.33,5.2,5.2,5.2h1.8v1.55H5c-.55,0-1,.45-1,1s.45,1,1,1h1.28l1.41,4.31c.13.41.52.69.95.69h14.73c.43,0,.82-.28.95-.69l1.41-4.31h1.28c.55,0,1-.45,1-1s-.45-1-1-1Zm-6.8-6.45h1.79c-.15,1.62-1.52,2.9-3.19,2.9h-1.79c.15-1.62,1.52-2.9,3.19-2.9Zm-7,2.9c-1.66,0-3.03-1.28-3.19-2.9h1.79c1.66,0,3.03,1.28,3.19,2.9h-1.79Zm.34-10.01l-2.84-3.04c-.93-.99-.93-2.67,0-3.67.44-.47,1.03-.73,1.65-.73s1.2.26,1.65.73l1.28,1.37c.38.4,1.08.4,1.46,0l1.28-1.37h0c.88-.94,2.41-.94,3.29,0,.93.99.93,2.67,0,3.67l-2.84,3.04c-1.31,1.41-3.6,1.41-4.92,0Zm9.1,18.56h-13.28l-.98-3h15.24l-.98,3Z"></path>
</svg>