<?xml version="1.0" encoding="UTF-8"?>
<svg id="OBJECT" xmlns="http://www.w3.org/2000/svg" viewBox="0 0 32 32">
  <path d="M9,7h4c.55,0,1,.45,1,1v3c0,.55.45,1,1,1s1-.45,1-1v-3c0-1.65-1.35-3-3-3h-4c-.55,0-1-.45-1-1s.45-1,1-1h11c.55,0,1-.45,1-1s-.45-1-1-1h-11c-1.65,0-3,1.35-3,3s1.35,3,3,3Z"></path>
  <path d="M18,5c-.55,0-1,.45-1,1s.45,1,1,1h1c.55,0,1,.45,1,1v3c0,.55.45,1,1,1s1-.45,1-1v-3c0-1.65-1.35-3-3-3h-1Z"></path>
  <path d="M23.5,3h.5c.55,0,1-.45,1-1s-.45-1-1-1h-.5c-.55,0-1,.45-1,1s.45,1,1,1Z"></path>
  <path d="M27,26c2.21,0,4-1.79,4-4v-2c0-2.21-1.79-4-4-4h-1.77c-.21-.77-.39-1.27-.43-1.36-.15-.39-.52-.64-.93-.64h-15.75c-.42,0-.79.26-.93.64-.14.36-3.03,8.22.74,14.36H2c-.55,0-1,.45-1,1s.45,1,1,1h28c.55,0,1-.45,1-1s-.45-1-1-1h-5.93c.6-.97,1.03-1.98,1.33-3h1.6ZM27,18c1.1,0,2,.9,2,2v2c0,1.1-.9,2-2,2h-1.16c.32-2.21.14-4.33-.16-6h1.32ZM23.92,20h-5.02c-.16-.5-.51-.93-1-1.17l-.89-.45v-2.38h6.15c.24.79.61,2.25.77,4ZM16,20.12l1,.5v3.38s-2,0-2,0v-3.38l1-.5ZM8.85,16h6.15v2.38l-.89.45c-.49.24-.84.67-1,1.17h-5.02c.16-1.75.53-3.21.77-4ZM10.37,29c-1.72-2.12-2.29-4.67-2.35-7h4.98v2c0,1.1.9,2,2,2h2c1.1,0,2-.9,2-2v-2h4.98c-.06,2.33-.63,4.88-2.35,7h-11.26Z"></path>
</svg>