<?xml version="1.0" encoding="UTF-8"?>
<svg id="OBJECT" xmlns="http://www.w3.org/2000/svg" viewBox="0 0 32 32">
  <path d="M30,20.82H10.66l-5.34-7.12c-.33-.44-.96-.53-1.4-.2l-1.7,1.27c-.65.49-1.08,1.21-1.19,2.01-.12.81.09,1.62.58,2.27l5.03,6.71c.58.77,1.5,1.23,2.47,1.23h.73l-.89,2.69c-.17.52.11,1.09.64,1.26.1.04.21.05.31.05.42,0,.81-.27.95-.69l1.09-3.31h11.91l1.09,3.31c.14.42.53.69.95.69.1,0,.21-.02.31-.05.52-.17.81-.74.64-1.26l-.89-2.69h1.97c1.69,0,3.06-1.37,3.06-3.06v-2.12c0-.55-.45-1-1-1ZM29,23.94c0,.58-.47,1.06-1.06,1.06H9.11c-.34,0-.67-.16-.87-.43l-5.03-6.71c-.17-.23-.24-.5-.2-.78s.19-.53.41-.7l.9-.67,5.04,6.72c.19.25.49.4.8.4h18.84v1.12Z"></path>
  <path d="M28,1h-14c-1.65,0-3,1.35-3,3v11c0,1.65,1.35,3,3,3h14c1.65,0,3-1.35,3-3V4c0-1.65-1.35-3-3-3ZM29,15c0,.55-.45,1-1,1h-14c-.55,0-1-.45-1-1V4c0-.55.45-1,1-1h14c.55,0,1,.45,1,1v11Z"></path>
  <path d="M27,5.5h-2c-.55,0-1,.45-1,1v2c0,.55-.45,1-1,1h-1v-4h.5c.55,0,1-.45,1-1s-.45-1-1-1h-3c-.55,0-1,.45-1,1s.45,1,1,1h.5v4h-1c-.55,0-1-.45-1-1v-2c0-.55-.45-1-1-1h-2c-.55,0-1,.45-1,1s.45,1,1,1h1v1c0,1.65,1.35,3,3,3h1v2h-.5c-.55,0-1,.45-1,1s.45,1,1,1h3c.55,0,1-.45,1-1s-.45-1-1-1h-.5v-2h1c1.65,0,3-1.35,3-3v-1h1c.55,0,1-.45,1-1s-.45-1-1-1Z"></path>
</svg>